<svg width="503" height="500" viewBox="0 0 503 500" fill="none" xmlns="http://www.w3.org/2000/svg">
<path d="M462.11 170.894L466.827 167.23L474.828 163.357L477.135 163.345L479.359 161.993L486.634 162.338L492.393 164.799L496.552 168.034L497.612 169.178L500.171 173.188L502.794 183.519L501.277 185.634L502.421 188.119L501.053 197.896L499.806 199.052L499.974 201.733L498.894 205.57L497.378 207.685L496.028 212.481L494.326 216.896L491.646 221.508L485.933 230.35L479.243 239.388L473.716 245.93L459.379 259.223L449.321 267.129L445.851 269.638L432.239 278.712L425.214 282.388L414.636 287.232L414.738 283.592L416.088 278.795L417.604 276.68L416.46 274.196L417.707 273.04L417 272.277L417.809 269.4L417.828 264.419L418.368 262.5L417.307 261.356L418.201 259.819L416.433 257.912L417.68 256.757L414.852 253.706L416.908 249.672L420.025 246.783L420.732 247.545L424.742 243.118L429.106 239.073L435.256 231.953L437.312 227.919L439.182 226.185L438.745 224.464L441.425 219.852L440.634 217.749L442.69 213.715L445.305 202.782L445.761 199.523L446.571 196.645L448.441 194.912L447.297 192.427L453.196 181.285L457.476 175.899L459.97 173.587L462.11 170.894Z" fill="#2D3128"/>
<path fill-rule="evenodd" clip-rule="evenodd" d="M290.954 7.24861L294.887 8.06801L297.754 7.6394L304.519 8.62163L314.718 9.20781L317.585 8.7792L317.517 9.96208L318.684 9.43577L326.05 9.85912L327.716 10.5483L331.716 10.1848L351.547 11.3246L355.479 12.144L359.479 11.7805L362.811 13.1588L365.111 12.6976L376.976 13.9729L379.775 14.7272L380.942 14.2009L386.54 15.7094L393.271 17.2831L400.535 19.4808L403.833 21.4505L407.765 22.2699L407.697 23.4528L412.196 24.3047L415.493 26.2745L420.956 30.1488L423.052 33.2362L426.848 36.4214L428.378 39.4763L429.477 40.1329L429.307 43.0901L430.441 43.1552L431.97 46.2101L433.897 52.2548L434.429 52.8788L434.259 55.836L435.925 56.5251L436.356 58.9235L436.254 60.6978L437.081 66.0859L437.773 73.8397L437.897 81.561L438.328 83.9594L438.475 101.176L437.081 125.425L436.413 127.167L436.742 131.34L436.266 139.62L436.764 140.835L435.926 145.534L436.322 148.524L435.484 153.223L435.246 157.363L434.509 160.288L434.974 162.095L434.702 166.826L435.201 168.042L434.294 173.924L433.659 175.074L433.988 179.247L433.41 189.301L432.277 189.236L432.141 191.602L433.274 191.667L433.206 192.85L432.039 193.376L433.036 195.807L432.764 200.538L431.631 200.473L433.195 202.937L431.858 206.42L432.322 208.227L432.152 211.184L432.05 212.959L431.677 219.464L431.076 220.023L431.937 224.82L430.6 228.304L430.963 231.885L429.886 240.724L429.682 244.272L429.546 246.638L429.773 252.585L429.036 255.51L427.858 266.123L427.416 273.812L427.813 276.802L427.178 277.952L427.575 280.942L426.872 283.275L425.864 290.931L424.73 290.866L425.025 295.63L423.484 302.662L423.416 303.845L423.187 307.831L421.01 311.713L418.08 317.554L413.858 322.878L409.523 327.969L403.585 332.375L400.718 332.804L400.049 334.545L398.916 334.48L398.848 335.663L394.814 336.618L393.545 338.919L394.009 340.726L395.675 341.415L395.607 342.598L396.74 342.663L397.67 346.277L398.803 346.342L398.735 347.525L400.401 348.214L403.528 353.141L407.891 356.358L407.789 358.133L410.022 358.854L409.954 360.037L415.518 362.137L415.45 363.32L418.781 364.698L418.713 365.881L420.447 365.388L424.277 367.981L431.507 370.77L434.805 372.74L439.304 373.592L448.732 377.694L450.896 379.599L453.627 381.536L453.559 382.719L455.758 384.032L458.421 387.152L459.418 389.583L461.016 391.455L461.481 393.262L462.58 393.919L461.945 395.069L462.41 396.876L462.806 399.866L462.331 408.146L459.724 413.93L457.288 416.757L456.619 418.499L448.347 423.957L442.545 425.997L439.678 426.426L435.111 426.757L424.946 425.579L416.051 422.101L408.356 417.505L405.625 415.568L400.696 412.317L394.735 407.228L392.038 404.699L392.106 403.516L389.908 402.203L388.31 400.331L388.412 398.557L385.647 397.211L385.715 396.028L384.581 395.963L382.519 392.284L378.757 388.507L376.762 383.646L376.298 381.839L375.164 381.774L373.669 378.127L371.606 374.448L369.578 370.178L366.087 361.67L364.694 356.249L363.232 352.011L362.869 348.43L361.373 344.784L360.342 342.944L355.175 343.834L352.874 344.295L348.942 343.476L347.775 344.002L344.976 343.248L344.239 346.173L344.534 350.937L345.667 351.002L345.962 355.766L347.095 355.831L347.526 358.229L348.953 363.059L354.37 377.611L355.9 380.666L357.464 383.13L357.362 384.904L358.495 384.969L361.555 391.079L365.782 396.663L365.714 397.845L366.847 397.911L367.81 400.933L368.943 400.998L368.841 402.772L369.974 402.838L369.906 404.02L371.04 404.086L371.47 406.484L373.669 407.797L375.199 410.852L376.298 411.508L377.295 413.939L378.927 415.22L380.921 420.082L383.516 424.385L384.412 428.59L386.338 434.635L385.828 443.506L384.389 448.764L383.256 448.699L381.919 452.182L380.083 454.45L378.95 454.385L377.68 456.686L376.445 458.395L368.343 460.896L361.51 461.097L352.546 458.802L348.115 456.767L341.554 452.236L340.455 451.579L340.523 450.397L338.324 449.083L334.029 444.683L330.335 439.723L326.176 432.957L324.578 431.085L323.151 426.256L323.253 424.481L322.119 424.416L322.221 422.642L321.088 422.577L318.232 412.918L316.737 409.272L314.482 399.055L313.292 390.085L312.464 384.697L312.872 377.6L311.739 377.535L312.079 371.62L311.354 364.458L311.762 357.361L310.866 353.155L311.807 346.682L311.342 344.875L312.011 343.134L310.878 343.068L310.946 341.885L308.045 342.906L304.112 342.086L302.945 342.612L296.713 342.254L292.712 342.618L291.874 347.317L292.168 352.081L291.863 357.404L292.089 363.351L291.953 365.716L293.052 366.373L292.917 368.739L291.749 369.265L292.078 373.438L293.143 374.686L293.37 380.633L294.265 384.838L294.197 386.021L294.99 392L295.319 396.173L296.418 396.83L297.245 402.218L298.707 406.456L299.104 409.445L300.203 410.102L301.03 415.49L303.354 424.524L303.784 426.923L305.212 431.752L305.937 438.914L305.427 447.786L303.886 454.818L302.753 454.753L301.983 458.269L300.713 460.57L299.58 460.505L298.277 463.397L294.107 466.717L293.472 467.868L292.339 467.803L291.138 468.92L288.271 469.349L284.803 470.336L276.871 469.88L269.675 466.5L265.312 463.282L265.38 462.099L263.148 461.378L263.25 459.603L261.051 458.29L261.153 456.516L258.955 455.203L255.895 449.093L255.068 443.705L253.935 443.64L253.039 439.434L252.745 434.67L252.212 434.046L251.26 420.937L251.203 412.033L251.011 405.494L251.781 401.978L251.385 398.988L252.189 394.881L252.631 387.192L253.402 383.676L254.014 373.03L254.784 369.514L255.362 359.46L256.303 352.986L257.447 342.964L256.948 341.749L257.583 340.599L251.951 339.682L250.852 339.025L250.217 340.175L250.285 338.992L249.152 338.927L248.517 340.078L244.585 339.258L237.219 338.835L236.12 338.178L235.576 347.641L236.075 348.857L236.37 353.621L235.69 365.45L236.052 369.031L235.746 374.354L235.939 380.892L236.336 383.882L235.531 387.99L236.63 388.646L235.894 391.571L235.554 397.485L236.415 402.282L235.044 406.357L234.171 411.647L234.67 412.863L233.197 418.712L232.256 425.185L231.52 428.11L228.642 438.626L224.732 447.302L222.194 451.903L221.06 451.838L220.924 454.204L215.519 459.234L211.349 462.554L207.915 462.95L207.281 464.101L203.213 465.647L195.813 465.815L187.982 463.585L183.619 460.367L180.956 457.247L177.33 451.105L176.435 446.899L175.948 435.597L177.693 425.016L178.826 425.081L178.996 422.124L180.367 418.049L181.07 415.716L183.642 410.523L184.979 407.04L186.951 402.406L188.152 401.288L188.957 397.181L192.096 392.02L193.535 386.763L194.804 384.462L196.277 378.613L198.623 367.473L199.994 363.398L201.444 348.053L202.691 336.257L202.09 336.816L200.39 336.718L192.458 336.262L190.225 335.54L189.126 334.884L188.492 336.034L187.392 335.378L185.659 335.871L182.894 334.526L183.256 338.107L182.406 352.893L181.738 354.635L180.593 364.657L179.46 364.591L179.857 367.581L176.843 380.463L175.369 386.312L172.627 394.462L170.621 399.687L169.318 402.579L167.414 406.03L165.941 411.879L163.539 414.115L162.802 417.04L161.069 417.533L159.731 421.017L157.227 425.027L154.791 427.854L153.623 428.38L153.555 429.563L151.754 431.239L147.515 435.743L146.382 435.678L146.314 436.861L143.345 439.064L142.711 440.214L137.509 441.695L136.841 443.437L133.339 445.016L130.506 444.853L129.838 446.595L127.005 446.432L124.704 446.893L118.438 447.126L111.14 445.52L111.208 444.337L107.275 443.518L103.479 440.333L103.547 439.15L102.414 439.085L98.8217 432.351L97.9945 426.963L98.6403 415.725L100.612 411.092L101.745 411.157L102.55 407.049L104.42 404.19L105.553 404.255L106.255 401.922L107.389 401.987L107.491 400.212L108.624 400.278L109.927 397.385L112.363 394.559L116.601 390.055L118.471 387.195L120.273 385.519L121.406 385.584L121.474 384.401L123.877 382.166L124.511 381.015L125.644 381.08L125.712 379.898L126.846 379.963L126.948 378.188L128.115 377.662L130.619 373.652L131.752 373.717L131.854 371.943L132.988 372.008L133.724 369.083L135.458 368.59L136.194 365.665L137.328 365.73L138.064 362.806L139.197 362.871L138.767 360.472L142.472 355.345L143.141 353.603L145.181 347.786L147.787 342.002L149.192 337.336L150.631 332.078L147.198 332.474L144.965 331.752L139.9 330.868L139.265 332.018L138.767 330.803L137.599 331.329L134.268 329.951L133.169 329.294L130.256 340.401L128.987 342.702L127.616 346.777L126.483 346.712L124.477 351.937L117.531 363.999L111.989 371.395L110.72 373.695L109.587 373.63L108.318 375.931L106.584 376.425L105.915 378.166L104.782 378.101L104.08 380.434L101.643 383.261L96.9064 386.549L91.5011 391.579L87.3989 393.717L82.6281 397.597L76.2595 399.604L68.6897 402.729L63.5223 403.619L62.3551 404.146L49.2553 404.579L45.3231 403.76L40.8922 401.725L34.8296 398.41L34.8976 397.227L32.6992 395.914L30.5687 393.418L30.6707 391.643L28.4723 390.33L26.4778 385.468L25.7185 378.897L25.9905 374.166L27.9622 369.532L28.0302 368.349L29.1634 368.414L29.2654 366.64L30.9652 366.738L30.5346 364.339L32.937 362.104L34.1042 361.578L34.1722 360.395L35.3054 360.46L35.3733 359.277L37.7417 357.633L40.0081 357.763L40.0761 356.58L44.7789 353.884L51.1135 352.467L55.1817 350.921L58.5813 351.117L58.6493 349.934L63.8167 349.044L69.6187 347.004L77.1885 343.878L84.8262 339.57L86.594 338.485L87.8632 336.184L89.563 336.282L89.631 335.099L91.9654 334.047L94.4358 330.628L96.7022 330.759L96.2715 328.36L97.5067 326.651L98.6399 326.716L98.7079 325.533L99.8411 325.598L99.9431 323.824L101.711 322.739L101.246 320.932L99.0479 319.619L92.4866 315.088L88.985 316.667L87.7838 317.785L84.9508 317.622L84.8828 318.805L72.1796 322.228L67.6128 322.559L64.1452 323.547L59.0458 323.254L56.7114 324.306L51.0794 323.389L42.6143 322.309L38.7161 320.898L33.6847 319.422L28.7552 316.172L26.5228 315.45L22.126 312.824L22.194 311.641L19.9616 310.92L15.6327 307.11L10.8392 301.494L6.14773 294.104L5.1165 292.265L5.21848 290.49L4.08528 290.425L1.22956 280.767L0.50428 273.604L0.776228 268.873L1.41082 267.722L2.21537 263.615L3.51854 260.723L4.18712 258.981L5.32033 259.046L5.42231 257.272L6.55551 257.337L7.82469 255.036L13.1961 250.598L18.3295 250.299L25.1287 250.69L30.1601 252.166L34.557 254.793L37.22 257.913L41.5488 261.722L42.5461 264.153L45.2091 267.273L47.9062 269.801L47.8382 270.984L48.9714 271.049L51.6344 274.169L53.1982 276.633L53.1303 277.816L55.9293 278.57L55.8613 279.753L58.0937 280.475L64.7569 283.231L67.556 283.985L69.2898 283.492L72.0548 284.837L74.3892 283.785L76.6556 283.915L75.2617 278.494L74.6384 269.558L74.9104 264.826L74.6837 258.879L75.5902 252.997L75.2276 249.416L75.9642 246.491L75.7375 240.544L76.0094 235.813L75.6808 231.64L76.4853 227.533L76.1567 223.36L76.7573 222.801L77.1652 215.704L76.9385 209.757L77.6411 207.424L77.2445 204.434L78.185 197.961L77.7544 195.562L78.7629 187.906L77.8337 184.292L78.5362 181.959L78.0716 180.152L78.5475 171.872L79.658 162.442L79.6353 152.946L80.3719 150.021L80.7458 143.515L79.6466 142.859L79.7486 141.085L81.0178 138.784L81.2897 134.052L80.8251 132.246L81.9696 122.224L81.5729 119.234L81.7769 115.685L82.9101 115.75L82.2188 107.996L82.8534 106.846L83.1933 100.932L82.7967 97.9419L83.9299 98.0071L83.5333 95.0173L84.4058 89.7269L83.9412 87.92L84.8137 82.6296L84.3491 80.8227L85.5163 80.2964L85.2216 75.5323L86.6948 69.683L86.2641 67.2847L87.9413 57.8868L89.0745 57.9519L88.8478 52.0049L89.6183 48.4889L90.7516 48.554L90.4909 43.1985L91.6581 42.6721L92.5306 37.3817L93.2332 35.0485L94.3664 35.1137L95.7036 31.6302L97.6413 27.5878L97.7093 26.4049L98.8765 25.8786L101.381 21.8688L103.115 21.375L103.817 19.0418L106.254 16.2149L109.721 15.2274L109.789 14.0445L112.69 13.0244L113.359 11.2827L117.359 10.9192L117.461 9.14489L122.662 7.66365L124.43 6.57847L132.997 5.88407L133.632 4.73376L134.799 4.20745L141.066 3.97423L143.933 3.54562L147.366 3.14957L154.165 3.54036L155.933 2.45517L159.933 2.09169L166.132 3.04136L168.999 2.61274L174.699 2.34696L175.866 1.82065L177.532 2.50979L180.399 2.08118L183.198 2.83545L193.431 2.83019L199.63 3.77985L205.862 4.13807L208.729 3.70946L214.429 3.44368L218.928 4.29564L222.894 4.52361L223.993 5.18018L224.061 3.9973L227.994 4.8167L240.493 4.9417L242.125 6.22228L243.326 5.10453L277.322 7.05847L280.121 7.81274L281.855 7.319L289.221 7.74235L290.954 7.24861ZM244.436 25.3438L247.371 23.7323L249.071 23.83L251.27 25.1431L255.27 24.7797L259.769 25.6316L260.936 25.1053L265.469 25.3658L268.268 26.1201L278.501 26.1148L280.2 26.2125L285.866 26.5382L291.498 27.4553L300.598 27.3849L305.629 28.8609L305.697 27.678L307.998 27.2168L308.496 28.4323L310.763 28.5625L310.695 29.7454L313.029 28.6928L316.995 28.9208L319.862 28.4921L320.361 29.7076L321.528 29.1813L324.894 29.9681L324.826 31.151L325.959 31.2161L326.027 30.0333L328.362 28.9806L333.461 29.2737L335.161 29.3714L335.659 30.5869L339.093 30.1908L343.025 31.0102L348.125 31.3033L349.824 31.401L352.057 32.1227L358.323 31.8895L360.023 31.9872L361.689 32.6763L366.788 32.9694L367.888 33.626L373.554 33.9517L378.585 35.4276L383.719 35.1293L387.617 36.5401L389.883 36.6704L390.948 37.9184L395.447 38.7704L400.445 40.8378L404.309 42.8401L408.638 46.6492L410.236 48.5213L412.933 51.0498L413.295 54.6311L414.428 54.6962L415.46 56.5356L416.321 61.3323L417.42 61.9889L418.383 65.0112L418.644 70.3667L420.536 77.0029L420.299 81.1429L421.16 85.9396L419.993 86.4659L419.925 87.6488L421.058 87.7139L420.956 89.4882L419.789 90.0146L420.786 92.4455L420.469 107.855L419.335 107.79L419.834 109.006L419.528 114.329L419.789 119.684L418.916 124.975L418.236 136.804L418.633 139.793L417.455 150.407L416.684 153.923L417.817 153.988L417.273 163.451L417.137 165.817L418.236 166.473L417.069 167L417.364 171.764L416.661 174.097L415.54 193.614L415.97 196.013L415.234 198.937L414.962 203.669L413.795 204.195L414.293 205.411L414.52 211.358L413.353 211.884L413.851 213.099L413.341 221.971L413.806 223.778L413.171 224.928L412.899 229.66L412.888 239.747L412.22 241.489L412.514 246.253L411.472 254.5L410.69 268.103L409.851 272.802L409.545 278.125L410.01 279.932L408.571 285.19L408.299 289.922L407.698 290.481L408.797 291.137L407.63 291.663L407.528 293.438L406.361 293.964L406.259 295.738L405.557 298.072L404.684 303.362L399.743 310.199L396.74 312.993L389.635 317.925L383.233 320.524L380.932 320.985L375.164 322.434L370.031 322.732L365.43 323.655L360.897 323.394L359.73 323.921L356.364 323.134L352.33 324.089L348.33 324.452L336.998 323.801L331.298 324.067L328.499 323.312L325.065 323.708L323.365 323.611L299.568 322.243L297.834 322.737L295.602 322.015L286.502 322.085L276.87 321.532L262.739 320.126L262.671 321.309L261.572 320.652L253.073 320.164L245.741 319.149L246.206 320.956L244.007 319.643L238.341 319.317L236.109 318.596L232.675 318.992L222.476 318.405L214.011 317.326L208.311 317.591L203.812 316.739L197.58 316.381L195.313 316.251L185.115 315.665L184.049 314.417L183.415 315.567L181.148 315.437L179.449 315.339L177.182 315.209L172.615 315.54L172.117 314.324L166.383 315.181L165.284 314.525L157.351 314.069L153.986 313.282L151.119 313.711L148.886 312.989L146.053 312.826L138.087 312.962L138.155 311.779L126.358 309.321L122.46 307.91L118.528 307.09L116.295 306.369L110.165 304.236L109.666 303.021L106.334 301.642L102.572 297.866L102.141 295.467L100.442 295.37L99.4104 293.53L98.4811 289.917L97.3819 289.26L96.4187 286.238L95.3195 285.581L94.9908 281.408L93.0643 275.364L93.8009 272.439L92.6677 272.374L93.6762 264.718L93.1776 263.502L92.5883 253.974L92.8262 249.834L92.3616 248.027L93.0642 245.694L92.7016 242.113L93.4041 239.78L92.9395 237.973L93.5401 237.414L94.3107 233.898L93.88 231.499L94.4239 222.036L92.7921 220.756L93.9593 220.229L95.0698 210.799L94.9791 202.486L95.8969 186.517L95.4663 184.119L96.6335 183.593L96.2029 181.194L96.5088 175.871L97.676 175.345L96.6788 172.914L96.8148 170.548L97.3926 160.494L98.5258 160.559L98.1972 156.386L97.6986 155.171L97.8685 152.214L99.1037 150.505L98.1065 148.074L98.8771 144.558L98.3784 143.342L99.5456 142.816L99.047 141.6L98.9223 133.879L99.2963 127.373L98.7977 126.158L100.305 119.717L100.01 114.953L101.143 115.018L100.316 109.63L100.69 103.124L101.257 103.157L101.733 94.8765L102.435 92.5433L102.038 89.5536L102.344 84.2306L103.512 83.7043L103.115 80.7145L103.183 79.5316L103.92 76.607L104.758 71.908L104.395 68.3268L107.172 59.5855L106.039 59.5203L107.206 58.994L107.478 54.2625L109.483 49.0372L111.523 43.2205L112.656 43.2856L113.427 39.7696L114.594 39.2432L114.662 38.0604L115.863 36.9426L117.166 34.0505L120.77 30.6973L124.872 28.5595L127.309 25.7325L131.875 25.4016L138.811 23.4267L146.278 22.0757L148.511 22.7974L155.378 22.0053L161.611 22.3635L162.778 21.8372L166.177 22.0326L171.311 21.7343L177.509 22.6839L177.577 21.501L178.076 22.7165L179.243 22.1902L188.309 22.7112L189.941 23.9918L190.043 22.2175L192.275 22.9392L195.743 21.9517L199.074 23.33L203.675 22.4076L208.208 22.6681L212.106 24.079L212.174 22.8961L212.673 24.1115L215.574 23.0915L222.373 23.4823L224.639 23.6125L225.739 24.2691L230.305 23.9382L236.538 24.2964L238.838 23.8352L243.303 25.2787L243.371 24.0958L244.436 25.3438Z" fill="#D75222"/>
<path d="M224.946 107.299L226.612 107.988L225.977 109.138L228.243 109.269L228.311 108.086L230.51 109.399L229.377 109.334L229.309 110.517L232.776 109.529L233.411 108.379L233.343 109.562L243.009 109.524L247.009 109.16L246.907 110.935L250.907 110.571L255.474 110.24L258.273 110.994L258.874 110.436L274.172 111.315L275.906 110.821L281.538 111.738L282.705 111.212L282.637 112.395L283.804 111.869L289.47 112.194L292.337 111.766L297.403 112.65L304.236 112.449L305.868 113.73L306.502 112.58L307.035 113.204L311.602 112.873L314.967 113.66L316.701 113.166L318.934 113.888L322.367 113.492L326.299 114.311L326.934 113.161L329.699 114.506L332.498 115.261L333.133 114.11L334.232 114.767L342.731 115.255L343.796 116.503L347.162 117.29L351.06 118.701L354.392 120.079L358.788 122.706L360.454 123.395L360.386 124.578L363.219 124.74L365.282 128.419L367.979 130.948L372.172 137.123L373.701 140.178L374.733 142.017L374.597 144.383L375.73 144.448L377.124 149.869L376.988 152.235L378.121 152.3L378.28 159.43L378.71 161.828L379.073 165.409L378.438 166.559L378.098 172.474L377.43 174.216L377.158 178.947L375.084 185.355L372.512 190.548L371.243 192.849L371.741 194.064L369.339 196.3L368.704 197.45L367.571 197.385L366.302 199.685L364.5 201.362L363.367 201.297L362.664 203.63L359.729 205.242L358.494 206.951L356.76 207.444L356.126 208.595L352.058 210.141L347.389 212.246L345.689 212.149L345.02 213.89L341.02 214.254L336.952 215.8L327.818 216.462L312.486 216.174L298.321 215.36L295.454 215.789L288.655 215.398L286.989 214.709L286.354 215.859L281.856 215.007L278.955 216.027L274.751 219.939L272.45 220.401L270.716 220.894L268.915 222.571L266.614 223.032L265.413 224.15L261.345 225.696L251.645 226.325L245.979 226L242.046 225.18L234.782 222.983L233.083 222.885L233.151 221.702L230.386 220.356L224.89 217.074L222.125 215.728L221.093 213.888L219.462 212.608L216.696 211.262L214.396 211.723L210.532 209.721L209.897 210.871L209.965 209.688L208.231 210.182L203.733 209.33L188.468 207.86L183.369 207.566L181.669 207.469L178.904 206.123L178.27 207.273L177.136 207.208L177.204 206.025L173.771 206.421L168.705 205.537L163.674 204.061L163.742 202.878L159.243 202.026L153.679 199.926L153.747 198.743L152.013 199.237L147.084 195.987L147.152 194.804L144.319 194.641L138.993 188.401L134.233 182.193L129.712 171.846L130.38 170.104L129.247 170.039L129.02 164.092L127.989 162.252L127.796 155.714L128.93 155.779L128.669 150.424L128.17 149.208L129.304 149.273L128.941 145.692L130.074 145.757L129.61 143.95L131.819 135.176L133.791 130.543L134.029 126.402L135.128 127.059L135.797 125.317L136.93 125.382L137.565 124.232L142.471 117.987L144.205 117.493L147.242 114.107L149.576 113.055L151.979 110.819L157.18 109.338L163.549 107.33L165.849 106.869L166.948 107.526L167.583 106.375L175.549 106.24L178.382 106.403L179.017 105.252L178.949 106.435L184.649 106.17L190.882 106.528L193.148 106.658L198.213 107.543L202.248 106.588L205.047 107.342L223.178 108.384L225.41 109.106L224.946 107.299Z" fill="#2D3128"/>
<path d="M151.799 331.552L152.297 332.767L153.43 332.832L154.065 331.682L160.864 332.073L171.029 333.25L173.862 333.413L174.361 334.629L177.228 334.2L177.794 334.233L180.061 334.363L182.327 334.493L182.259 335.676L183.392 335.741L182.406 352.893L181.738 354.635L180.593 364.657L179.46 364.591L179.857 367.581L176.843 380.463L175.369 386.312L172.627 394.462L170.621 399.687L169.318 402.579L167.414 406.03L165.941 411.879L163.539 414.115L162.802 417.04L161.069 417.533L159.731 421.017L157.227 425.027L154.791 427.854L153.623 428.38L153.555 429.563L151.754 431.239L147.516 435.743L146.382 435.678L146.314 436.861L143.345 439.064L142.711 440.214L137.509 441.695L136.841 443.437L133.339 445.016L130.506 444.853L129.838 446.595L127.005 446.432L124.704 446.893L118.438 447.126L111.14 445.52L111.208 444.337L107.276 443.518L103.479 440.333L103.547 439.15L102.414 439.085L98.8218 432.351L97.9945 426.963L98.6404 415.725L100.612 411.092L101.745 411.157L102.55 407.049L104.42 404.19L105.553 404.255L106.255 401.922L107.389 401.987L107.491 400.212L108.624 400.278L109.927 397.385L112.363 394.558L116.602 390.055L118.471 387.195L120.273 385.519L121.406 385.584L121.474 384.401L123.877 382.166L124.511 381.015L125.644 381.08L125.712 379.897L126.846 379.963L126.948 378.188L128.115 377.662L130.619 373.652L131.752 373.717L131.854 371.943L132.988 372.008L133.724 369.083L135.458 368.59L136.194 365.665L137.328 365.73L138.064 362.806L139.197 362.871L138.767 360.472L142.472 355.345L143.141 353.603L145.181 347.786L147.787 342.002L149.192 337.336L150.631 332.078L151.799 331.552Z" fill="#2E3128"/>
<path d="M258.252 338.857L260.518 338.987L261.017 340.203L263.317 339.741L267.884 339.411L270.15 339.541L271.816 340.23L276.95 339.932L280.882 340.751L288.248 341.174L289.913 341.863L290.548 340.713L292.214 341.402L291.874 347.317L292.169 352.081L291.863 357.404L292.089 363.351L291.953 365.716L293.053 366.373L292.917 368.739L291.749 369.265L292.078 373.438L293.143 374.686L293.37 380.633L294.265 384.838L294.197 386.021L294.99 392L295.319 396.173L296.418 396.83L297.246 402.218L298.707 406.456L299.104 409.445L300.203 410.102L301.03 415.49L303.354 424.524L303.784 426.923L305.212 431.752L305.937 438.914L305.427 447.786L303.886 454.818L302.753 454.753L301.983 458.269L300.713 460.57L299.58 460.505L298.277 463.397L294.107 466.717L293.472 467.868L292.339 467.803L291.138 468.92L288.271 469.349L284.803 470.336L276.871 469.88L269.675 466.5L265.312 463.282L265.38 462.099L263.148 461.378L263.25 459.603L261.051 458.29L261.153 456.516L258.955 455.203L255.895 449.093L255.068 443.705L253.935 443.64L253.039 439.434L252.745 434.67L252.212 434.046L251.26 420.937L251.204 412.033L251.011 405.494L251.781 401.978L251.385 398.988L252.189 394.881L252.631 387.192L253.402 383.676L254.014 373.03L254.784 369.514L255.362 359.46L256.303 352.986L257.447 342.964L257.549 341.19L258.184 340.04L257.085 339.383L258.252 338.857Z" fill="#2E3128"/>
<path d="M333.678 342.005L335.91 342.727L337.077 342.201L339.876 342.955L342.743 342.526L343.843 343.183L343.775 344.366L344.908 344.431L344.239 346.173L344.534 350.937L345.667 351.002L345.962 355.766L347.095 355.831L347.525 358.229L348.953 363.059L354.37 377.611L355.9 380.666L357.464 383.13L357.362 384.904L358.495 384.969L361.555 391.079L365.782 396.663L365.714 397.845L366.847 397.911L367.81 400.933L368.943 400.998L368.841 402.772L369.974 402.837L369.906 404.02L371.04 404.086L371.47 406.484L373.669 407.797L375.199 410.852L376.298 411.508L377.295 413.939L378.927 415.22L380.921 420.082L383.516 424.385L384.412 428.59L386.338 434.635L385.828 443.506L384.389 448.764L383.256 448.699L381.919 452.182L380.083 454.45L378.95 454.385L377.68 456.686L376.445 458.395L368.343 460.896L361.51 461.097L352.546 458.802L348.115 456.767L341.554 452.236L340.455 451.579L340.523 450.396L338.324 449.083L334.029 444.683L330.335 439.723L326.176 432.957L324.578 431.085L323.151 426.256L323.253 424.481L322.119 424.416L322.221 422.642L321.088 422.577L318.232 412.918L316.737 409.272L314.481 399.055L313.292 390.085L312.464 384.697L312.872 377.6L311.739 377.535L312.079 371.62L311.354 364.458L311.762 357.361L310.866 353.155L311.807 346.682L311.342 344.875L312.045 342.542L317.178 342.244L319.411 342.965L321.144 342.472L324.544 342.667L326.244 342.765L328.544 342.304L330.777 343.025L333.61 343.188L333.678 342.005Z" fill="#2D3128"/>
<path d="M204.991 335.796L208.957 336.024L209.49 336.648L211.224 336.154L222.556 336.805L224.256 336.903L227.055 337.657L229.355 337.196L230.488 337.261L233.888 337.457L236.12 338.178L235.576 347.641L236.075 348.857L236.37 353.621L235.69 365.45L236.052 369.031L235.746 374.354L235.939 380.892L236.336 383.882L235.531 387.99L236.63 388.646L235.894 391.571L235.554 397.485L236.415 402.282L235.044 406.357L234.171 411.647L234.67 412.863L233.197 418.712L232.256 425.185L231.52 428.11L228.641 438.626L224.732 447.302L222.194 451.903L221.06 451.838L220.924 454.204L215.519 459.234L211.349 462.554L207.915 462.95L207.281 464.101L203.213 465.647L195.813 465.815L187.982 463.585L183.619 460.367L180.956 457.247L177.33 451.105L176.435 446.899L175.948 435.597L177.693 425.016L178.826 425.081L178.996 422.124L180.367 418.049L181.069 415.716L183.642 410.523L184.979 407.04L186.951 402.406L188.152 401.288L188.957 397.181L192.095 392.02L193.535 386.763L194.804 384.462L196.277 378.613L198.623 367.473L199.994 363.398L201.444 348.053L202.691 336.257L204.991 335.796Z" fill="#2D3128"/>
<path d="M389.647 337.508L393.046 337.703L394.009 340.726L395.675 341.415L395.607 342.598L396.74 342.663L397.67 346.277L398.803 346.342L398.735 347.525L400.401 348.214L403.528 353.141L407.891 356.358L407.789 358.133L410.022 358.854L409.954 360.037L415.518 362.137L415.45 363.32L418.781 364.698L418.713 365.881L420.447 365.388L424.277 367.981L431.507 370.77L434.805 372.74L439.304 373.592L448.732 377.694L450.896 379.599L453.627 381.536L453.559 382.719L455.758 384.032L458.421 387.152L459.418 389.583L461.016 391.455L461.481 393.262L462.58 393.919L461.945 395.069L462.41 396.876L462.806 399.866L462.331 408.146L459.724 413.93L457.288 416.757L456.619 418.499L448.347 423.957L442.545 425.997L439.678 426.426L435.111 426.757L424.946 425.579L416.051 422.101L408.356 417.505L405.625 415.568L400.696 412.317L394.735 407.228L392.038 404.699L392.106 403.516L389.908 402.203L388.31 400.331L388.412 398.557L385.647 397.211L385.715 396.028L384.581 395.963L382.519 392.284L378.757 388.507L376.762 383.646L376.298 381.839L375.164 381.774L373.669 378.127L371.606 374.448L369.578 370.178L366.087 361.67L364.694 356.249L363.232 352.011L362.869 348.43L361.373 344.784L362.642 342.483L369.476 342.283L371.81 341.23L376.909 341.523L382.677 340.074L385.544 339.646L387.244 339.743L387.312 338.561L389.647 337.508Z" fill="#2E3128"/>
<path d="M102.414 320.406L110.142 324.41L111.241 325.067L116.307 325.951L121.338 327.427L124.67 328.806L128.103 328.41L132.568 329.853L131.73 334.552L130.256 340.401L128.987 342.702L127.616 346.777L126.483 346.712L124.477 351.937L117.531 363.999L111.989 371.395L110.72 373.695L109.587 373.63L108.318 375.931L106.584 376.424L105.915 378.166L104.782 378.101L104.08 380.434L101.643 383.261L96.9065 386.549L91.5011 391.579L87.3989 393.717L82.6282 397.597L76.2596 399.604L68.6898 402.729L63.5224 403.619L62.3552 404.146L49.2554 404.579L45.3231 403.76L40.8923 401.725L34.8296 398.41L34.8976 397.227L32.6992 395.914L30.5688 393.418L30.6708 391.643L28.4723 390.33L26.4779 385.468L25.7186 378.897L25.9905 374.166L27.9623 369.532L28.0303 368.349L29.1635 368.414L29.2655 366.64L30.9653 366.738L30.5346 364.339L32.937 362.104L34.1042 361.578L34.1722 360.395L35.3054 360.46L35.3734 359.277L37.7418 357.633L40.0082 357.763L40.0762 356.58L44.779 353.884L51.1136 352.467L55.1818 350.921L58.5814 351.116L58.6494 349.934L63.8168 349.044L69.6187 347.004L77.1885 343.878L84.8263 339.57L86.5941 338.485L87.8633 336.184L89.5631 336.282L89.6311 335.099L91.9655 334.047L94.4358 330.628L96.7022 330.759L96.2716 328.36L97.5068 326.651L98.64 326.716L98.708 325.533L99.8412 325.598L99.9432 323.824L101.711 322.739L102.414 320.406Z" fill="#2E3128"/>
<path d="M15.4964 250.137L25.1286 250.69L30.1601 252.166L34.5569 254.793L37.2199 257.913L41.5488 261.722L42.546 264.153L45.2091 267.273L47.9061 269.801L47.8381 270.984L48.9713 271.049L51.6344 274.169L53.1982 276.633L53.1302 277.816L55.9292 278.57L55.8612 279.753L58.0936 280.475L64.7569 283.231L67.5559 283.985L69.2897 283.492L72.0547 284.837L74.3891 283.785L76.6215 284.506L79.0806 291.175L79.0126 292.358L80.1118 293.015L80.9391 298.403L81.4037 300.21L83.6021 301.523L86.1292 307.008L88.7923 310.128L92.0219 313.281L91.3193 315.614L88.9849 316.667L87.7837 317.785L84.9507 317.622L84.8827 318.805L72.1796 322.228L67.6127 322.559L64.1451 323.547L59.0457 323.254L56.7113 324.306L51.0793 323.389L42.6143 322.309L38.7161 320.898L33.6846 319.422L28.7552 316.172L26.5228 315.45L22.1259 312.824L22.1939 311.641L19.9615 310.92L15.6326 307.11L10.8392 301.494L6.14767 294.104L5.11644 292.264L5.21842 290.49L4.08522 290.425L1.2295 280.767L0.504221 273.604L0.776168 268.873L1.41076 267.722L2.21531 263.615L3.51848 260.723L4.18706 258.981L5.32027 259.046L5.42225 257.272L6.55545 257.337L7.82463 255.036L13.196 250.598L15.4964 250.137Z" fill="#2E3128"/>
<path d="M185.125 127.559L185.624 128.775L191.324 128.509L200.117 133.761L203.914 136.947L205.477 139.41L205.41 140.593L206.543 140.658L208.968 147.918L209.296 152.091L209.693 155.081L208.549 165.102L205.376 170.854L205.274 172.628L204.106 173.155L202.237 176.014L196.865 180.453L191.596 183.117L185.862 183.974L176.264 182.829L170.167 180.105L164.773 175.048L162.677 171.96L162.881 168.412L161.181 168.314L160.818 164.733L159.685 164.668L158.994 156.914L159.3 151.591L160.807 145.15L164.014 138.807L167.085 134.83L173.623 129.865L178.824 128.384L185.125 127.559Z" fill="#F9F4E9"/>
<path d="M327.342 135.733L328.475 135.798L328.407 136.981L331.773 137.768L338.969 141.149L339.433 142.955L341.598 144.86L341.53 146.043L342.663 146.108L343.128 147.915L345.258 150.411L347.219 155.864L347.978 162.435L347.502 170.715L345.53 175.349L342.89 181.725L341.757 181.66L341.655 183.434L340.521 183.369L339.252 185.669L333.915 189.516L331.649 189.386L331.581 190.569L328.113 191.557L326.413 191.459L322.413 191.822L321.246 192.349L321.314 191.166L316.214 190.873L310.084 188.74L310.152 187.557L307.387 186.211L305.188 184.898L305.256 183.715L303.556 183.618L300.961 179.315L300.531 176.917L299.398 176.851L297.641 167.85L297.346 163.085L298.049 160.752L299.057 153.096L299.726 151.354L300.859 151.419L302.162 148.527L304.032 145.668L307.704 141.132L314.14 137.941L315.84 138.039L315.908 136.856L321.642 135.999L325.574 136.818L327.342 135.733Z" fill="#F9F4E9"/>
<path d="M276.722 185.636L279.521 186.39L279.453 187.573L281.686 188.295L281.448 192.435L279.442 197.66L275.77 202.196L273.901 205.056L272.699 206.173L271 206.076L269.73 208.376L262.727 211.534L260.461 211.404L257.56 212.424L252.426 212.722L250.693 213.216L247.361 211.838L244.494 212.266L237.797 210.101L236.698 209.445L236.766 208.262L233.366 208.066L232.267 207.41L232.335 206.227L229.57 204.881L229.105 203.074L227.405 202.977L225.807 201.105L225.909 199.33L224.776 199.265L222.782 194.403L221.717 193.155L221.388 188.983L222.759 184.908L227.926 184.018L230.159 184.74L230.521 188.321L231.655 188.386L235.78 195.744L238.545 197.09L239.043 198.305L245.174 200.438L255.939 201.056L261.673 200.199L262.308 199.049L265.175 198.62L265.243 197.437L270.014 193.558L272.552 188.957L273.855 186.064L276.722 185.636Z" fill="#F9F4E8"/>
<path d="M197.573 144.315L198.071 145.53L200.87 146.285L204.633 150.061L206.661 154.332L206.219 162.02L205.585 163.171L204.451 163.105L204.248 166.654L197.21 170.403L192.111 170.11L186.615 166.827L184.518 163.74L183.091 158.911L183.363 154.179L186.535 148.428L191.272 145.14L197.573 144.315Z" fill="#2F3128"/>
<path d="M127.706 206.741L132.771 207.625L133.939 207.099L136.738 207.853L150.336 208.635L154.801 210.078L156.467 210.767L158.597 213.263L157.827 216.78L154.892 218.391L152.557 219.444L150.325 218.722L150.257 219.905L147.956 220.366L147.424 219.742L142.324 219.449L141.157 219.975L138.925 219.254L134.925 219.617L131.559 218.83L128.692 219.259L125.326 218.472L120.76 218.803L115.762 216.735L115.83 215.553L114.096 216.046L114.164 214.863L113.031 214.798L112.736 210.034L115.705 207.831L118.04 206.779L127.105 207.3L127.706 206.741Z" fill="#D75222"/>
<path d="M362.245 220.814L372.444 221.401L374.144 221.498L384.343 222.084L388.207 224.087L388.139 225.27L389.805 225.959L390.201 228.949L390.666 230.755L388.966 230.658L388.23 233.582L383.697 233.322L381.396 233.783L363.265 232.741L357.633 231.824L351.967 231.498L348.103 229.496L348.171 228.313L347.038 228.248L346.675 224.667L349.111 221.84L352.579 220.852L362.245 220.814Z" fill="#D75222"/>
<path d="M334.158 151.572L334.657 152.787L338.022 153.574L341.286 156.135L341.218 157.318L342.351 157.383L344.311 162.836L343.303 170.493L341.399 173.944L338.43 176.146L338.929 177.362L335.529 177.167L334.895 178.317L328.662 177.959L328.73 176.776L327.03 176.678L327.098 175.495L324.333 174.149L321.704 170.438L322.18 162.158L324.118 158.115L325.988 155.256L328.288 154.795L328.957 153.053L334.158 151.572Z" fill="#2E3127"/>
<path d="M124.783 227.935L128.749 228.163L129.281 228.787L131.582 228.326L145.18 229.107L150.778 230.616L152.977 231.929L153.906 235.543L152.002 238.994L150.835 239.52L149.736 238.863L149.067 240.605L146.835 239.884L145.634 241.001L139.933 241.267L137.701 240.545L134.834 240.974L132.534 241.435L132.602 240.252L128.601 240.616L124.103 239.764L122.935 240.29L123.003 239.107L118.403 240.03L116.238 238.125L115.071 238.651L115.139 237.468L114.006 237.403L114.074 236.22L112.408 235.531L112.079 231.359L114.516 228.532L124.783 227.935Z" fill="#D75222"/>
<path d="M355.956 241.222L362.155 242.171L365.588 241.775L371.254 242.101L373.487 242.823L378.586 243.116L380.886 242.655L380.818 243.838L382.552 243.344L382.484 244.527L385.283 245.281L386.281 247.712L384.977 250.604L383.844 250.539L382.575 252.839L379.674 253.859L376.841 253.697L373.974 254.125L369.974 254.489L353.542 253.544L349.644 252.133L349.712 250.951L345.78 250.131L345.451 245.959L346.754 243.066L352.522 241.618L355.956 241.222Z" fill="#D75121"/>
<path d="M441.041 207.19L432.228 203.679L426.582 197.344L429.91 139.44L436.302 132.796L445.287 133.312L457.067 137.495L465.094 145.969L468.381 167.193L467.578 181.17L462.339 193.89L453.193 204.884L441.041 207.19Z" fill="white" stroke="#D75222" stroke-width="12"/>
<path d="M446.51 165.435C449.507 168.603 449.235 175.197 445.689 178.605" stroke="#D75222" stroke-width="10" stroke-linecap="round"/>
</svg>
