<svg width="500" height="500" viewBox="0 0 500 500" fill="none" xmlns="http://www.w3.org/2000/svg">
<path d="M274.688 0L278.661 0.592417L281.498 0L288.309 0.592417H298.524L301.362 0V1.18483L302.497 0.592417H309.875L311.578 1.18483L315.551 0.592417H335.414L339.387 1.18483L343.36 0.592417L346.765 1.77725L349.035 1.18483L360.953 1.77725L363.791 2.36967L364.926 1.77725L370.602 2.96209L377.412 4.14692L384.79 5.92417L388.195 7.70142L392.168 8.29384V9.47867L396.708 10.0711L400.114 11.8483L405.789 15.4028L408.059 18.3649L412.032 21.327L413.734 24.2891L414.869 24.8815V27.8436H416.005L417.707 30.8057L419.977 36.7299L420.545 37.3223V40.2844L422.247 40.8768L422.815 43.2464V45.0237L423.95 50.3555L425.085 58.0569L425.653 65.7583L426.22 68.128L427.355 85.3081V109.597L426.788 111.374L427.355 115.521V123.815L427.923 125L427.355 129.739L427.923 132.701L427.355 137.441V141.588L426.788 144.55L427.355 146.327V151.066L427.923 152.251L427.355 158.175L426.788 159.36L427.355 163.507V173.578H426.22V175.948H427.355V177.133L426.22 177.725L427.355 180.095V184.834H426.22L427.923 187.204L426.788 190.758L427.355 192.536V195.498V197.275V203.791L426.788 204.384L427.923 209.123L426.788 212.678L427.355 216.232L426.788 225.119V228.673V231.043L427.355 236.967L426.788 239.929L426.22 250.592V258.294L426.788 261.256L426.22 262.441L426.788 265.403L426.22 267.773L425.653 275.474H424.518L425.085 280.213L423.95 287.322V288.507H426.788V289.692L430.76 289.1H434.733L440.976 287.915L443.814 286.137H445.516L446.084 284.36L449.489 282.583L450.057 280.213L452.894 278.436L459.137 271.327L460.84 268.957L462.543 267.18H464.245L464.813 264.218L472.758 259.479L477.299 258.294H479.569L482.406 257.701L486.379 258.886L490.919 260.664L492.622 263.033L494.325 263.626L497.73 269.55L499.432 276.066L500 281.991V283.768L499.432 289.1L496.027 299.763L494.325 300.355L493.757 303.318L488.649 310.427H487.514L486.379 312.796L484.109 315.166L482.406 315.758L479.569 318.72L476.731 321.09L473.326 322.867L466.515 325.829L459.137 328.199L453.462 329.384H440.409L431.896 328.199L429.058 327.607L418.275 324.645L413.167 322.275L405.789 318.128L402.951 318.72L402.384 320.498H401.249V321.682L397.276 322.867L396.141 325.237L396.708 327.014L398.411 327.607V328.792H399.546L400.681 332.346H401.816V333.531L403.519 334.123L406.924 338.863L411.464 341.825V343.602L413.734 344.194V345.379L419.41 347.156V348.341L422.815 349.526V350.711L424.518 350.119L428.49 352.488L435.868 354.858L439.274 356.635L443.814 357.228L453.462 360.782L455.732 362.559L458.57 364.337V365.521L460.84 366.706L463.678 369.668L464.813 372.038L466.515 373.815L467.083 375.592L468.218 376.185L467.65 377.37L468.218 379.147L468.785 382.109V390.403L466.515 396.327L464.245 399.289L463.678 401.066L455.732 406.991L450.057 409.36L447.219 409.953L442.679 410.545L432.463 409.953L423.383 406.991L415.437 402.844L412.599 401.066L407.491 398.104L401.249 393.365L398.411 390.995V389.81L396.141 388.626L394.438 386.848V385.071L391.6 383.886V382.701H390.465L388.195 379.147L384.222 375.592L381.952 370.853L381.385 369.076H380.25L378.547 365.521L376.277 361.967L374.007 357.82L370.034 349.526L368.331 344.194L366.629 340.047L366.061 336.493L364.359 332.938L363.224 331.161L358.116 332.346L355.846 332.938L351.873 332.346L350.738 332.938L347.9 332.346L347.333 335.308L347.9 340.047H349.035L349.603 344.787H350.738L351.305 347.156L353.008 351.896L359.251 366.114L360.953 369.076L362.656 371.446V373.223H363.791L367.196 379.147L371.737 384.479V385.664H372.872L374.007 388.626H375.142V390.403H376.277V391.588H377.412L377.98 393.957L380.25 395.142L381.952 398.104L383.087 398.697L384.222 401.066L385.925 402.251L388.195 406.991L391.033 411.137L392.168 415.284L394.438 421.209V430.095L393.303 435.427H392.168L391.033 438.981L389.33 441.351H388.195L387.06 443.72L385.925 445.498L377.98 448.46L371.169 449.052L362.089 447.275L357.548 445.498L350.738 441.351L349.603 440.758V439.574L347.333 438.389L342.792 434.242L338.82 429.502L334.279 422.986L332.577 421.209L330.874 416.469V414.692H329.739V412.915H328.604L325.199 403.436L323.496 399.882L320.658 389.81L318.956 380.924L317.821 375.592V368.483H316.686V362.559L315.551 355.45V348.341L314.415 344.194L314.983 337.678L314.415 335.901L314.983 334.123H313.848V332.938L311.01 334.123L307.037 333.531L305.902 334.123H299.659L295.687 334.716L295.119 339.455L295.687 344.194V349.526L296.254 355.45V357.82L297.389 358.412V360.782L296.254 361.374L296.822 365.521L297.957 366.706L298.524 372.63L299.659 376.777V377.962L300.795 383.886L301.362 388.033L302.497 388.626L303.632 393.957L305.335 398.104L305.902 401.066L307.037 401.659L308.173 406.991L311.01 415.877L311.578 418.246L313.28 422.986L314.415 430.095V438.981L313.28 446.09H312.145L311.578 449.645L310.443 452.014H309.308L308.173 454.976L304.2 458.531L303.632 459.716H302.497L301.362 460.901L298.524 461.493L295.119 462.678H287.174L279.796 459.716L275.255 456.754V455.569L272.985 454.976V453.199L270.715 452.014V450.237L268.445 449.052L265.04 443.128L263.905 437.796H262.77L261.635 433.649L261.067 428.91L260.499 428.318L258.797 415.284L258.229 406.398L257.662 399.882L258.229 396.327L257.662 393.365L258.229 389.218V381.517L258.797 377.962V367.299L259.364 363.744V353.673L259.932 347.156L260.499 337.085L259.932 335.901L260.499 334.716L254.824 334.123L253.689 333.531L253.121 334.716V333.531H251.986L251.419 334.716L247.446 334.123H240.068L238.933 333.531V343.01L239.501 344.194L240.068 348.934V360.782L240.636 364.337V369.668L241.203 376.185L241.771 379.147L241.203 383.294L242.338 383.886L241.771 386.848V392.773L242.906 397.512L241.771 401.659L241.203 406.991L241.771 408.175L240.636 414.1L240.068 420.616L239.501 423.578L237.23 434.242L233.825 443.128L231.555 447.867H230.42V450.237L225.312 455.569L221.339 459.123L217.934 459.716L217.367 460.901L213.394 462.678L206.016 463.27L198.07 461.493L193.53 458.531L190.692 455.569L186.72 449.645L185.585 445.498L184.449 434.242L185.585 423.578H186.72V420.616L187.855 416.469L188.422 414.1L190.692 408.768L191.827 405.213L193.53 400.474L194.665 399.289L195.233 395.142L198.07 389.81L199.205 384.479L200.341 382.109L201.476 376.185L203.178 364.929L204.313 360.782L204.881 345.379L205.448 333.531L204.881 334.123H203.178H195.233L192.963 333.531L191.827 332.938L191.26 334.123L190.125 333.531L188.422 334.123L185.585 332.938L186.152 336.493V351.303L185.585 353.081L185.017 363.152H183.882L184.449 366.114L182.179 379.147L181.044 385.071L178.774 393.365L177.072 398.697L175.936 401.659L174.234 405.213L173.099 411.137L170.829 413.507L170.261 416.469L168.558 417.062L167.423 420.616L165.153 424.763L162.883 427.725L161.748 428.318V429.502L160.045 431.28L156.073 436.019H154.938V437.204L152.1 439.574L151.532 440.758L146.425 442.536L145.857 444.313L142.452 446.09H139.614L139.047 447.867H136.209L133.939 448.46L127.696 449.052L120.318 447.867V446.683L116.345 446.09L112.372 443.128V441.943H111.237L107.264 435.427L106.129 430.095V418.839L107.832 414.1H108.967L109.535 409.953L111.237 406.991H112.372L112.94 404.621H114.075V402.844H115.21L116.345 399.882L118.615 396.919L122.588 392.18L124.291 389.218L125.993 387.441H127.128V386.256L129.398 383.886L129.966 382.701H131.101V381.517H132.236V379.739L133.371 379.147L135.641 375H136.776V373.223H137.911L138.479 370.261L140.182 369.668L140.749 366.706H141.884L142.452 363.744H143.587L143.019 361.374L146.425 356.043L146.992 354.265L148.695 348.341L150.965 342.417L152.1 337.678L153.235 332.346L149.83 332.938L147.56 332.346L142.452 331.754L141.884 332.938L141.317 331.754L140.182 332.346L136.776 331.161L135.641 330.569L133.371 341.825L132.236 344.194L131.101 348.341H129.966L128.263 353.673L122.02 366.114L116.913 373.815L115.778 376.185H114.642L113.507 378.555L111.805 379.147L111.237 380.924H110.102L109.535 383.294L107.264 386.256L102.724 389.81L97.6163 395.142L93.6436 397.512L89.1033 401.659L82.8604 404.028L75.4824 407.583L70.3746 408.768L69.2395 409.36L56.1862 410.545L52.2134 409.953L47.6731 408.175L41.4302 405.213V404.028L39.16 402.844L36.8899 400.474V398.697L34.6198 397.512L32.3496 392.773L31.2145 386.256V381.517L32.9171 376.777V375.592H34.0522V373.815H35.7548L35.1873 371.446L37.4574 369.076L38.5925 368.483V367.299H39.7276V366.114L41.9977 364.337H44.2679V363.152L48.8082 360.19L55.0511 358.412L59.0238 356.635H62.4291V355.45L67.5369 354.265L73.2123 351.896L80.5902 348.341L87.9682 343.602L89.6708 342.417L90.8059 340.047H92.5085V338.863L94.7787 337.678L97.0488 334.123H99.319L98.7514 331.754L99.8865 329.976H101.022V328.792H102.157V327.014L103.859 325.829L103.292 324.052L101.022 322.867L94.2111 318.72L90.8059 320.498L89.6708 321.682H86.8331V322.867L74.3473 327.014L69.807 327.607L66.4018 328.792H61.294L59.0238 329.976L53.3485 329.384L44.8354 328.792L40.8627 327.607L35.7548 326.422L30.647 323.46L28.3768 322.867L23.8365 320.498V319.313L21.5664 318.72L17.0261 315.166L11.9183 309.834L6.81044 302.725L5.67537 300.948V299.171H4.5403L1.13507 289.692L0 282.583V277.844L0.567537 276.659L1.13507 272.512L2.27015 269.55L2.83768 267.773H3.97276V265.995H5.10783L6.24291 263.626L11.3507 258.886L16.4586 258.294H23.269L28.3768 259.479L32.9171 261.848L35.7548 264.81L40.2951 268.365L41.4302 270.735L44.2679 273.697L47.1056 276.066V277.251H48.2406L51.0783 280.213L52.7809 282.583V283.768L55.6186 284.36V285.545L57.8888 286.137L64.6992 288.507L67.5369 289.1L69.2395 288.507L72.0772 289.692L74.3473 288.507H76.6175L74.9149 283.175L73.7798 274.289V269.55L73.2123 263.626L73.7798 257.701L73.2123 254.147L73.7798 251.185L73.2123 245.261V240.521L72.6447 236.374L73.2123 232.228L72.6447 228.081L73.2123 227.488V220.379L72.6447 214.455L73.2123 212.085L72.6447 209.123L73.2123 202.607L72.6447 200.237L73.2123 192.536L72.0772 188.981L72.6447 186.611L72.0772 184.834V176.54L72.6447 167.062L72.0772 157.583L72.6447 154.621V148.104L71.5096 147.512V145.735L72.6447 143.365V138.626L72.0772 136.848L72.6447 126.777L72.0772 123.815V120.261H73.2123L72.0772 112.559L72.6447 111.374V105.45L72.0772 102.488H73.2123L72.6447 99.5261L73.2123 94.1943L72.6447 92.4171L73.2123 87.0853L72.6447 85.3081L73.7798 84.7156L73.2123 79.9763L74.3473 74.0521L73.7798 71.6825L74.9149 62.2038H76.0499L75.4824 56.2796L76.0499 52.7251H77.185L76.6175 47.3934L77.7526 46.801L78.3201 41.4692L78.8876 39.0995H80.0227L81.1578 35.545L82.8604 31.3981V30.2133L83.9955 29.6209L86.2656 25.4739L87.9682 24.8815L88.5358 22.5119L90.8059 19.5498L94.2111 18.3649V17.1801L97.0488 15.9953L97.6163 14.218L101.589 13.6256V11.8483L106.697 10.0711L108.4 8.88626L116.913 7.70142L117.48 6.51659L118.615 5.92417L124.858 5.33175L127.696 4.73934L131.101 4.14692H137.911L139.614 2.96209L143.587 2.36967L149.83 2.96209L152.667 2.36967L158.343 1.77725L159.478 1.18483L161.18 1.77725L164.018 1.18483L166.856 1.77725L177.072 1.18483L183.314 1.77725H189.557L192.395 1.18483L198.07 0.592417L202.611 1.18483H206.583L207.719 1.77725V0.592417L211.691 1.18483L224.177 0.592417L225.88 1.77725L227.015 0.592417H261.067L263.905 1.18483L265.607 0.592417H272.985L274.688 0ZM232.123 18.9573L229.285 20.7346L228.15 19.5498V20.7346L223.61 19.5498L221.339 20.1422H215.096L210.556 20.7346L209.421 20.1422H207.151H200.341L197.503 21.327L196.935 20.1422V21.327L192.963 20.1422H188.422L183.882 21.327L180.477 20.1422L177.072 21.327L174.801 20.7346V22.5119L173.099 21.327H164.018L162.883 21.9194L162.316 20.7346V21.9194L156.073 21.327L150.965 21.9194H147.56L146.425 22.5119H140.182L133.371 23.6967L131.101 23.1043L123.723 24.8815L116.913 27.2512L112.372 27.8436L110.102 30.8057L106.129 33.1754L102.724 36.7299L101.589 39.6919L100.454 40.8768V42.0616L99.319 42.654L98.7514 46.2085H97.6163L95.9137 52.1327L94.2111 57.4645V62.2038L93.0761 62.7962H94.2111L91.941 71.6825L92.5085 75.237L91.941 79.9763L91.3734 82.9384V84.1232L91.941 87.0853L90.8059 87.6777V93.0095L91.3734 95.9716L90.8059 98.3412V106.635H90.2384V113.152L91.3734 118.483H90.2384L90.8059 123.223L89.6708 129.739L90.2384 130.924V137.441L90.8059 145.142L91.3734 146.327L90.2384 146.919L90.8059 148.104L90.2384 151.659L91.3734 154.028L90.2384 155.806V158.768L90.8059 159.953L91.3734 164.1H90.2384V174.171V176.54L91.3734 178.91L90.2384 179.502V184.834L90.8059 187.204L89.6708 187.796L90.2384 190.166V206.161L90.8059 214.455L90.2384 223.934L89.1033 224.526L90.8059 225.711V235.19L91.3734 237.559L90.8059 241.114L90.2384 241.706L90.8059 243.483L90.2384 245.853L90.8059 249.408L90.2384 251.777L90.8059 253.555V257.701L91.941 267.18L92.5085 268.365L91.941 276.066H93.0761L92.5085 279.028L94.7787 284.953L95.3462 289.1L96.4813 289.692L97.6163 292.654L98.7514 293.246L99.8865 296.801L101.022 298.578H102.724L103.292 300.948L107.264 304.502L110.67 305.687L111.237 306.872L117.48 308.649L119.75 309.242L123.723 309.834L127.696 311.019L139.614 312.796V313.981L147.56 313.389H150.397L152.667 313.981L155.505 313.389L158.91 313.981H166.856L167.991 314.573L173.666 313.389L174.234 314.573L178.774 313.981H181.044H182.747H185.017L185.585 312.796L186.72 313.981H196.935H199.205H205.448L209.989 314.573L215.664 313.981L224.177 314.573H234.393L237.798 313.981L240.068 314.573H245.743L248.014 315.758L247.446 313.981L254.824 314.573H263.337L264.472 315.166V313.981L278.661 314.573H288.309L297.389 313.981L299.659 314.573L301.362 313.981H325.199H326.901L330.306 313.389L333.144 313.981L338.82 313.389H350.17L354.143 312.796L358.116 311.611L361.521 312.204L362.656 311.611H367.196L371.737 310.427L376.844 309.834L382.52 308.057L384.79 307.464L391.033 304.502L397.843 299.171L400.681 296.209L405.221 289.1L405.789 283.768L406.356 281.398V279.621L407.491 279.028V277.251L408.627 276.659L407.491 276.066L408.059 275.474V270.735L409.194 265.403L408.627 263.626V258.294L409.194 253.555V239.929L409.762 231.635L409.194 226.896L409.762 225.119L409.194 215.047V210.308L409.762 209.123L409.194 207.346V198.46L408.627 197.275L409.762 196.682L409.194 190.758L408.627 189.573L409.762 188.981V184.242L410.329 181.28L409.762 178.91V159.36L410.329 156.991L409.762 152.251L410.897 151.659L409.762 151.066V148.697V139.218H408.627L409.194 135.664L409.762 125L409.194 122.038V110.19L409.762 104.858L409.194 99.5261V94.1943L408.627 93.0095H409.762L409.194 77.6066L408.059 75.237L409.194 74.6446V72.8673H408.059V71.6825L409.194 71.0901L408.059 66.3507V62.2038L405.789 55.6872L405.221 50.3555L404.086 47.3934L402.951 46.801L401.816 42.0616L400.681 40.2844H399.546L398.978 36.7299L396.141 34.3602L394.438 32.5829L389.898 29.0284L385.925 27.2512L380.817 25.4739L376.277 24.8815L375.142 23.6967H372.872L368.899 22.5119L363.791 23.1043L358.683 21.9194H353.008L351.873 21.327H346.765L345.062 20.7346H343.36L337.117 21.327L334.847 20.7346H333.144H328.036L324.064 20.1422L320.658 20.7346L320.091 19.5498H318.388H313.28L311.01 20.7346V21.9194H309.875V20.7346L306.47 20.1422L305.335 20.7346L304.767 19.5498L301.93 20.1422H297.957L295.687 21.327V20.1422H293.417L292.849 18.9573L290.579 19.5498V20.7346L285.471 19.5498L276.39 20.1422L270.715 19.5498H265.04H263.337L253.121 20.1422L250.284 19.5498H245.743L244.608 20.1422L240.068 19.5498L236.095 20.1422L233.825 18.9573H232.123Z" fill="#D75222"/>
<path d="M214.529 103.673L216.232 104.265L215.664 105.45H217.934V104.265L220.204 105.45H219.069V106.635L222.474 105.45L223.042 104.265V105.45L232.69 104.858L236.663 104.265V106.043L240.636 105.45L245.176 104.858L248.014 105.45L248.581 104.858H263.905L265.607 104.265L271.283 104.858L272.418 104.265V105.45L273.553 104.858H279.228L282.066 104.265L287.174 104.858L293.984 104.265L295.687 105.45L296.254 104.265L296.822 104.858L301.362 104.265L304.767 104.858L306.47 104.265L308.74 104.858L312.145 104.265L316.118 104.858L316.686 103.673L319.523 104.858L322.361 105.45L322.928 104.265L324.064 104.858H332.577L333.712 106.043L337.117 106.635L341.09 107.82L344.495 109.005L349.035 111.374L350.738 111.967V113.152H353.575L355.846 116.706L358.683 119.076L363.224 125L364.926 127.962L366.061 129.739V132.109H367.196L368.899 137.441V139.81H370.034L370.602 146.919L371.169 149.289L371.737 152.844L371.169 154.028V159.953L370.602 161.73V166.469L368.899 172.986L366.629 178.318L365.494 180.687L366.061 181.872L363.791 184.242L363.224 185.427H362.089L360.953 187.796L359.251 189.573H358.116L357.548 191.943L354.711 193.72L353.575 195.498L351.873 196.09L351.305 197.275L347.333 199.052L342.792 201.422H341.09L340.522 203.199L336.549 203.791L332.577 205.569L323.496 206.754L308.173 207.346H293.984L291.146 207.938H284.336L282.633 207.346L282.066 208.531L277.526 207.938L274.688 209.123L270.715 213.27L268.445 213.863L266.742 214.455L265.04 216.232L262.77 216.825L261.634 218.009L257.662 219.787L248.014 220.972H242.338L238.365 220.379L230.987 218.602H229.285V217.417L226.447 216.232L220.772 213.27L217.934 212.085L216.799 210.308L215.096 209.123L212.259 207.938L209.989 208.531L206.016 206.754L205.448 207.938V206.754L203.746 207.346L199.205 206.754L183.882 206.161H178.774H177.071L174.234 204.976L173.666 206.161H172.531V204.976L169.126 205.569L164.018 204.976L158.91 203.791V202.607L154.37 202.014L148.695 200.237V199.052L146.992 199.645L141.884 196.682V195.498H139.047L133.371 189.573L128.263 183.649L123.155 173.578L123.723 171.801H122.588L122.02 165.877L120.885 164.1L120.318 157.583H121.453L120.885 152.251L120.318 151.066H121.453L120.885 147.512H122.02L121.453 145.735L123.155 136.848L124.858 132.109V127.962L125.993 128.554L126.561 126.777H127.696L128.263 125.592L132.804 119.076L134.506 118.483L137.344 114.929L139.614 113.744L141.884 111.374L146.992 109.597L153.235 107.227L155.505 106.635L156.64 107.227L157.208 106.043L165.153 105.45H167.991L168.558 104.265V105.45L174.234 104.858H180.477H182.747L187.855 105.45L191.827 104.265L194.665 104.858H212.826L215.096 105.45L214.529 103.673Z" fill="#2D3128"/>
<path d="M154.37 331.754L154.938 332.938H156.073L156.64 331.754H163.451L173.666 332.346H176.504L177.072 333.531L179.909 332.938H180.477H182.747H185.017V334.123H186.152V351.303L185.585 353.081L185.017 363.152H183.882L184.449 366.114L182.179 379.147L181.044 385.071L178.774 393.365L177.072 398.697L175.936 401.659L174.234 405.213L173.099 411.137L170.829 413.507L170.261 416.469L168.558 417.062L167.423 420.616L165.153 424.763L162.883 427.725L161.748 428.318V429.502L160.045 431.28L156.073 436.019H154.938V437.204L152.1 439.573L151.532 440.758L146.425 442.536L145.857 444.313L142.452 446.09H139.614L139.047 447.867H136.209L133.939 448.46L127.696 449.052L120.318 447.867V446.682L116.345 446.09L112.372 443.128V441.943H111.237L107.264 435.427L106.129 430.095V418.839L107.832 414.1H108.967L109.535 409.953L111.237 406.991H112.372L112.94 404.621H114.075V402.844H115.21L116.345 399.882L118.615 396.919L122.588 392.18L124.291 389.218L125.993 387.441H127.128V386.256L129.398 383.886L129.966 382.701H131.101V381.517H132.236V379.739L133.371 379.147L135.641 375H136.776V373.223H137.911L138.479 370.261L140.182 369.668L140.749 366.706H141.884L142.452 363.744H143.587L143.019 361.374L146.425 356.043L146.992 354.265L148.695 348.341L150.965 342.417L152.1 337.678L153.235 332.346L154.37 331.754Z" fill="#2E3128"/>
<path d="M261.067 332.938H263.337L263.905 334.123L266.175 333.531L270.715 332.938H272.985L274.688 333.531L279.796 332.938L283.768 333.531H291.146L292.849 334.123L293.417 332.938L295.119 333.531V339.455L295.687 344.194V349.526L296.254 355.45V357.82L297.389 358.412V360.782L296.254 361.374L296.822 365.521L297.957 366.706L298.524 372.63L299.659 376.777V377.962L300.795 383.886L301.362 388.033L302.497 388.626L303.632 393.957L305.335 398.104L305.902 401.066L307.037 401.659L308.173 406.991L311.01 415.877L311.578 418.246L313.28 422.986L314.415 430.095V438.981L313.28 446.09H312.145L311.578 449.645L310.443 452.014H309.308L308.173 454.976L304.2 458.531L303.632 459.716H302.497L301.362 460.901L298.524 461.493L295.119 462.678H287.174L279.796 459.716L275.255 456.754V455.569L272.985 454.976V453.199L270.715 452.014V450.237L268.445 449.052L265.04 443.128L263.905 437.796H262.77L261.635 433.649L261.067 428.91L260.499 428.318L258.797 415.284L258.229 406.398L257.662 399.882L258.229 396.327L257.662 393.365L258.229 389.218V381.517L258.797 377.962V367.299L259.364 363.744V353.673L259.932 347.156L260.499 337.085V335.308L261.067 334.123L259.932 333.531L261.067 332.938Z" fill="#2E3128"/>
<path d="M336.549 331.754L338.82 332.346L339.955 331.754L342.792 332.346L345.63 331.754L346.765 332.346V333.531H347.9L347.333 335.308L347.9 340.047H349.035L349.603 344.787H350.738L351.305 347.156L353.008 351.896L359.251 366.114L360.953 369.076L362.656 371.446V373.223H363.791L367.196 379.147L371.737 384.479V385.664H372.872L374.007 388.626H375.142V390.403H376.277V391.588H377.412L377.98 393.957L380.25 395.142L381.952 398.104L383.087 398.697L384.222 401.066L385.925 402.251L388.195 406.991L391.033 411.137L392.168 415.284L394.438 421.209V430.095L393.303 435.427H392.168L391.033 438.981L389.33 441.351H388.195L387.06 443.72L385.925 445.498L377.98 448.46L371.169 449.052L362.089 447.275L357.548 445.498L350.738 441.351L349.603 440.758V439.573L347.333 438.389L342.792 434.242L338.82 429.502L334.279 422.986L332.577 421.209L330.874 416.469V414.692H329.739V412.915H328.604L325.199 403.436L323.496 399.882L320.658 389.81L318.956 380.924L317.821 375.592V368.483H316.686V362.559L315.551 355.45V348.341L314.415 344.194L314.983 337.678L314.415 335.9L314.983 333.531L320.091 332.938L322.361 333.531L324.064 332.938H327.469H329.171L331.442 332.346L333.712 332.938H336.549V331.754Z" fill="#2D3128"/>
<path d="M207.718 332.938H211.691L212.259 333.531L213.961 332.938H225.312H227.015L229.852 333.531L232.123 332.938H233.258H236.663L238.933 333.531V343.01L239.501 344.194L240.068 348.934V360.782L240.636 364.337V369.668L241.203 376.185L241.771 379.147L241.203 383.294L242.338 383.886L241.771 386.848V392.773L242.906 397.512L241.771 401.659L241.203 406.991L241.771 408.175L240.636 414.1L240.068 420.616L239.501 423.578L237.23 434.242L233.825 443.128L231.555 447.867H230.42V450.237L225.312 455.569L221.339 459.123L217.934 459.716L217.367 460.901L213.394 462.678L206.016 463.27L198.07 461.493L193.53 458.531L190.692 455.569L186.72 449.645L185.585 445.498L184.449 434.242L185.585 423.578H186.72V420.616L187.855 416.469L188.422 414.1L190.692 408.768L191.827 405.213L193.53 400.474L194.665 399.289L195.233 395.142L198.07 389.81L199.205 384.479L200.34 382.109L201.476 376.185L203.178 364.929L204.313 360.782L204.881 345.379L205.448 333.531L207.718 332.938Z" fill="#2D3128"/>
<path d="M392.168 324.052H395.573L396.708 327.014L398.411 327.607V328.791H399.546L400.681 332.346H401.816V333.531L403.519 334.123L406.924 338.863L411.464 341.825V343.602L413.734 344.194V345.379L419.41 347.156V348.341L422.815 349.526V350.711L424.518 350.119L428.49 352.488L435.868 354.858L439.274 356.635L443.814 357.228L453.462 360.782L455.732 362.559L458.57 364.337V365.521L460.84 366.706L463.678 369.668L464.813 372.038L466.515 373.815L467.083 375.592L468.218 376.185L467.65 377.37L468.218 379.147L468.786 382.109V390.403L466.515 396.327L464.245 399.289L463.678 401.066L455.732 406.991L450.057 409.36L447.219 409.953L442.679 410.545L432.463 409.953L423.383 406.991L415.437 402.844L412.599 401.066L407.492 398.104L401.249 393.365L398.411 390.995V389.81L396.141 388.626L394.438 386.848V385.071L391.601 383.886V382.701H390.465L388.195 379.147L384.223 375.592L381.952 370.853L381.385 369.076H380.25L378.547 365.521L376.277 361.967L374.007 357.82L370.034 349.526L368.331 344.194L366.629 340.047L366.061 336.493L364.359 332.938L365.494 330.569L372.304 329.976L374.574 328.791H379.682L385.358 327.014L388.195 326.422H389.898V325.237L392.168 324.052Z" fill="#2E3128"/>
<path d="M104.427 323.46L112.372 327.014L113.507 327.607L118.615 328.199L123.723 329.384L127.128 330.569L130.534 329.976L135.074 331.161L134.506 335.9L133.371 341.825L132.236 344.194L131.101 348.341H129.966L128.263 353.673L122.02 366.114L116.913 373.815L115.778 376.185H114.642L113.507 378.555L111.805 379.147L111.237 380.924H110.102L109.535 383.294L107.265 386.256L102.724 389.81L97.6164 395.142L93.6436 397.512L89.1033 401.659L82.8604 404.028L75.4824 407.583L70.3746 408.768L69.2395 409.36L56.1862 410.545L52.2134 409.953L47.6731 408.175L41.4302 405.213V404.028L39.1601 402.844L36.8899 400.474V398.697L34.6198 397.512L32.3496 392.773L31.2146 386.256V381.517L32.9172 376.777V375.592H34.0523V373.815H35.7549L35.1873 371.445L37.4575 369.076L38.5925 368.483V367.299H39.7276V366.114L41.9978 364.336H44.2679V363.152L48.8082 360.19L55.0511 358.412L59.0239 356.635H62.4291V355.45L67.5369 354.265L73.2123 351.896L80.5903 348.341L87.9683 343.602L89.6709 342.417L90.8059 340.047H92.5085V338.863L94.7787 337.678L97.0488 334.123H99.319L98.7515 331.754L99.8865 329.976H101.022V328.791H102.157V327.014L103.859 325.829L104.427 323.46Z" fill="#2E3128"/>
<path d="M481.839 257.701L485.812 258.294L491.487 261.256L492.622 263.033L494.325 263.626L497.73 269.55L499.432 276.066L500 281.991V283.768L499.432 289.1L496.027 299.763L494.325 300.355L493.757 303.318L488.649 310.427H487.514L486.379 312.796L484.109 315.166L482.406 315.758L479.569 318.72L476.731 321.09L473.326 322.867L466.515 325.829L459.137 328.199L453.462 329.384H440.409L431.896 328.199L429.058 327.607L418.275 324.645L413.167 322.275L405.789 318.128L407.491 315.166L410.329 312.204L412.032 311.611L412.599 308.649H413.734V307.464L415.437 305.687L417.707 301.54L418.842 300.355V298.578L419.977 297.986V295.024H421.112V290.284L423.95 288.507H426.788V289.692L430.76 289.1H434.733L440.976 287.915L443.814 286.137H445.516L446.084 284.36L449.489 282.583L450.057 280.213L452.894 278.436L459.137 271.327L460.84 268.957L462.543 267.18H464.245L464.813 264.218L472.758 259.479L477.298 258.294H479.569L481.839 257.701Z" fill="#2D3128"/>
<path d="M13.6209 258.294H23.269L28.3768 259.479L32.9171 261.848L35.7548 264.81L40.2951 268.365L41.4302 270.735L44.2679 273.697L47.1056 276.066V277.251H48.2406L51.0783 280.213L52.7809 282.583V283.768L55.6186 284.36V285.545L57.8888 286.137L64.6992 288.507L67.5369 289.1L69.2395 288.507L72.0772 289.692L74.3473 288.507L76.6175 289.1L79.4552 295.616V296.801L80.5902 297.393L81.7253 302.725L82.2928 304.502L84.563 305.687L87.4007 311.019L90.2384 313.981L93.6436 316.943L93.0761 319.313L90.8059 320.498L89.6708 321.682H86.8331V322.867L74.3473 327.014L69.807 327.607L66.4018 328.791H61.294L59.0238 329.976L53.3485 329.384L44.8354 328.791L40.8627 327.607L35.7548 326.422L30.647 323.46L28.3768 322.867L23.8365 320.498V319.313L21.5664 318.72L17.0261 315.166L11.9183 309.834L6.81044 302.725L5.67537 300.948V299.171H4.5403L1.13507 289.692L0 282.583V277.844L0.567537 276.659L1.13507 272.512L2.27015 269.55L2.83768 267.773H3.97276V265.995H5.10783L6.24291 263.626L11.3507 258.886L13.6209 258.294Z" fill="#2E3128"/>
<path d="M123.156 208.531L128.263 209.123L129.398 208.531L132.236 209.123H145.857L150.397 210.308L152.1 210.9L154.37 213.27L153.803 216.825L150.965 218.602L148.695 219.787L146.425 219.194V220.379L144.154 220.972L143.587 220.379H138.479L137.344 220.972L135.074 220.379L131.101 220.972L127.696 220.379L124.858 220.972L121.453 220.379L116.913 220.972L111.805 219.194V218.009L110.102 218.602V217.417H108.967L108.4 212.678L111.237 210.308L113.507 209.123H122.588L123.156 208.531Z" fill="#D75222"/>
<path d="M358.116 209.123H368.331H370.034H380.25L384.222 210.9V212.085L385.925 212.678L386.493 215.64L387.06 217.417H385.358L384.79 220.379H380.25L377.98 220.972H359.818L354.143 220.379H348.468L344.495 218.602V217.417H343.36L342.792 213.863L345.062 210.9L348.468 209.716L358.116 209.123Z" fill="#D75222"/>
<path d="M121.453 229.858H125.426L125.993 230.45L128.263 229.858H141.884L147.56 231.043L149.83 232.227L150.965 235.782L149.262 239.336L148.127 239.929L146.992 239.336L146.425 241.114L144.154 240.521L143.019 241.706L137.344 242.299L135.074 241.706L132.236 242.299L129.966 242.891V241.706L125.993 242.299L121.453 241.706L120.318 242.299V241.114L115.778 242.299L113.507 240.521L112.372 241.114V239.929H111.237V238.744L109.535 238.152L108.967 234.005L111.237 231.043L121.453 229.858Z" fill="#D75222"/>
<path d="M353.008 229.858L359.251 230.45L362.656 229.858H368.331L370.602 230.45H375.709L377.98 229.858V231.043L379.682 230.45V231.635L382.52 232.227L383.655 234.597L382.52 237.559H381.385L380.25 239.929L377.412 241.114H374.574L371.737 241.706L367.764 242.299H351.305L347.333 241.114V239.929L343.36 239.336L342.792 235.19L343.927 232.227L349.603 230.45L353.008 229.858Z" fill="#D75121"/>
<path d="M152 156C163.5 167.5 189 168 203 156" stroke="#F9F4E9" stroke-width="18" stroke-linecap="round"/>
<path d="M289 156C300.5 167.5 326 168 340 156" stroke="#F9F4E9" stroke-width="18" stroke-linecap="round"/>
<path d="M329 166.116C333.171 164.843 338.954 168.021 340.427 172.714" stroke="#F9F4E9" stroke-width="13" stroke-linecap="round"/>
<path d="M313 166.116C317.171 164.843 322.954 168.021 324.427 172.714" stroke="#F9F4E9" stroke-width="13" stroke-linecap="round"/>
<path d="M329 166.116C333.171 164.843 338.954 168.021 340.427 172.714" stroke="#F9F4E9" stroke-width="13" stroke-linecap="round"/>
<path d="M313 166.116C317.171 164.843 322.954 168.021 324.427 172.714" stroke="#F9F4E9" stroke-width="13" stroke-linecap="round"/>
<path d="M160.649 166.116C156.478 164.843 150.695 168.021 149.222 172.714" stroke="#F9F4E9" stroke-width="13" stroke-linecap="round"/>
<path d="M176.649 166.116C172.478 164.843 166.695 168.021 165.222 172.714" stroke="#F9F4E9" stroke-width="13" stroke-linecap="round"/>
<path d="M369.129 104H387.129" stroke="black" stroke-width="6" stroke-linecap="round"/>
<path d="M369.129 122H387.129" stroke="black" stroke-width="6" stroke-linecap="round"/>
<path d="M369 122L387 104" stroke="black" stroke-width="6" stroke-linecap="round"/>
<path d="M427.251 22H462.251" stroke="black" stroke-width="10" stroke-linecap="round"/>
<path d="M427.251 57H462.251" stroke="black" stroke-width="10" stroke-linecap="round"/>
<path d="M427 57L462 22" stroke="black" stroke-width="10" stroke-linecap="round"/>
<path d="M401.221 76H432" stroke="black" stroke-width="8" stroke-linecap="round"/>
<path d="M401.221 106.779H432" stroke="black" stroke-width="8" stroke-linecap="round"/>
<path d="M401 106.779L431.779 76" stroke="black" stroke-width="8" stroke-linecap="round"/>
</svg>
