<svg width="512" height="512" viewBox="0 0 512 512" fill="none" xmlns="http://www.w3.org/2000/svg">
<g clip-path="url(#clip0_4340_3543)">
<ellipse cx="255.828" cy="284.176" rx="227.828" ry="227.823" fill="#D8D0A5"/>
<path d="M205.88 188.654H207.277V190.153L212.861 188.654L214.258 189.403L216.352 188.654H266.616L268.012 189.403L274.993 188.654H300.126L311.295 189.403H333.635L340.616 190.153L344.107 189.403L357.371 190.153H365.748L386.691 194.647L392.276 197.644L392.975 199.142L395.767 199.891L401.352 203.637L405.541 208.881V210.379H406.937L409.031 215.623L410.427 217.122L412.522 225.362L413.22 226.111L414.616 240.345L415.314 247.836L416.012 249.335L415.314 257.575V288.29L416.012 289.788L414.616 295.032V309.266L413.22 311.513H414.616V315.259L413.918 319.005L413.22 326.496V330.991L410.427 342.228L408.333 349.719L403.446 358.709L397.861 363.953L397.163 365.451L388.786 369.946L376.22 372.943H373.427L372.729 374.441L370.635 373.692L369.239 374.441H367.144L354.578 375.939L340.616 376.689L330.842 377.438H315.484L313.39 378.936L309.899 378.187H295.239L293.842 378.936H219.843L216.352 378.187L214.258 378.936L210.069 378.187H200.993L185.635 377.438L183.541 376.689H170.277L166.088 375.939H159.107L144.446 374.441L131.88 372.194L122.107 369.946L116.522 366.95L110.239 363.953L108.843 362.455L106.748 360.957L106.05 358.709L103.956 356.462L102.56 354.214V351.967H101.163V350.469L99.7671 349.719L97.6728 342.228L96.2766 336.984L94.1822 322.75L93.4841 316.757V310.764L92.786 303.273L92.0879 282.297V253.08L92.786 244.84V241.094L93.4841 239.596L94.1822 228.359L94.8803 225.362L96.2766 222.366L99.7671 211.878L101.861 211.129L103.258 207.383L105.352 206.634L106.05 204.386H107.446L108.843 201.39L113.031 198.393H115.824V196.895L120.012 194.647L126.295 193.149L130.484 191.651L145.843 190.153L162.597 189.403H204.484L205.88 188.654Z" fill="#423940"/>
<path d="M346.192 225.363H351.776L360.852 228.36L365.739 230.607L369.229 234.353L370.626 235.102V236.6H372.022L375.512 242.594V244.092H376.909L379.701 251.583L380.399 258.325V264.319L379.701 269.563L376.21 277.054L375.512 280.051H374.116L372.72 283.047L369.927 287.542L360.154 293.535L353.871 295.033L345.493 295.782L335.72 294.284L331.531 291.288L328.041 290.538L325.946 288.291V286.793L323.154 285.295L318.965 279.301L315.475 266.566V255.329L317.569 248.587L318.965 243.343L319.663 241.095H321.06V239.597H322.456L323.852 235.851H325.248V234.353L327.343 232.106H328.739V230.607L333.626 229.858L334.324 228.36L340.607 226.112L346.192 225.363Z" fill="#F8F3E6"/>
<path d="M155.601 225.363H166.771L172.356 227.611L178.639 230.607L180.733 232.106V233.604L182.828 234.353V235.851L184.922 236.6L188.413 242.594V245.59H189.809L192.601 254.58V266.566L190.507 274.057L189.111 277.803L184.922 284.545H183.526L182.828 287.542L175.847 292.037L172.356 292.786V294.284L158.394 295.782L152.111 294.284L145.828 292.037L140.941 289.04V287.542H139.545V286.044L136.752 284.545V283.047H135.356V281.549H133.96L130.469 272.559L129.073 265.068L128.375 256.827L129.771 249.336H131.167L131.866 244.092L133.96 240.346H135.356L136.054 237.35L137.45 235.102H138.847L139.545 232.855L143.035 230.607H144.432L145.13 229.109L152.111 226.112L155.601 225.363Z" fill="#F8F3E6"/>
<path d="M163.998 244.105L170.281 246.353L173.772 249.349L176.564 253.844L177.961 257.59V265.081L177.262 268.827H175.866L174.47 273.322L170.281 277.068L163.3 279.315L157.017 276.319L152.828 271.075L151.432 270.325L149.338 262.834L150.036 257.59L154.225 248.6L156.319 246.353L163.998 244.105Z" fill="#2B2E23"/>
<path d="M131.927 310L139.61 312.234L143.878 315.213L147.293 319.681L149 323.404V330.851L148.146 334.574H146.439L144.732 339.043L139.61 342.766L131.073 345L123.39 342.021L118.268 336.809L116.561 336.064L114 328.617L114.854 323.404L119.976 314.468L122.537 312.234L131.927 310Z" fill="#EEA396"/>
<path d="M383.927 311L391.61 313.234L395.878 316.213L399.293 320.681L401 324.404V331.851L400.146 335.574H398.439L396.732 340.043L391.61 343.766L383.073 346L375.39 343.021L370.268 337.809L368.561 337.064L366 329.617L366.854 324.404L371.976 315.468L374.537 313.234L383.927 311Z" fill="#EEA396"/>
<path d="M344.815 244.85L351.796 245.599L353.891 246.348V247.846L355.985 248.595V250.094L358.079 250.843L360.872 256.836L361.57 264.327L359.476 271.07L356.683 274.815L353.193 276.313V277.812L349.702 278.561H344.815L339.23 276.313L335.74 271.819L332.947 263.578L333.645 255.338L334.343 253.09H335.74L337.834 248.595H339.23L339.928 246.348L344.815 244.85Z" fill="#2C2E23"/>
<path d="M254.344 310.215C238.844 310.215 230.344 302.71 223.844 291.216C217.344 279.721 229.845 276.221 233.344 281.216C236.843 286.21 246.01 293.287 254.344 293.216C265.452 293.636 275.348 284.715 279.344 281.216C283.34 277.716 290.344 279.21 288.844 287.716C287.344 296.221 269.844 310.215 254.344 310.215Z" fill="#D9D9D9"/>
<path d="M160.377 97.3793C167.592 80.3562 176.426 73.0339 199.476 63.5489C189.806 55.1414 182.617 53.8766 168.388 54.3408C186.561 38.0616 200.136 38.5049 229.431 53.2901C226.688 35.538 220.193 27.1522 199.86 18.4503C231.759 8.07737 254.942 18.2477 262.874 51.3425C271.928 27.5047 271.002 16.5151 256.972 1.60147C288.648 6.45696 294.107 19.9686 291.146 55.2053C309.88 42.6881 315.44 33.1553 313.546 9.82628C325.413 17.5745 328.338 23.3252 330.032 34.9102C330.672 48.3421 326.898 54.7452 313.72 64.4085C328.307 67.7505 342.305 75.7658 346.132 82.9002C354.81 99.0782 339.302 107.995 314.443 97.7677C293.83 88.2236 285.416 82.0789 268.941 69.5205C278.826 78.5836 284.168 83.9229 291.063 96.7805C297.34 110.479 294.138 115.417 281.477 121.379C261.421 123.19 251.076 120.134 235.332 103.031C223.811 84.7252 220.937 75.2883 229.925 61.7757C218.243 71.8365 215.298 79.693 216.544 98.616C217.529 113.584 203.11 125.943 183.643 127.077C164.591 126.684 156.145 110.648 160.377 97.3793Z" fill="#35313A"/>
</g>
<defs>
<clipPath id="clip0_4340_3543">
<rect width="512" height="512" fill="white"/>
</clipPath>
</defs>
</svg>
