<svg width="962" height="1051" viewBox="0 0 962 1051" fill="none" xmlns="http://www.w3.org/2000/svg">
<path d="M385.757 513.632L387.75 513.466L387.915 515.459L395.722 512.804L397.798 513.636L400.705 512.391L472.459 506.437L474.534 507.268L484.417 505.444L520.294 502.467L536.322 502.14L568.212 499.494L578.261 499.663L583.161 498.253L602.179 497.678L614.138 496.686L644.531 500.184L652.834 503.509L653.996 505.42L658.065 506.085L666.451 510.407L673.01 516.886L673.175 518.88L675.168 518.714L678.737 525.442L680.896 527.27L684.795 537.984L685.874 538.898L689.439 557.667L691.262 567.551L692.424 569.461L692.337 580.506L695.728 621.366L696.89 623.276L695.476 630.417L697.047 649.352L695.302 652.507L697.295 652.342L697.709 657.325L697.126 662.39L696.956 672.439L697.452 678.418L694.707 693.698L692.544 703.912L686.56 716.449L679.167 724.087L678.335 726.163L666.873 733.135L649.265 738.61L645.279 738.941L644.448 741.016L641.375 740.268L639.465 741.43L636.475 741.678L618.702 745.16L598.853 747.81L584.984 749.965L563.059 751.784L560.235 754.025L555.17 753.442L534.241 755.179L532.331 756.341L426.694 765.107L421.629 764.524L418.722 765.769L412.659 765.269L399.704 766.344L377.697 767.167L374.624 766.418L355.689 767.989L349.627 767.489L339.661 768.316L318.568 768.06L300.381 766.559L286.181 764.727L277.878 761.402L268.578 758.16L266.419 756.332L263.264 754.587L262.02 751.68L258.782 748.939L256.541 746.114L256.292 743.125L254.299 743.29L254.134 741.297L252.058 740.466L248.241 730.748L245.669 723.937L241.108 705.251L239.45 697.361L238.788 689.388L236.965 679.505L233.653 651.684L230.427 612.817L230.514 601.772L230.101 596.789L230.932 594.713L230.688 579.682L231.354 575.613L233.016 571.461L236.841 557.096L239.748 555.851L241.328 550.703L244.235 549.458L244.983 546.386L246.976 546.22L248.639 542.069L254.287 537.586L258.274 537.255L258.108 535.262L263.84 531.776L272.643 529.039L278.457 526.55L300.217 522.737L324.052 519.756L383.846 514.793L385.757 513.632Z" fill="#020617"/>
<path d="M590.121 545.841L598.094 545.18L611.38 548.091L618.604 550.501L624 555.071L626.076 555.902L626.242 557.895L628.235 557.73L633.879 565.289L634.045 567.282L636.038 567.117L640.851 576.752L642.592 585.638L643.254 593.611L642.836 600.669L638.68 611.049L638.014 615.118L636.021 615.283L634.359 619.435L630.869 625.745L617.578 634.875L608.775 637.613L596.898 639.602L582.781 638.766L576.471 635.276L571.405 634.693L568.167 631.952L568.002 629.959L563.85 628.296L557.209 620.82L550.82 604.292L549.58 589.343L551.825 580.126L553.239 572.984L553.988 569.912L555.981 569.746L555.816 567.753L557.809 567.588L559.388 562.44L561.382 562.274L561.216 560.281L563.958 557.043L565.951 556.878L565.786 554.885L572.679 553.309L573.51 551.233L582.231 547.499L590.121 545.841Z" fill="#F8F3E6"/>
<path d="M318.055 568.419L334.001 567.095L342.221 569.424L351.521 572.666L354.676 574.411L354.842 576.404L357.914 577.152L358.08 579.145L361.152 579.894L366.796 587.453L367.127 591.439L369.12 591.274L374.099 602.902L375.422 618.847L373.26 629.061L371.68 634.209L366.445 643.675L364.452 643.84L363.786 647.909L354.316 654.715L349.416 656.126L349.582 658.119L329.816 661.766L320.681 660.517L311.464 658.272L304.157 654.864L303.992 652.871L301.998 653.036L301.833 651.043L297.681 649.381L297.516 647.388L295.523 647.553L295.357 645.56L293.364 645.725L287.389 634.18L284.569 624.38L282.662 613.5L283.829 603.369L285.822 603.204L286.239 596.145L288.816 590.914L290.809 590.749L291.475 586.68L293.22 583.524L295.213 583.359L295.961 580.287L300.696 576.883L302.689 576.718L303.52 574.642L313.155 569.829L318.055 568.419Z" fill="#F8F3E6"/>
<path d="M109.634 705.952L104.109 702.859L95.3157 699.806L93.0533 699.96L90.5414 698.853L83.5021 699.697L78.4709 702.412L75.1983 705.739L74.4425 706.886L72.9285 710.823L72.9137 720.682L74.9218 722.554L74.4155 724.962L78.1723 734.017L79.6789 735.01L80.1779 737.532L82.1834 741.047L84.1915 742.919L86.6985 747.313L89.4574 751.324L93.2216 755.45L101.002 763.318L109.787 771.301L116.817 777.031L134.143 788.449L145.947 795.131L149.966 797.231L165.539 804.753L173.326 807.692L184.883 811.47L183.883 808.069L181.376 803.675L179.368 801.803L179.874 799.396L178.367 798.403L178.871 797.638L177.367 795.002L176.117 790.34L175.114 788.583L175.87 787.436L174.615 786.061L175.875 784.149L174.368 783.156L176.384 780.098L173.373 776.469L169.606 773.987L169.103 774.751L164.081 770.894L158.808 767.419L151.025 761.193L148.014 757.564L145.754 756.075L145.757 754.431L141.993 750.306L142.247 748.28L139.236 744.651L133.973 734.603L132.72 731.584L131.216 728.948L128.956 727.459L129.462 725.051L120.931 715.042L115.409 710.306L112.395 708.32L109.634 705.952Z" fill="#2D3128"/>
<path d="M435.87 887.769L440.935 888.352L468.84 886.037L470.915 886.868L472.243 890.771L476.709 944.586L476.126 949.652L477.618 955.549L477.449 965.597L479.764 993.501L476.605 1003.8L475.774 1005.87L473.781 1006.04L473.032 1009.11L471.039 1009.28L470.291 1012.35L461.652 1017.08L451.852 1019.9L441.886 1020.73L438.897 1020.98L424.531 1017.15L423.286 1014.24L421.293 1014.41L416.893 1009.76L416.645 1006.77L414.652 1006.93L412.994 999.042L412.415 992.066L414.909 985.839L417.485 980.608L420.474 980.359L420.309 978.366L430.941 973.47L433.848 972.226L427.397 894.493L427.98 889.427L435.87 887.769Z" fill="#2A2D23"/>
<path d="M518.668 881.902L549.562 879.338L558.614 879.59L560.773 881.418L559.942 883.494L563.084 921.364L564.246 923.274L563.911 931.329L567.633 976.175L566.88 991.289L566.132 994.362L564.139 994.527L562.476 998.679L558.903 1003.99L552.258 1008.56L546.444 1011.05L530.582 1013.37L519.454 1012.28L508.992 1007.13L502.351 999.654L499.365 987.861L502.607 978.561L505.184 973.33L510.832 968.848L516.646 966.358L521.629 965.945L522.46 963.869L520.806 943.937L519.562 941.03L519.731 930.982L517.908 921.099L516.171 900.171L515.844 884.143L518.668 881.902Z" fill="#292D23"/>
<path d="M659.033 24.3551L665.145 25.0558L667.948 29.6545L673.156 34.0537L680.86 53.9477L692.462 91.6358L699.561 118.827L702.962 130.623L705.757 149.717L703.451 151.116L690.93 146.116L679.81 143.415L666.384 142.114L640.836 140.61L629.815 139.109L616.489 139.007L610.278 137.107L593.345 137.304L594.149 132.406L600.368 119.812L606.786 109.616L609.597 99.7202L613.005 97.0217L614.912 90.8243L617.317 90.6247L619.224 84.4272L622.234 76.9304L626.645 71.733L632.963 60.3381L641.488 46.3444L643.793 44.9453L645.799 39.9474L651.314 33.4506L655.625 27.0536L659.033 24.3551Z" fill="#D3A620"/>
<path d="M181.702 57.9463L188.103 58.686L198.807 65.4239L204.473 72.5798L215.387 81.8423L215.596 84.367L219.479 85.3158L225.355 94.9964L232.385 103.31L232.595 105.835L235.113 105.626L245.082 118.78L245.396 122.567L249.279 123.516L250.957 128.46L253.476 128.251L262.29 142.772L262.604 146.559L265.123 146.35L269.425 152.348L270.998 156.031L273.517 155.822L275.091 159.504L272.781 162.238L265.225 162.865L260.292 164.545L234.264 171.789L226.812 173.679L216.841 175.777L182.207 186.277L169.927 191.11L162.475 192.999L163.001 184.058L162.794 166.281L163.846 148.399L165.844 126.626L169.731 97.0702L172.253 81.6088L174.983 68.672L179.288 59.4176L181.702 57.9463Z" fill="#D3A620"/>
<path d="M524.387 672.712L529.37 672.298L531.694 676.119L533.27 683.012L532.852 690.071L530.859 690.237L529.279 695.385L526.786 701.612L519.392 709.25L510.836 714.977L502.947 716.635L488.995 717.793L479.86 716.544L475.708 714.882L475.543 712.889L467.57 713.55L458.018 719.36L446.225 722.346L441.242 722.759L436.176 722.176L429.117 721.759L423.804 718.186L416.497 714.778L411.1 710.209L405.291 700.657L403.467 690.774L404.05 685.708L402.888 683.798L410.943 684.133L413.019 684.964L416.422 689.699L422.232 699.251L427.629 703.82L436.846 706.066L448.97 707.066L458.605 702.253L464.92 693.702L466.417 687.557L469.324 686.312L474.054 694.951L478.454 699.603L486.757 702.927L503.699 701.521L512.172 694.798L516.659 688.405L520.649 676.032L524.387 672.712Z" fill="#F7F2E5"/>
<path d="M455.148 612.231L476.077 610.494L488.284 612.491L493.515 615.068L495.007 620.964L491.765 630.264L489.106 634.499L487.113 634.664L485.451 638.816L483.706 641.971L480.716 642.219L479.968 645.291L474.402 650.77L463.687 654.67L453.391 651.511L453.226 649.517L448.077 647.938L442.681 643.368L432.802 633.15L428.154 625.509L428.903 622.436L433.555 618.036L442.276 614.302L455.148 612.231Z" fill="#EE5858"/>
<path d="M308.164 594.325L317.381 596.571L322.695 600.143L327.178 605.792L329.584 610.61L330.411 620.575L329.828 625.641L327.835 625.806L326.338 631.951L320.772 637.43L311.055 641.247L301.755 638.005L295.196 631.525L293.12 630.694L289.304 620.976L289.721 613.918L294.708 601.463L297.45 598.225L308.164 594.325Z" fill="#2B2E23"/>
<path d="M571.343 573.489L581.392 573.659L584.464 574.407L584.629 576.4L587.702 577.149L587.867 579.142L590.94 579.89L595.588 587.532L597.411 597.415L595.166 606.632L591.593 611.946L586.775 614.353L586.941 616.346L582.041 617.756L575.065 618.335L566.844 616.007L561.365 610.441L556.469 599.809L556.556 588.764L557.304 585.692L559.297 585.527L561.791 579.299L563.784 579.134L564.533 576.061L571.343 573.489Z" fill="#2C2E23"/>
<path d="M280.81 687.908L292.769 686.915L302.817 687.085L313.862 687.172L321.917 687.507L323.162 690.414L325.155 690.248L324.655 696.311L321.831 698.552L312.944 700.293L296.999 701.616L282.964 701.777L275.823 700.363L275.657 698.37L272.668 698.618L271.175 692.721L273.168 692.556L273.003 690.563L280.81 687.908Z" fill="#EE5858"/>
<path d="M624.959 663.362L652.863 661.047L657.929 661.63L658.094 663.623L661.084 663.375L663.325 666.199L663.573 669.189L657.011 674.75L632.096 676.818L614.989 676.231L611.668 672.493L613.248 667.344L617.069 665.02L624.959 663.362Z" fill="#EE5858"/>
<path d="M308.205 715.738L318.171 714.911L324.233 715.411L326.474 718.235L325.891 723.301L324.063 725.459L308.366 729.772L298.483 731.596L283.535 732.836L278.386 731.257L277.89 725.277L281.546 720.96L292.425 719.054L296.329 717.727L308.205 715.738Z" fill="#EE5858"/>
<path d="M616.395 693.173L635.413 692.598L650.609 694.347L656.837 696.841L657.002 698.834L659.078 699.665L656.502 704.896L650.688 707.386L632.584 706.881L615.312 704.301L612.156 702.556L612.574 695.497L616.395 693.173Z" fill="#EE5858"/>
<path d="M503.606 132.079L506.678 132.827L510.582 131.5L526.527 130.177L557.503 128.61L569.961 127.576L572.535 128.366L579.511 127.787L582.085 128.577L592.549 127.708L596.659 128.872L603.801 130.287L605.794 130.121L608.866 130.87L619.829 129.96L622.403 130.75L624.894 130.543L628.049 132.288L630.249 134.614L634.235 134.283L644.284 134.453L647.356 135.201L652.879 135.245L657.446 135.869L662.553 136.951L667.536 136.537L672.684 138.117L676.42 140.817L680.032 142.022L683.229 144.266L687.381 145.928L691.367 145.597L696.598 148.173L699.588 147.925L703.657 148.591L705.732 149.422L708.722 149.174L709.262 149.631L712.125 153.909L714.201 154.74L716.691 160.554L718.684 160.389L727.979 175.672L731.879 186.387L733.206 190.29L737.354 203.994L739.756 220.853L741.415 228.743L757.293 420.085L759.117 429.968L758.782 438.024L760.357 444.917L759.443 445.996L761.929 463.852L762.838 474.814L763.378 475.271L762.921 475.811L764.823 498.732L764.488 506.787L766.146 514.677L766.891 523.646L766.059 525.722L766.556 531.702L767.261 534.152L767.343 535.148L767.966 536.602L768.379 541.585L768.541 555.619L769.45 566.582L771.191 575.468L771.522 579.455L772.767 582.362L771.729 581.946L772.39 589.919L771.476 590.998L771.931 596.479L771.1 598.555L771.183 599.551L772.593 604.452L777.059 658.267L776.228 660.342L777.303 673.298L778.465 675.208L778.961 681.188L778.13 683.264L779.039 694.226L778.622 701.285L779.866 704.192L779.196 720.302L779.858 728.275L779.689 738.323L780.267 745.299L778.274 745.465L779.519 748.372L778.262 781.59L777.844 788.648L778.01 790.641L786.813 787.904L794.621 785.249L804.255 780.436L814.556 771.554L816.301 768.398L818.294 768.233L819.957 764.081L823.612 759.764L826.106 753.537L830.344 744.154L831.01 740.085L833.255 730.868L834.922 714.674L836.005 703.547L837.999 703.381L836.506 697.485L840.083 680.129L843.325 670.829L845.318 670.664L846.815 664.519L851.384 659.123L852.133 656.05L855.122 655.802L856.785 651.65L862.516 648.165L863.347 646.089L872.068 642.355L882.865 639.452L887.931 640.035L891.834 638.708L906.117 641.536L911.348 644.112L912.51 646.023L916.662 647.685L926.541 657.903L932.433 668.452L934.923 674.266L937.325 691.125L938.566 706.074L937.9 710.143L937.73 720.191L934.985 735.47L933.736 744.605L931.743 744.77L933.07 748.674L929.745 756.977L929.08 761.046L927.086 761.212L925.589 767.357L921.434 777.736L919.44 777.901L917.861 783.05L916.198 787.201L913.374 789.443L912.626 792.515L908.97 796.832L904.483 803.225L901.742 806.463L899.749 806.628L898.086 810.78L887.951 821.655L881.306 826.221L880.475 828.296L874.743 831.782L866.27 838.506L856.635 843.319L848.911 846.971L836.286 852.032L816.52 855.679L804.644 857.668L790.609 857.83L787.785 860.071L785.626 858.243L774.581 858.156L761.46 857.238L750.25 855.158L750.085 853.165L747.178 854.41L734.888 851.416L731.733 849.671L728.826 850.915L723.843 851.329L723.012 853.405L720.936 852.574L720.105 854.649L708.311 857.635L686.635 862.444L675.755 864.35L666.786 865.095L659.893 866.67L649.927 867.497L645.027 868.907L643.034 869.073L642.12 870.152L640.792 866.248L640.044 869.321L642.12 870.152L635.226 871.728L630.409 874.134L624.512 875.627L620.609 876.954L614.712 878.447L610.578 877.006L610.436 875.29L597.571 876.358L597.419 875.618L594.367 875.118L573.521 877.852L561.563 878.844L559.9 882.996L563.043 920.866L564.205 922.776L563.87 930.831L567.591 975.677L566.839 990.791L566.09 993.864L564.097 994.029L562.435 998.181L558.862 1003.49L552.217 1008.06L546.403 1010.55L530.54 1012.87L519.413 1011.79L508.951 1006.63L502.31 999.156L499.324 987.363L502.566 978.063L505.142 972.832L510.791 968.349L516.605 965.86L521.588 965.447L522.419 963.371L520.765 943.439L519.52 940.532L519.69 930.484L517.866 920.601L516.129 899.673L516.051 886.635L515.637 881.652L513.644 881.817L512.813 883.893L505.754 883.475L501.851 884.803L486.902 886.043L484.992 887.205L482.833 885.377L475.857 885.956L471.954 887.284L476.668 944.088L476.084 949.154L477.577 955.051L477.408 965.099L479.723 993.003L476.564 1003.3L475.733 1005.38L473.74 1005.54L472.991 1008.61L470.998 1008.78L470.25 1011.85L461.611 1016.58L451.811 1019.4L438.855 1020.48L424.49 1016.65L423.245 1013.75L421.252 1013.91L416.852 1009.26L416.604 1006.27L414.611 1006.43L412.953 998.544L412.374 991.568L414.867 985.341L417.444 980.11L420.433 979.862L420.268 977.868L430.899 972.972L433.806 971.728L427.273 892.998L425.946 889.095L417.973 889.756L411.08 891.332L410.001 890.418L404.021 890.914L401.114 892.159L398.089 891.98L398 890.912L389.529 891.615L385.003 891.489L385.045 891.987L346.031 895.225L346.137 894.714L337.999 893.383L328.033 894.21L324.13 895.537L314.995 894.288L312.919 893.457L312.088 895.533L302.04 895.363L296.06 895.86L292.988 895.111L287.008 895.607L279.867 894.193L262.842 894.602L249.639 892.688L245.57 892.022L245.405 890.029L237.432 890.691L227.135 887.531L224.977 885.704L220.825 884.041L215.594 881.465L203.888 873.406L203.722 871.412L201.729 871.578L201.398 867.591L199.405 867.757L191.354 855.38L189.944 850.48L185.048 839.849L180.735 824.152L178.663 811.279L177.253 806.379L176.261 794.42L175.099 792.509L173.775 776.564L171.952 766.681L170.629 750.736L169.301 746.832L166.407 711.952L166.576 701.904L166.328 698.914L164.422 688.034L161.527 653.154L162.276 650.082L161.736 649.625L161.653 648.628L161.114 648.171L160.37 639.202L161.118 636.13L159.791 632.226L156.896 597.346L157.562 593.277L157.107 587.796L156.069 587.38L155.283 577.913L155.699 576.875L155.077 575.421L153.997 574.508L154.994 574.425L154.084 563.463L154.502 556.404L154.837 548.349L152.761 547.517L153.592 545.442L152.765 535.476L153.431 531.407L152.434 531.489L153.307 529.912L150.536 496.527L150.706 486.478L150.375 482.492L135.001 273.046L134.422 266.07L136.415 265.904L134.923 260.008L135.34 252.949L134.761 245.973L136.176 238.832L138.921 223.552L142.163 214.252L145.571 206.945L148.147 201.714L148.604 201.175L150.597 201.009L150.556 200.511L151.552 200.428L152.092 200.885L153.047 200.304L153.961 199.225L155.871 198.063L157.616 194.908L163.182 189.429L167.336 185.07L170.824 184.781L176.68 182.79L200.641 175.283L205.043 173.914L206.912 172.254L212.891 171.757L214.303 170.637L218.29 170.306L219.743 169.684L221.695 169.02L225.142 168.232L228.131 167.984L232.575 167.114L241.378 164.376L243.787 163.173L248.77 162.759L248.687 161.763L251.179 161.556L253.131 160.892L255.539 159.689L265.505 158.862L269.409 157.535L276.261 155.461L279.707 154.673L289.175 153.887L291.126 153.224L292.621 153.1L293.535 152.02L295.528 151.855L313.343 148.871L330.284 147.466L334.188 146.138L338.174 145.807L347.309 147.056L348.14 144.98L351.212 145.729L353.123 144.567L362.175 144.819L371.061 143.078L376.127 143.661L380.03 142.334L404.862 139.27L471.633 133.729L503.606 132.079ZM385.418 170.986L380.353 170.403L380.518 172.397L374.456 171.896L358.594 174.216L337.666 175.953L327.865 178.773L326.703 176.862L319.727 177.441L302.951 180.84L288.002 182.081L284.099 183.408L277.123 183.987L272.222 185.397L255.363 187.8L237.59 191.282L221.811 194.598L215 197.17L209.021 197.666L209.186 199.659L202.21 200.238L190.499 204.22L181.944 209.948L182.109 211.941L179.037 211.192L177.374 215.344L173.553 217.668L172.805 220.74L168.984 223.064L166.408 228.295L163.914 234.523L161.417 252.792L161.913 258.771L160.999 259.851L161.412 264.834L162.574 266.744L161.077 272.889L177.039 465.228L176.29 468.3L177.365 481.256L176.782 486.321L176.613 496.37L178.023 501.27L178.101 514.308L178.928 524.274L179.925 524.191L181.418 530.088L179.838 535.236L179.09 538.308L180.165 551.264L179.499 555.333L181.157 563.223L183.886 596.11L183.634 605.162L184.713 606.075L184.461 615.127L185.731 619.539L185.954 621.024L185.961 623.532L186.491 627.502L187.736 630.409L188.939 632.818L189.022 633.814L190.267 636.721L186.529 640.042L188.183 659.973L187.517 664.042L189.092 670.936L191.656 701.829L195.134 731.644L196.291 745.596L199.934 777.404L200.431 783.383L201.923 789.28L203.081 803.232L206.15 816.022L206.563 821.005L208.97 825.822L210.628 833.712L215.359 842.35L222.33 853.813L227.561 856.389L231.548 856.059L232.792 858.966L240.099 862.373L249.234 863.622L260.444 865.702L272.568 866.703L276.637 867.368L285.689 867.621L295.738 867.79L298.81 868.539L314.755 867.215L320.818 867.716L330.783 866.889L340.914 868.055L345.815 866.645L357.856 866.649L382.771 864.581L394.812 864.586L394.647 862.592L403.781 863.841L411.837 864.176L427.699 861.856L432.765 862.44L445.72 861.364L451.617 859.872L464.655 859.793L485.583 858.056L490.483 856.646L491.563 857.56L512.491 855.823L517.556 856.407L519.549 856.241L519.384 854.248L525.446 854.748L537.405 853.756L540.229 851.515L540.395 853.508L559.33 851.936L562.237 850.692L576.189 849.534L585.241 849.786L588.23 849.538L588.065 847.545L594.127 848.045L611.983 845.56L621.948 844.733L627.845 843.24L646.78 841.669L660.567 838.518L672.526 837.526L676.429 836.198L682.409 835.702L687.309 834.292L696.195 832.551L723.52 823.259L735.897 815.208L743.208 806.574L743.043 804.581L745.036 804.416L749.109 793.04L751.272 782.826L750.027 779.919L752.02 779.753L753.104 768.626L753.356 759.574L753.525 749.525L754.443 736.405L752.289 722.535L753.037 719.463L752.128 708.5L750.966 706.59L752.876 705.428L751.884 693.469L751.971 682.424L744.362 590.739L744.736 589.203L744.197 588.746L744.654 588.207L744.612 587.708L745.069 587.169L744.118 575.708L744.41 573.175L743.457 567.735L741.302 553.866L741.885 548.8L740.392 542.904L740.767 541.368L740.56 538.876L740.851 536.343L735.765 475.054L735.356 458.03L732.871 440.174L731.792 439.26L732.044 430.208L729.889 416.339L713.18 227.072L708.205 203.403L701.982 188.868L696.172 179.315L691.855 175.66L689.862 175.825L687.538 172.004L680.231 168.597L676.993 165.855L669.934 165.438L669.769 163.445L656.483 160.533L651.5 160.947L644.358 159.533L639.375 159.946L636.303 159.198L619.196 158.61L606.158 158.689L599.099 158.271L596.94 156.444L593.037 157.771L581.992 157.684L575.016 158.263L569.95 157.68L562.974 158.259L557.909 157.676L547.943 158.503L530.918 158.912L526.018 160.322L524.856 158.412L515.97 160.153L511.901 159.487L507.997 160.814L498.945 160.562L492.052 162.137L478.017 162.299L433.171 166.02L424.368 168.758L423.206 166.847L392.312 169.411L385.418 170.986Z" fill="#D3A620"/>
<path d="M149.054 725.58L166.568 719.79L177.676 709.706L169.44 619.451L156.486 609.305L138.546 610.426L115.123 617.368L99.3151 630.875L93.327 664.115L95.3149 685.9L106.131 705.569L124.708 722.406L149.054 725.58Z" stroke="#D3A620" stroke-width="25"/>
<path d="M143.946 654.316C131.427 652.024 122.776 670.614 126.181 678.794C127.071 681.637 127.952 683.337 130.503 686.55C132.936 688.28 139.169 688.507 139.169 688.507C139.169 688.507 145.103 686.971 145.771 683.391C146.784 679.781 146.204 674.531 141.952 673.421" stroke="#D3A620" stroke-width="13" stroke-linecap="round"/>
<path d="M476.43 941.235L475.864 946.496L477.376 952.627L477.239 963.067L479.645 992.065L476.518 1002.75L475.694 1004.91L473.701 1005.07L472.962 1008.26L470.969 1008.43L470.23 1011.62L461.604 1016.5L451.811 1019.4L438.855 1020.48L424.473 1016.46L423.219 1013.43L421.226 1013.6L416.81 1008.75L416.552 1005.64L414.559 1005.81L412.875 997.606L412.273 990.356L414.747 983.894L417.307 978.467L420.297 978.219L420.125 976.148L430.744 971.096L433.647 969.812L426.901 888.513L471.747 884.792L476.43 941.235ZM559.488 878.032L562.754 917.387L563.922 919.375L563.613 927.743L567.481 974.347L566.777 990.048L566.038 993.237L564.045 993.403L562.396 997.711L558.839 1003.22L552.207 1007.94L546.399 1010.51L530.54 1012.87L519.406 1011.71L508.924 1006.32L502.257 998.53L499.233 986.268L502.446 976.616L505.006 971.19L510.641 966.552L516.449 963.983L521.432 963.57L522.257 961.416L520.538 940.703L519.283 937.678L519.42 927.24L517.564 916.965L515.759 895.217L515.639 881.671L515.596 881.153L559.694 877.493L559.488 878.032ZM614.3 873.483L613.136 873.059L617.246 872.717L614.3 873.483Z" fill="#292D23"/>
</svg>
