<svg width="86" height="100" viewBox="0 0 86 100" fill="none" xmlns="http://www.w3.org/2000/svg">
<path d="M53.3017 0.8004L53.8753 0.951747L54.0792 1.42938L54.5154 1.92121L54.9757 3.9263L55.562 7.68348L55.8637 10.3766L56.0251 11.5494L56.0279 13.4103L55.7886 13.5119L54.6627 12.8617L53.6388 12.4502L52.3755 12.1404L49.958 11.6438L48.927 11.3482L47.6566 11.1543L47.0901 10.8871L45.4714 10.6718L45.6158 10.2155L46.3834 9.09948L47.1368 8.21519L47.5419 7.30961L47.9044 7.09919L48.1721 6.53408L48.4044 6.54828L48.672 5.98318L49.0629 5.30931L49.5558 4.87427L50.3163 3.87412L51.3232 2.65645L51.5626 2.55478L51.8231 2.10554L52.4392 1.56173L52.9391 1.01083L53.3017 0.8004Z" fill="#292D23"/>
<path d="M6.78218 0L7.3915 0.122147L8.36642 0.85503L8.85388 1.58791L9.8288 2.56509V2.80938L10.1944 2.93153L10.6819 3.90871L11.2912 4.76374V5.00803H11.5349L12.388 6.35165V6.71809L12.7536 6.84024L12.8754 7.32883H13.1192L13.8503 8.79459V9.16104H14.0941L14.4597 9.77177L14.5815 10.1382H14.8253L14.9471 10.5047L14.7034 10.7489H13.9722L13.4847 10.8711L10.9256 11.3597L10.1944 11.4818L9.21948 11.604L5.80726 12.3369L4.58861 12.7033L3.85742 12.8254L3.97929 11.9704L4.10115 10.2604L4.34488 8.5503L4.71048 6.4738L5.3198 3.66441L5.6854 2.19865L6.05099 0.977177L6.53845 0.122147L6.78218 0Z" fill="#292D23"/>
<path d="M20.6367 50.7236H43.0089L43.4911 50.8201L44.2626 50.7236V50.9165L44.9376 50.8201L46.5769 50.9165L48.3127 51.1094L49.277 51.3022L50.1449 51.4951L51.6878 52.1701V52.363L52.17 52.4594L52.3629 52.5558V52.7487L52.845 52.8451V53.038L53.1343 53.1344V53.3273H53.3272L54.0022 54.388V54.6773H54.1951V54.9666H54.3879L54.5808 55.6417L54.8701 56.4131L55.063 57.3774V57.8596L55.2558 58.0525L55.1594 58.5346L55.2558 59.4025L55.3523 59.7882V60.5597L55.4487 61.524V63.8384L55.063 64.2241L53.2308 64.7063L52.6522 64.8027L52.5557 64.9956L52.17 64.8991V65.092L50.2414 65.6706L49.277 66.0563L48.602 66.2492L47.6377 66.5385L46.6734 66.7313L46.0948 66.9242L44.6483 67.1171L43.7804 67.2135H42.9125L42.141 67.3099L39.9231 67.1171L39.4409 67.0206L37.7052 66.5385L36.7408 66.1527L35.1979 65.3813L33.9443 64.5134L33.5586 64.8991H33.3657V65.092L33.1728 65.1884L33.0764 65.4777H32.7871L32.6907 65.767L32.305 65.8634L32.1121 66.2492L30.9549 67.1171L30.8585 67.5028L30.9549 68.9493H30.762L30.8585 69.335L30.762 69.5279H30.9549V70.2993L30.8585 70.5886L31.0513 70.685L30.9549 70.9743L31.6299 71.1672L33.0764 70.8779V70.685H33.3657L33.4621 70.3958H33.655L33.8479 70.01L34.0407 69.7207H34.2336V69.5279H35.0051L35.3908 69.9136L35.4872 70.4922L35.0051 71.2636L34.4265 71.7458H34.2336V71.9387L33.7514 72.0351V72.228H33.5586L33.4621 72.4208L32.4978 72.7101H30.8585L29.9906 72.3244L29.7013 72.4208L29.6049 72.6137L28.5441 72.7101L27.6762 72.8065V72.6137H27.194V72.3244H26.7119L26.3262 72.1315V71.9387L25.9404 71.8422L25.4583 71.4565L25.0725 71.0708L24.8797 70.4922V69.9136L25.169 69.6243L26.0369 69.5279L26.3262 70.01L27.0012 70.5886V70.7815L27.4833 70.8779V71.0708L28.6405 71.1672L29.2191 70.9743V67.4064L29.3156 67.2135L28.9298 67.0206L28.5441 66.7313V66.5385H28.3512V66.3456H28.1584V66.1527L27.5798 65.9599L27.2905 65.6706V65.4777L26.9048 65.2849L26.519 64.8027V64.6098L26.2297 64.5134L25.3618 65.092H25.0725L24.9761 65.3813L23.8189 65.9599L23.0475 66.2492L22.1796 66.5385L20.5402 66.9242L19.383 67.0206L19.1902 67.1171H16.6829L14.2721 66.8278L13.9828 66.7313L12.6328 66.442L11.6685 66.1527L10.9934 65.9599L10.0291 65.6706L9.64338 65.4777L8.96836 65.3813L8.4862 65.1884L7.52187 64.8991L6.26825 64.5134L4.72534 64.1277L4.62891 63.6455V62.199L4.72534 60.4633V59.7882L4.82177 58.7275L4.9182 58.2453L5.2075 56.606L5.4968 55.6417L5.88253 54.8702L6.07539 54.388L6.26825 54.0988H6.46112L6.55755 53.713H6.75042V53.4237L7.03971 53.3273L7.13614 53.1344H7.32901L7.52187 52.7487L7.9076 52.6523V52.4594L8.38976 52.363V52.1701L8.96836 51.8808L9.93268 51.4951L10.9934 51.2058L13.1149 50.9165H14.0793L14.3686 50.8201H20.5402L20.6367 50.7236Z" fill="#181714"/>
<path d="M44.0704 55.5449L45.7098 55.8342L46.6741 56.3164L47.0598 56.6057V56.7985H47.2527L47.6384 57.3771L47.8313 57.57L48.217 58.3414L48.5063 59.4986V60.6558L48.3134 61.3308L47.7348 62.488L47.2527 63.163H47.0598L46.9634 63.5488L46.4812 63.8381L45.7098 64.2238L44.7454 64.4167L43.6847 64.5131L42.4311 64.1274L41.6596 63.6452L41.1774 63.3559L40.5024 62.3916L40.1167 61.6201L39.9238 60.2701V59.4022L40.3096 58.1486L40.6953 57.3771L41.1774 56.895L41.3703 56.4128L42.1418 56.0271L43.0097 55.7378L44.0704 55.5449Z" fill="#F9F8F3"/>
<path d="M29.3167 61.6201H31.2454L32.5954 61.813L33.8491 62.2951L34.2348 62.5844L34.4277 62.9702L34.3312 63.6452L33.8491 64.5131L33.5598 64.8988H33.3669V65.0917L33.174 65.1881L33.0776 65.4774H32.7883L32.6919 65.7667L32.3061 65.8631L32.1133 66.2489L30.9561 67.1167L30.8597 67.5025L30.9561 68.9489H30.7632L30.8597 69.3347L30.7632 69.5275H30.9561V70.299L30.8597 70.5883L31.0525 70.6847L30.9561 70.974L31.6311 71.1669L33.0776 70.8776V70.6847H33.3669L33.4633 70.3954H33.6562L33.8491 70.0097L34.0419 69.7204H34.2348V69.5275H35.0062L35.392 69.9133L35.4884 70.4919L35.0062 71.2633L34.4277 71.7455H34.2348V71.9383L33.7526 72.0348V72.2276H33.5598L33.4633 72.4205L32.499 72.7098H30.8597L29.9918 72.3241L29.7025 72.4205L29.606 72.6134L28.5453 72.7098L27.6774 72.8062V72.6134H27.1952V72.3241H26.7131L26.3273 72.1312V71.9383L25.9416 71.8419L25.4595 71.4562L25.0737 71.0704L24.8809 70.4919V69.9133L25.1702 69.624L26.038 69.5275L26.3273 70.0097L27.0024 70.5883V70.7812L27.4845 70.8776V71.0704L28.6417 71.1669L29.2203 70.974V67.406L29.3167 67.2132L28.931 67.0203L28.5453 66.731V66.5381H28.3524V66.3453H28.1596V66.1524L27.581 65.9596L27.2917 65.6703V65.4774L26.9059 65.2845L26.5202 64.8024V64.6095H26.3273V64.3202H26.1345L25.8452 63.7416V63.3559L25.5559 63.2595L25.9416 62.488L26.9059 62.0058L27.9667 61.7165L29.3167 61.6201Z" fill="#CF421B"/>
<path d="M15.6229 55.5449H16.2979L16.4908 55.6414H17.1658L18.1302 56.1235L18.4194 56.3164V56.5092H18.6123V56.7985L18.998 56.9914L19.1909 57.1843V57.4736H19.3838L19.7695 58.1486L20.0588 59.4986V61.0415L19.9624 61.5237H19.7695V62.0059L19.3838 62.5845L19.1909 62.6809L19.0945 62.9702L18.6123 63.4523L18.1302 63.8381L17.2623 64.2238L16.3944 64.4167L15.3336 64.3202L13.7907 63.8381V63.6452H13.5014L13.1157 63.2595V63.0666H12.9228V62.8737H12.7299V62.6809H12.5371L12.1514 61.9094L11.9585 61.0415L11.7656 60.3665L11.8621 58.8236L12.0549 58.1486H12.2478L12.3442 57.7629L12.6335 57.2807L12.9228 57.1843L13.0192 56.7985L13.405 56.3164L13.8871 56.0271L15.0443 55.6414L15.6229 55.5449Z" fill="#F9F8F3"/>
<path d="M29.3167 67.2139L29.7989 67.3103L30.7632 67.2139L30.8597 67.5032L30.9561 68.9496H30.7632L30.8597 69.3354L30.7632 69.5282H30.9561V70.2997L30.8597 70.589L31.0525 70.6854L30.9561 70.9747L31.6311 71.1676L33.0776 70.8783V70.6854H33.3669L33.4633 70.3961H33.6562L33.8491 70.0104L34.0419 69.7211H34.2348V69.5282H35.0062L35.392 69.914L35.4884 70.4926L35.0062 71.264L34.4277 71.7462H34.2348V71.939L33.7526 72.0355V72.2283H33.5598L33.4633 72.4212L32.499 72.7105H30.8597L29.9918 72.3248L29.7025 72.4212L29.606 72.6141L28.5453 72.7105L27.6774 72.8069V72.6141H27.1952V72.3248H26.7131L26.3273 72.1319V71.939L25.9416 71.8426L25.4595 71.4569L25.0737 71.0711L24.8809 70.4926V69.914L25.1702 69.6247L26.038 69.5282L26.3273 70.0104L27.0024 70.589V70.7818L27.4845 70.8783V71.0711L28.6417 71.1676L29.2203 70.9747V67.4067L29.3167 67.2139Z" fill="#1C1814"/>
<path d="M16.2006 57.9551L17.2614 58.0515L17.9364 58.4372L18.4186 59.4016L18.515 60.3659L18.4186 61.0409L17.9364 61.8124H17.7435V62.0052L16.8756 62.3909H16.2006L15.4292 62.1017L14.8506 61.3302V61.1373H14.6577L14.4648 59.7873L14.7541 58.9194L15.0434 58.7265L15.1399 58.4372L15.9113 58.0515L16.2006 57.9551Z" fill="#1B1814"/>
<path d="M43.7797 58.1484H44.6476L45.4191 58.5342L45.9012 59.2092L45.9977 59.6913V60.6557L45.7084 61.3307L45.612 61.5236H45.4191L45.3227 61.8129H45.1298V62.0057L43.9726 62.295L43.2011 62.0057L42.9118 61.7164V61.5236H42.719L42.4297 60.5592V59.7878L42.719 59.0163L43.1047 58.4377L43.7797 58.1484Z" fill="#1B1814"/>
<path d="M25.363 87.7529L26.1345 87.8494L26.4237 87.7529H27.6774L27.8702 87.8494L28.4488 87.7529H29.5096L29.8953 87.9458V97.2033L29.606 98.0711L29.2203 98.5533H29.0274L28.931 98.8426H28.6417V99.0355L28.0631 99.2283H25.8452L25.5559 99.0355V99.2283L25.0737 99.1319V98.8426H24.8808V98.5533L24.4951 98.3604L24.3022 97.8783L24.1094 96.914V87.8494L25.363 87.7529Z" fill="#CF421B"/>
<path d="M26.1286 91.5137L29.7045 91.6101L29.7962 91.9958V97.396L29.5211 98.071L29.4294 98.7461L29.0627 98.8425L28.8793 99.3247L28.3292 99.7104L27.5956 99.9997L26.312 99.9033L25.7618 99.7104V99.5175L25.3034 99.4211L24.845 98.9389L24.4782 97.9746L24.2948 96.4317V93.828L24.2031 92.7673V91.803L24.2948 91.6101H25.4868L26.1286 91.5137Z" fill="#171714"/>
<path d="M35.0036 87.7529L35.7751 87.8494L36.0644 87.7529H37.318L37.5109 87.8494L38.0895 87.7529H39.1502L39.5359 87.9458V97.2033L39.2466 98.0711L38.8609 98.5533H38.668L38.5716 98.8426H38.2823V99.0355L37.7037 99.2283H35.4858L35.1965 99.0355V99.2283L34.7143 99.1319V98.8426H34.5215V98.5533L34.1357 98.3604L33.9429 97.8783L33.75 96.914V87.8494L35.0036 87.7529Z" fill="#CF421B"/>
<path d="M35.7731 91.5137L39.349 91.6101L39.4407 91.9958V97.396L39.1657 98.071L39.074 98.7461L38.7072 98.8425L38.5238 99.3247L37.9737 99.7104L37.2402 99.9997L35.9565 99.9033L35.4064 99.7104V99.5175L34.9479 99.4211L34.4895 98.9389L34.1227 97.9746L33.9393 96.4317V93.828L33.8477 92.7673V91.803L33.9393 91.6101H35.1313L35.7731 91.5137Z" fill="#171714"/>
<path d="M42.5255 70.0098H44.2613H44.5506H46.2864L46.9614 70.2991V70.4919L47.2507 70.5884L47.3472 71.0705L47.4436 71.3598H47.1543L47.0579 71.842H46.2864L45.9007 71.9384H42.8148L41.8505 71.842H40.8862L40.2112 71.5527V71.3598H40.0183L39.9219 70.7812L40.3076 70.2991L40.8862 70.1062L42.5255 70.0098Z" fill="#CF421B"/>
<path d="M13.5959 70.0098H15.3316H15.6209H17.3567L18.0317 70.2991V70.4919L18.321 70.5884L18.4175 71.0705L18.5139 71.3598H18.2246L18.1282 71.842H17.3567L16.971 71.9384H13.8852L12.9208 71.842H11.9565L11.2815 71.5527V71.3598H11.0886L10.9922 70.7812L11.3779 70.2991L11.9565 70.1062L13.5959 70.0098Z" fill="#CF421B"/>
<path d="M13.5959 70.0098H15.3316H15.6209H17.3567L18.0317 70.2991V70.4919L18.321 70.5884L18.4175 71.0705L18.5139 71.3598H18.2246L18.1282 71.842H17.3567L16.971 71.9384H13.8852L12.9208 71.842H11.9565L11.2815 71.5527V71.3598H11.0886L10.9922 70.7812L11.3779 70.2991L11.9565 70.1062L13.5959 70.0098Z" fill="#CF421B"/>
<path d="M37.126 10.0771L37.416 10.1738L37.8018 10.0771H39.3447L42.334 10.1738H43.5391L43.7803 10.2695H44.4551L44.6963 10.3662H45.709L46.0947 10.5107L46.4326 10.6074L46.7695 10.7041H46.9629L47.252 10.8008H48.3125L48.5537 10.8965H48.7949L49.084 11.0898L49.2773 11.3311H49.6631L50.627 11.4268L50.916 11.5234L51.4463 11.5723L51.8809 11.668L52.3623 11.8125H52.8447L53.3271 12.0059L53.6641 12.2949L54.002 12.4395L54.291 12.6807L54.6768 12.874H55.0625L55.5449 13.1631H55.834L56.2197 13.2598L56.4131 13.3555H56.7021L56.75 13.4043L56.9912 13.8379L57.1846 13.9346L57.377 14.5127H57.5703L58.3418 16.0557L58.6309 17.1162L58.7275 17.502L59.0166 18.8525L59.1133 20.4922L59.209 21.2637V45.5645L59.3057 46.5283L59.209 47.2998L59.3057 47.9746L59.209 48.0713L59.3057 49.8066V50.8682L59.3545 50.916L59.3057 50.9639V53.1826L59.209 53.9541L59.3057 54.7246V55.5928L59.209 55.7861V56.3643L59.2578 56.6055V56.7021L59.3057 56.8467V57.3291L59.209 58.6787V59.7393L59.3057 60.6074V60.9932L59.4023 61.2822L59.3057 61.2344V62.0059L59.209 62.1025V62.6328L59.1133 62.8252V62.9219L59.209 63.4043V68.6113L59.1133 68.8037V70.0576L59.209 70.251V70.8291L59.1133 71.0225V72.083L59.0166 72.7578L59.1133 73.0469L58.9199 74.5898V75.3613L58.8232 76.3262V77.001H58.6309L57.8301 83.3545L58.1494 83.1836V83.3174H58.3408V83.124H58.6299V82.9316L59.4014 82.4492H59.5947L59.6904 82.1602L60.1729 81.8711L60.3662 81.582H60.5586L60.752 81.0996L60.9443 80.8105H61.1377L61.3301 80.3281L61.7158 79.6533L61.8125 79.2676H62.0049L62.2949 78.3994L62.6807 77.4346H62.873V77.2422H63.0664V76.9531H63.2588V76.7598H63.4521V76.4707L63.7412 76.1816L64.2236 75.3135L64.6094 74.4453L64.8984 73.8672L65.0908 72.5166V71.8418L64.9951 71.6494V65.1885L65.1875 64.7061L64.9951 64.6094V63.4521L65.0908 62.9697L65.2842 60.8486L65.5732 58.9199L65.8623 57.666L66.1514 56.7988L66.4414 55.834L66.8271 54.7734L67.0195 54.4844V54.291H67.2129V53.8096L67.6943 52.748H67.8877L68.0801 51.9766L68.4658 51.2051L68.5625 50.8193L68.7559 50.627L68.9482 50.5303L69.1416 49.9521L69.334 49.5664L69.5273 49.4697L69.7197 48.9873H69.9131L70.1055 48.5059L70.9736 47.3486L72.0342 46.1914L72.709 45.4199L73.5771 44.5518H73.7695L73.9629 44.166L74.541 43.7803L74.8311 43.6836L75.0234 43.2979L75.5059 43.0088L76.2773 42.4307L77.5312 41.6592L78.2061 41.2734L78.7842 40.8877L80.5205 40.1162H80.8096L80.9062 39.9229L82.835 39.1514L83.7988 38.959H84.4736L85.1494 39.248L85.3418 39.7305V40.5977L85.1494 42.2373L84.667 45.4199L84.5703 46.5771V48.9873L84.667 49.9521V50.627L84.8594 51.3018V52.2666L85.0527 53.9053V54.6768L85.1494 55.3525L85.3418 56.6055L85.4385 58.1484L85.5352 58.8232L85.4385 59.3057L85.6309 61.3311V62.4883L85.7275 65.0918L85.6309 65.2842L85.7275 65.7666V66.7314L85.5352 67.5029V68.8525L85.3418 70.3955L85.2451 71.2637L85.1494 71.7451L84.7637 73.3848L84.5703 73.8672V74.2529H84.3779L84.1846 75.2168L83.9922 75.6025L83.7021 76.374H83.5098L83.4131 76.9531L83.124 77.4346H82.9307L82.7383 78.3027L82.4492 78.5918L82.2559 79.0742L82.0635 79.3633H81.8701L81.7734 79.749L81.4844 79.8457L81.292 80.3281L81.0986 80.6172H80.9062L80.8096 81.0029L80.2305 81.6777L79.749 82.1602L79.3633 82.3525L79.1699 82.7383L78.2061 83.4141L78.1094 83.6064L77.5312 83.8955L77.2412 84.1855L76.8555 84.2812L76.7598 84.5713L76.1807 84.8604H75.9883L75.8916 85.1494L75.3125 85.2461V85.4385H75.1201V85.6318L74.541 85.8242L73.5771 86.3066L72.5166 86.6924L72.1309 86.8857L70.9736 87.1748L70.2988 87.3672L69.4307 87.5605L68.8516 87.7529L68.3701 87.6572L68.2734 87.8496H67.5986L67.2129 87.9463L64.7051 88.043H64.0303L63.0664 87.9463L62.9697 87.8496L62.3906 87.9463L61.7158 87.8496L59.3047 87.3672L58.5332 87.1748L58.0518 87.0781L57.8584 86.7891H57.1836L56.668 86.5957H53.3252V86.6445L53.0381 86.7402H52.5557L52.459 86.9336L52.2666 86.8369L52.1699 87.0293L51.0127 87.2227L48.8916 87.5117L47.8301 87.6084H46.9629L46.2871 87.7051H45.3232L44.8408 87.8008H44.6484L44.5518 87.8975L44.4551 87.5117L44.3584 87.8008L44.5518 87.8975L43.877 87.9941L43.3945 88.1865L42.8164 88.2832L42.4307 88.3799L41.8516 88.4766L41.4658 88.3037V88.1387H40.2207L40.2119 88.0664L39.9229 87.9941L38.9004 88.043H32.3047V87.9941H32.1123L32.0879 88.043H23.6387L23.626 87.9941H22.8545L22.5137 88.043H22.1318L22.083 87.9941H21.5039L21.3584 88.043H20.9248V87.9463H20.1104L19.6719 87.8975V87.9463H15.8965L15.9111 87.8975L15.1396 87.7051H14.1758L13.79 87.8008L12.9219 87.6084L12.7295 87.5117L12.6328 87.7051L11.668 87.6084H11.0898L10.8008 87.5117H10.2217L9.54688 87.3193L7.90723 87.2227L6.6543 86.9336L6.26855 86.8369V86.6445H5.49707L4.53223 86.2588L4.33984 86.0654L3.9541 85.873L3.47168 85.583L2.41113 84.7158V84.5225H2.21777V84.1367H2.02539L1.34961 82.8828L1.25391 82.4014L0.868164 81.3398L0.578125 79.7979L0.482422 78.5439L0.385742 78.0615V76.9043L0.289062 76.7119V75.1689L0.192383 74.2041V72.6611L0.0966797 72.2754V68.9004L0.192383 67.9365V67.6465L0.0966797 66.5859V63.2109L0.192383 62.9219L0.144531 62.874V62.7773L0.0966797 62.7285V61.8613L0.192383 61.5713L0.0966797 61.1855V57.8105L0.192383 57.4248V56.8945L0.0966797 56.8467V55.9307L0.144531 55.834L0.0966797 55.6895L0 55.5928H0.0966797V54.5322L0.192383 53.8574L0.289062 53.0859L0.0966797 52.9893L0.192383 52.7969V51.832L0.289062 51.4463H0.192383L0.289062 51.3018V48.0713L0.385742 47.1074V46.7217L0.578125 20.6846V20.0098H0.771484L0.674805 19.4307L0.771484 18.7559V18.0811L0.963867 17.4062L1.34961 15.959L1.73535 15.0918L2.12109 14.417L2.41113 13.9346L2.45898 13.8857H2.65234V13.8379H2.74805L2.79688 13.8857L2.89258 13.8379L2.94141 13.79L2.98926 13.7412L3.18262 13.6455L3.375 13.3555L3.9541 12.874L4.3877 12.4883H4.72559L5.30371 12.3428L7.66602 11.8125L8.10059 11.7168L8.29297 11.5723H8.87207L9.0166 11.4756H9.40234L9.54688 11.4268L9.73926 11.3789L10.0771 11.3311H10.3662L10.8008 11.2822L11.668 11.0898L11.9092 10.9932H12.3916V10.8965H12.6328L12.8252 10.8486L13.0664 10.752H14.0312L14.417 10.6553L15.0918 10.5107L15.4287 10.4629H16.3457L16.5381 10.415H16.6826L16.7793 10.3184H16.9717L18.708 10.1738H20.3477L20.7334 10.0771H21.1191L21.9863 10.2695L22.083 10.0771L22.3721 10.1738L22.5654 10.0771L23.4326 10.1738L24.3008 10.0771L24.7832 10.1738L25.1689 10.0771L27.5801 9.98047H34.041L37.126 10.0771ZM25.458 12.874L24.9756 12.7773V12.9697L24.3975 12.874L22.8545 12.9697H20.8291L19.8652 13.1631L19.7686 12.9697H19.0938L17.4541 13.1631H16.0078L15.6221 13.2598H14.9473L14.4648 13.3555L12.8252 13.4521L11.0898 13.6455L9.54688 13.8379L8.87207 14.0312H8.29297V14.2236H7.61816L6.46094 14.5127L5.59277 14.9951V15.1875L5.30371 15.0918L5.11133 15.4775L4.72559 15.6699L4.62891 15.959L4.24316 16.1523L3.9541 16.6348L3.66406 17.2129L3.27832 18.9492V19.5273L3.18262 19.624V20.1064L3.27832 20.2988L3.08594 20.8779V45.2744L2.98926 45.5645V46.8174L2.89258 47.2998L2.79688 48.2637L2.89258 48.7461L2.79688 50V50.9639H2.89258L2.98926 51.543L2.79688 52.0254L2.7002 52.3145V53.5684L2.60352 53.9541L2.7002 54.7246V57.9072L2.60352 58.7754L2.7002 58.8721L2.60352 59.7393L2.7002 60.2217L2.69043 60.1738L2.7002 60.3184L2.68066 60.5596L2.7002 60.9453L2.79688 61.2344L2.89258 61.4756V61.5713L2.98926 61.8613L2.60352 62.1504V64.0791L2.50684 64.4648L2.60352 65.1396V68.1289L2.7002 71.0225V72.3721L2.79688 75.458V76.0361L2.89258 76.6152V77.9648L3.08594 79.2188V79.7012L3.27832 80.1836L3.375 80.9541L3.76074 81.8223L4.33984 82.9795L4.82129 83.2686H5.20703L5.30371 83.5586L5.97852 83.9443L6.84668 84.1367L7.90723 84.4258L9.06445 84.6191L9.4502 84.7158L10.3184 84.8115L11.2822 84.9082L11.5723 85.0049H13.1152L13.6934 85.1016H14.6572L15.6221 85.2939L16.1045 85.1973L17.2617 85.2939H19.6719L20.8291 85.3906V85.1973L21.6973 85.3906L22.4688 85.4873L24.0117 85.3906L24.4941 85.4873H25.7471L26.3262 85.3906L27.5801 85.4873H29.6045L30.0869 85.3906L30.1836 85.4873H32.208L32.6904 85.583H32.8838V85.3906L33.4619 85.4873H34.6191L34.9082 85.2939V85.4873H36.7402L37.0303 85.3906H38.3799L39.248 85.4873H39.5371V85.2939L40.1162 85.3906L41.8516 85.2939H42.8164L43.3945 85.1973H45.2266L46.5771 85.0049H47.7344L48.1201 84.9082H48.6982L49.1807 84.8115L50.0479 84.7158L52.748 84.04L54.002 83.3652L54.7734 82.5938V82.4014H54.9668L55.4482 81.3398L55.7383 80.376L55.6416 80.0869H55.834L56.0273 79.0264L56.124 78.1582L56.2197 77.1934L56.4131 75.9404L56.3164 74.5898L56.4131 74.3008V73.2402L56.3164 73.0469L56.5098 72.9512V71.7939L56.6055 70.7324V61.8613L56.6543 61.7168L56.6055 61.668L56.6543 61.6201V61.5713L56.7021 61.5234V60.415L56.75 60.1738L56.7021 59.6436L56.6055 58.293L56.7021 57.8105L56.6055 57.2324L56.6543 57.0879V56.8467L56.7021 56.6055V50.6748L56.7988 49.0352L56.7021 47.2998L56.6055 47.2031L56.7021 46.3359L56.6055 44.9854L56.5098 20.8779L56.2197 18.5635L55.7383 17.1162L55.2559 16.1523L54.8701 15.7666H54.6768L54.4844 15.3809L53.8096 14.9951L53.5195 14.7061L52.8447 14.6094V14.417L51.5908 14.0312H51.1094L50.4336 13.8379H49.9521L49.6631 13.7412L48.0234 13.5488L46.7695 13.4521L46.0947 13.3555L45.9014 13.1631L45.5156 13.2598L44.4551 13.1631H43.7803L43.2979 13.0664H42.623L42.1406 12.9697H41.1768L39.5371 12.874L39.0547 12.9697L38.959 12.7773L38.0908 12.874L37.7051 12.7773L37.3193 12.874L36.4512 12.7773L35.7764 12.874L34.4268 12.7773H30.0869L29.2188 12.9697L29.1221 12.7773H26.1328L25.458 12.874Z" fill="#CF411B"/>
<path d="M83.7031 39.0547H84.3781L85.0531 39.344L85.246 39.8261V40.694L85.0531 42.3334L84.571 45.5156L84.4745 46.6728V49.0836L84.571 50.0479V50.723L84.7638 51.398V52.3623L84.9567 54.0016V54.7731L85.0531 55.4481L85.246 56.7017L85.3424 58.2446L85.4388 58.9197L85.246 59.4018H85.0531V59.5947L84.3781 59.9804L83.6066 60.0769L83.028 59.884L82.9316 59.6911L82.4494 59.4983L81.9673 59.209L81.4851 58.7268L80.8101 57.7625L80.6172 57.5696L80.0386 56.7017L79.9422 56.2196H79.46L79.1708 56.8946H78.9779L78.8815 57.4732L78.4957 57.8589L78.3993 58.0518H78.2064L78.0136 58.5339L77.5314 59.209H77.3385L77.2421 59.5947L76.7599 60.0769L76.4706 60.1733V60.3661L76.1814 60.559H75.8921V60.7519L75.6028 60.8483H75.0242V60.4626L74.6384 60.3661L73.9634 59.3054L73.5777 58.5339L73.3848 57.6661L73.4812 57.4732H73.2884L73.0955 56.6053L72.9991 55.9303L72.9027 54.7731V53.423L72.5169 53.0373V53.2302L71.1669 54.0981L70.8776 54.2909H70.5883V54.4838L69.8168 54.6767H68.7561L68.081 54.3874L67.9846 54.0016L67.7917 53.9052L67.6953 53.1338L67.9846 52.073L68.3703 51.3015L68.4668 50.9158L68.6596 50.723L68.8525 50.6265L69.0454 50.0479L69.2382 49.6622L69.4311 49.5658L69.624 49.0836H69.8168L70.0097 48.6014L70.8776 47.4443L71.9383 46.2871L72.6134 45.5156L73.4812 44.6477H73.6741L73.867 44.262L74.4456 43.8763L74.7349 43.7799L74.9277 43.3941L75.4099 43.1048L76.1814 42.5262L77.435 41.7548L78.11 41.3691L78.6886 40.9833L80.4244 40.2119H80.7137L80.8101 40.019L82.7387 39.2476L83.7031 39.0547Z" fill="#171714"/>
</svg>
