<svg width="93" height="100" viewBox="0 0 93 100" fill="none" xmlns="http://www.w3.org/2000/svg">
<path d="M53.1843 0.0801884L53.7686 0.182854L54.0119 0.641681L54.4878 1.09516L55.1148 3.05454L56.0144 6.74924L56.5411 9.40757L56.8004 10.5627L56.9594 12.4167L56.7295 12.5381L55.553 11.9846L54.4981 11.6606L53.2133 11.4579L50.7626 11.166L49.7104 10.958L48.4283 10.8714L47.8414 10.6527L46.2103 10.5741L46.3159 10.1072L46.9871 8.93072L47.6636 7.98631L47.9912 7.04992L48.3348 6.80981L48.5541 6.22423L48.7868 6.21888L49.006 5.6333L49.339 4.92901L49.7936 4.45412L50.4674 3.39366L51.3686 2.09576L51.5986 1.97437L51.8205 1.50484L52.3888 0.911233L52.8407 0.320306L53.1843 0.0801884Z" fill="#020617"/>
<path d="M6.76209 3.1871L7.37952 3.25767L8.41252 3.90613L8.95978 4.59551L10.0133 5.4874L10.0338 5.73083L10.4083 5.82186L10.9761 6.75467L11.6551 7.55553L11.6756 7.79896L11.9184 7.7785L12.8813 9.04577L12.912 9.41092L13.2866 9.50194L13.449 9.97858L13.6919 9.95812L14.5436 11.3573L14.5743 11.7225L14.8172 11.702L15.2328 12.2799L15.385 12.6348L15.6278 12.6144L15.78 12.9693L15.5577 13.2332L14.829 13.2946L14.3536 13.4572L11.8444 14.1589L11.1261 14.342L10.1649 14.5455L6.82621 15.5623L5.64262 16.0297L4.92426 16.2128L4.97393 15.3506L4.95181 13.6363L5.05113 11.9118L5.24113 9.81196L5.61248 6.96134L5.85374 5.47006L6.11551 4.22221L6.52947 3.32928L6.76209 3.1871Z" fill="#020617"/>
<path d="M22.8056 51.1735L45.0046 48.3942L45.495 48.43L46.2485 48.2385L46.2725 48.4299L46.9303 48.2503L48.5689 48.1424L50.3152 48.1181L51.296 48.1897L52.1811 48.2732L53.796 48.7514L53.8199 48.9427L54.3103 48.9785L54.5137 49.0502L54.5376 49.2416L55.028 49.2774L55.052 49.4688L55.351 49.5285L55.375 49.7199L55.5664 49.6959L56.3679 50.6646L56.4039 50.9517L56.5952 50.9277L56.6312 51.2148L56.8226 51.1908L57.0978 51.8366L57.4807 52.5662L57.7918 53.4991L57.8517 53.9775L58.0671 54.1449L58.0313 54.6353L58.2348 55.4845L58.3784 55.8552L58.4742 56.6207L58.6897 57.5656L58.9772 59.862L58.6424 60.2927L56.8843 60.9987L56.3221 61.1663L56.2504 61.3696L55.8557 61.3219L55.8796 61.5132L54.0378 62.3269L53.1289 62.8295L52.483 63.1047L51.5621 63.5116L50.6292 63.8227L50.0791 64.086L48.6678 64.457L47.8186 64.6605L46.9574 64.7684L46.2039 64.9599L43.9792 65.044L43.4888 65.0082L41.7066 64.7455L40.7018 64.4825L39.075 63.9087L37.7233 63.2033L37.3884 63.6339L37.1971 63.6579L37.221 63.8493L37.0416 63.9689L36.9819 64.2679L36.6948 64.3039L36.6351 64.6029L36.2643 64.7465L36.1209 65.1532L35.0805 66.1581L35.0327 66.5529L35.3081 67.9761L35.1167 68.0001L35.2603 68.3709L35.1886 68.5742L35.38 68.5503L35.4758 69.3157L35.416 69.6148L35.6194 69.6865L35.5596 69.9855L36.2534 70.093L37.6527 69.6263L37.6288 69.4349L37.9158 69.399L37.9756 69.1L38.167 69.076L38.3104 68.6693L38.4658 68.3583L38.6572 68.3343L38.6332 68.143L39.3987 68.0471L39.8294 68.3819L39.997 68.9441L39.6144 69.7694L39.1001 70.3197L38.9088 70.3437L38.9327 70.5351L38.4663 70.6907L38.4903 70.882L38.2989 70.906L38.2272 71.1093L37.3062 71.5162L35.6796 71.7198L34.7705 71.4449L34.4954 71.5765L34.4237 71.7799L33.3831 72.0074L32.534 72.2109L32.51 72.0195L32.0316 72.0794L31.9956 71.7923L31.5172 71.8522L31.1105 71.7088L31.0865 71.5174L30.6918 71.4696L30.1655 71.1468L29.7348 70.812L29.4716 70.2618L29.3997 69.6877L29.6508 69.3647L30.5 69.1612L30.847 69.6037L31.5886 70.094L31.6126 70.2853L32.103 70.3211L32.127 70.5125L33.2872 70.4644L33.8373 70.2012L33.3941 66.6608L33.4658 66.4575L33.0591 66.314L32.6404 66.0749L32.6165 65.8835L32.4251 65.9075L32.4011 65.7161L32.2098 65.7401L32.1858 65.5487L31.5877 65.4292L31.2647 65.1781L31.2408 64.9867L30.8341 64.8433L30.3914 64.4128L30.3675 64.2214L30.0684 64.1616L29.2791 64.8436L28.9921 64.8795L28.9323 65.1785L27.856 65.8964L27.1265 66.2793L26.3012 66.6742L24.7225 67.2606L23.5863 67.5L23.4069 67.6196L20.919 67.9311L18.491 67.9435L18.1919 67.8838L16.8164 67.7645L15.8236 67.5972L15.1299 67.4897L14.1371 67.3224L13.7304 67.179L13.0486 67.1671L12.5462 67.0357L11.5534 66.8684L10.2616 66.6414L8.68271 66.4503L8.52713 65.9839L8.34744 64.5486L8.22749 62.8143L8.14363 62.1445L8.10755 61.08L8.14333 60.5896L8.22674 58.927L8.394 57.9342L8.6809 57.1208L8.81238 56.6184L8.96781 56.3074L9.15918 56.2835L9.20694 55.8888L9.39832 55.8648L9.36238 55.5777L9.63745 55.4461L9.70918 55.2428L9.90055 55.2188L10.044 54.8121L10.4148 54.6685L10.3908 54.4771L10.8573 54.3216L10.8333 54.1302L11.3715 53.7712L12.2804 53.2687L13.297 52.8499L15.3661 52.2993L16.323 52.1795L16.5981 52.0479L22.7219 51.2812L22.8056 51.1735Z" fill="#181714"/>
<path d="M46.6574 53.0464L48.32 53.1298L49.3368 53.4884L49.7555 53.7276L49.7794 53.9189L49.9708 53.895L50.4254 54.4212L50.6407 54.5886L51.1193 55.3061L51.5501 56.4184L51.6939 57.5666L51.5864 58.2604L51.156 59.4805L50.7614 60.2102L50.5701 60.2341L50.5223 60.6289L50.0798 60.9758L49.3622 61.4544L48.4293 61.7656L47.3888 61.993L46.097 61.766L45.2716 61.3834L44.7572 61.1563L43.9676 60.2833L43.489 59.5657L43.13 58.2501L43.0221 57.3889L43.2492 56.0971L43.5361 55.2837L43.9546 54.7454L44.0861 54.243L44.8036 53.7644L45.6289 53.3695L46.6574 53.0464Z" fill="#F9F8F3"/>
<path d="M32.7726 60.9069L34.6863 60.6674L36.0499 60.691L37.3537 61.0137L37.7724 61.2528L38.0116 61.6116L37.9998 62.2934L37.6292 63.2145L37.3901 63.6331L37.1987 63.6571L37.2227 63.8485L37.0433 63.9681L36.9835 64.2671L36.6965 64.3031L36.6367 64.6021L36.266 64.7457L36.1225 65.1524L35.0821 66.1573L35.0343 66.5521L35.3097 67.9754L35.1183 67.9993L35.2619 68.3701L35.1902 68.5734L35.3816 68.5495L35.4774 69.3149L35.4177 69.614L35.621 69.6857L35.5613 69.9847L36.255 70.0922L37.6544 69.6255L37.6304 69.4341L37.9175 69.3982L37.9772 69.0992L38.1686 69.0752L38.312 68.6685L38.4675 68.3575L38.6588 68.3335L38.6349 68.1422L39.4004 68.0463L39.831 68.3811L39.9986 68.9433L39.616 69.7687L39.1018 70.319L38.9104 70.3429L38.9344 70.5343L38.4679 70.6899L38.4919 70.8812L38.3005 70.9052L38.2288 71.1085L37.3079 71.5154L35.6812 71.719L34.7721 71.4441L34.4971 71.5757L34.4253 71.7791L33.3848 72.0066L32.5356 72.2101L32.5116 72.0187L32.0332 72.0786L31.9973 71.7915L31.5188 71.8514L31.1121 71.708L31.0882 71.5166L30.6935 71.4688L30.1671 71.146L29.7365 70.8112L29.4732 70.261L29.4013 69.6869L29.6524 69.3639L30.5016 69.1604L30.8486 69.6029L31.5903 70.0932L31.6142 70.2845L32.1046 70.3203L32.1286 70.5117L33.2888 70.4636L33.8389 70.2004L33.3957 66.66L33.4674 66.4567L33.0607 66.3132L32.642 66.0741L32.6181 65.8827L32.4267 65.9067L32.4028 65.7153L32.2114 65.7393L32.1874 65.5479L31.5894 65.4284L31.2664 65.1773L31.2424 64.9859L30.8357 64.8425L30.3931 64.412L30.3691 64.2206L30.1777 64.2445L30.1418 63.9575L29.9504 63.9815L29.5915 63.4433L29.5436 63.0605L29.2445 63.0008L29.5314 62.1874L30.4284 61.5892L31.445 61.1703L32.7726 60.9069Z" fill="#CF421B"/>
<path d="M18.429 56.5804L19.0988 56.4965L19.3021 56.5683L19.9719 56.4844L20.9887 56.843L21.2997 56.9985L21.3236 57.1898L21.515 57.1659L21.5509 57.4529L21.9576 57.5964L22.173 57.7638L22.2089 58.0508L22.4003 58.0269L22.8669 58.6488L23.3217 59.9524L23.5133 61.4834L23.4775 61.9738L23.2862 61.9977L23.3461 62.4762L23.0352 63.0982L22.8558 63.2178L22.7961 63.5169L22.3775 64.0552L21.947 64.4978L21.1338 64.9884L20.2966 65.2876L19.2321 65.3237L17.6412 65.0369L17.6172 64.8455L17.3302 64.8815L16.8995 64.5467L16.8756 64.3553L16.6842 64.3792L16.6602 64.1879L16.4689 64.2118L16.4449 64.0205L16.2535 64.0444L15.775 63.3269L15.4758 62.4897L15.2005 61.8438L15.1046 60.3009L15.2121 59.6071L15.4034 59.5832L15.4512 59.1884L15.6784 58.6741L15.9534 58.5425L16.0012 58.1477L16.324 57.6214L16.7665 57.2744L17.8668 56.748L18.429 56.5804Z" fill="#F9F8F3"/>
<path d="M33.4679 66.4577L33.9583 66.4935L34.9032 66.278L35.0348 66.5531L35.3102 67.9764L35.1188 68.0004L35.2624 68.3711L35.1907 68.5745L35.3821 68.5505L35.4779 69.316L35.4182 69.615L35.6215 69.6868L35.5618 69.9858L36.2555 70.0933L37.6549 69.6266L37.6309 69.4352L37.918 69.3992L37.9777 69.1002L38.1691 69.0763L38.3125 68.6696L38.468 68.3585L38.6593 68.3346L38.6354 68.1432L39.4009 68.0474L39.8315 68.3822L39.9991 68.9443L39.6165 69.7697L39.1023 70.32L38.9109 70.344L38.9349 70.5353L38.4684 70.6909L38.4924 70.8823L38.301 70.9062L38.2293 71.1096L37.3084 71.5164L35.6817 71.7201L34.7726 71.4452L34.4976 71.5768L34.4258 71.7801L33.3853 72.0076L32.5361 72.2111L32.5121 72.0197L32.0337 72.0796L31.9978 71.7926L31.5193 71.8525L31.1126 71.709L31.0887 71.5177L30.694 71.4699L30.1676 71.147L29.737 70.8122L29.4737 70.2621L29.4018 69.688L29.6529 69.365L30.5021 69.1615L30.8491 69.604L31.5908 70.0942L31.6147 70.2856L32.1051 70.3214L32.1291 70.5127L33.2893 70.4647L33.8394 70.2014L33.3962 66.6611L33.4679 66.4577Z" fill="#1C1814"/>
<path d="M19.3024 58.8996L20.3669 58.8635L21.0846 59.1624L21.6829 60.0593L21.8983 61.0042L21.8865 61.686L21.5039 62.5114L21.3126 62.5353L21.3365 62.7267L20.5233 63.2173L19.8535 63.3011L19.052 63.1099L18.3821 62.4163L18.3581 62.2249L18.1668 62.2489L17.8077 60.9332L17.9869 60.0361L18.25 59.8088L18.3098 59.5098L19.0273 59.0312L19.3024 58.8996Z" fill="#1B1814"/>
<path d="M46.6912 55.6653L47.5523 55.5575L48.3657 55.8444L48.928 56.4543L49.0836 56.9207L49.2034 57.8776L49.0002 58.5833L48.9285 58.7867L48.7371 58.8106L48.6773 59.1096L48.486 59.1336L48.5099 59.325L47.3976 59.7558L46.5962 59.5646L46.2732 59.3135L46.2493 59.1221L46.0579 59.146L45.6511 58.2251L45.5552 57.4597L45.7464 56.6582L46.0573 56.0362L46.6912 55.6653Z" fill="#1B1814"/>
<path d="M28.8317 86.9492L29.6032 87.0457L29.8925 86.9492H31.1461L31.339 87.0457L31.9176 86.9492H32.9783L33.3641 87.1421V96.3996L33.0748 97.2674L32.689 97.7496H32.4962L32.3997 98.0389H32.1104V98.2318L31.5318 98.4246H29.3139L29.0246 98.2318V98.4246L28.5424 98.3282V98.0389H28.3496V97.7496L27.9639 97.5567L27.771 97.0746L27.5781 96.1103V87.0457L28.8317 86.9492Z" fill="#CF421B"/>
<path d="M29.5974 90.71L33.1733 90.8064L33.2649 91.1921V96.5923L32.9899 97.2673L32.8982 97.9424L32.5314 98.0388L32.348 98.5209L31.7979 98.9067L31.0644 99.196L29.7807 99.0995L29.2306 98.9067V98.7138L28.7722 98.6174L28.3137 98.1352L27.9469 97.1709L27.7636 95.628V93.0243L27.6719 91.9636V90.9993L27.7636 90.8064H28.9555L29.5974 90.71Z" fill="#171714"/>
<path d="M38.4724 86.9492L39.2438 87.0457L39.5331 86.9492H40.7867L40.9796 87.0457L41.5582 86.9492H42.619L43.0047 87.1421V96.3996L42.7154 97.2674L42.3297 97.7496H42.1368L42.0404 98.0389H41.7511V98.2318L41.1725 98.4246H38.9545L38.6652 98.2318V98.4246L38.1831 98.3282V98.0389H37.9902V97.7496L37.6045 97.5567L37.4116 97.0746L37.2188 96.1103V87.0457L38.4724 86.9492Z" fill="#CF421B"/>
<path d="M39.2419 90.71L42.8178 90.8064L42.9095 91.1921V96.5923L42.6344 97.2673L42.5427 97.9424L42.176 98.0388L41.9926 98.5209L41.4424 98.9067L40.7089 99.196L39.4253 99.0995L38.8751 98.9067V98.7138L38.4167 98.6174L37.9582 98.1352L37.5915 97.1709L37.4081 95.628V93.0243L37.3164 91.9636V90.9993L37.4081 90.8064H38.6001L39.2419 90.71Z" fill="#171714"/>
<path d="M46.9214 67.5906L48.6437 67.375L48.9308 67.339L50.6531 67.1234L51.3589 67.3266L51.3828 67.518L51.6818 67.5777L51.8374 68.0442L51.9691 68.3192L51.682 68.3552L51.6462 68.8456L50.8807 68.9414L50.51 69.085L47.448 69.4684L46.4792 69.4925L45.5224 69.6123L44.8166 69.4091L44.7927 69.2177L44.6013 69.2417L44.4337 68.6795L44.7566 68.1532L45.3067 67.89L46.9214 67.5906Z" fill="#CF421B"/>
<path d="M18.2163 71.1844L19.9386 70.9687L20.2257 70.9328L21.948 70.7172L22.6538 70.9204L22.6777 71.1117L22.9768 71.1715L23.1324 71.6379L23.264 71.913L22.9769 71.9489L22.9411 72.4393L22.1756 72.5352L21.8049 72.6788L18.743 73.0621L17.7741 73.0862L16.8173 73.206L16.1115 73.0028L16.0876 72.8115L15.8962 72.8354L15.7286 72.2733L16.0515 71.7469L16.6016 71.4837L18.2163 71.1844Z" fill="#CF421B"/>
<path d="M36.9735 9.97753L37.2713 10.0468L37.6464 9.91458L39.1826 9.77084L42.1679 9.58862L43.3677 9.47636L43.6168 9.54918L44.2887 9.48632L44.5379 9.5601L45.5461 9.46576L45.9437 9.57373L46.2891 9.63851L46.6336 9.70339L46.8261 9.68537L47.1229 9.7547L48.1788 9.65591L48.4279 9.72872L48.6681 9.70625L48.9739 9.87184L49.1889 10.094L49.5729 10.0581L50.5415 10.0636L50.8383 10.1329L51.3709 10.1321L51.8125 10.1869L52.3053 10.286L52.7856 10.241L53.2839 10.3886L53.6463 10.645L53.9962 10.7574L54.3065 10.9707L54.7085 11.1273L55.0926 11.0913L55.5999 11.3342L55.8877 11.3073L56.2807 11.3676L56.4822 11.4449L56.77 11.4179L56.8222 11.4621L57.1027 11.8713L57.3043 11.9496L57.5497 12.5073L57.7422 12.4892L58.654 13.9536L59.0406 14.9826L59.1728 15.3577L59.5865 16.6755L59.8355 18.299L60.0026 19.0582L62.2664 43.2533L62.4525 44.204L62.4281 44.9811L62.5872 45.644L62.5 45.7492L62.7579 47.468L62.8568 48.525L62.9098 48.568L62.8657 48.6202L63.0724 50.8293L63.048 51.6065L63.216 52.3646L63.2969 53.229L63.2187 53.4305L63.2725 54.0062L63.3436 54.2418L63.3526 54.338L63.4137 54.4775L63.4587 54.9578L63.4881 56.3105L63.5869 57.3665L63.7641 58.2219L63.8 58.6059L63.9232 58.8847L63.8225 58.8461L63.8943 59.6142L63.8071 59.7195L63.8565 60.2474L63.7791 60.4479L63.7881 60.5442L63.9283 61.0156L64.4134 66.2L64.3361 66.4004L64.4529 67.6489L64.5662 67.8325L64.62 68.4081L64.5428 68.6095L64.6416 69.6655L64.6082 70.3463L64.7313 70.6251L64.6826 72.1794L64.7544 72.9475L64.7481 73.9172L64.8109 74.5891L64.6194 74.607L64.414 81.0075L64.7151 80.8086L64.7275 80.9409L64.919 80.9229L64.9011 80.7314L65.1889 80.7045L65.1709 80.512L65.8942 79.9607L66.0857 79.9428L66.155 79.645L66.6083 79.3123L66.773 79.0065L66.9655 78.9885L67.1121 78.4903L67.2777 78.1845L67.4692 78.1665L67.6168 77.6682L67.938 76.9604L67.9974 76.5674L68.1899 76.5494L68.3968 75.6581L68.6911 74.6625L68.8836 74.6445L68.8656 74.452L69.0571 74.434L69.0302 74.1462L69.2227 74.1282L69.2048 73.9367L69.3963 73.9187L69.3693 73.63L69.6302 73.3152L70.0297 72.4059L70.3329 71.5066L70.5668 70.903L70.6336 69.5413L70.5706 68.8684L70.4564 68.6859L69.8546 62.2531L70.0021 61.7547L69.8007 61.6775L69.6929 60.5253L69.7442 60.0359L69.7381 57.9052L69.8472 55.9578L70.0183 54.6834L70.2252 53.7921L70.4232 52.8055L70.7084 51.7126L70.874 51.4068L70.856 51.2153L71.0476 51.1974L71.0027 50.717L71.3842 49.6162L71.5767 49.5981L71.6964 48.8121L72.0086 48.008L72.0689 47.615L72.2424 47.4045L72.426 47.2912L72.5636 46.6967L72.7202 46.2946L72.9028 46.1805L73.0504 45.6831L73.242 45.6652L73.3895 45.1668L74.1452 43.9339L75.0943 42.6828L75.6943 41.8518L76.4778 40.9065L76.6693 40.8886L76.8259 40.4865L77.3656 40.0486L77.6445 39.9264L77.8011 39.5243L78.2544 39.1906L78.9677 38.5432L80.1442 37.6583L80.7802 37.2113L81.3208 36.7733L82.9768 35.8435L83.2655 35.8165L83.3428 35.6151L85.1913 34.6673L86.134 34.3858L86.8059 34.323L87.5047 34.5479L87.7421 35.0102L87.823 35.8746L87.7831 37.5242L87.5993 40.7379L87.6118 41.899L87.8364 44.2996L88.0215 45.2504L88.0844 45.9223L88.3398 46.5771L88.4296 47.5368L88.7739 49.1514L88.8458 49.9195L89.0049 50.5824L89.3142 51.8128L89.5533 53.3402L89.7124 54.003L89.661 54.4914L90.0422 56.4899L90.15 57.6421L90.4888 60.2253L90.4105 60.4269L90.5517 60.8972L90.6415 61.8578L90.5209 62.644L90.6466 63.9877L90.5988 65.5419L90.5834 66.4153L90.5321 66.9046L90.3007 68.5721L90.1541 69.0704L90.19 69.4544L89.9975 69.4724L89.8958 70.451L89.7393 70.8531L89.5233 71.6481L89.3308 71.6662L89.2894 72.2507L89.0455 72.758L88.854 72.776L88.7432 73.6573L88.4815 73.9731L88.3348 74.4704L88.1693 74.7772L87.9777 74.7951L87.9174 75.1881L87.6385 75.3104L87.4909 75.8087L87.3263 76.1144L87.1338 76.1324L87.0745 76.5254L86.5608 77.2522L86.1253 77.7765L85.7593 78.005L85.6037 78.4069L84.7059 79.1687L84.6286 79.3701L84.079 79.7119L83.8181 80.0266L83.443 80.1588L83.3737 80.4556L82.825 80.7973L82.6325 80.8153L82.5632 81.1121L81.9966 81.2622L82.0146 81.4547L81.823 81.4727L81.841 81.6642L81.2824 81.9107L80.3676 82.4798L79.3466 82.9628L78.9805 83.1912L77.8553 83.5868L77.2014 83.8422L76.3549 84.1146L75.7973 84.361L75.308 84.3097L75.2307 84.5102L74.5578 84.5731L74.1828 84.7053L71.6958 85.0351L71.024 85.098L70.0543 85.0916L69.949 85.0043L69.3824 85.1545L68.7016 85.1211L66.2561 84.8663L65.4699 84.7457L64.9806 84.6944L64.7621 84.4245L64.0902 84.4873L63.5588 84.3428L60.2316 84.6542L60.2361 84.7028L59.9582 84.8249L59.4779 84.8698L59.3996 85.0714L59.1991 84.993L59.1207 85.1936L57.9866 85.4939L55.9016 85.9793L54.8537 86.1745L53.9903 86.2552L53.3265 86.4145L52.3668 86.5042L51.8954 86.6445L51.7038 86.6624L51.6166 86.7677L51.4844 86.3926L51.4151 86.6894L51.6166 86.7677L50.9537 86.9268L50.4913 87.1633L49.9247 87.3134L49.5497 87.4456L48.9821 87.5958L48.583 87.4605L48.5675 87.2952L47.3268 87.4113L47.3114 87.3402L47.0168 87.2951L46.0034 87.439L39.4363 88.0534L39.4318 88.0048L39.2402 88.0228L39.2205 88.0736L30.808 88.8608L30.7908 88.8133L30.0227 88.8852L29.6879 88.9656L29.3077 89.0011L29.2546 88.9571L28.678 89.011L28.5376 89.0732L28.1059 89.1136L28.0969 89.0173L27.286 89.0932L26.8449 89.0854L26.8494 89.134L23.0905 89.4857L23.1005 89.4358L22.3145 89.3161L21.3548 89.4059L20.9796 89.5371L20.0973 89.4264L19.8968 89.3481L19.8185 89.5496L18.8489 89.5432L18.2733 89.5971L17.9764 89.5278L17.3999 89.5817L16.7101 89.453L15.0685 89.5095L13.7941 89.3384L13.4011 89.2781L13.3831 89.0866L12.615 89.1584L11.6184 88.8642L11.4089 88.6896L11.0069 88.534L10.4995 88.2902L9.36282 87.5256L9.34481 87.3331L9.15229 87.3511L9.11636 86.967L8.92481 86.9849L8.13516 85.7994L7.99502 85.329L7.51207 84.308L7.07964 82.7998L6.86754 81.5602L6.72634 81.0889L6.61854 79.9367L6.50436 79.7542L6.36062 78.2179L6.17447 77.2663L6.03073 75.73L5.89951 75.3549L5.58511 71.9945L5.5906 71.0259L5.56358 70.7372L5.3695 69.6901L5.05509 66.3298L5.12345 66.0331L5.07135 65.9899L5.06234 65.8937L5.01015 65.8495L4.92936 64.9861L4.99763 64.6884L4.86641 64.3132L4.552 60.9529L4.61135 60.5599L4.56195 60.032L4.46221 59.9932L4.37688 59.0812L4.41551 58.9805L4.3544 58.841L4.24914 58.7538L4.3454 58.7448L4.2466 57.6889L4.27902 57.0081L4.30341 56.2309L4.10286 56.1526L4.18023 55.9521L4.09034 54.9915L4.15067 54.5984L4.05441 54.6074L4.1372 54.4545L3.83626 51.2381L3.84273 50.2694L3.80679 49.8853L1.57278 23.9435L1.50992 23.2717L1.70244 23.2537L1.55223 22.6861L1.58562 22.0052L1.52276 21.3333L1.65144 20.6435L1.90069 19.1666L2.20396 18.2673L2.52517 17.5595L2.769 17.0521L2.8121 16.9991L3.00462 16.981L3.00016 16.9334L3.09545 16.9245L3.14852 16.9676L3.23935 16.911L3.28351 16.8588L3.3266 16.8058L3.5102 16.6925L3.67473 16.3858L4.20646 15.8525L4.60224 15.428L4.93866 15.3965L5.50071 15.1978L7.80335 14.4498L8.22711 14.314L8.40519 14.1522L8.98178 14.0982L9.11667 13.9885L9.50074 13.9526L9.64009 13.8905L9.82718 13.8249L10.1591 13.7458L10.4469 13.7189L10.8751 13.6298L11.7206 13.3574L11.9517 13.2387L12.4321 13.1938L12.423 13.0975L12.6632 13.075L12.8503 13.0095L13.0815 12.8907L14.0421 12.8009L14.4172 12.6687L15.0756 12.4619L15.4066 12.3829L16.3196 12.2974L16.5067 12.2319L16.6506 12.2184L16.7378 12.1131L16.9294 12.0952L18.6447 11.7896L20.2772 11.6368L20.6522 11.5046L21.0363 11.4687L21.9176 11.5795L21.996 11.3789L22.2928 11.4482L22.4763 11.334L23.3487 11.3494L24.2041 11.1723L24.6934 11.2236L25.0685 11.0914L27.4601 10.7705L33.893 10.1687L36.9735 9.97753ZM25.6169 13.8492L25.1275 13.7979L25.1454 13.9894L24.5609 13.948L23.0336 14.187L21.017 14.3757L20.0753 14.658L19.9611 14.4745L19.2892 14.5374L17.6747 14.8826L16.2347 15.0174L15.8596 15.1496L15.1878 15.2124L14.7163 15.3527L13.0928 15.6017L11.383 15.9558L9.86471 16.2911L9.21085 16.5465L8.63427 16.6005L8.65219 16.792L7.98032 16.8549L6.85505 17.2505L6.03561 17.8117L6.05353 18.0032L5.75681 17.9349L5.6012 18.3368L5.23505 18.5643L5.16572 18.8611L4.79967 19.0896L4.55681 19.5968L4.32188 20.1995L4.09957 21.9642L4.15343 22.5398L4.06715 22.645L4.11209 23.1253L4.2253 23.3079L4.0877 23.9024L6.36042 48.1928L6.29118 48.4906L6.4079 49.7381L6.35658 50.2274L6.35109 51.196L6.49132 51.6674L6.51284 52.9248L6.60263 53.8845L6.69792 53.8756L6.84813 54.4431L6.70152 54.9414L6.63219 55.2382L6.749 56.4866L6.68868 56.8797L6.85672 57.6379L7.1532 60.8066L7.13782 61.68L7.24308 61.7673L7.22761 62.6397L7.36881 63.111L7.35463 63.0643L7.37782 63.2073L7.38084 63.4493L7.43622 63.8315L7.55941 64.1103L7.67717 64.3416L7.68608 64.4368L7.80936 64.7166L7.45223 65.0404L7.6319 66.9607L7.57158 67.3538L7.7307 68.0166L8.00917 70.9929L8.37499 73.8648L8.50071 75.2086L8.88445 78.2721L8.93831 78.8477L9.08754 79.4154L9.21327 80.7591L9.5226 81.9896L9.56754 82.4699L9.80403 82.9323L9.97207 83.6904L10.437 84.5189L11.1214 85.6171L11.6277 85.8601L12.0117 85.8242L12.135 86.1039L12.8428 86.4251L13.7251 86.5358L14.808 86.7248L15.9782 86.8095L16.3713 86.8698L17.2446 86.8843L18.2133 86.8907L18.511 86.96L20.0473 86.8162L20.6319 86.8586L21.5916 86.7688L22.5702 86.8705L23.0415 86.7293L24.2027 86.7177L26.6024 86.4932L27.7636 86.4817L27.7455 86.2892L28.628 86.4008L29.4051 86.4252L30.9323 86.1852L31.4217 86.2365L32.6692 86.1198L33.2367 85.9696L34.4942 85.949L36.5098 85.7604L36.9811 85.6192L37.0864 85.7065L39.102 85.5179L39.5912 85.5682L39.7838 85.5502L39.7658 85.3587L40.3504 85.4011L41.5026 85.2933L41.7724 85.0738L41.7904 85.2664L43.6145 85.0957L43.8943 84.9724L45.238 84.8467L46.1114 84.8621L46.3992 84.8351L46.3812 84.6426L46.9668 84.6849L48.6856 84.427L49.6462 84.3371L50.2129 84.187L52.0369 84.0163L53.3637 83.699L54.5159 83.5912L54.891 83.459L55.4666 83.4051L55.9379 83.2639L56.7924 83.0879L59.4179 82.1635L60.6035 81.3748L61.2997 80.5348L61.2818 80.3432L61.4743 80.3252L61.8548 79.2235L62.0538 78.2368L61.9306 77.958L62.1221 77.9401L62.2159 76.8661L62.2312 75.9927L62.2366 75.0231L62.3124 73.7577L62.0904 72.4219L62.1597 72.1251L62.0609 71.0692L61.9466 70.8857L62.1302 70.7724L62.0224 69.6202L62.0188 68.5544L61.1924 59.7219L61.2276 59.5734L61.1744 59.5293L61.2186 59.4771L61.214 59.4285L61.2572 59.3764L61.1539 58.2728L61.1791 58.0282L61.0821 57.5047L60.86 56.169L60.9113 55.6797L60.7612 55.1131L60.7963 54.9646L60.7739 54.7245L60.7991 54.4798L60.2466 48.575L60.1901 46.9334L59.9322 45.2146L59.8269 45.1274L59.8424 44.255L59.6203 42.9193L57.2792 18.9256L56.7748 16.6482L56.1606 15.2521L55.5905 14.3374L55.1705 13.9892L54.978 14.0073L54.7505 13.6411L54.0427 13.3199L53.727 13.0591L53.0461 13.0257L53.0282 12.8342L51.7438 12.5669L51.2645 12.6118L50.5736 12.4822L50.0943 12.5271L49.7975 12.4577L48.147 12.4189L46.8896 12.4395L46.2087 12.4061L45.9982 12.2326L45.6232 12.3647L44.5582 12.3673L43.8864 12.4301L43.397 12.3788L42.7252 12.4417L42.2358 12.3904L41.2762 12.4802L39.6347 12.5376L39.1633 12.6779L39.0501 12.4952L38.1947 12.6724L37.8017 12.612L37.4266 12.7442L36.5532 12.7288L35.8903 12.888L34.5376 12.9174L30.2166 13.3217L29.3702 13.5941L29.256 13.4116L26.2797 13.6901L25.6169 13.8492Z" fill="#CF411B"/>
<path d="M86.4163 34.3463L87.0888 34.2878L87.7863 34.5175L88.0203 34.9811L88.0955 35.8458L88.0454 37.4957L87.8408 40.7077L87.845 41.8689L88.0539 44.2706L88.2335 45.223L88.292 45.8955L88.5426 46.5512L88.6262 47.5119L88.9604 49.1284L89.0272 49.8969L89.1818 50.5611L89.4826 51.7933L89.7123 53.322L89.8669 53.9861L89.7165 54.4832L89.5244 54.4999L89.5411 54.692L88.902 55.1348L88.1418 55.2977L87.5487 55.1557L87.4359 54.9719L86.9389 54.8216L86.4335 54.5752L85.9113 54.1366L85.1553 53.2344L84.9464 53.059L84.2948 52.2445L84.157 51.7725L83.6766 51.8143L83.4469 52.5118L83.2548 52.5285L83.2088 53.1133L82.858 53.531L82.7786 53.7315L82.5865 53.7482L82.4361 54.2453L82.0143 54.9595L81.8221 54.9763L81.7595 55.3689L81.3209 55.891L81.0411 56.0122L81.0578 56.2043L80.7863 56.4215L80.4981 56.4466L80.5148 56.6387L80.2349 56.7598L79.6585 56.81L79.6251 56.4257L79.2325 56.3631L78.468 55.3648L78.0169 54.6297L77.7496 53.7817L77.8289 53.5813L77.6368 53.598L77.3695 52.7501L77.2149 52.0859L77.0185 50.9415L76.9016 49.5965L76.4839 49.2456L76.5006 49.4378L75.2308 50.4194L74.9593 50.6366L74.6711 50.6617L74.6878 50.8538L73.936 51.1128L72.8792 51.2047L72.1816 50.975L72.0522 50.5991L71.8517 50.5197L71.6887 49.7595L71.885 48.6777L72.2025 47.8757L72.2651 47.4831L72.4405 47.2742L72.6243 47.1614L72.7663 46.5683L72.925 46.1673L73.1088 46.0545L73.2592 45.5575L73.4513 45.5408L73.6017 45.0437L74.366 43.8157L75.3225 42.5709L75.9282 41.7439L76.7176 40.804L76.9097 40.7873L77.0684 40.3863L77.6114 39.9519L77.8913 39.8308L78.05 39.4298L78.5053 39.0998L79.2237 38.4566L80.4057 37.5794L81.0448 37.1366L81.5878 36.7022L83.2502 35.7832L83.5384 35.7582L83.6178 35.5577L85.4723 34.622L86.4163 34.3463Z" fill="#171714"/>
</svg>
