<svg width="101" height="100" viewBox="0 0 101 100" fill="none" xmlns="http://www.w3.org/2000/svg">
<path d="M68.3036 0.8004L68.8772 0.951747L69.0811 1.42938L69.5173 1.92121L69.9776 3.9263L70.5639 7.68348L70.8656 10.3766L71.0271 11.5494L71.0299 13.4103L70.7906 13.5119L69.6646 12.8617L68.6407 12.4502L67.3774 12.1404L64.9599 11.6438L63.9289 11.3482L62.6586 11.1543L62.0921 10.8871L60.4733 10.6718L60.6178 10.2155L61.3854 9.09948L62.1388 8.21519L62.5438 7.30961L62.9064 7.09919L63.1741 6.53408L63.4063 6.54828L63.674 5.98318L64.0649 5.30931L64.5577 4.87427L65.3182 3.87412L66.3252 2.65645L66.5645 2.55478L66.8251 2.10554L67.4411 1.56173L67.9411 1.01083L68.3036 0.8004Z" fill="#292D23"/>
<path d="M21.7841 0L22.3935 0.122147L23.3684 0.85503L23.8558 1.58791L24.8308 2.56509V2.80938L25.1964 2.93153L25.6838 3.90871L26.2931 4.76374V5.00803H26.5369L27.3899 6.35165V6.71809L27.7555 6.84024L27.8774 7.32883H28.1211L28.8523 8.79459V9.16104H29.096L29.4616 9.77177L29.5835 10.1382H29.8272L29.9491 10.5047L29.7054 10.7489H28.9742L28.4867 10.8711L25.9275 11.3597L25.1964 11.4818L24.2214 11.604L20.8092 12.3369L19.5906 12.7033L18.8594 12.8254L18.9812 11.9704L19.1031 10.2604L19.3468 8.5503L19.7124 6.4738L20.3218 3.66441L20.6873 2.19865L21.0529 0.977177L21.5404 0.122147L21.7841 0Z" fill="#292D23"/>
<path d="M35.6386 50.7236H58.0109L58.493 50.8201L59.2645 50.7236V50.9165L59.9395 50.8201L61.5789 50.9165L63.3147 51.1094L64.279 51.3022L65.1469 51.4951L66.6898 52.1701V52.363L67.172 52.4594L67.3648 52.5558V52.7487L67.847 52.8451V53.038L68.1363 53.1344V53.3273H68.3291L69.0042 54.388V54.6773H69.197V54.9666H69.3899L69.5828 55.6417L69.8721 56.4131L70.0649 57.3774V57.8596L70.2578 58.0525L70.1614 58.5346L70.2578 59.4025L70.3542 59.7882V60.5597L70.4506 61.524V63.8384L70.0649 64.2241L68.2327 64.7063L67.6541 64.8027L67.5577 64.9956L67.172 64.8991V65.092L65.2433 65.6706L64.279 66.0563L63.604 66.2492L62.6396 66.5385L61.6753 66.7313L61.0967 66.9242L59.6502 67.1171L58.7823 67.2135H57.9145L57.143 67.3099L54.9251 67.1171L54.4429 67.0206L52.7071 66.5385L51.7428 66.1527L50.1999 65.3813L48.9463 64.5134L48.5605 64.8991H48.3677V65.092L48.1748 65.1884L48.0784 65.4777H47.7891L47.6926 65.767L47.3069 65.8634L47.114 66.2492L45.9569 67.1171L45.8604 67.5028L45.9569 68.9493H45.764L45.8604 69.335L45.764 69.5279H45.9569V70.2993L45.8604 70.5886L46.0533 70.685L45.9569 70.9743L46.6319 71.1672L48.0784 70.8779V70.685H48.3677L48.4641 70.3958H48.657L48.8498 70.01L49.0427 69.7207H49.2356V69.5279H50.007L50.3927 69.9136L50.4892 70.4922L50.007 71.2636L49.4284 71.7458H49.2356V71.9387L48.7534 72.0351V72.228H48.5605L48.4641 72.4208L47.4998 72.7101H45.8604L44.9925 72.3244L44.7032 72.4208L44.6068 72.6137L43.5461 72.7101L42.6782 72.8065V72.6137H42.196V72.3244H41.7138L41.3281 72.1315V71.9387L40.9424 71.8422L40.4602 71.4565L40.0745 71.0708L39.8816 70.4922V69.9136L40.1709 69.6243L41.0388 69.5279L41.3281 70.01L42.0031 70.5886V70.7815L42.4853 70.8779V71.0708L43.6425 71.1672L44.2211 70.9743V67.4064L44.3175 67.2135L43.9318 67.0206L43.5461 66.7313V66.5385H43.3532V66.3456H43.1603V66.1527L42.5817 65.9599L42.2924 65.6706V65.4777L41.9067 65.2849L41.521 64.8027V64.6098L41.2317 64.5134L40.3638 65.092H40.0745L39.9781 65.3813L38.8209 65.9599L38.0494 66.2492L37.1815 66.5385L35.5422 66.9242L34.385 67.0206L34.1921 67.1171H31.6849L29.2741 66.8278L28.9848 66.7313L27.6347 66.442L26.6704 66.1527L25.9954 65.9599L25.0311 65.6706L24.6453 65.4777L23.9703 65.3813L23.4881 65.1884L22.5238 64.8991L21.2702 64.5134L19.7273 64.1277L19.6309 63.6455V62.199L19.7273 60.4633V59.7882L19.8237 58.7275L19.9202 58.2453L20.2095 56.606L20.4987 55.6417L20.8845 54.8702L21.0773 54.388L21.2702 54.0988H21.4631L21.5595 53.713H21.7524V53.4237L22.0417 53.3273L22.1381 53.1344H22.331L22.5238 52.7487L22.9096 52.6523V52.4594L23.3917 52.363V52.1701L23.9703 51.8808L24.9346 51.4951L25.9954 51.2058L28.1169 50.9165H29.0812L29.3705 50.8201H35.5422L35.6386 50.7236Z" fill="#181714"/>
<path d="M59.0724 55.5449L60.7117 55.8342L61.676 56.3164L62.0618 56.6057V56.7985H62.2546L62.6404 57.3771L62.8332 57.57L63.219 58.3414L63.5083 59.4986V60.6558L63.3154 61.3308L62.7368 62.488L62.2546 63.163H62.0618L61.9653 63.5488L61.4832 63.8381L60.7117 64.2238L59.7474 64.4167L58.6866 64.5131L57.433 64.1274L56.6616 63.6452L56.1794 63.3559L55.5044 62.3916L55.1186 61.6201L54.9258 60.2701V59.4022L55.3115 58.1486L55.6972 57.3771L56.1794 56.895L56.3723 56.4128L57.1437 56.0271L58.0116 55.7378L59.0724 55.5449Z" fill="#F9F8F3"/>
<path d="M44.3187 61.6201H46.2473L47.5974 61.813L48.851 62.2951L49.2367 62.5844L49.4296 62.9702L49.3332 63.6452L48.851 64.5131L48.5617 64.8988H48.3688V65.0917L48.176 65.1881L48.0796 65.4774H47.7903L47.6938 65.7667L47.3081 65.8631L47.1152 66.2489L45.958 67.1167L45.8616 67.5025L45.958 68.9489H45.7652L45.8616 69.3347L45.7652 69.5275H45.958V70.299L45.8616 70.5883L46.0545 70.6847L45.958 70.974L46.6331 71.1669L48.0796 70.8776V70.6847H48.3688L48.4653 70.3954H48.6581L48.851 70.0097L49.0439 69.7204H49.2367V69.5275H50.0082L50.3939 69.9133L50.4904 70.4919L50.0082 71.2633L49.4296 71.7455H49.2367V71.9383L48.7546 72.0348V72.2276H48.5617L48.4653 72.4205L47.501 72.7098H45.8616L44.9937 72.3241L44.7044 72.4205L44.608 72.6134L43.5472 72.7098L42.6793 72.8062V72.6134H42.1972V72.3241H41.715L41.3293 72.1312V71.9383L40.9436 71.8419L40.4614 71.4562L40.0757 71.0704L39.8828 70.4919V69.9133L40.1721 69.624L41.04 69.5275L41.3293 70.0097L42.0043 70.5883V70.7812L42.4865 70.8776V71.0704L43.6437 71.1669L44.2223 70.974V67.406L44.3187 67.2132L43.933 67.0203L43.5472 66.731V66.5381H43.3544V66.3453H43.1615V66.1524L42.5829 65.9596L42.2936 65.6703V65.4774L41.9079 65.2845L41.5222 64.8024V64.6095H41.3293V64.3202H41.1364L40.8471 63.7416V63.3559L40.5578 63.2595L40.9436 62.488L41.9079 62.0058L42.9686 61.7165L44.3187 61.6201Z" fill="#CF421B"/>
<path d="M30.6249 55.5449H31.2999L31.4928 55.6414H32.1678L33.1321 56.1235L33.4214 56.3164V56.5092H33.6143V56.7985L34 56.9914L34.1929 57.1843V57.4736H34.3857L34.7715 58.1486L35.0608 59.4986V61.0415L34.9643 61.5237H34.7715V62.0059L34.3857 62.5845L34.1929 62.6809L34.0964 62.9702L33.6143 63.4523L33.1321 63.8381L32.2642 64.2238L31.3963 64.4167L30.3356 64.3202L28.7927 63.8381V63.6452H28.5034L28.1176 63.2595V63.0666H27.9248V62.8737H27.7319V62.6809H27.539L27.1533 61.9094L26.9604 61.0415L26.7676 60.3665L26.864 58.8236L27.0569 58.1486H27.2497L27.3462 57.7629L27.6355 57.2807L27.9248 57.1843L28.0212 56.7985L28.4069 56.3164L28.8891 56.0271L30.0463 55.6414L30.6249 55.5449Z" fill="#F9F8F3"/>
<path d="M44.3187 67.2139L44.8009 67.3103L45.7652 67.2139L45.8616 67.5032L45.958 68.9496H45.7652L45.8616 69.3354L45.7652 69.5282H45.958V70.2997L45.8616 70.589L46.0545 70.6854L45.958 70.9747L46.6331 71.1676L48.0796 70.8783V70.6854H48.3688L48.4653 70.3961H48.6581L48.851 70.0104L49.0439 69.7211H49.2367V69.5282H50.0082L50.3939 69.914L50.4904 70.4926L50.0082 71.264L49.4296 71.7462H49.2367V71.939L48.7546 72.0355V72.2283H48.5617L48.4653 72.4212L47.501 72.7105H45.8616L44.9937 72.3248L44.7044 72.4212L44.608 72.6141L43.5472 72.7105L42.6793 72.8069V72.6141H42.1972V72.3248H41.715L41.3293 72.1319V71.939L40.9436 71.8426L40.4614 71.4569L40.0757 71.0711L39.8828 70.4926V69.914L40.1721 69.6247L41.04 69.5282L41.3293 70.0104L42.0043 70.589V70.7818L42.4865 70.8783V71.0711L43.6437 71.1676L44.2223 70.9747V67.4067L44.3187 67.2139Z" fill="#1C1814"/>
<path d="M31.2026 57.9551L32.2633 58.0515L32.9384 58.4372L33.4205 59.4016L33.517 60.3659L33.4205 61.0409L32.9384 61.8124H32.7455V62.0052L31.8776 62.3909H31.2026L30.4311 62.1017L29.8525 61.3302V61.1373H29.6597L29.4668 59.7873L29.7561 58.9194L30.0454 58.7265L30.1418 58.4372L30.9133 58.0515L31.2026 57.9551Z" fill="#1B1814"/>
<path d="M58.7817 58.1484H59.6496L60.421 58.5342L60.9032 59.2092L60.9996 59.6913V60.6557L60.7103 61.3307L60.6139 61.5236H60.421L60.3246 61.8129H60.1317V62.0057L58.9746 62.295L58.2031 62.0057L57.9138 61.7164V61.5236H57.7209L57.4316 60.5592V59.7878L57.7209 59.0163L58.1067 58.4377L58.7817 58.1484Z" fill="#1B1814"/>
<path d="M40.3649 87.7529L41.1364 87.8494L41.4257 87.7529H42.6793L42.8722 87.8494L43.4508 87.7529H44.5115L44.8973 87.9458V97.2033L44.608 98.0711L44.2222 98.5533H44.0294L43.9329 98.8426H43.6436V99.0355L43.065 99.2283H40.8471L40.5578 99.0355V99.2283L40.0757 99.1319V98.8426H39.8828V98.5533L39.4971 98.3604L39.3042 97.8783L39.1113 96.914V87.8494L40.3649 87.7529Z" fill="#CF421B"/>
<path d="M41.1306 91.5137L44.7065 91.6101L44.7981 91.9958V97.396L44.5231 98.071L44.4314 98.7461L44.0646 98.8425L43.8813 99.3247L43.3311 99.7104L42.5976 99.9997L41.3139 99.9033L40.7638 99.7104V99.5175L40.3054 99.4211L39.8469 98.9389L39.4801 97.9746L39.2968 96.4317V93.828L39.2051 92.7673V91.803L39.2968 91.6101H40.4887L41.1306 91.5137Z" fill="#171714"/>
<path d="M50.0056 87.7529L50.777 87.8494L51.0663 87.7529H52.3199L52.5128 87.8494L53.0914 87.7529H54.1522L54.5379 87.9458V97.2033L54.2486 98.0711L53.8629 98.5533H53.67L53.5736 98.8426H53.2843V99.0355L52.7057 99.2283H50.4877L50.1984 99.0355V99.2283L49.7163 99.1319V98.8426H49.5234V98.5533L49.1377 98.3604L48.9448 97.8783L48.752 96.914V87.8494L50.0056 87.7529Z" fill="#CF421B"/>
<path d="M50.7751 91.5137L54.351 91.6101L54.4427 91.9958V97.396L54.1676 98.071L54.0759 98.7461L53.7092 98.8425L53.5258 99.3247L52.9756 99.7104L52.2421 99.9997L50.9585 99.9033L50.4083 99.7104V99.5175L49.9499 99.4211L49.4914 98.9389L49.1247 97.9746L48.9413 96.4317V93.828L48.8496 92.7673V91.803L48.9413 91.6101H50.1333L50.7751 91.5137Z" fill="#171714"/>
<path d="M57.5275 70.0098H59.2633H59.5526H61.2884L61.9634 70.2991V70.4919L62.2527 70.5884L62.3491 71.0705L62.4455 71.3598H62.1562L62.0598 71.842H61.2884L60.9026 71.9384H57.8168L56.8525 71.842H55.8882L55.2131 71.5527V71.3598H55.0203L54.9238 70.7812L55.3096 70.2991L55.8882 70.1062L57.5275 70.0098Z" fill="#CF421B"/>
<path d="M28.5978 70.0098H30.3336H30.6229H32.3587L33.0337 70.2991V70.4919L33.323 70.5884L33.4194 71.0705L33.5159 71.3598H33.2266L33.1301 71.842H32.3587L31.9729 71.9384H28.8871L27.9228 71.842H26.9585L26.2834 71.5527V71.3598H26.0906L25.9941 70.7812L26.3799 70.2991L26.9585 70.1062L28.5978 70.0098Z" fill="#CF421B"/>
<path d="M28.5978 70.0098H30.3336H30.6229H32.3587L33.0337 70.2991V70.4919L33.323 70.5884L33.4194 71.0705L33.5159 71.3598H33.2266L33.1301 71.842H32.3587L31.9729 71.9384H28.8871L27.9228 71.842H26.9585L26.2834 71.5527V71.3598H26.0906L25.9941 70.7812L26.3799 70.2991L26.9585 70.1062L28.5978 70.0098Z" fill="#CF421B"/>
<path d="M52.1279 10.0771L52.418 10.1738L52.8037 10.0771H54.3467L57.3359 10.1738H58.541L58.7822 10.2695H59.457L59.6982 10.3662H60.7109L61.0967 10.5107L61.4346 10.6074L61.7715 10.7041H61.9648L62.2539 10.8008H63.3145L63.5557 10.8965H63.7969L64.0859 11.0898L64.2793 11.3311H64.665L65.6289 11.4268L65.918 11.5234L66.4482 11.5723L66.8828 11.668L67.3643 11.8125H67.8467L68.3291 12.0059L68.666 12.2949L69.0039 12.4395L69.293 12.6807L69.6787 12.874H70.0645L70.5469 13.1631H70.8359L71.2217 13.2598L71.415 13.3555H71.7041L71.752 13.4043L71.9932 13.8379L72.1865 13.9346L72.3789 14.5127H72.5723L73.3438 16.0557L73.6328 17.1162L73.7295 17.502L74.0186 18.8525L74.1152 20.4922L74.2109 21.2637V45.5645L74.3076 46.5283L74.2109 47.2998L74.3076 47.9746L74.2109 48.0713L74.3076 49.8066V50.8682L74.3564 50.916L74.3076 50.9639V53.1826L74.2109 53.9541L74.3076 54.7246V55.5928L74.2109 55.7861V56.3643L74.2598 56.6055V56.7021L74.3076 56.8467V57.3291L74.2109 58.6787V59.7393L74.3076 60.6074V60.9932L74.4043 61.2822L74.3076 61.2344V62.0059L74.2109 62.1025V62.6328L74.1152 62.8252V62.9219L74.2109 63.4043V68.6113L74.1152 68.8037V70.0576L74.2109 70.251V70.8291L74.1152 71.0225V72.083L74.0186 72.7578L74.1152 73.0469L73.9219 74.5898V75.3613L73.8252 76.3262V77.001H73.6328L72.832 83.3545L73.1504 83.1846V83.3174H73.3428V83.125H73.6318V82.9316L74.4033 82.4502H74.5957L74.6924 82.1602L75.1748 81.8711L75.3672 81.582H75.5605L75.7529 81.0996L75.9463 80.8105H76.1387L76.332 80.3281L76.7178 79.6533L76.8135 79.2676H77.0068L77.2959 78.3994L77.6816 77.4355H77.875V77.2422H78.0674V76.9531H78.2607V76.7607H78.4531V76.4707L78.7422 76.1816L79.2246 75.3135L79.6104 74.4463L79.8994 73.8672L80.0928 72.5176V71.8418L79.9961 71.6494V65.1885L80.1895 64.7061L79.9961 64.6104V63.4531L80.0928 62.9707L80.2852 60.8486L80.5752 58.9199L80.8643 57.667L81.1533 56.7988L81.4424 55.835L81.8281 54.7734L82.0215 54.4844V54.292H82.2139V53.8096L82.6963 52.749H82.8896L83.082 51.9775L83.4678 51.2061L83.5645 50.8203L83.7568 50.627L83.9502 50.5312L84.1426 49.9521L84.3359 49.5664L84.5283 49.4697L84.7217 48.9883H84.9141L85.1074 48.5059L85.9746 47.3486L87.0361 46.1914L87.7109 45.4199L88.5791 44.5518H88.7715L88.9648 44.166L89.543 43.7803L89.832 43.6846L90.0254 43.2988L90.5078 43.0088L91.2783 42.4307L92.5322 41.6592L93.207 41.2734L93.7861 40.8877L95.5215 40.1162H95.8115L95.9072 39.9229L97.8359 39.1514L98.8008 38.959H99.4756L100.15 39.248L100.344 39.7305V40.5986L100.15 42.2373L99.668 45.4199L99.5723 46.5771V48.9883L99.668 49.9521V50.627L99.8613 51.3027V52.2666L100.054 53.9062V54.6777L100.15 55.3525L100.344 56.6064L100.439 58.1494L100.536 58.8242L100.439 59.3057L100.633 61.3311V62.4883L100.729 65.0918L100.633 65.2852L100.729 65.7666V66.7314L100.536 67.5029V68.8525L100.344 70.3955L100.247 71.2637L100.15 71.7461L99.7646 73.3848L99.5723 73.8672V74.2529H99.3789L99.1865 75.2178L98.9932 75.6035L98.7041 76.375H98.5107L98.415 76.9531L98.125 77.4355H97.9326L97.7402 78.3027L97.4502 78.5928L97.2578 79.0742L97.0645 79.3643H96.8721L96.7754 79.75L96.4863 79.8457L96.293 80.3281L96.1006 80.6172H95.9072L95.8115 81.0029L95.2324 81.6787L94.75 82.1602L94.3643 82.3535L94.1719 82.7393L93.207 83.4141L93.1113 83.6074L92.5322 83.8965L92.2432 84.1855L91.8574 84.2822L91.7607 84.5713L91.1826 84.8604H90.9893L90.8926 85.1494L90.3145 85.2461V85.4395H90.1221V85.6318L89.543 85.8252L88.5791 86.3066L87.5176 86.6924L87.1318 86.8857L85.9746 87.1748L85.2998 87.3682L84.4316 87.5605L83.8535 87.7539L83.3711 87.6572L83.2754 87.8496H82.5996L82.2139 87.9463L79.707 88.043H79.0322L78.0674 87.9463L77.9707 87.8496L77.3926 87.9463L76.7178 87.8496L74.3066 87.3682L73.5352 87.1748L73.0527 87.0781L72.8604 86.7891H72.1855L71.6699 86.5957H68.3281V86.6445L68.04 86.7402H67.5576L67.4609 86.9336L67.2686 86.8369L67.1719 87.0293L66.0146 87.2227L63.8936 87.5117L62.832 87.6084H61.9648L61.2891 87.7051H60.3252L59.8428 87.8008H59.6504L59.5537 87.8975L59.457 87.5117L59.3604 87.8008L59.5537 87.8975L58.8789 87.9941L58.3965 88.1865L57.8184 88.2832L57.4326 88.3799L56.8535 88.4766L56.4688 88.3047V88.1387H55.2227L55.2139 88.0664L54.9248 87.9941L53.9023 88.043H47.3066V87.9941H47.1143L47.0898 88.043H38.6406L38.6279 87.9941H37.8564L37.5156 88.043H37.1338L37.085 87.9941H36.5059L36.3604 88.043H35.9268V87.9463H35.1123L34.6738 87.8975V87.9463H30.8984L30.9131 87.8975L30.1416 87.7051H29.1777L28.792 87.8008L27.9238 87.6084L27.7314 87.5117L27.6348 87.7051L26.6699 87.6084H26.0918L25.8027 87.5117H25.2236L24.5488 87.3193L22.9092 87.2227L21.6562 86.9336L21.2705 86.8369V86.6445H20.499L19.5342 86.2588L19.3418 86.0654L18.9561 85.873L18.4736 85.583L17.4131 84.7158V84.5225H17.2197V84.1367H17.0273L16.3516 82.8828L16.2559 82.4014L15.8701 81.3398L15.5801 79.7979L15.4844 78.5439L15.3877 78.0615V76.9043L15.291 76.7119V75.1689L15.1943 74.2041V72.6611L15.0986 72.2754V68.9004L15.1943 67.9365V67.6465L15.0986 66.5859V63.2109L15.1943 62.9219L15.1465 62.874V62.7773L15.0986 62.7285V61.8613L15.1943 61.5713L15.0986 61.1855V57.8105L15.1943 57.4248V56.8945L15.0986 56.8467V55.9307L15.1465 55.834L15.0986 55.6895L15.002 55.5928H15.0986V54.5322L15.1943 53.8574L15.291 53.0859L15.0986 52.9893L15.1943 52.7969V51.832L15.291 51.4463H15.1943L15.291 51.3018V48.0713L15.3877 47.1074V46.7217L15.5801 20.6846V20.0098H15.7734L15.6768 19.4307L15.7734 18.7559V18.0811L15.9658 17.4062L16.3516 15.959L16.7373 15.0918L17.123 14.417L17.4131 13.9346L17.4609 13.8857H17.6543V13.8379H17.75L17.7988 13.8857L17.8945 13.8379L17.9434 13.79L17.9912 13.7412L18.1846 13.6455L18.377 13.3555L18.9561 12.874L19.3896 12.4883H19.7275L20.3057 12.3428L22.668 11.8125L23.1025 11.7168L23.2949 11.5723H23.874L24.0186 11.4756H24.4043L24.5488 11.4268L24.7412 11.3789L25.0791 11.3311H25.3682L25.8027 11.2822L26.6699 11.0898L26.9111 10.9932H27.3936V10.8965H27.6348L27.8271 10.8486L28.0684 10.752H29.0332L29.4189 10.6553L30.0938 10.5107L30.4307 10.4629H31.3477L31.54 10.415H31.6846L31.7812 10.3184H31.9736L33.71 10.1738H35.3496L35.7354 10.0771H36.1211L36.9883 10.2695L37.085 10.0771L37.374 10.1738L37.5674 10.0771L38.4346 10.1738L39.3027 10.0771L39.7852 10.1738L40.1709 10.0771L42.582 9.98047H49.043L52.1279 10.0771ZM40.46 12.874L39.9775 12.7773V12.9697L39.3994 12.874L37.8564 12.9697H35.8311L34.8672 13.1631L34.7705 12.9697H34.0957L32.4561 13.1631H31.0098L30.624 13.2598H29.9492L29.4668 13.3555L27.8271 13.4521L26.0918 13.6455L24.5488 13.8379L23.874 14.0312H23.2949V14.2236H22.6201L21.4629 14.5127L20.5947 14.9951V15.1875L20.3057 15.0918L20.1133 15.4775L19.7275 15.6699L19.6309 15.959L19.2451 16.1523L18.9561 16.6348L18.666 17.2129L18.2803 18.9492V19.5273L18.1846 19.624V20.1064L18.2803 20.2988L18.0879 20.8779V45.2744L17.9912 45.5645V46.8174L17.8945 47.2998L17.7988 48.2637L17.8945 48.7461L17.7988 50V50.9639H17.8945L17.9912 51.543L17.7988 52.0254L17.7021 52.3145V53.5684L17.6055 53.9541L17.7021 54.7246V57.9072L17.6055 58.7754L17.7021 58.8721L17.6055 59.7393L17.7021 60.2217L17.6924 60.1738L17.7021 60.3184L17.6826 60.5596L17.7021 60.9453L17.7988 61.2344L17.8945 61.4756V61.5713L17.9912 61.8613L17.6055 62.1504V64.0791L17.5088 64.4648L17.6055 65.1396V68.1289L17.7021 71.0225V72.3721L17.7988 75.458V76.0361L17.8945 76.6152V77.9648L18.0879 79.2188V79.7012L18.2803 80.1836L18.377 80.9541L18.7627 81.8223L19.3418 82.9795L19.8232 83.2686H20.209L20.3057 83.5586L20.9805 83.9443L21.8486 84.1367L22.9092 84.4258L24.0664 84.6191L24.4521 84.7158L25.3203 84.8115L26.2842 84.9082L26.5742 85.0049H28.1172L28.6953 85.1016H29.6592L30.624 85.2939L31.1064 85.1973L32.2637 85.2939H34.6738L35.8311 85.3906V85.1973L36.6992 85.3906L37.4707 85.4873L39.0137 85.3906L39.4961 85.4873H40.749L41.3281 85.3906L42.582 85.4873H44.6064L45.0889 85.3906L45.1855 85.4873H47.21L47.6924 85.583H47.8857V85.3906L48.4639 85.4873H49.6211L49.9102 85.2939V85.4873H51.7422L52.0322 85.3906H53.3818L54.25 85.4873H54.5391V85.2939L55.1182 85.3906L56.8535 85.2939H57.8184L58.3965 85.1973H60.2285L61.5791 85.0049H62.7363L63.1221 84.9082H63.7002L64.1826 84.8115L65.0498 84.7158L67.75 84.04L69.0039 83.3652L69.7754 82.5938V82.4014H69.9688L70.4502 81.3398L70.7402 80.376L70.6436 80.0869H70.8359L71.0293 79.0264L71.126 78.1582L71.2217 77.1934L71.415 75.9404L71.3184 74.5898L71.415 74.3008V73.2402L71.3184 73.0469L71.5117 72.9512V71.7939L71.6074 70.7324V61.8613L71.6562 61.7168L71.6074 61.668L71.6562 61.6201V61.5713L71.7041 61.5234V60.415L71.752 60.1738L71.7041 59.6436L71.6074 58.293L71.7041 57.8105L71.6074 57.2324L71.6562 57.0879V56.8467L71.7041 56.6055V50.6748L71.8008 49.0352L71.7041 47.2998L71.6074 47.2031L71.7041 46.3359L71.6074 44.9854L71.5117 20.8779L71.2217 18.5635L70.7402 17.1162L70.2578 16.1523L69.8721 15.7666H69.6787L69.4863 15.3809L68.8115 14.9951L68.5215 14.7061L67.8467 14.6094V14.417L66.5928 14.0312H66.1113L65.4355 13.8379H64.9541L64.665 13.7412L63.0254 13.5488L61.7715 13.4521L61.0967 13.3555L60.9033 13.1631L60.5176 13.2598L59.457 13.1631H58.7822L58.2998 13.0664H57.625L57.1426 12.9697H56.1787L54.5391 12.874L54.0566 12.9697L53.9609 12.7773L53.0928 12.874L52.707 12.7773L52.3213 12.874L51.4531 12.7773L50.7783 12.874L49.4287 12.7773H45.0889L44.2207 12.9697L44.124 12.7773H41.1348L40.46 12.874Z" fill="#CF411B"/>
<path d="M98.705 39.0547H99.38L100.055 39.344L100.248 39.8261V40.694L100.055 42.3334L99.5729 45.5156L99.4765 46.6728V49.0836L99.5729 50.0479V50.723L99.7658 51.398V52.3623L99.9586 54.0016V54.7731L100.055 55.4481L100.248 56.7017L100.344 58.2446L100.441 58.9197L100.248 59.4018H100.055V59.5947L99.38 59.9804L98.6086 60.0769L98.03 59.884L97.9336 59.6911L97.4514 59.4983L96.9692 59.209L96.4871 58.7268L95.8121 57.7625L95.6192 57.5696L95.0406 56.7017L94.9442 56.2196H94.462L94.1727 56.8946H93.9798L93.8834 57.4732L93.4977 57.8589L93.4012 58.0518H93.2084L93.0155 58.5339L92.5334 59.209H92.3405L92.2441 59.5947L91.7619 60.0769L91.4726 60.1733V60.3661L91.1833 60.559H90.894V60.7519L90.6047 60.8483H90.0261V60.4626L89.6404 60.3661L88.9654 59.3054L88.5796 58.5339L88.3868 57.6661L88.4832 57.4732H88.2903L88.0975 56.6053L88.001 55.9303L87.9046 54.7731V53.423L87.5189 53.0373V53.2302L86.1688 54.0981L85.8795 54.2909H85.5902V54.4838L84.8188 54.6767H83.758L83.083 54.3874L82.9866 54.0016L82.7937 53.9052L82.6973 53.1338L82.9866 52.073L83.3723 51.3015L83.4687 50.9158L83.6616 50.723L83.8545 50.6265L84.0473 50.0479L84.2402 49.6622L84.433 49.5658L84.6259 49.0836H84.8188L85.0116 48.6014L85.8795 47.4443L86.9403 46.2871L87.6153 45.5156L88.4832 44.6477H88.6761L88.8689 44.262L89.4475 43.8763L89.7368 43.7799L89.9297 43.3941L90.4118 43.1048L91.1833 42.5262L92.4369 41.7548L93.1119 41.3691L93.6905 40.9833L95.4263 40.2119H95.7156L95.8121 40.019L97.7407 39.2476L98.705 39.0547Z" fill="#171714"/>
<path d="M5.00902 63.4994C5.00902 63.4994 5.02082 63.498 5.00732 63.5156C4.94439 63.5473 4.89496 63.5614 4.84553 63.5755C4.84553 63.5755 4.85352 63.5777 4.84121 63.5974C4.77856 63.6296 4.72821 63.6422 4.67788 63.6548C4.67788 63.6548 4.68687 63.6572 4.67653 63.682C4.53437 63.7459 4.40255 63.785 4.27072 63.8241C4.27072 63.8241 4.27724 63.8255 4.26625 63.8498C4.15015 63.912 4.04503 63.9499 3.93993 63.9879C3.93993 63.9879 3.94713 63.989 3.94534 64.0127C3.86519 64.056 3.78684 64.0757 3.70849 64.0955C1.94855 65.0173 1.03933 66.5771 0.480333 68.3997C0.464464 68.4515 0.443178 68.5016 0.443098 68.6056C0.465994 68.7531 0.495403 68.8546 0.470606 68.9405C0.153448 70.0393 0.0764313 71.1642 0.0728703 72.3006C0.0712261 72.827 0.0293522 73.3533 0.00572205 73.8796C0.000822067 73.9158 -0.00407219 73.952 0.0109234 74.0325C0.0457039 74.1497 0.0605927 74.2226 0.0760593 74.328C0.129597 75.1934 0.182556 76.0262 0.235516 76.859L0.235531 76.8593C0.235611 76.8581 0.237598 76.8537 0.264296 76.8585L0.270287 76.8637C0.33411 76.919 0.387911 76.9656 0.399454 77.021C0.562475 77.8035 0.710585 78.5891 0.881062 79.3699C0.975111 79.8006 1.10413 80.2236 1.21739 80.6501C1.21739 80.6501 1.20479 80.6484 1.22613 80.6556C1.246 80.7094 1.24455 80.756 1.2431 80.8026C1.9953 82.7244 3.27885 84.1893 5.09899 85.2178C5.21133 85.2527 5.27738 85.3023 5.34343 85.3518C5.34343 85.3518 5.34647 85.3453 5.37005 85.3447C5.43241 85.3761 5.47119 85.4079 5.50997 85.4397C5.50997 85.4397 5.50996 85.4298 5.53273 85.4293C5.5953 85.4599 5.6351 85.4909 5.6749 85.5218C5.6749 85.5218 5.67488 85.512 5.701 85.5115C5.87485 85.5959 6.02258 85.6807 6.17031 85.7655L6.17038 85.7655C6.17038 85.7655 6.17097 85.7572 6.19937 85.755C6.40187 85.8366 6.57597 85.9202 6.75008 86.0039C6.75008 86.0039 6.7508 85.9981 6.77743 85.9991C6.86845 86.0312 6.93283 86.0624 6.99721 86.0936C6.99721 86.0936 6.99598 86.0849 7.02828 86.0832C7.76968 86.2629 8.47886 86.4438 9.18717 86.6281C9.20254 86.6321 9.20778 86.6751 9.21774 86.6998C9.35467 86.7178 9.49161 86.7358 9.67642 86.7334C9.59006 86.5689 9.45583 86.4247 9.3216 86.2805L9.27502 86.3328L9.0635 85.8066C9.21664 85.7874 9.36433 85.7442 9.50787 85.7552C10.0658 85.798 10.6217 85.892 11.1798 85.9053C12.8775 85.9458 14.5757 85.9751 16.2371 85.5107C17.5612 85.1406 18.7949 84.625 19.7566 83.5872C20.8218 82.4376 20.9941 80.627 20.1328 79.3736C19.8924 79.0238 19.4081 78.8458 18.9919 78.9117C18.238 79.0312 17.4818 79.2057 16.7241 79.2185C14.3627 79.2587 12.0003 79.2375 9.63825 79.2302C9.31677 79.2292 9.08736 79.0598 9.05982 78.7134C9.03337 78.3806 9.2182 78.1756 9.53448 78.1629C10.1048 78.1399 10.677 78.17 11.2482 78.1615C13.6459 78.1257 16.0492 78.3044 18.4394 77.9954C18.8291 77.945 19.262 77.8997 19.5832 77.7026C21.7922 76.3473 21.7552 73.4527 20.0111 71.9625C19.7386 71.7297 19.3891 71.4846 19.0535 71.4488C18.3025 71.3687 17.5378 71.4143 16.7786 71.4134C15.3504 71.4117 13.9222 71.4135 12.494 71.4134C11.4777 71.4133 10.4613 71.4023 9.44529 71.4175C9.07837 71.4229 8.78667 71.3087 8.75149 70.9397C8.71627 70.5703 8.99743 70.428 9.34377 70.4101C9.57497 70.3982 9.80515 70.3502 10.0359 70.3492L10.2474 70.3483C11.6015 70.3423 12.9556 70.3364 14.3096 70.3484C15.3782 70.3579 16.4464 70.4011 17.515 70.4207C18.0749 70.4309 18.6351 70.4225 19.239 70.4225C19.2675 70.3846 19.3265 70.2745 19.4136 70.1954C20.3566 69.3394 20.6193 68.2443 20.3791 67.0576C20.0631 65.497 18.9851 64.5635 17.5609 63.9876C16.3628 63.5032 15.0869 63.4192 13.8222 63.3515C12.6208 63.2872 11.4128 63.3125 10.2087 63.3405C9.34854 63.3605 8.49018 63.4539 7.63052 63.5064C7.38097 63.5216 7.12971 63.5087 6.87036 63.5087V62.9414L5.78988 63.1763L5.00902 63.4994Z" fill="#CF411B"/>
<path d="M14.3031 86.9082C15.049 86.7978 15.7655 86.6853 16.533 86.5454C16.7058 86.4954 16.8275 86.4726 16.9523 86.4502C16.9553 86.4505 16.9612 86.4522 16.9803 86.4324C17.7011 86.1073 18.4027 85.8019 19.1178 85.4718C19.5656 85.1313 19.9998 84.8156 20.4439 84.4806C20.4748 84.4235 20.496 84.3858 20.5172 84.3481C21.0129 83.7162 21.4503 83.053 21.6553 82.2012C21.6707 82.1072 21.6737 82.0698 21.6766 81.9986C21.6832 81.4918 21.7521 81.0093 21.6804 80.5487C21.5984 80.0215 21.3916 79.5138 21.2178 78.9867C21.1565 78.9286 21.1165 78.8814 21.0614 78.8235C21.0252 78.7968 21.0137 78.7757 20.988 78.7353C20.8743 78.6233 20.7848 78.5252 20.6396 78.3662C20.8473 78.154 21.0543 77.9425 21.2603 77.7014C21.4019 77.4838 21.5446 77.2958 21.6852 77.105C21.6831 77.1023 21.6795 77.1083 21.6755 77.0756C21.7842 76.8142 21.897 76.5856 22.0065 76.3567C22.0033 76.3564 22.0038 76.3628 22.0024 76.3273C22.0233 76.146 22.0627 76.0004 22.0654 75.8542C22.0772 75.1968 22.0786 74.5393 22.082 73.8498C21.9733 73.4237 21.8664 73.0296 21.7587 72.6394C21.7579 72.6434 21.7659 72.6432 21.7414 72.6319C21.7034 72.5706 21.6898 72.5206 21.6752 72.4744C21.674 72.4783 21.6821 72.479 21.658 72.4678C21.6198 72.4072 21.6056 72.3577 21.5905 72.3115C21.5896 72.3147 21.5959 72.3125 21.5679 72.3119C21.4709 72.1765 21.4018 72.0415 21.3261 71.8798C21.1521 71.6586 20.9944 71.455 20.8157 71.2719C20.4776 70.9255 20.4296 70.5934 20.6847 70.1628C20.7526 70.0481 20.8389 69.9442 20.9227 69.8119C20.9561 69.75 20.9835 69.7116 21.0096 69.6456C21.0617 69.5255 21.1151 69.433 21.1695 69.3437C21.1705 69.3469 21.1638 69.3472 21.1687 69.3157C21.258 68.8944 21.3423 68.5046 21.4022 68.0915C21.3394 67.6411 21.301 67.214 21.2623 66.7903C21.262 66.7938 21.2689 66.7932 21.2435 66.7787C21.2058 66.6889 21.1935 66.6136 21.1808 66.5419C21.1805 66.5454 21.1876 66.5445 21.1594 66.5353C21.0386 66.3007 20.946 66.0754 20.8517 65.8224C20.5629 65.3792 20.2758 64.9636 19.9667 64.5386C19.9162 64.4917 19.8878 64.454 19.8382 64.4028C19.7968 64.3439 19.7765 64.2987 19.7598 64.2517C19.7634 64.2499 19.7632 64.2579 19.7377 64.2488C19.592 64.1311 19.4718 64.0225 19.3333 63.91C19.2911 63.8934 19.2776 63.8736 19.2508 63.8336C19.1301 63.7421 19.0331 63.6635 18.9134 63.583C18.8549 63.5555 18.8192 63.5298 18.7625 63.4994C18.7109 63.4655 18.6801 63.4363 18.6179 63.4074C18.0287 63.1931 17.4871 62.906 16.9103 62.7775C15.1911 62.3947 13.4332 62.38 11.6813 62.3583C11.0005 62.3499 10.319 62.403 9.61453 62.427C9.57576 62.4237 9.56033 62.4215 9.5483 62.4211C9.55168 62.4228 9.5502 62.4154 9.5396 62.4377C9.49925 62.472 9.46951 62.484 9.40428 62.4984C8.80039 62.5562 8.23199 62.6115 7.65448 62.6861C7.62354 62.723 7.60171 62.7406 7.57987 62.7582C7.3438 62.819 7.10773 62.8798 6.872 62.9406C6.872 63.1325 6.872 63.2905 6.872 63.5079C7.13135 63.5079 7.38261 63.5208 7.63215 63.5055C8.49182 63.4531 9.35018 63.3597 10.2104 63.3397C11.4145 63.3117 12.6224 63.2864 13.8238 63.3507C15.0885 63.4184 16.3644 63.5024 17.5625 63.9868C18.9868 64.5627 20.0647 65.4962 20.3807 67.0567C20.621 68.2435 20.3583 69.3385 19.4152 70.1946C19.3281 70.2737 19.2692 70.3838 19.2407 70.4216C18.6367 70.4216 18.0765 70.4301 17.5166 70.4198C16.4481 70.4003 15.3798 70.3571 14.3112 70.3476C12.8868 70.3349 11.4621 70.3422 10.0376 70.3484C9.80679 70.3494 9.5766 70.3973 9.34541 70.4093C8.99907 70.4272 8.71791 70.5695 8.75313 70.9389C8.78831 71.3079 9.08001 71.4221 9.44693 71.4166C10.463 71.4015 11.4794 71.4125 12.4956 71.4125C13.9238 71.4127 15.3521 71.4109 16.7803 71.4126C17.5394 71.4135 18.3041 71.3678 19.0551 71.4479C19.3907 71.4837 19.7402 71.7289 20.0127 71.9617C21.7569 73.4519 21.7938 76.3464 19.5849 77.7018C19.2636 77.8989 18.8307 77.9442 18.4411 77.9946C16.0508 78.3036 13.6476 78.1249 11.2499 78.1606C10.6787 78.1692 10.1064 78.1391 9.53611 78.1621C9.21984 78.1748 9.03501 78.3797 9.06146 78.7126C9.089 79.0589 9.31841 79.2284 9.63989 79.2294C12.0019 79.2366 14.3644 79.2578 16.7258 79.2177C17.4834 79.2048 18.2397 79.0303 18.9936 78.9109C19.4098 78.845 19.8941 79.0229 20.1345 79.3728C20.9957 80.6262 20.8234 82.4368 19.7582 83.5863C18.7965 84.6242 17.5628 85.1398 16.2387 85.5099C14.5773 85.9742 12.8791 85.9449 11.1814 85.9045C10.6233 85.8911 10.0675 85.7972 9.50951 85.7544C9.36597 85.7434 9.21828 85.7865 9.06514 85.8057C9.1443 86.0027 9.21048 86.1673 9.27666 86.332C9.29218 86.3145 9.30771 86.2971 9.32324 86.2797C9.45747 86.4239 9.5917 86.5681 9.71283 86.7345C9.69974 86.7568 9.70537 86.7567 9.73103 86.7461C9.88682 86.6241 9.9936 86.6118 10.0519 86.8051C11.4591 86.8388 12.8663 86.8724 14.3031 86.9082Z" fill="#020617"/>
<path d="M19.7791 57.314C19.9181 55.6581 19.7145 54.0731 18.7426 52.6713C18.238 51.9436 17.5259 51.4645 16.6642 51.1629C16.6053 51.1654 16.5841 51.155 16.5629 51.1446C16.5227 51.1191 16.4825 51.0935 16.4029 51.0868C16.2941 51.0736 16.2247 51.0416 16.1553 51.0096C16.1408 51.0015 16.1263 50.9934 16.0611 51.0083C15.3115 51.0642 14.6126 51.0971 13.9137 51.13C13.9137 51.13 13.9223 51.1307 13.9107 51.1563C13.7405 51.221 13.582 51.2602 13.4235 51.2993C13.4235 51.2993 13.4295 51.3017 13.4243 51.33C13.3064 51.393 13.1937 51.4277 13.0809 51.4624C13.0809 51.4624 13.0476 51.4636 13.0221 51.4876C12.9767 51.5311 12.953 51.5427 12.9255 51.5465C12.9255 51.5465 12.9328 51.5456 12.9297 51.5723C12.8437 51.6354 12.7607 51.6716 12.6777 51.7079C12.6777 51.7079 12.685 51.7096 12.6824 51.7356C12.6201 51.789 12.5603 51.8165 12.5005 51.844C12.5005 51.844 12.4999 51.8501 12.4975 51.8776C12.4468 51.9224 12.3983 51.9397 12.3499 51.957C12.3499 51.957 12.3567 51.9591 12.3542 51.9842C12.2949 52.0459 12.2381 52.0825 12.1813 52.1191C12.1813 52.1191 12.1886 52.121 12.1874 52.146C12.1307 52.2094 12.0752 52.2479 12.0196 52.2863C12.0196 52.2863 12.0265 52.2887 12.0243 52.3136C11.9663 52.3761 11.9106 52.4137 11.8548 52.4513C11.8548 52.4513 11.8614 52.4536 11.8542 52.4704C11.8245 52.5043 11.802 52.5214 11.7796 52.5385C11.7796 52.5385 11.7833 52.5387 11.7817 52.5671C11.7241 52.6581 11.668 52.7209 11.6119 52.7837C11.6119 52.7837 11.6175 52.7854 11.6149 52.809C11.5827 52.8714 11.5531 52.9103 11.5235 52.9492C11.5235 52.9492 11.5313 52.9481 11.5321 52.9764C11.3637 53.3424 11.1945 53.6803 11.0252 54.0181C11.0252 54.0181 11.0335 54.0195 11.0361 54.0505C10.9566 54.4737 10.8745 54.8659 10.7798 55.2889C10.6937 56.2494 10.582 57.178 10.5569 58.109C10.5277 59.1928 10.4723 60.2704 10.1189 61.3C10.0053 61.631 10.0819 62.0893 9.63275 62.2601C9.63275 62.2601 9.63808 62.2634 9.63868 62.289C9.63954 62.3527 9.63981 62.3908 9.64006 62.429C10.3212 62.4039 11.0027 62.3508 11.6834 62.3592C13.4354 62.3808 15.1932 62.3956 16.9125 62.7784C17.4893 62.9068 18.0309 63.1939 18.6323 63.3844C18.7662 63.185 18.8565 63.0097 18.9462 62.8374C18.9456 62.8405 18.9411 62.8362 18.9431 62.8059C18.9583 62.7162 18.9715 62.6569 18.9614 62.5856C18.9294 62.5245 18.9044 62.4715 18.9148 62.4268C19.0593 61.8042 19.2423 61.1883 19.348 60.5594C19.4706 59.8301 19.5213 59.0889 19.6131 58.3542C19.6566 58.006 19.723 57.6606 19.7791 57.314Z" fill="#CF411B"/>
</svg>
