<svg width="70" height="100" viewBox="0 0 70 100" fill="none" xmlns="http://www.w3.org/2000/svg">
<path d="M39.3247 60.6865L39.8913 60.7999V61.0265L40.3446 61.1398V61.9331L40.0047 62.9531L39.3247 63.8597L38.9847 64.4263L38.7581 64.653H38.4181L38.1914 65.1063L36.8315 65.7862H36.3782L35.8116 66.0129L34.7916 66.1262L34.4517 66.2395L33.7717 66.0129L33.2051 66.1262L31.8451 65.7862L31.6185 65.6729V65.4462H30.9385L30.7119 65.3329V65.1063L30.1453 64.8796L30.0319 64.5396H29.6919L29.352 64.1997V63.8597H29.1253L28.672 62.9531L28.4454 62.7264L28.332 61.9331L28.5587 61.1398L29.5786 60.9132L30.0319 61.0265L30.1453 61.7065H30.3719L31.2785 63.0664L31.8451 63.293L31.9585 63.5197L33.2051 63.8597H35.3583L36.4915 63.633L36.6049 63.4064L37.1715 63.293V63.0664L38.0781 62.2731L38.5314 61.3665L38.7581 60.7999L39.3247 60.6865Z" fill="#F9F4E8"/>
<path d="M37.8516 18.8691L38.5312 18.5293L38.7578 18.0762H39.2109L39.4375 17.7363L39.6641 17.0557L40.0039 15.3564L39.8906 14.2227L39.6641 12.8633L39.5508 11.8428L39.3242 10.8232L39.2109 10.2559L38.9844 10.1426V9.68945H38.7578V8.7832L38.418 8.33008L38.3047 7.7627L38.0781 6.96973L37.7383 6.17676L38.1914 6.62988L39.5508 8.66992L40.458 9.57617V9.91602L41.0244 10.4834L41.3643 10.5967L41.4775 11.0498L41.7041 11.2764H42.0439L42.2705 11.8428L42.6113 11.9561L43.291 12.75H43.6309L43.7441 13.2031L44.3105 13.4297V13.6562L45.5576 14.5625H45.7842L45.6709 14.9023H46.2373V15.1289L47.0303 15.4697L47.3701 15.583V15.8096L47.8242 15.9229L47.9375 16.1494H48.3906V16.376L49.4102 16.8291L49.9775 17.0557L51.2236 17.1689H52.3574L53.4902 16.6025L53.377 16.2627H53.6035L53.7168 16.4893V16.2627H53.9434L54.1699 16.0361L54.2832 15.6963L54.3965 14.1094L54.1699 13.9961L54.2832 13.543H54.0566V12.8633L53.4902 11.7295H53.2637L53.1504 11.2764L52.6973 10.4834H52.4707L52.3574 9.91602L52.0166 9.34961L51.3369 8.44336L51.1104 8.2168H50.8838L50.6572 7.87695L50.8838 7.7627L50.4307 7.64941V7.42285H50.2041V7.19629H49.9775V6.74316L49.6367 6.5166L50.2041 6.74316L51.3369 7.53613L51.4502 7.7627L52.1299 7.99023L52.4707 8.33008L53.1504 8.66992L53.7168 9.00977L54.5098 9.23633L54.9639 9.46289H55.3037V9.68945L56.6631 9.91602V10.1426L58.4766 10.5967L59.4961 10.4834L59.6094 10.71L60.1768 10.5967H61.083L61.4229 10.3701H61.6494V10.1426H62.2168V9.91602H62.4434V9.68945L62.7832 9.57617L62.6699 9.23633L62.8965 9.12305L63.123 7.99023L62.6699 6.74316L62.5566 6.29004L62.2168 5.83691L61.6494 5.38281L61.4229 5.04297H61.1963L61.083 4.70312L60.6299 4.13672H60.1768V3.91016L59.043 3.23047L58.3633 2.66309L57.3438 2.20996H57.1162V2.09766H27.8789V4.25L28.1055 6.5166L28.2188 7.30957V7.64941H28.4453L28.6719 9.23633L28.8984 9.80273V10.0293H29.125L29.2383 10.5967V10.9365L29.4648 11.3896H29.6914V11.9561L30.0312 12.75H30.2578L30.3721 13.3164H30.5986L30.7119 13.8828L30.8252 14.1094H31.0518L31.165 14.5625H31.3916L31.5049 15.1289L31.7314 15.6963L32.4111 16.2627L32.8652 16.376L32.752 16.7158H32.9785V17.1689H33.5449L33.7715 17.623L34.1113 17.9629L34.791 18.3027L35.0176 18.5293L36.6045 18.9824L36.7178 19.0957L37.8516 18.8691Z" fill="#020617"/>
<path d="M23.0059 18.8691L23.6855 18.5293L23.9121 18.0762H24.3662L24.5928 17.7363L24.8193 17.0557L25.1592 15.3564L25.0459 14.2227L24.8193 12.8633L24.7061 11.8428L24.4795 10.8232L24.3662 10.2559L24.1396 10.1426V9.68945H23.9121V8.7832L23.5723 8.33008L23.459 7.7627L23.2324 6.96973L22.8926 6.17676L23.3457 6.62988L24.7061 8.66992L25.6123 9.57617V9.91602L26.1787 10.4834L26.5195 10.5967L26.6328 11.0498L26.8594 11.2764H27.1992L27.4258 11.8428L27.7656 11.9561L28.4453 12.75H28.7852L28.8984 13.2031L29.4658 13.4297V13.6562L30.7119 14.5625H30.9385L30.8252 14.9023H31.3926V15.1289L32.1855 15.4697L32.5254 15.583V15.8096L32.9785 15.9229L33.0918 16.1494H33.5449V16.376L34.5654 16.8291L35.1318 17.0557L36.3789 17.1689H37.5117L38.6445 16.6025L38.5312 16.2627H38.7588L38.8721 16.4893V16.2627H39.0986L39.3252 16.0361L39.4385 15.6963L39.5518 14.1094L39.3252 13.9961L39.4385 13.543H39.2119V12.8633L38.6445 11.7295H38.418L38.3047 11.2764L37.8516 10.4834H37.625L37.5117 9.91602L37.1719 9.34961L36.4922 8.44336L36.2646 8.2168H36.0381L35.8115 7.87695L36.0381 7.7627L35.585 7.64941V7.42285H35.3584V7.19629H35.1318V6.74316L34.792 6.5166L35.3584 6.74316L36.4922 7.53613L36.6055 7.7627L37.2852 7.99023L37.625 8.33008L38.3047 8.66992L38.8721 9.00977L39.665 9.23633L40.1182 9.46289H40.458V9.68945L41.8184 9.91602V10.1426L43.6318 10.5967L44.6514 10.4834L44.7646 10.71L45.3311 10.5967H46.2383L46.5781 10.3701H46.8047V10.1426H47.3711V9.91602H47.5977V9.68945L47.9375 9.57617L47.8242 9.23633L48.0508 9.12305L48.2773 7.99023L47.8242 6.74316L47.7109 6.29004L47.3711 5.83691L46.8047 5.38281L46.5781 5.04297H46.3516L46.2383 4.70312L45.7842 4.13672H45.3311V3.91016L44.1982 3.23047L43.5176 2.66309L42.498 2.20996H42.2715V2.09766H13.0332V4.25L13.2598 6.5166L13.373 7.30957V7.64941H13.5996L13.8262 9.23633L14.0527 9.80273V10.0293H14.2803L14.3936 10.5967V10.9365L14.6201 11.3896H14.8467V11.9561L15.1865 12.75H15.4131L15.5264 13.3164H15.7529L15.8662 13.8828L15.9795 14.1094H16.2061L16.3193 14.5625H16.5459L16.6592 15.1289L16.8867 15.6963L17.5664 16.2627L18.0195 16.376L17.9062 16.7158H18.1328V17.1689H18.6992L18.9258 17.623L19.2666 17.9629L19.9463 18.3027L20.1729 18.5293L21.7598 18.9824L21.873 19.0957L23.0059 18.8691Z" fill="#020617"/>
<path d="M26.7437 44.5947H26.9703V44.7901L27.877 44.5947L28.1036 44.6924L28.4436 44.5947H36.6031L36.8297 44.6924L37.963 44.5947H42.0427L43.856 44.6924H47.4824L48.6157 44.7901L49.1823 44.6924L51.3355 44.7901H52.6954L56.0952 45.3764L57.0018 45.7673L57.1152 45.9627L57.5685 46.0604L58.4751 46.5489L59.155 47.2329V47.4283H59.3817L59.7217 48.1123L59.9483 48.3077L60.2883 49.3826L60.4016 49.4803L60.6283 51.3368L60.7416 52.3139L60.8549 52.5093L60.7416 53.5841V57.5903L60.8549 57.7857L60.6283 58.4697V60.3262L60.4016 60.6193H60.6283V61.1079L60.515 61.5964L60.4016 62.5735V63.1598L59.9483 64.6255L59.6083 65.6026L58.8151 66.7751L57.9084 67.4591L57.7951 67.6545L56.4352 68.2408L54.3953 68.6316H53.942L53.8287 68.827L53.4887 68.7293L53.2621 68.827H52.9221L50.8822 69.0224L48.6157 69.1202L47.0291 69.2179H44.5359L44.196 69.4133L43.6293 69.3156H41.2495L41.0228 69.4133H29.0102L28.4436 69.3156L28.1036 69.4133L27.4236 69.3156H25.9504L23.4572 69.2179L23.1172 69.1202H20.964L20.2841 69.0224H19.1508L16.771 68.827L14.7311 68.5339L13.1445 68.2408L12.2379 67.8499L11.218 67.4591L10.9913 67.2636L10.6513 67.0682L10.538 66.7751L10.198 66.482L9.97138 66.1888V65.8957H9.74473V65.7003L9.51807 65.6026L9.1781 64.6255L8.95144 63.9415L8.61146 62.085L8.49814 61.3033V60.5216L8.38481 59.5445L8.27148 56.8086V52.9979L8.38481 51.923V51.4345L8.49814 51.2391L8.61146 49.7734L8.72479 49.3826L8.95144 48.9917L9.51807 47.6238L9.85805 47.5261L10.0847 47.0375L10.4247 46.9398L10.538 46.6467H10.7647L10.9913 46.2558L11.6713 45.865H12.1246V45.6695L12.8045 45.3764L13.8245 45.181L14.5044 44.9856L16.9976 44.7901L19.7175 44.6924H26.517L26.7437 44.5947Z" fill="#020617"/>
<path d="M49.5215 47.6543H50.4281L51.9014 48.1076L52.6947 48.4476L53.2613 49.0142L53.4879 49.1275V49.3542H53.7146L54.2812 50.2608V50.4875H54.5079L54.9612 51.6207L55.0745 52.6407V53.5473L54.9612 54.3406L54.3946 55.4738L54.2812 55.9272H54.0546L53.8279 56.3805L53.3746 57.0604L51.788 57.967L50.7681 58.1937L49.4082 58.307L47.8216 58.0804L47.1417 57.6271L46.575 57.5137L46.2351 57.1737V56.9471L45.7817 56.7204L45.1018 55.8138L44.5352 53.8873V52.1874L44.8751 51.1674L45.1018 50.3741L45.2151 50.0342H45.4418V49.8075H45.6684L45.8951 49.2409H46.1217V49.0142L46.4617 48.6742H46.6884V48.4476L47.4816 48.3343L47.595 48.1076L48.6149 47.7676L49.5215 47.6543Z" fill="#F8F3E6"/>
<path d="M18.5838 47.6543H20.397L21.3036 47.9943L22.3236 48.4476L22.6635 48.6742V48.9009L23.0035 49.0142V49.2409L23.3435 49.3542L23.9101 50.2608V50.7141H24.1368L24.5901 52.074V53.8873L24.2501 55.0205L24.0235 55.5872L23.3435 56.6071H23.1168L23.0035 57.0604L21.8703 57.7404L21.3036 57.8537V58.0804L19.0371 58.307L18.0172 58.0804L16.9972 57.7404L16.2039 57.2871V57.0604H15.9773V56.8338L15.524 56.6071V56.3805H15.2973V56.1538H15.0707L14.504 54.7939L14.2774 53.6606L14.1641 52.414L14.3907 51.2808H14.6174L14.7307 50.4875L15.0707 49.9208H15.2973L15.4107 49.4675L15.6373 49.1275H15.864L15.9773 48.7876L16.5439 48.4476H16.7706L16.8839 48.2209L18.0172 47.7676L18.5838 47.6543Z" fill="#F8F3E6"/>
<path d="M28.896 84.8242L29.4626 84.9375H32.6357L32.8624 85.0509L32.9757 85.5042V91.6238L32.8624 92.1905L32.9757 92.8704L32.8624 94.0037V97.1768L32.4091 98.3101L32.2958 98.5368H32.0691L31.9558 98.8767H31.7291L31.6158 99.2167L30.5959 99.67L29.4626 99.8967H28.3293H27.9894L26.4028 99.33L26.2895 98.9901H26.0628L25.6095 98.4234V98.0835H25.3829L25.2695 97.1768V96.3835L25.6095 95.7036L25.9495 95.137H26.2895V94.9103L27.5361 94.457L27.876 94.3437V85.5042L27.9894 84.9375L28.896 84.8242Z" fill="#2A2D23"/>
<path d="M38.304 84.9385H41.8171L42.8371 85.0518L43.0637 85.2785L42.9504 85.5051V89.8115L43.0637 90.0382L42.9504 90.9448V96.0445L42.7237 97.7444L42.6104 98.0844H42.3837L42.1571 98.5377L41.7038 99.1043L40.9105 99.5576L40.2305 99.7843L38.4173 99.8976L37.1707 99.671L36.0375 98.991L35.3575 98.0844L35.1309 96.7245L35.5842 95.7045L35.9241 95.1379L36.6041 94.6846L37.2841 94.4579H37.8507L37.964 94.2313V91.9647L37.8507 91.6248L37.964 90.4915L37.8507 89.3582V86.9784L37.964 85.1651L38.304 84.9385Z" fill="#292D23"/>
<path d="M19.9443 50.4873L20.9642 50.8273L21.5309 51.2806L21.9842 51.9606L22.2108 52.5272V53.6605L22.0975 54.2271H21.8709L21.6442 54.907L20.9642 55.4737L19.831 55.8137L18.811 55.3604L18.1311 54.5671L17.9044 54.4537L17.5645 53.3205L17.6778 52.5272L18.3577 51.1673L18.6977 50.8273L19.9443 50.4873Z" fill="#020617"/>
<path d="M19.9443 61.3662L20.9642 61.7062L21.5309 62.1595L21.9842 62.8395L22.2108 63.4061V64.5394L22.0975 65.106H21.8709L21.6442 65.786L20.9642 66.3526L19.831 66.6926L18.811 66.2393L18.1311 65.446L17.9044 65.3326L17.5645 64.1994L17.6778 63.4061L18.3577 62.0462L18.6977 61.7062L19.9443 61.3662Z" fill="#EE5858"/>
<path d="M50.8819 61.3662L49.8619 61.7062L49.2953 62.1595L48.842 62.8395L48.6153 63.4061V64.5394L48.7287 65.106H48.9553L49.182 65.786L49.8619 66.3526L50.9952 66.6926L52.0151 66.2393L52.6951 65.446L52.9217 65.3326L53.2617 64.1994L53.1484 63.4061L52.4684 62.0462L52.1285 61.7062L50.8819 61.3662Z" fill="#EE5858"/>
<path d="M49.2957 50.6006L50.429 50.7139L50.7689 50.8272V51.0539L51.1089 51.1672V51.3939L51.4489 51.5072L51.9022 52.4138L52.0155 53.5471L51.6755 54.567L51.2222 55.1337L50.6556 55.3603V55.587L50.089 55.7003H49.2957L48.3891 55.3603L47.8224 54.6803L47.3691 53.4338L47.4825 52.1872L47.5958 51.8472H47.8224L48.1624 51.1672H48.3891L48.5024 50.8272L49.2957 50.6006Z" fill="#020617"/>
<path d="M32.9775 91.2441L32.8643 91.833L32.9775 92.5391L32.8643 93.7168V97.0146L32.4111 98.1924L32.2979 98.4277H32.0713L31.958 98.7812H31.7314L31.6182 99.1348L30.5977 99.6055L29.4648 99.8408H27.9912L26.4053 99.252L26.292 98.8984H26.0654L25.6113 98.3096V97.957H25.3848L25.2715 97.0146V96.1904L25.6113 95.4834L25.9521 94.8945H26.292V94.6592L27.5381 94.1885L27.8779 94.0703V84.8252H32.9775V91.2441ZM42.9512 84.8838V89.3594L43.0645 89.5947L42.9512 90.5371V95.8369L42.7236 97.6035L42.6104 97.957H42.3838L42.1572 98.4277L41.7041 99.0166L40.9111 99.4873L40.2305 99.7236L38.418 99.8408L37.1709 99.6055L36.0381 98.8984L35.3574 97.957L35.1309 96.543L35.585 95.4834L35.9248 94.8945L36.6045 94.4238L37.2842 94.1885H37.8506L37.9639 93.9521V91.5967L37.8506 91.2441L37.9639 90.0664L37.8506 88.8887V86.415L37.9639 84.8838V84.8252H42.9795L42.9512 84.8838ZM49.1836 84.8838L49.0576 84.8252H49.5234L49.1836 84.8838Z" fill="#292D23"/>
<path d="M43.6309 0.113281L43.9707 0.226562L44.4238 0.113281H46.2373L49.75 0.226562H51.167L51.4502 0.339844H52.2432L52.5273 0.453125H53.7168L54.1699 0.623047L54.5664 0.736328L54.9639 0.850586H55.1904L55.5303 0.963867H56.7764L57.0596 1.07715H57.3438L57.6836 1.30371L57.9102 1.58691H58.3633L59.4961 1.7002L59.8369 1.81348L60.46 1.87012L60.9697 1.9834L61.5361 2.15332H62.1025L62.6699 2.37988L63.0664 2.71973L63.4629 2.88965L63.8027 3.17285L64.2559 3.40039H64.71L65.2764 3.74023H65.6162L66.0693 3.85352L66.2959 3.9668H66.6357L66.6924 4.02344L66.9756 4.5332L67.2031 4.64648L67.4297 5.32617H67.6562L68.5625 7.13965L68.9023 8.38672L69.0156 8.83984L69.3555 10.4258L69.4697 12.3525L69.583 13.2598V35.0186L69.6963 36.1514L69.583 37.0576L69.6963 37.8516L69.583 37.9648L69.6963 40.0049V41.251L69.7529 41.3076L69.6963 41.3643V43.9707L69.583 44.8779L69.6963 45.7842V46.8037L69.583 47.0303V47.7109L69.6396 47.9941V48.1074L69.6963 48.2773V48.8438L69.583 50.4307V51.6768L69.6963 52.6973V53.1504L69.8096 53.4902L69.6963 53.4336V54.3408L69.583 54.4541V55.0771L69.4697 55.3037V55.417L69.583 55.9834V62.1035L69.4697 62.3301V63.8027L69.583 64.0293V64.71L69.4697 64.9365V66.1826L69.3555 66.9766L69.4697 67.3164L69.2422 69.1299V70.0361L69.1289 71.1689V71.9629H68.9023L69.0156 72.3027L68.6621 75.2178L68.0498 76.8564L67.4365 78.0859L67.4199 78.1191L67.4082 78.1553L66.7109 80.2988L64.8818 82.0244L62.5781 83.0674L62.0742 83.2949L62.1396 83.4082H61.7627L61.6494 83.6357L61.4229 83.5225L61.3096 83.749L59.9502 83.9756L57.457 84.3154L56.21 84.4287H55.1904L54.3965 84.542H53.2637L52.6973 84.6553H52.4707L52.3574 84.7686L52.2432 84.3154L52.1299 84.6553L52.3574 84.7686L51.5635 84.8818L50.9971 85.1084L50.3174 85.2217L49.8643 85.335L49.1836 85.4482L48.7305 85.2461V85.0518H47.2676L47.2568 84.9668L47.2002 84.9521L46.917 84.8818L44.5371 84.9951H43.1777L42.9512 85.4482V89.7549L43.0645 89.9814L42.9512 90.8887V95.9883L42.7246 97.6875L42.6113 98.0273H42.3838L42.1572 98.4814L41.7041 99.0479L40.9111 99.501L40.2314 99.7275L38.418 99.8408L37.1709 99.6143L36.0381 98.9346L35.3584 98.0273L35.1309 96.668L35.585 95.6475L35.9248 95.0811L36.6045 94.6279L37.2842 94.4014H37.8516L37.9648 94.1748V91.9082L37.8516 91.5684L37.9648 90.4346L37.8516 89.3018V86.9219L37.9648 85.4482V84.8818H37.7383L37.625 85.1084L36.8311 84.9951L36.3779 85.1084H34.6777L34.4512 85.2217L34.2246 84.9951H33.4316L32.9785 85.1084V91.5684L32.8652 92.1348L32.9785 92.8145L32.8652 93.9482V97.1211L32.4111 98.2549L32.2979 98.4814H32.0713L31.958 98.8213H31.7314L31.6182 99.1611L30.5986 99.6143L29.4648 99.8408H27.9922L26.4053 99.2744L26.292 98.9346H26.0654L25.6123 98.3682V98.0273H25.3857L25.2715 97.1211V96.3281L25.6123 95.6475L25.9521 95.0811H26.292V94.8545L27.5381 94.4014L27.8789 94.2881V85.335L27.7646 84.8818H26.8584L26.0654 84.9951L25.9521 84.8818H25.2715L24.9316 84.9951L24.5918 84.9463V84.8242H23.6201L23.1191 84.7686V84.8242H18.6826L18.6992 84.7686L17.792 84.542H16.6592L16.2061 84.6553L15.1855 84.4287L14.959 84.3154L14.8457 84.542L13.7129 84.4287H13.0322L12.6924 84.3154H12.0127L11.2197 84.0889L9.29297 83.9756L7.81934 83.6357L7.36621 83.5225V83.2949H6.45996L5.32617 82.8418L5.09961 82.6152L4.64648 82.3887L4.08008 82.0488L2.83301 81.0283V80.8018H2.60645V80.3486H2.37988L1.58691 78.876L1.47363 78.3086L1.02051 77.0625L0.679688 75.249L0.566406 73.7754L0.453125 73.209V71.8496L0.339844 71.623V69.8096L0.226562 68.6758V66.8633L0.113281 66.4092V62.4434L0.226562 61.3096V60.9697L0.113281 59.7236V55.7568L0.226562 55.417L0.169922 55.3604V55.2471L0.113281 55.1904V54.1699L0.226562 53.8301L0.113281 53.377V49.4102L0.226562 48.957V48.334L0.113281 48.2773V47.2012L0.169922 47.0879L0.113281 46.917L0 46.8037H0.113281V45.5576L0.226562 44.7646L0.339844 43.8574L0.113281 43.7441L0.226562 43.5176V42.3848L0.339844 41.9307H0.226562L0.339844 41.7607V37.9648L0.453125 36.8311V36.3779L0.679688 12.5791V11.7861H0.907227L0.792969 11.1064L0.907227 10.3125V9.51953L1.13379 8.72656L1.58691 7.02637L2.04004 6.00684L2.49316 5.21289L2.83301 4.64648L2.88965 4.58984H3.11621V4.5332H3.22949L3.28711 4.58984L3.40039 4.5332L3.51367 4.41992L3.74023 4.30664L3.9668 3.9668L4.64648 3.40039L5.15625 2.94629H5.55273L6.2334 2.77637L9.00977 2.15332L9.51953 2.04004L9.74609 1.87012H10.4258L10.5957 1.75684H11.0498L11.2197 1.7002L11.4463 1.64355L11.8428 1.58691H12.1826L12.6924 1.53027L13.7129 1.30371L13.9961 1.19043H14.5625V1.07715H14.8457L15.0723 1.02051L15.3555 0.907227H16.4893L16.9424 0.792969L17.7354 0.623047L18.1328 0.566406H19.209L19.4355 0.509766H19.6055L19.7188 0.396484H19.9453L21.9854 0.226562H23.9121L24.3652 0.113281H24.8184L25.8389 0.339844L25.9521 0.113281L26.292 0.226562L26.5186 0.113281L27.5381 0.226562L28.5586 0.113281L29.125 0.226562L29.5781 0.113281L32.4111 0H40.0039L43.6309 0.113281ZM29.918 3.40039L29.3516 3.28711V3.51367L28.6719 3.40039L26.8584 3.51367H24.4785L23.3457 3.74023L23.2324 3.51367H22.4385L20.5127 3.74023H18.8125L18.3594 3.85352H17.5654L16.999 3.9668L15.0723 4.08008L13.0322 4.30664L11.2197 4.5332L10.4258 4.75977H9.74609V4.98633H8.95312L7.59277 5.32617L6.57324 5.89355V6.12012L6.2334 6.00684L6.00684 6.45996L5.55273 6.68652L5.43945 7.02637L4.98633 7.25293L4.64648 7.81934L4.30664 8.5L3.85352 10.5391V11.2197L3.74023 11.333V11.8994L3.85352 12.126L3.62695 12.8057V34.6777L3.51367 35.0186V36.4912L3.40039 37.0576L3.28711 38.1914L3.40039 38.7578L3.28711 40.2314V41.3643H3.40039L3.51367 42.0439L3.28711 42.6113L3.17285 42.9512V44.4238L3.05957 44.8779L3.17285 45.7842V49.5244L3.05957 50.5439L3.17285 50.6572L3.05957 51.6768L3.16211 52.1914L3.17285 52.3574L3.15039 52.6406L3.17285 53.0938L3.28711 53.4336L3.40039 53.7168V53.8301L3.51367 54.1699L3.05957 54.5107V56.7773L2.94629 57.2305L3.05957 58.0234V61.5361L3.17285 64.9365V66.5234L3.28711 70.1494V70.8291L3.40039 71.5098V73.0957L3.62695 74.5693V75.1357L3.85352 75.7021L3.9668 76.6094L4.41992 77.6289L5.09961 78.9893L5.66602 79.3291H6.12012L6.2334 79.6689L7.02637 80.1221L8.0459 80.3486L9.29297 80.6885L10.6533 80.915L11.1064 81.0283L12.126 81.1426L13.2598 81.2559L13.5996 81.3691H15.4121L16.0928 81.4824H17.2256L18.3594 81.709L18.9258 81.5957L20.2852 81.709H23.1191L24.4785 81.8223V81.5957L25.499 81.8223L26.4053 81.9355L28.2188 81.8223L28.7852 81.9355H30.2588L30.9385 81.8223L32.4111 81.9355H34.791L35.3584 81.8223L35.4717 81.9355H37.8516L38.418 82.0488H38.6445V81.8223L39.3242 81.9355H40.6846L41.0244 81.709V81.9355H43.1777L43.5176 81.8223H45.1045L46.124 81.9355H46.4639V81.709L47.1436 81.8223L49.1836 81.709H50.3174L50.9971 81.5957H53.1504L54.7363 81.3691H56.0967L56.5498 81.2559H57.2305L57.7969 81.1426L58.8164 81.0283L61.9893 80.2354L63.4629 79.4424L64.3691 78.5352V78.3086H64.5967L65.1631 77.0625L65.5029 75.9287L65.3896 75.5889H65.6162L65.8428 74.3428L65.9561 73.3223L66.0693 72.1895L66.2959 70.7158L66.1826 69.1299L66.2959 68.7891V67.543L66.1826 67.3164L66.4092 67.2031V65.8428L66.5225 64.5967V54.1699L66.5791 54L66.5225 53.9434L66.5791 53.8867V53.8301L66.6357 53.7734V52.4707L66.6924 52.1875L66.6357 51.5635L66.5225 49.9775L66.6357 49.4102L66.5225 48.7305L66.5791 48.5605V48.2773L66.6357 47.9941V41.0244L66.749 39.0977L66.6357 37.0576L66.5225 36.9443L66.6357 35.9248L66.5225 34.3379L66.4092 12.8057L66.0693 10.0859L65.5029 8.38672L64.9365 7.25293L64.4824 6.7998H64.2559L64.0293 6.34668L63.2363 5.89355L62.8965 5.55273L62.1025 5.43945V5.21289L60.6299 4.75977H60.0635L59.2695 4.5332H58.7031L58.3633 4.41992L56.4365 4.19336L54.9639 4.08008L54.1699 3.9668L53.9434 3.74023L53.4902 3.85352L52.2432 3.74023H51.4502L50.8838 3.62695H50.0908L49.5234 3.51367H48.3906L46.4639 3.40039L45.8975 3.51367L45.7842 3.28711L44.7637 3.40039L44.3105 3.28711L43.8574 3.40039L42.8379 3.28711L42.0439 3.40039L40.458 3.28711H35.3584L34.3379 3.51367L34.2246 3.28711H30.7119L29.918 3.40039ZM3.16211 52.1875V52.1904L3.15039 52.1309L3.16211 52.1875Z" fill="#A16207"/>
<path d="M39.438 52.8418L40.0046 52.9551V53.1818L40.4579 53.2951V54.0884L40.1179 55.1083L39.438 56.0149L39.098 56.5816L38.8713 56.8082H38.5314L38.3047 57.2615L36.9448 57.9415H36.4915L35.9249 58.1682L34.9049 58.2815L34.5649 58.3948L33.885 58.1682L33.3183 58.2815L31.9584 57.9415L31.7318 57.8282V57.6015H31.0518L30.8252 57.4882V57.2615L30.2585 57.0349L30.1452 56.6949H29.8052L29.4653 56.3549V56.0149H29.2386L28.7853 55.1083L28.5586 54.8817L28.4453 54.0884L28.672 53.2951L29.6919 53.0685L30.1452 53.1818L30.2585 53.8617H30.4852L31.3918 55.2217L31.9584 55.4483L32.0718 55.675L33.3183 56.0149H35.4715L36.6048 55.7883L36.7181 55.5616L37.2848 55.4483V55.2217L38.1914 54.4284L38.6447 53.5218L38.8713 52.9551L39.438 52.8418Z" fill="#F9F4E8"/>
<path d="M32.8655 95.6967L32.5136 99.8858L32.0549 99.9676L25.7188 99.6069L24.9452 99.2391L24.1593 99.0865L24.0707 98.6497L23.5172 98.4023L23.1014 97.7311L22.811 96.8511L23.0098 95.3515L23.2729 94.7189L23.4991 94.7318L23.6429 94.2003L24.2392 93.6946L25.3952 93.3287L27.2177 93.2166L30.2726 93.3905L31.5233 93.3538L32.6547 93.4182L32.8749 93.5386L32.7953 94.9372L32.8655 95.6967Z" fill="#171714"/>
<path d="M43.0667 95.6967L42.7147 99.8858L42.256 99.9676L35.92 99.6069L35.1464 99.2391L34.3605 99.0865L34.2719 98.6497L33.7184 98.4023L33.3026 97.7311L33.0121 96.8511L33.211 95.3515L33.474 94.7189L33.7003 94.7318L33.8441 94.2003L34.4404 93.6946L35.5963 93.3287L37.4189 93.2166L40.4738 93.3905L41.7245 93.3538L42.8559 93.4182L43.076 93.5386L42.9964 94.9372L43.0667 95.6967Z" fill="#171714"/>
</svg>
