<svg width="90" height="100" viewBox="0 0 90 100" fill="none" xmlns="http://www.w3.org/2000/svg">
<path d="M49.1393 0L49.8485 0.101316L50.3551 0L51.5709 0.101316H53.3946L53.9012 0V0.202633L54.1038 0.101316H55.4209L55.7249 0.202633L56.4341 0.101316H59.9802L60.6895 0.202633L61.3987 0.101316L62.0066 0.303949L62.4119 0.202633L64.5395 0.303949L65.0461 0.405266L65.2487 0.303949L66.2619 0.506582L67.4777 0.709215L68.7949 1.01316L69.4028 1.31711L70.112 1.41843V1.62106L70.9225 1.72238L71.5304 2.02633L72.5436 2.63423L72.9489 3.14081L73.6581 3.64739L73.9621 4.15398L74.1647 4.25529V4.76187H74.3673L74.6713 5.26846L75.0765 6.28162L75.1779 6.38294V6.88952L75.4818 6.99084L75.5831 7.3961V7.70005L75.7858 8.6119L75.9884 9.92901L76.0897 11.2461L76.191 11.6514L76.3937 14.5896V18.7435L76.2924 19.0475L76.3937 19.7567V21.1751L76.495 21.3778L76.3937 37.3858L76.495 37.8924L76.3937 38.7029V39.4121L76.2924 39.9187L76.3937 40.2226V41.0332L76.495 41.2358L76.3937 42.249L76.2924 42.4516L76.3937 43.1608V44.8832H76.191V45.2885H76.3937V45.4911L76.191 45.5924L76.3937 45.9977V46.8082H76.191L76.495 47.2135L76.2924 47.8214L76.3937 48.1253V48.6319V48.9359V50.0503L76.2924 50.1517L76.495 50.9622L76.2924 51.5701L76.3937 52.178L76.2924 53.6977V54.3056V54.7109L76.3937 55.7241L76.2924 56.2306L76.191 58.0543V59.3714L76.2924 59.878L76.191 60.0807L76.2924 60.5872L76.191 60.9925L76.0897 62.3096H75.8871L75.9884 63.1202L75.7858 64.336V64.5386H76.2924V64.7412L77.0016 64.6399H77.7108L78.8253 64.4373L79.3319 64.1333H79.6358L79.7372 63.8294L80.3451 63.5254L80.4464 63.1202L80.953 62.8162L82.0675 61.6004L82.3714 61.1951L82.6754 60.8912H82.9793L83.0806 60.3846L84.4991 59.5741L85.3096 59.3714H85.7149L86.2215 59.2701L86.9307 59.4728L87.7412 59.7767L88.0452 60.182L88.3491 60.2833L88.9571 61.2965L89.261 62.4109L89.3623 63.4241V63.7281L89.261 64.6399L88.6531 66.4636L88.3491 66.5649L88.2478 67.0715L87.336 68.2873H87.1333L86.9307 68.6926L86.5254 69.0978L86.2215 69.1991L85.7149 69.7057L85.2083 70.111L84.6004 70.4149L83.3846 70.9215L82.0675 71.3268L81.0543 71.5294H78.724L77.2042 71.3268L76.6976 71.2255L74.7726 70.7189L73.8607 70.3136L72.5436 69.6044L72.037 69.7057L71.9357 70.0097H71.7331V70.2123L71.0238 70.4149L70.8212 70.8202L70.9225 71.1242L71.2265 71.2255V71.4281H71.4291L71.6318 72.036H71.8344V72.2386L72.1383 72.34L72.7462 73.1505L73.5568 73.6571V73.961L73.9621 74.0623V74.265L74.9752 74.5689V74.7716L75.5831 74.9742V75.1768L75.8871 75.0755L76.5963 75.4808L77.9134 75.886L78.5213 76.19L79.3319 76.2913L81.0543 76.8992L81.4596 77.2031L81.9661 77.5071V77.7097L82.3714 77.9124L82.878 78.4189L83.0806 78.8242L83.3846 79.1282L83.4859 79.4321L83.6885 79.5334L83.5872 79.7361L83.6885 80.04L83.7899 80.5466V81.965L83.3846 82.9782L82.9793 83.4848L82.878 83.7887L81.4596 84.8019L80.4464 85.2071L79.9398 85.3085L79.1292 85.4098L77.3055 85.3085L75.6845 84.8019L74.266 84.0927L73.7594 83.7887L72.8476 83.2821L71.7331 82.4716L71.2265 82.0663V81.8637L70.8212 81.6611L70.5173 81.3571V81.0532L70.0107 80.8505V80.6479H69.808L69.4028 80.04L68.6935 79.4321L68.2883 78.6216L68.187 78.3176H67.9843L67.6804 77.7097L67.2751 77.1018L66.8698 76.3926L66.1606 74.9742L65.8567 74.0623L65.5527 73.3531L65.4514 72.7452L65.1474 72.1373L64.9448 71.8334L64.0329 72.036L63.6277 72.1373L62.9184 72.036L62.7158 72.1373L62.2092 72.036L62.1079 72.5426L62.2092 73.3531H62.4119L62.5132 74.1637H62.7158L62.8171 74.5689L63.1211 75.3795L64.2356 77.811L64.5395 78.3176L64.8435 78.7229V79.0268H65.0461L65.654 80.04L66.4646 80.9519V81.1545H66.6672L66.8698 81.6611H67.0725V81.965H67.2751V82.1677H67.4777L67.579 82.5729L67.9843 82.7756L68.2883 83.2821L68.4909 83.3835L68.6935 83.7887L68.9975 83.9914L69.4028 84.8019L69.9094 85.5111L70.112 86.2203L70.5173 87.2335V88.7532L70.3146 89.6651H70.112L69.9094 90.273L69.6054 90.6782H69.4028L69.2001 91.0835L68.9975 91.3875L67.579 91.894L66.3632 91.9954L64.7422 91.6914L63.9316 91.3875L62.7158 90.6782L62.5132 90.5769V90.3743L62.1079 90.1717L61.2974 89.4624L60.5881 88.6519L59.7776 87.5374L59.4736 87.2335L59.1697 86.4229V86.119H58.9671V85.815H58.7644L58.1565 84.194L57.8526 83.5861L57.346 81.8637L57.042 80.344L56.8394 79.4321V78.2163H56.6368V77.2031L56.4341 75.9874V74.7716L56.2315 74.0623L56.3328 72.9479L56.2315 72.6439L56.3328 72.34H56.1302V72.1373L55.6236 72.34L54.9144 72.2386L54.7117 72.34H53.5972L52.888 72.4413L52.7867 73.2518L52.888 74.0623V74.9742L52.9893 75.9874V76.3926L53.192 76.4939V76.8992L52.9893 77.0005L53.0906 77.7097L53.2933 77.9124L53.3946 78.9255L53.5972 79.6347V79.8374L53.7999 80.8505L53.9012 81.5598L54.1038 81.6611L54.3065 82.5729L54.6104 83.2821L54.7117 83.7887L54.9144 83.89L55.117 84.8019L55.6236 86.3216L55.7249 86.7269L56.0288 87.5374L56.2315 88.7532V90.273L56.0288 91.4888H55.8262L55.7249 92.0967L55.5223 92.5019H55.3196L55.117 93.0085L54.4078 93.6164L54.3065 93.819H54.1038L53.9012 94.0217L53.3946 94.123L52.7867 94.3256H51.3682L50.0511 93.819L49.2406 93.3125V93.1098L48.8353 93.0085V92.7046L48.43 92.5019V92.198L48.0248 91.9954L47.4169 90.9822L47.2142 90.0703H47.0116L46.809 89.3611L46.7076 88.5506L46.6063 88.4493L46.3024 86.2203L46.201 84.7006L46.0997 83.5861L46.201 82.9782L46.0997 82.4716L46.201 81.7624V80.4453L46.3024 79.8374V78.0137L46.4037 77.4058V75.6834L46.505 74.5689L46.6063 72.8465L46.505 72.6439L46.6063 72.4413L45.5931 72.34L45.3905 72.2386L45.2892 72.4413V72.2386H45.0866L44.9852 72.4413L44.276 72.34H42.9589L42.7562 72.2386V73.8597L42.8576 74.0623L42.9589 74.8729V76.8992L43.0602 77.5071V78.4189L43.1615 79.5334L43.2628 80.04L43.1615 80.7492L43.3642 80.8505L43.2628 81.3571V82.3703L43.4655 83.1808L43.2628 83.89L43.1615 84.8019L43.2628 85.0045L43.0602 86.0177L42.9589 87.1322L42.8576 87.6387L42.4523 89.4624L41.8444 90.9822L41.4391 91.7927H41.2365V92.198L40.3246 93.1098L39.6154 93.7177L39.0075 93.819L38.9062 94.0217L38.197 94.3256L36.8798 94.4269L35.4614 94.123L34.6508 93.6164L34.1443 93.1098L33.435 92.0967L33.2324 91.3875L33.0298 89.4624L33.2324 87.6387H33.435V87.1322L33.6377 86.4229L33.739 86.0177L34.1443 85.1058L34.3469 84.4979L34.6508 83.6874L34.8535 83.4848L34.9548 82.7756L35.4614 81.8637L35.664 80.9519L35.8667 80.5466L36.0693 79.5334L36.3732 77.6084L36.5759 76.8992L36.6772 74.265L36.7785 72.2386L36.6772 72.34H36.3732H34.9548L34.5495 72.2386L34.3469 72.1373L34.2456 72.34L34.0429 72.2386L33.739 72.34L33.2324 72.1373L33.3337 72.7452V75.2781L33.2324 75.5821L33.1311 77.3045H32.9284L33.0298 77.811L32.6245 80.04L32.4219 81.0532L32.0166 82.4716L31.7126 83.3835L31.51 83.89L31.206 84.4979L31.0034 85.5111L30.5981 85.9164L30.4968 86.4229L30.1929 86.5243L29.9902 87.1322L29.585 87.8414L29.1797 88.348L28.9771 88.4493V88.6519L28.6731 88.9559L27.9639 89.7664H27.7613V89.969L27.2547 90.3743L27.1533 90.5769L26.2415 90.8809L26.1402 91.1848L25.5323 91.4888H25.0257L24.9244 91.7927H24.4178L24.0125 91.894L22.898 91.9954L21.5809 91.7927V91.5901L20.8717 91.4888L20.1624 90.9822V90.7796H19.9598L19.2506 89.6651L19.0479 88.7532V86.8282L19.3519 86.0177H19.5545L19.6558 85.3085L19.9598 84.8019H20.1624L20.2638 84.3966H20.4664V84.0927H20.669L20.8717 83.5861L21.2769 83.0795L21.9862 82.269L22.2901 81.7624L22.5941 81.4584H22.7967V81.2558L23.202 80.8505L23.3033 80.6479H23.5059V80.4453H23.7086V80.1413L23.9112 80.04L24.3165 79.3308H24.5191V79.0268H24.7217L24.823 78.5203L25.127 78.4189L25.2283 77.9124H25.4309L25.5323 77.4058H25.7349L25.6336 77.0005L26.2415 76.0887L26.3428 75.7847L26.6468 74.7716L27.052 73.7584L27.2547 72.9479L27.4573 72.036L26.8494 72.1373L26.4441 72.036L25.5323 71.9347L25.4309 72.1373L25.3296 71.9347L25.127 72.036L24.5191 71.8334L24.3165 71.7321L23.9112 73.6571L23.7086 74.0623L23.5059 74.7716H23.3033L22.9993 75.6834L21.8848 77.811L20.973 79.1282L20.7703 79.5334H20.5677L20.3651 79.9387L20.0611 80.04L19.9598 80.344H19.7572L19.6558 80.7492L19.2506 81.2558L18.44 81.8637L17.5282 82.7756L16.819 83.1808L16.0084 83.89L14.8939 84.2953L13.5768 84.9032L12.6649 85.1058L12.4623 85.2071L10.132 85.4098L9.42278 85.3085L8.61224 85.0045L7.49774 84.4979V84.2953L7.09247 84.0927L6.6872 83.6874V83.3835L6.28193 83.1808L5.87666 82.3703L5.67403 81.2558V80.4453L5.97798 79.6347V79.4321H6.18062V79.1282H6.48457L6.38325 78.7229L6.78852 78.3176L6.99116 78.2163V78.0137H7.19379V77.811L7.59906 77.5071H8.00433V77.3045L8.81487 76.7979L9.92936 76.4939L10.6386 76.19H11.2465V75.9874L12.1584 75.7847L13.1715 75.3795L14.4887 74.7716L15.8058 73.961L16.1097 73.7584L16.3124 73.3531H16.6163V73.1505L17.0216 72.9479L17.4269 72.34H17.8321L17.7308 71.9347L17.9335 71.6307H18.1361V71.4281H18.3387V71.1242L18.6427 70.9215L18.5414 70.6176L18.1361 70.4149L16.9203 69.7057L16.3124 70.0097L16.1097 70.2123H15.6031V70.4149L13.3742 71.1242L12.5636 71.2255L11.9557 71.4281H11.0439L10.6386 71.6307L9.62541 71.5294L8.10565 71.4281L7.39643 71.2255L6.48457 71.0228L5.57271 70.5163L5.16744 70.4149L4.3569 70.0097V69.807L3.95163 69.7057L3.14109 69.0978L2.22923 68.186L1.31737 66.9702L1.11474 66.6662V66.3623H0.912103L0.304198 64.7412L0.101562 63.5254V62.7149L0.20288 62.5123L0.304198 61.803L0.506833 61.2965L0.60815 60.9925H0.810785V60.6886H1.01342L1.21606 60.2833L2.12791 59.4728L3.03977 59.3714H4.25558L5.16744 59.5741L5.97798 59.9793L6.48457 60.4859L7.29511 61.0938L7.49774 61.4991L8.00433 62.0057L8.51092 62.4109V62.6136H8.71355L9.22014 63.1202L9.52409 63.5254V63.7281L10.0307 63.8294V64.032L10.436 64.1333L11.6518 64.5386L12.1584 64.6399L12.4623 64.5386L12.9689 64.7412L13.3742 64.5386H13.7794L13.4755 63.6267L13.2728 62.107V61.2965L13.1715 60.2833L13.2728 59.2701L13.1715 58.6622L13.2728 58.1557L13.1715 57.1425V56.332L13.0702 55.6227L13.1715 54.9135L13.0702 54.2043L13.1715 54.103V52.8872L13.0702 51.874L13.1715 51.4688L13.0702 50.9622L13.1715 49.8477L13.0702 49.4424L13.1715 48.1253L12.9689 47.5174L13.0702 47.1122L12.9689 46.8082V45.3898L13.0702 43.7687L12.9689 42.1477L13.0702 41.6411V40.5266L12.8676 40.4253V40.1213L13.0702 39.7161V38.9055L12.9689 38.6016L13.0702 36.8792L12.9689 21.1751V20.5672H13.1715L12.9689 19.2501L13.0702 19.0475V18.0343L12.9689 17.5277H13.1715L13.0702 17.0212L13.1715 16.1093L13.0702 15.8054L13.1715 14.8935L13.0702 14.5896L13.2728 14.4883L13.1715 13.6777L13.3742 12.6646L13.2728 12.2593L13.4755 10.6382H13.6781L13.5768 9.62506L13.6781 9.01717H13.8807L13.7794 8.10532L13.9821 8.004L14.0834 7.09215L14.1847 6.68689H14.3873L14.59 6.07899L14.8939 5.36977V5.16714L15.0966 5.06582L15.5018 4.35661L15.8058 4.25529L15.9071 3.85003L16.3124 3.34344L16.9203 3.14081V2.93818L17.4269 2.73554L17.5282 2.4316L18.2374 2.33028V2.02633L19.1493 1.72238L19.4532 1.51975L20.973 1.31711L21.0743 1.11448L21.2769 1.01316L22.3914 0.911848L22.898 0.810532L23.5059 0.709215H24.7217L25.0257 0.506582L25.7349 0.405266L26.8494 0.506582L27.356 0.405266L28.3692 0.303949L28.5718 0.202633L28.8757 0.303949L29.3823 0.202633L29.8889 0.303949L31.7126 0.202633L32.8271 0.303949H33.9416L34.4482 0.202633L35.4614 0.101316L36.2719 0.202633H36.9811L37.1838 0.303949V0.101316L37.893 0.202633L40.122 0.101316L40.4259 0.303949L40.6286 0.101316H46.7076L47.2142 0.202633L47.5182 0.101316H48.8353L49.1393 0ZM41.5404 3.24213L41.0339 3.54608L40.8312 3.34344V3.54608L40.0207 3.34344L39.6154 3.44476H38.5009L37.6904 3.54608L37.4877 3.44476H37.0825H35.8667L35.3601 3.64739L35.2588 3.44476V3.64739L34.5495 3.44476H33.739L32.9284 3.64739L32.3205 3.44476L31.7126 3.64739L31.3074 3.54608V3.85003L31.0034 3.64739H29.3823L29.1797 3.74871L29.0784 3.54608V3.74871L27.9639 3.64739L27.052 3.74871H26.4441L26.2415 3.85003H25.127L23.9112 4.05266L23.5059 3.95134L22.1888 4.25529L20.973 4.66056L20.1624 4.76187L19.7572 5.26846L19.0479 5.67372L18.44 6.28162L18.2374 6.7882L18.0348 6.99084V7.19347L17.8321 7.29479L17.7308 7.90268H17.5282L17.2242 8.91585L16.9203 9.8277V10.6382L16.7176 10.7395H16.9203L16.515 12.2593L16.6163 12.8672L16.515 13.6777L16.4137 14.1843V14.3869L16.515 14.8935L16.3124 14.9948V15.9067L16.4137 16.4133L16.3124 16.8185V18.237H16.2111V19.3514L16.4137 20.2633H16.2111L16.3124 21.0738L16.1097 37.3858L16.2111 37.5884V38.7029L16.3124 40.02L16.4137 40.2226L16.2111 40.324L16.3124 40.5266L16.2111 41.1345L16.4137 41.5398L16.2111 41.8437V42.3503L16.3124 42.5529L16.4137 43.2621H16.2111V44.9845V45.3898L16.4137 45.795L16.2111 45.8964V46.8082L16.3124 47.2135L16.1097 47.3148L16.2111 47.7201V50.4556L16.3124 51.874L16.2111 53.4951L16.0084 53.5964L16.3124 53.799V55.4201L16.4137 55.8254L16.3124 56.4333L16.2111 56.5346L16.3124 56.8385L16.2111 57.2438L16.3124 57.8517L16.2111 58.257L16.3124 58.5609V59.2701L16.515 60.8912L16.6163 61.0938L16.515 62.4109H16.7176L16.6163 62.9175L17.0216 63.9307L17.1229 64.6399L17.3255 64.7412L17.5282 65.2478L17.7308 65.3491L17.9335 65.957L18.1361 66.261H18.44L18.5414 66.6662L19.2506 67.2741L19.8585 67.4768L19.9598 67.6794L21.0743 67.9833L21.4796 68.0847L22.1888 68.186L22.898 68.3886L25.0257 68.6926V68.8952L26.4441 68.7939H26.9507L27.356 68.8952L27.8626 68.7939L28.4705 68.8952H29.8889L30.0916 68.9965L31.1047 68.7939L31.206 68.9965L32.0166 68.8952H32.4219H32.7258H33.1311L33.2324 68.6926L33.435 68.8952H35.2588H35.664H36.7785L37.5891 68.9965L38.6022 68.8952L40.122 68.9965H41.9457L42.5536 68.8952L42.9589 68.9965H43.9721L44.3773 69.1991L44.276 68.8952L45.5931 68.9965H47.1129L47.3155 69.0978V68.8952L49.8485 68.9965H51.5709L53.192 68.8952L53.5972 68.9965L53.9012 68.8952H58.1565H58.4605L59.0684 68.7939L59.575 68.8952L60.5881 68.7939H62.6145L63.3237 68.6926L64.0329 68.4899L64.6408 68.5912L64.8435 68.4899H65.654L66.4646 68.2873L67.3764 68.186L68.3896 67.882L68.7949 67.7807L69.9094 67.2741L71.1252 66.3623L71.6318 65.8557L72.4423 64.6399L72.5436 63.7281L72.6449 63.3228V63.0188L72.8476 62.9175V62.6136L73.0502 62.5123L72.8476 62.4109L72.9489 62.3096V61.4991L73.1515 60.5872L73.0502 60.2833V59.3714L73.1515 58.5609V56.2306L73.2528 54.8122L73.1515 54.0017L73.2528 53.6977L73.1515 51.9753V51.1648L73.2528 50.9622L73.1515 50.6582V49.1385L73.0502 48.9359L73.2528 48.8345L73.1515 47.8214L73.0502 47.6187L73.2528 47.5174V46.7069L73.3541 46.2003L73.2528 45.795V42.4516L73.3541 42.0463L73.2528 41.2358L73.4555 41.1345L73.2528 41.0332V40.6279V39.0068H73.0502L73.1515 38.3989L73.2528 21.3778L73.1515 20.8712V18.8449L73.2528 17.933L73.1515 17.0212V16.1093L73.0502 15.9067H73.2528L73.1515 13.2725L72.9489 12.8672L73.1515 12.7659V12.4619H72.9489V12.2593L73.1515 12.158L72.9489 11.3474V10.6382L72.5436 9.52375L72.4423 8.6119L72.2397 8.10532L72.037 8.004L71.8344 7.19347L71.6318 6.88952H71.4291L71.3278 6.28162L70.8212 5.87636L70.5173 5.57241L69.7067 4.96451L68.9975 4.66056L68.0856 4.35661L67.2751 4.25529L67.0725 4.05266H66.6672L65.958 3.85003L65.0461 3.95134L64.1343 3.74871H63.1211L62.9184 3.64739H62.0066L61.7026 3.54608H61.3987L60.2842 3.64739L59.8789 3.54608H59.575H58.6631L57.9539 3.44476L57.346 3.54608L57.2447 3.34344H56.9407H56.0288L55.6236 3.54608V3.74871H55.4209V3.54608L54.813 3.44476L54.6104 3.54608L54.5091 3.34344L54.0025 3.44476H53.2933L52.888 3.64739V3.44476H52.4827L52.3814 3.24213L51.9761 3.34344V3.54608L51.0643 3.34344L49.4432 3.44476L48.43 3.34344H47.4169H47.1129L45.2892 3.44476L44.7826 3.34344H43.9721L43.7694 3.44476L42.9589 3.34344L42.2497 3.44476L41.8444 3.24213H41.5404Z" fill="#2279D7"/>
<path d="M27.6589 71.9346L27.7602 72.1372H27.9628L28.0641 71.9346H29.2799L31.1037 72.0359H31.6102L31.7116 72.2385L32.2182 72.1372H32.3195H32.7247H33.13V72.3398H33.3326V75.278L33.2313 75.582L33.13 77.3043H32.9274L33.0287 77.8109L32.6234 80.0399L32.4208 81.0531L32.0155 82.4715L31.7116 83.3833L31.5089 83.8899L31.205 84.4978L31.0023 85.511L30.5971 85.9162L30.4958 86.4228L30.1918 86.5241L29.9892 87.132L29.5839 87.8413L29.1786 88.3478L28.976 88.4492V88.6518L28.672 88.9557L27.9628 89.7663H27.7602V89.9689L27.2536 90.3742L27.1523 90.5768L26.2404 90.8808L26.1391 91.1847L25.5312 91.4886H25.0246L24.9233 91.7926H24.4167L24.0114 91.8939L22.8969 91.9952L21.5798 91.7926V91.59L20.8706 91.4886L20.1614 90.9821V90.7794H19.9587L19.2495 89.665L19.0469 88.7531V86.8281L19.3508 86.0176H19.5535L19.6548 85.3083L19.9587 84.8018H20.1614L20.2627 84.3965H20.4653V84.0925H20.668L20.8706 83.586L21.2759 83.0794L21.9851 82.2689L22.289 81.7623L22.593 81.4583H22.7956V81.2557L23.2009 80.8504L23.3022 80.6478H23.5048V80.4452H23.7075V80.1412L23.9101 80.0399L24.3154 79.3307H24.518V79.0267H24.7207L24.822 78.5201L25.1259 78.4188L25.2272 77.9122H25.4299L25.5312 77.4057H25.7338L25.6325 77.0004L26.2404 76.0885L26.3417 75.7846L26.6457 74.7714L27.051 73.7583L27.2536 72.9477L27.4562 72.0359L27.6589 71.9346Z" fill="#2E3128"/>
<path d="M46.7075 72.1377H47.1128L47.2141 72.3403L47.6194 72.239L48.4299 72.1377H48.8352L49.1391 72.239L50.051 72.1377L50.7602 72.239H52.0773L52.3813 72.3403L52.4826 72.1377L52.7866 72.239V73.2522L52.8879 74.0627V74.9746L52.9892 75.9877V76.393L53.1918 76.4943V76.8996L52.9892 77.0009L53.0905 77.7101L53.2932 77.9127L53.3945 78.9259L53.5971 79.6351V79.8377L53.7997 80.8509L53.9011 81.5601L54.1037 81.6614L54.3063 82.5733L54.6103 83.2825L54.7116 83.7891L54.9142 83.8904L55.1169 84.8023L55.6235 86.322L55.7248 86.7273L56.0287 87.5378L56.2314 88.7536V90.2733L56.0287 91.4891H55.8261L55.7248 92.097L55.5221 92.5023H55.3195L55.1169 93.0089L54.4076 93.6168L54.3063 93.8194H54.1037L53.9011 94.0221L53.3945 94.1234L52.7866 94.326H51.3681L50.051 93.8194L49.2405 93.3128V93.1102L48.8352 93.0089V92.7049L48.4299 92.5023V92.1984L48.0246 91.9957L47.4167 90.9826L47.2141 90.0707H47.0115L46.8088 89.3615L46.7075 88.551L46.6062 88.4496L46.3022 86.2207L46.2009 84.7009L46.0996 83.5865L46.2009 82.9786L46.0996 82.472L46.2009 81.7628V80.4456L46.3022 79.8377V78.0141L46.4036 77.4062V75.6838L46.5049 74.5693L46.6062 72.8469V72.543L46.7075 72.3403L46.5049 72.239L46.7075 72.1377Z" fill="#2E3128"/>
<path d="M60.1838 71.9346L60.5891 72.0359L60.7917 71.9346L61.2983 72.0359L61.8049 71.9346L62.0075 72.0359V72.2385H62.2102L62.1088 72.5425L62.2102 73.353H62.4128L62.5141 74.1635H62.7167L62.8181 74.5688L63.122 75.3793L64.2365 77.8109L64.5405 78.3175L64.8444 78.7228V79.0267H65.047L65.655 80.0399L66.4655 80.9517V81.1544H66.6681L66.8708 81.661H67.0734V81.9649H67.276V82.1675H67.4787L67.58 82.5728L67.9853 82.7754L68.2892 83.282L68.4918 83.3833L68.6945 83.7886L68.9984 83.9912L69.4037 84.8018L69.9103 85.511L70.1129 86.2202L70.5182 87.2334V88.7531L70.3156 89.665H70.1129L69.9103 90.2729L69.6063 90.6781H69.4037L69.2011 91.0834L68.9984 91.3873L67.58 91.8939L66.3642 91.9952L64.7431 91.6913L63.9326 91.3873L62.7167 90.6781L62.5141 90.5768V90.3742L62.1088 90.1715L61.2983 89.4623L60.5891 88.6518L59.7785 87.5373L59.4746 87.2334L59.1706 86.4228V86.1189H58.968V85.8149H58.7654L58.1575 84.1939L57.8535 83.586L57.3469 81.8636L57.043 80.3438L56.8403 79.432V78.2162H56.6377V77.203L56.4351 75.9872V74.7714L56.2324 74.0622L56.3337 72.9477L56.2324 72.6438L56.3337 72.2385L57.2456 72.1372L57.6509 72.2385L57.9548 72.1372H58.5627H58.8667L59.2719 72.0359L59.6772 72.1372H60.1838V71.9346Z" fill="#2D3128"/>
<path d="M37.1833 72.1377H37.8925L37.9939 72.239L38.2978 72.1377H40.3242H40.6281L41.1347 72.239L41.54 72.1377H41.7426H42.3505L42.7558 72.239V73.8601L42.8571 74.0627L42.9584 74.8732V76.8996L43.0597 77.5075V78.4193L43.1611 79.5338L43.2624 80.0404L43.1611 80.7496L43.3637 80.8509L43.2624 81.3575V82.3707L43.465 83.1812L43.2624 83.8904L43.1611 84.8023L43.2624 85.0049L43.0597 86.0181L42.9584 87.1325L42.8571 87.6391L42.4518 89.4628L41.8439 90.9826L41.4387 91.7931H41.236V92.1984L40.3242 93.1102L39.6149 93.7181L39.007 93.8194L38.9057 94.0221L38.1965 94.326L36.8794 94.4273L35.4609 94.1234L34.6504 93.6168L34.1438 93.1102L33.4346 92.097L33.2319 91.3878L33.0293 89.4628L33.2319 87.6391H33.4346V87.1325L33.6372 86.4233L33.7385 86.0181L34.1438 85.1062L34.3464 84.4983L34.6504 83.6878L34.853 83.4851L34.9543 82.7759L35.4609 81.8641L35.6636 80.9522L35.8662 80.547L36.0688 79.5338L36.3728 77.6088L36.5754 76.8996L36.6767 74.2653L36.778 72.239L37.1833 72.1377Z" fill="#2D3128"/>
<path d="M70.111 70.6182H70.7189L70.9216 71.1247L71.2255 71.2261V71.4287H71.4282L71.6308 72.0366H71.8334V72.2392L72.1374 72.3405L72.7453 73.1511L73.5558 73.6577V73.9616L73.9611 74.0629V74.2656L74.9743 74.5695V74.7721L75.5822 74.9748V75.1774L75.8861 75.0761L76.5954 75.4814L77.9125 75.8866L78.5204 76.1906L79.3309 76.2919L81.0533 76.8998L81.4586 77.2037L81.9652 77.5077V77.7103L82.3705 77.913L82.8771 78.4195L83.0797 78.8248L83.3836 79.1287L83.485 79.4327L83.6876 79.534L83.5863 79.7366L83.6876 80.0406L83.7889 80.5472V81.9656L83.3836 82.9788L82.9784 83.4854L82.8771 83.7893L81.4586 84.8025L80.4454 85.2077L79.9388 85.3091L79.1283 85.4104L77.3046 85.3091L75.6835 84.8025L74.2651 84.0933L73.7585 83.7893L72.8466 83.2827L71.7321 82.4722L71.2255 82.0669V81.8643L70.8203 81.6617L70.5163 81.3577V81.0538L70.0097 80.8511V80.6485H69.8071L69.4018 80.0406L68.6926 79.4327L68.2873 78.6222L68.186 78.3182H67.9834L67.6794 77.7103L67.2742 77.1024L66.8689 76.3932L66.1597 74.9748L65.8557 74.0629L65.5518 73.3537L65.4504 72.7458L65.1465 72.1379L65.3491 71.7326L66.5649 71.6313L66.9702 71.4287H67.8821L68.8952 71.1247L69.4018 71.0234H69.7058V70.8208L70.111 70.6182Z" fill="#2E3128"/>
<path d="M18.7438 70.5166L20.1622 71.1245L20.3649 71.2258L21.2767 71.3271L22.1886 71.5298L22.7965 71.7324L23.4044 71.6311L24.2149 71.8337L24.1136 72.6442L23.911 73.6574L23.7083 74.0627L23.5057 74.7719H23.3031L22.9991 75.6837L21.8846 77.8114L20.9728 79.1285L20.7701 79.5338H20.5675L20.3649 79.939L20.0609 80.0404L19.9596 80.3443H19.757L19.6556 80.7496L19.2504 81.2561L18.4398 81.864L17.528 82.7759L16.8188 83.1812L16.0082 83.8904L14.8937 84.2956L13.5766 84.9035L12.6647 85.1062L12.4621 85.2075L10.1318 85.4101L9.42258 85.3088L8.61204 85.0049L7.49754 84.4983V84.2956L7.09227 84.093L6.687 83.6877V83.3838L6.28173 83.1812L5.87646 82.3706L5.67383 81.2561V80.4456L5.97778 79.6351V79.4325H6.18042V79.1285H6.48437L6.38305 78.7232L6.78832 78.318L6.99096 78.2167V78.014H7.19359V77.8114L7.59886 77.5074H8.00413V77.3048L8.81467 76.7982L9.92916 76.4943L10.6384 76.1903H11.2463V75.9877L12.1582 75.7851L13.1713 75.3798L14.4885 74.7719L15.8056 73.9614L16.1095 73.7587L16.3122 73.3535H16.6161V73.1508L17.0214 72.9482L17.4267 72.3403H17.8319L17.7306 71.935L17.9332 71.6311H18.1359V71.4284H18.3385V71.1245L18.6425 70.9219L18.7438 70.5166Z" fill="#2E3128"/>
<path d="M86.1195 59.2695L86.8287 59.3708L87.8419 59.8774L88.0446 60.1814L88.3485 60.2827L88.9564 61.2959L89.2604 62.4103L89.3617 63.4235V63.7275L89.2604 64.6393L88.6525 66.463L88.3485 66.5643L88.2472 67.0709L87.3353 68.2867H87.1327L86.9301 68.692L86.5248 69.0972L86.2208 69.1985L85.7142 69.7051L85.2077 70.1104L84.5998 70.4143L83.3839 70.9209L82.0668 71.3262L81.0536 71.5288H78.7233L77.2036 71.3262L76.697 71.2249L74.772 70.7183L73.8601 70.313L72.543 69.6038L72.8469 69.0972L73.3535 68.5906L73.6575 68.4893L73.7588 67.9827H73.9614V67.7801L74.2654 67.4762L74.6706 66.767L74.8733 66.5643V66.2604L75.0759 66.1591V65.6525H75.2785V64.8419L75.7851 64.538H76.2917V64.7406L77.0009 64.6393H77.7102L78.8247 64.4367L79.3312 64.1327H79.6352L79.7365 63.8288L80.3444 63.5248L80.4457 63.1196L80.9523 62.8156L82.0668 61.5998L82.3708 61.1945L82.6747 60.8906H82.9787L83.08 60.384L84.4984 59.5735L85.309 59.3708H85.7142L86.1195 59.2695Z" fill="#2D3128"/>
<path d="M25.8374 56.1299L26.7492 56.2312L26.9519 56.1299L27.4585 56.2312H29.8901L30.7006 56.4338L31.0046 56.5351L31.4098 56.9404L31.3085 57.5483L30.8019 57.8523L30.3967 58.0549L29.9914 57.9536V58.1562L29.5861 58.2575L29.4848 58.1562H28.573L28.3703 58.2575L27.965 58.1562L27.2558 58.2575L26.6479 58.1562L26.1413 58.2575L25.5334 58.1562L24.7229 58.2575L23.811 57.9536V57.7509L23.5071 57.8523V57.6496H23.3044L23.2031 56.8391L23.7097 56.4338L24.115 56.2312H25.7361L25.8374 56.1299Z" fill="#B9479E"/>
<path d="M61.1965 56.1299H63.0202H63.3242H65.1479L65.8571 56.4338V56.6365L66.1611 56.7378L66.2624 57.2444L66.3637 57.5483H66.0598L65.9584 58.0549H65.1479L64.7426 58.1562H61.5005L60.4873 58.0549H59.4741L58.7649 57.7509V57.5483H58.5623L58.4609 56.9404L58.8662 56.4338L59.4741 56.2312L61.1965 56.1299Z" fill="#B9479E"/>
<path d="M39.1097 36.0693L39.4137 36.1707L39.3124 36.3733H39.7176V36.1707L40.1229 36.3733H39.9203V36.5759L40.5282 36.3733L40.6295 36.1707V36.3733L42.3519 36.272L43.0611 36.1707V36.4746L43.7703 36.3733L44.5809 36.272L45.0875 36.3733L45.1888 36.272H47.9244L48.2283 36.1707L49.2415 36.272L49.4441 36.1707V36.3733L49.6468 36.272H50.6599L51.1665 36.1707L52.0784 36.272L53.2942 36.1707L53.5981 36.3733L53.6995 36.1707L53.8008 36.272L54.6113 36.1707L55.2192 36.272L55.5232 36.1707L55.9284 36.272L56.5363 36.1707L57.2456 36.272L57.3469 36.0693L57.8535 36.272L58.3601 36.3733L58.4614 36.1707L58.664 36.272H60.1838L60.3864 36.4746L60.9943 36.5759L61.7035 36.7786L62.3114 36.9812L63.122 37.3865L63.4259 37.4878V37.6904H63.9325L64.3378 38.2983L64.8444 38.7036L65.6549 39.7167L65.9589 40.2233L66.1615 40.5273V40.9325H66.3641L66.6681 41.8444V42.2496H66.8707L66.9721 43.4654L67.0734 43.8707L67.1747 44.4786L67.0734 44.6812V45.6944L66.9721 45.9984V46.8089L66.6681 47.9234L66.2628 48.8352L66.0602 49.2405L66.1615 49.4431L65.7562 49.8484L65.6549 50.051H65.4523L65.2497 50.4563L64.9457 50.7602H64.7431L64.6417 51.1655L64.1352 51.4694L63.9325 51.7734L63.6286 51.8747L63.5273 52.0773L62.818 52.3813L62.0075 52.7866H61.7035L61.6022 53.0905L60.893 53.1918L60.1838 53.4958L58.5627 53.6984L55.8271 53.7997H53.2942L52.7876 53.901H51.5718L51.2678 53.7997L51.1665 54.0024L50.356 53.901L49.8494 54.1037L49.1402 54.8129L48.7349 54.9142L48.4309 55.0155L48.127 55.3195L47.7217 55.4208L47.5191 55.6234L46.8099 55.9274L45.0875 56.13H44.0743L43.3651 56.0287L42.0479 55.7247H41.744V55.5221L41.2374 55.3195L40.2242 54.8129L39.7176 54.6103L39.515 54.3063L39.211 54.1037L38.7045 53.901L38.2992 54.0024L37.59 53.6984L37.4886 53.901V53.6984L37.1847 53.7997L36.3742 53.6984L33.6386 53.5971H32.7267H32.4228L31.9162 53.3945L31.8149 53.5971H31.6122V53.3945L31.0043 53.4958L30.0925 53.3945L29.1806 53.1918V52.9892L28.3701 52.8879L27.3569 52.5839V52.3813L27.0529 52.4826L26.1411 51.976V51.7734H25.6345L24.6213 50.7602L23.7095 49.7471L22.7976 48.0247L22.8989 47.7207H22.6963L22.595 46.7076L22.3923 46.4036L22.291 45.2891H22.4937L22.3923 44.3773L22.291 44.1747H22.4937L22.3923 43.5668H22.595L22.4937 43.2628L22.7976 41.7431L23.1016 40.9325V40.2233L23.3042 40.3246L23.4055 40.0207H23.6081L23.7095 39.818L24.52 38.7036L24.824 38.6022L25.3305 37.9943L25.7358 37.7917L26.1411 37.3865L27.0529 37.0825L28.1674 36.6772L28.5727 36.5759L28.7753 36.6772L28.8767 36.4746L30.2951 36.3733H30.8017L30.903 36.1707V36.3733L31.9162 36.272H33.0307H33.4359L34.3478 36.3733L35.057 36.1707L35.5636 36.272H38.8058L39.211 36.3733L39.1097 36.0693Z" fill="#2D3128"/>
<path d="M31.8156 39.9189L31.917 40.1216L32.9301 40.0203L34.5512 40.8308L35.2604 41.3374L35.5644 41.7426V41.9453H35.767L36.2736 43.1611L36.3749 43.8703L36.4762 44.3769L36.3749 46.0993L35.8683 47.1124V47.4164L35.6657 47.5177L35.3618 48.0243L34.4499 48.8348L33.538 49.3414L32.5249 49.544L30.8025 49.4427L29.688 49.0374L28.6748 48.2269L28.2695 47.7203V47.1124H27.9656L27.8643 46.5045H27.6616L27.459 45.1874V44.2756L27.6616 43.1611L28.1682 42.0466L28.6748 41.3374L29.7893 40.4255L30.7011 40.1216L31.8156 39.9189Z" fill="#F9F4E9"/>
<path d="M57.2456 39.9189H57.4482V40.1216L58.0561 40.2229L59.3732 40.7295L59.4746 41.0334L59.8798 41.3374V41.54H60.0825L60.1838 41.844L60.589 42.2492L60.9943 43.1611L61.1969 44.2756V45.694L60.893 46.5045L60.4877 47.619H60.2851V47.9229H60.0825L59.8798 48.3282L58.968 49.0374H58.5627V49.2401L57.9548 49.4427H57.6508L56.9416 49.544L56.739 49.6453V49.4427H55.8271L54.7126 49.1387V48.9361L54.206 48.7335L53.8008 48.5308V48.3282H53.4968L52.9902 47.619L52.8889 47.2137H52.6863L52.281 45.694L52.1797 44.8835L52.281 44.4782L52.3823 43.1611L52.4836 42.8571H52.6863L52.8889 42.3505L53.1929 41.844L53.8008 41.0334L54.9153 40.4255H55.2192V40.2229L56.2324 40.0203L56.9416 40.1216L57.2456 39.9189Z" fill="#F9F4E9"/>
<path d="M48.736 48.9365L49.2426 49.0378V49.2405L49.6479 49.3418V50.051L49.3439 50.9629L48.736 51.7734L48.4321 52.28L48.2294 52.4826H47.9255L47.7228 52.8879L46.507 53.4958H46.1017L45.5952 53.6984L44.6833 53.7997L44.3794 53.901L43.7714 53.6984L43.2649 53.7997L42.049 53.4958L41.8464 53.3944V53.1918H41.2385L41.0359 53.0905V52.8879L40.5293 52.6852L40.428 52.3813H40.124L39.8201 52.0773V51.7734H39.6174L39.2122 50.9629L39.0095 50.7602L38.9082 50.051L39.1108 49.3418L40.0227 49.1392L40.428 49.2405L40.5293 49.8484H40.7319L41.5425 51.0642L42.049 51.2668L42.1504 51.4694L43.2649 51.7734H45.1899L46.2031 51.5708L46.3044 51.3681L46.811 51.2668V51.0642L47.6215 50.355L48.0268 49.5444L48.2294 49.0378L48.736 48.9365Z" fill="#F9F4E8"/>
<path d="M32.4238 42.7559L32.5251 42.9585L33.0317 43.0598L33.7409 43.6677L34.1462 44.3769V45.694L34.0449 45.8967H33.8423V46.5046L32.6264 47.2138H31.7146L30.7014 46.7072L30.2961 46.2006L29.9922 45.3901V44.5796L30.4988 43.5664L31.3093 42.9585L32.4238 42.7559Z" fill="#2F3128"/>
<path d="M56.8428 42.6543L56.9441 42.8569L57.552 42.9582L58.1599 43.3635V43.5661H58.3625L58.7678 44.478L58.6665 45.7951L58.3625 46.403L57.8559 46.8083L57.9572 47.0109H57.3493L57.248 47.2135H56.1335V47.0109H55.8296V46.8083L55.323 46.6056L54.8164 45.9977V44.5793L55.1204 43.8701L55.4243 43.3635L55.8296 43.2622L55.9309 42.9582L56.8428 42.6543Z" fill="#2E3127"/>
<path d="M22.4934 97.8721L23.1013 98.0747L23 98.3787L22.5947 98.48L22.3921 98.6826H21.6829L21.3789 98.3787L21.5815 98.176L21.6829 97.9734L22.3921 98.176L22.4934 97.8721Z" fill="#F6E2D2"/>
<path d="M23.8098 97.9736L24.3164 98.1763H24.519V97.9736L25.3296 98.0749L25.2283 98.4802L24.2151 98.5815L23.6072 98.4802L23.5059 98.1763L23.8098 97.9736Z" fill="#F7EBDD"/>
<path d="M62.7146 98.2773L62.9172 98.3787L63.0186 98.6826L63.4238 98.48L63.5251 98.8852L62.8159 98.9866L62.6133 98.7839L62.7146 98.2773Z" fill="#FAF5EA"/>
<path d="M29.4824 99.1895L29.6851 99.5947L29.5837 99.7974L28.9758 99.8987L28.7732 100L28.6719 99.5947L29.1785 99.4934H29.3811L29.4824 99.1895Z" fill="#FAF5EA"/>
<path d="M2.43162 59.4727H4.15402L5.06588 59.6753L5.87642 60.0806L6.38301 60.5871L7.19355 61.195L7.39618 61.6003L7.90277 62.1069L8.40936 62.5122V62.7148H8.61199L9.11858 63.2214L9.42253 63.6266V63.8293L9.92912 63.9306V64.1332L10.3344 64.2345L11.5502 64.6398L12.0568 64.7411L12.3607 64.6398L12.8673 64.8424L13.2726 64.6398L13.6779 64.7411L14.1845 65.8556V66.0582L14.3871 66.1595L14.5897 67.0714L14.691 67.3753L15.0963 67.578L15.6029 68.4898L16.1095 68.9964L16.7174 69.503L16.6161 69.9083L16.2108 70.1109L16.0082 70.3135H15.5016V70.5162L13.2726 71.2254L12.4621 71.3267L11.8542 71.5293H10.9423L10.537 71.7319L9.52385 71.6306L8.00409 71.5293L7.29486 71.3267L6.38301 71.1241L5.47115 70.6175L5.06588 70.5162L4.25534 70.1109V69.9083L3.85007 69.8069L3.03953 69.199L2.12767 68.2872L1.21581 67.0714L1.01318 66.7674V66.4635H0.81054L0.202635 64.8424L0 63.6266V62.8161L0.101318 62.6135L0.202635 61.9043L0.40527 61.3977L0.506588 61.0937H0.709223V60.7898H0.911858L1.11449 60.3845L2.02635 59.574L2.43162 59.4727Z" fill="#2E3128"/>
</svg>
