<svg width="66" height="100" viewBox="0 0 66 100" fill="none" xmlns="http://www.w3.org/2000/svg">
<path d="M55.8525 0.105469H54.7102L54.6064 0.20931L53.9834 0.105469H53.6718L52.4258 0.31315L52.1143 0.416991L51.3874 0.520832L51.2836 0.728514L50.7644 0.832354L50.1413 1.24772L49.9337 1.14388V1.35156H49.726V1.55924L49.2068 1.66308L48.7914 1.87076L48.3761 2.38997L48.0646 2.49381L47.6492 3.01301V3.22069H47.4415V3.42838L47.13 3.53222V3.7399H46.9223L46.507 4.57062L46.2993 4.46678L46.1955 4.88215L45.884 5.81671H46.0916V6.0244H45.884V6.33592L45.6763 6.43976V6.75128L45.5724 7.68585L45.4686 7.89353H45.6763L45.5724 8.8281V9.55498L45.6763 9.86651V10.9049L45.884 11.3203L46.507 11.528H47.13L47.5454 11.6318L47.9607 11.528L48.7914 11.6318L49.4145 11.528H49.726V11.7356H50.1413H50.7644H51.0759H51.9066H52.2181L52.7373 11.8395H53.0488L53.9834 11.9433H54.2949L54.8141 12.0472L55.5409 12.151L55.7486 12.0472V12.2548L56.164 12.151L56.2678 12.2548L57.9292 12.4625L58.2407 12.6702L58.8638 12.8779V12.6702H59.0715L59.1753 12.8779L60.3175 13.1894L60.7329 13.6048L61.4597 13.8125L61.5636 14.124H61.8751H62.1866L62.2904 14.5393L62.7058 14.8509H62.9135V15.0585L63.4327 14.8509L64.2634 14.0201L64.5749 13.0856H64.7826L64.8864 12.3587L65.1979 12.2548L65.3018 11.6318L65.1979 11.4241H65.4056V10.6972L65.6133 10.178V9.76267V9.3473V8.8281V8.51658L65.4056 8.41273L65.3018 7.58201L65.1979 7.0628L65.0941 6.75128H64.8864L64.7826 6.0244H64.5749L64.3672 5.40135L63.9519 4.67446L63.6403 4.15526L63.3288 3.84374H63.1212V3.63606L62.7058 3.22069H62.4981V2.90917L62.0828 2.59765L61.4597 2.38997L61.3559 2.07844L60.8367 1.9746L60.7329 1.66308L60.1098 1.55924L60.006 1.35156L59.4868 1.04004V1.24772H59.2791L59.1753 1.04004H58.9676L58.7599 0.832354H58.4484L58.0331 0.624673L56.9947 0.416991L56.8908 0.20931H56.6832L56.5793 0.416991L56.0601 0.31315H55.8525V0.105469Z" fill="#020617"/>
<path d="M11.5142 0L10.5797 0.207682L10.0605 0.103841L9.22977 0.207682H8.91825L8.29522 0.311522L7.87987 0.415363L7.46451 0.623045H7.153L6.94532 0.830727L6.73764 0.726886V0.934567L6.01077 1.14225L5.80309 1.34993L4.55703 1.76529L4.03784 2.2845V2.49218L3.31097 2.59602L3.20713 3.01138L2.99945 3.11522L2.48026 3.63443L2.16875 4.15363L1.64955 4.88052L1.44188 4.98436V5.19204L1.2342 5.39972L1.13036 5.81509L0.922684 6.02277L0.818845 6.54197L0.50733 7.47654L0.299653 8.30727V10.1764L0.50733 11.4225L0.818845 12.2532L1.2342 13.2916L1.44188 13.3955V13.6031H1.64955L1.85723 14.2262L2.16875 14.5377L2.27258 14.8492L2.79178 15.2646L2.89562 15.0569L3.41481 14.9531L3.51865 14.5377L3.83016 14.4339L4.24552 14.2262L4.55703 14.1224L4.86855 13.8108L5.49158 13.6031L5.90693 13.3955V13.1878L7.04916 12.9801L7.56835 12.6686H8.19138L8.71057 12.3571L10.0605 12.2532L10.2682 12.0455L10.8912 12.1494L11.3065 12.0455L11.5142 12.1494L11.8257 11.9417H12.1372H12.6564L12.8641 11.734L13.3833 11.8379L14.214 11.734H15.3562L15.7716 11.8379V11.6302H15.9793V11.8379L16.4985 11.6302L17.3292 11.734L18.1599 11.5263L18.4714 11.6302L18.8868 11.5263H19.6136L19.7175 11.111H19.9251V10.9033L20.1328 10.7994V10.4879L19.9251 10.3841L20.1328 9.96872V9.03415L20.029 8.30727L20.1328 8.09958L19.9251 7.06118L19.8213 6.64581V6.33429L19.6136 5.91893H19.4059L19.5098 5.6074L19.1983 5.50356L19.0944 4.77668L18.6791 4.36131L18.4714 3.73827L17.9522 3.32291L17.7445 3.01138H17.5368V2.8037L16.7061 2.07682L16.2908 1.86913L15.9793 1.55761L14.7332 0.934567L14.5255 0.726886L13.6948 0.623045L12.4488 0.207682L12.0334 0.103841L11.5142 0Z" fill="#020617"/>
<path d="M19.6521 66.1211L18.9979 66.2663L18.7798 66.6293L18.5617 66.7745L18.4891 67.1374L18.3437 67.21L17.9802 67.7182V67.8634H17.8348L17.7621 68.5167L17.5441 68.5893L17.4714 69.0975L17.3987 69.2427L17.326 69.896L17.2533 70.259L17.326 70.4042L17.1806 70.4768L17.2533 70.622L17.1806 71.3479L17.326 71.6383L17.2533 72.0013L17.326 72.5095H17.5441L17.4714 72.7999L17.6168 73.0902L17.7621 73.8888L17.9075 73.9614L17.9802 74.3243H18.1256L18.0529 74.5421L18.271 74.6873L18.3437 74.9051H18.4891V75.1955L18.7071 75.2681L19.216 75.9214L19.5794 76.2118L19.6521 76.357L20.0156 76.5748L20.0883 76.72H20.2336L20.3063 76.8652L20.6698 76.9378L20.7425 77.1556L21.1786 77.3008H21.3967L21.4694 77.5185L21.7602 77.4459V77.5911H21.9782L22.0509 77.7363L22.269 77.8089L22.4144 77.7363L22.4871 77.8815L22.7778 77.9541L23.2867 78.0993L24.0136 78.1719V78.3171L24.6678 78.3897L24.9586 78.4623H25.2493H25.9762H26.267H26.4851L26.5578 78.3171H26.7032V78.4623L26.9939 78.3171L27.0666 78.3897L27.5755 78.1719L28.3024 78.0267V77.8815H28.4477V77.7363H28.6658V77.5185L28.7385 77.6637H28.8839V77.4459H29.0293V77.3008H29.2473L29.3927 77.0104L29.5381 76.9378V76.7926H29.6835V76.6474L29.8289 76.5748L30.047 75.9214L29.8289 75.7763L29.6835 75.8488V75.7037H29.1747L29.0293 75.7763L28.9566 75.5585L28.4477 75.4859L28.3751 75.5585L28.0843 75.4859L28.2297 75.3407H29.32V75.1955L29.5381 75.2681V75.1229H29.6835L29.7562 75.2681L30.265 75.1229L30.6285 74.6873L30.7012 74.1792L30.6285 73.5258L30.265 73.1628H30.1196L30.047 73.0176H29.3927L28.6658 72.945H28.4477L28.0843 72.7999L28.157 72.7273H28.8112L29.32 72.6547L29.9016 72.5821L30.047 72.6547L30.1923 72.4369L30.1196 72.2191L29.6835 71.3479L29.32 71.2028L29.2473 70.9124L28.5931 70.4768L28.2297 70.4042L27.9389 70.1138H27.5755L27.3574 69.896L26.9939 69.9686L26.5578 69.8234H26.267L26.1216 69.6783H25.8309V69.8234L25.322 69.7509L24.8859 69.6057L23.8682 69.3879L23.2867 69.0975H23.1413L23.0686 68.9523L22.9959 69.0249L22.8505 68.8071H22.7051L21.9782 68.2989L21.8328 68.1538L21.6875 67.936L21.324 67.7908L21.2513 67.5004H21.1059L21.0332 67.1374L20.7425 66.9922V66.847L20.2336 66.4115H20.0883L20.0156 66.2663L19.6521 66.1211Z" fill="#020617"/>
<path d="M47.4528 66.1211L46.8712 66.3392H46.7258L46.3624 66.7754L46.0716 67.0662L45.9262 67.357L44.8359 68.4475V68.5929L44.4724 68.6656L44.1817 68.8837L43.8182 69.1018L43.7455 69.2473L43.5274 69.1745V69.32L43.2367 69.3927L42.5098 69.5381L42.2917 69.6108H42.0009V69.7562L41.5648 69.6835L41.274 69.8289L41.2013 69.6835V69.8289L40.8379 69.7562L40.6925 69.8289H40.1109V69.9743H39.9656L39.8929 69.8289L39.7475 69.9743L39.384 70.047L38.6571 70.4105L38.3664 70.4832V70.6286L38.0756 70.7013L37.5668 71.1375V71.3556L37.2033 71.501L37.1306 71.8645L37.0579 72.0099L36.9125 72.0826L36.8398 72.5915H37.1306L37.2033 72.7369L37.7121 72.6642H38.1483H38.3664H38.7298L39.0933 72.7369L38.9479 72.8823L38.439 72.955L38.2937 72.8823V73.0277H37.0579L36.6945 73.1731L36.4764 73.5366L36.331 73.9728V74.409L36.5491 74.8453L36.9125 75.2088L37.7121 75.2815L37.8575 75.3542V75.2088H38.0756V75.3542H38.8025L38.6571 75.4996L38.221 75.5723V75.7177L37.9302 75.645L37.7848 75.7177H37.276L36.9125 75.9358L36.8398 76.0812H37.0579L37.2033 76.5901L37.276 76.8082L37.8575 77.3171H38.0029V77.4625L38.2937 77.6079L38.5117 77.826L38.8752 77.8987L38.9479 78.1168L39.166 78.0441L39.2387 78.1895H39.5294L40.1836 78.4076L40.6925 78.553L40.9832 78.4076L41.0559 78.553L41.6375 78.4076L42.219 78.4803L42.6551 78.3349H43.0186L43.382 78.2622V78.1168L43.8182 78.0441L44.1817 78.1168L44.327 78.0441L44.3997 77.8987L44.9813 77.826L45.1993 77.6079L45.7809 77.4625L46.0716 77.2444L46.217 77.1717V77.0263H46.4351V76.8809L46.8712 76.8082L46.9439 76.5174H47.2347V76.2993L47.5981 76.2266L47.8889 75.7904L47.9616 75.5723L48.1797 75.4996V75.3542H48.325L48.6885 74.7725V74.5544L48.9066 74.4817L49.052 74.2636L48.9793 74.0455H49.1247L49.1973 73.6093L49.4154 73.5366V73.1731L49.4881 72.8823L49.6335 72.5915L49.7062 71.9372L49.7789 71.4283L49.8516 71.1375H49.7062L49.7789 70.774L49.7062 70.4105V70.1924L49.6335 69.6835L49.4881 69.1745H49.3427L49.4154 68.7383L49.27 68.5929L49.1247 68.3021V68.0113H48.9793V67.7932L48.7612 67.6478L48.5431 67.0662L48.1797 66.7754L48.0343 66.4119L47.8162 66.3392V66.2665H47.4528V66.1211Z" fill="#020617"/>
<path d="M34.6131 55.4082L34.2507 55.4809H33.0185H32.8011L32.0763 55.6264L32.0038 55.4809L31.134 55.7719L30.6267 56.1356L30.5542 56.2811H30.4092L30.3368 56.572L30.1918 57.0812L30.4092 57.6631L30.3368 57.8086H30.5542L30.6267 58.3178L30.9166 58.6087L31.2065 58.8269L31.279 58.9724L31.5689 59.1179L31.7864 59.3361L32.4387 59.5543H32.6561L32.8011 60.2817L32.6561 60.3545L32.7286 60.6454L32.6561 60.9364V61.1546L32.7286 61.3728L32.6561 61.591V61.8093L32.5836 62.2457L32.1488 62.6094L32.0763 62.4639L32.0038 62.6094L31.424 62.6821L30.6267 62.6094L30.1193 62.4639V62.3184L29.612 62.1002V61.9547H29.467L29.3221 61.591L29.2496 61.4456H29.1046L29.0321 61.3001L28.7422 61.1546L28.2349 61.3001L27.8725 61.7365L27.8 62.1002H27.9449L27.8725 62.3184L28.0899 62.8276L28.3073 63.0458L28.4523 63.264L28.6697 63.3368L28.7422 63.555L28.8872 63.4823V63.7005L29.2496 63.9187L29.3945 64.0642L30.0468 64.2824L30.6992 64.4279L31.424 64.5733V64.5006L32.3662 64.3551L33.0185 64.1369L33.2359 63.9187V63.7732H33.3809V63.6277H33.6708L33.7433 63.846L33.9607 63.9187L34.0332 64.0642H34.2507V64.2096L34.903 64.2824L35.1929 64.4279L35.4828 64.5006L35.6278 64.4279L35.7002 64.5733L36.0626 64.5006H36.3526V64.3551L36.715 64.4279H36.9324V64.2824L37.2948 64.2096L37.7297 64.0642L38.0196 63.9187V63.7732L38.1645 63.7005L38.382 63.6277L38.4545 63.4823H38.6719L38.9618 62.9731L39.1793 62.6094L39.3242 62.0275L39.2517 61.591L39.0343 61.3728H38.8893L38.8169 61.2273H38.237L37.8746 61.4456L37.7297 61.8093L37.5122 62.0275V62.2457H37.2223L37.1498 62.5366L36.2076 62.6094L35.5553 62.6821L35.1204 62.5366V62.4639L34.6855 62.3912L34.4681 62.0275V61.6638L34.3231 61.3001L34.4681 61.2273L34.3956 60.9364V60.3545L34.4681 60.0635V59.7726L34.5406 59.5543L35.1929 59.3361L35.2654 59.1906H35.4828V59.0452H35.6278V58.8997L35.9177 58.8269V58.6815H36.0626L36.2801 58.4633L36.3526 58.1723L36.4975 58.0996L36.6425 57.5176L36.7874 57.3722L36.715 57.2267L36.7874 56.6448L36.57 56.3538H36.425L36.3526 55.9901L36.0626 55.8446L35.4103 55.6264L35.3378 55.4809L34.6855 55.5537L34.6131 55.4082Z" fill="#020617"/>
<path d="M48.8645 42.5762H36.5261L36.1926 42.6595L35.0255 42.5762L34.692 42.6595L34.5253 42.5762H19.019L17.6017 42.6595L16.4346 42.8263L15.1841 43.0764L13.4334 43.8267L12.3496 44.577L11.8494 45.1606L11.4326 45.5775L10.9324 46.4111L10.5155 47.6617L10.2654 49.079L10.0153 51.6634V54.1645L10.0987 54.9148L10.5989 56.5822L11.3492 57.9161L12.0995 58.7498L13.0999 59.5001L14.3504 60.167L16.0178 60.5839L17.6017 60.7506L19.1857 60.6673L21.0198 60.3338L21.8535 60.0003L23.1874 59.3333L24.1878 58.4163L24.8547 57.5826L25.3549 56.8323L25.8551 55.9152L26.2719 55.2483L26.8555 54.4979L27.6892 53.831L29.1064 53.0807L30.6904 52.5805L31.7742 52.4137L32.3577 52.3303H34.5253L36.1093 52.4971L37.86 52.9973L39.444 53.7476L39.7774 53.9144V54.0811L40.1943 54.2478V54.4146L40.7778 54.9148L40.9446 55.2483H41.1113L41.278 55.6651L42.1117 57.2491L42.6119 57.9161L42.6953 58.1662L43.2788 58.6664L43.6957 59.0832L44.3626 59.6668L45.7799 60.2504L46.8636 60.5839L48.1975 60.7506H49.9482L52.0324 60.4171L53.3663 59.9169L54.4501 59.3333L55.2837 58.583L55.9507 57.8327L56.2008 57.5826L56.6176 56.6655L57.0344 55.0815L57.2012 53.7476V51.4133L57.1178 50.1628L56.9511 48.7455L56.701 47.4949L56.2841 46.4111L55.7839 45.4941L55.3671 44.9105L54.7002 44.3269L53.6997 43.66L53.0328 43.3265L51.3655 42.9096L50.1983 42.7429L49.1146 42.6595L48.8645 42.5762Z" fill="#020617"/>
<path d="M20.6029 47.4951H19.6025L18.6021 47.7452L17.9352 48.1621V48.3288L17.5183 48.4955L16.9348 49.2459L16.5179 50.2463L16.2678 51.3301V52.3305L16.5179 53.5811L17.0181 54.5815L17.6017 55.2484L18.1853 55.6653L18.8522 55.9154L19.6025 56.0821L20.9364 55.9988L21.7701 55.6653L22.6037 54.9983L22.8538 54.6649V54.4981H23.0206L23.354 53.9145L23.6041 52.8307L23.6875 51.5802L23.5208 50.413L23.1873 49.496L22.7705 48.829L22.1035 48.0787L21.6867 47.8286L21.1031 47.5785L20.6029 47.4951Z" fill="#FEFDF9"/>
<path d="M47.95 47.4951H46.8662L45.8658 47.7452L44.9487 48.3288L44.2818 49.0791L43.865 49.9128L43.6982 50.4964L43.5315 52.1638L43.865 53.7478L44.4485 54.6649L45.2822 55.4985H45.4489V55.6653L46.366 55.9988L47.1996 56.0821L47.95 55.9988L48.7836 55.7486L49.6173 55.2484V55.0817L49.9508 54.9983L50.3676 54.4147L50.7844 53.4143L50.9512 52.664V51.4968L50.7844 50.413L50.451 49.4126L50.2009 49.0791L50.0341 48.829H49.8674L49.7007 48.4955L49.0337 47.912L48.2834 47.5785L47.95 47.4951Z" fill="#FEFDF9"/>
<path d="M20.353 49.9971L19.6861 50.0804L19.1025 50.5807L18.8524 51.1642L18.769 52.0813L19.0191 52.9984L19.436 53.4986L19.9362 53.7487L20.6865 53.6653L21.27 53.1651L21.6035 52.3314V51.331L21.1867 50.4973L20.6865 50.0804L20.353 49.9971Z" fill="#020617"/>
<path d="M47.443 50.0771H46.6093L45.859 50.6607L45.6089 51.3277V52.3281L45.7756 52.8283L46.2758 53.4953L46.6926 53.7454H47.3596L47.8598 53.4119L48.1933 52.9951L48.4434 52.078L48.36 50.9942L48.0265 50.494L47.443 50.0771Z" fill="#27251C"/>
<path d="M15.1746 86.1152H14.4138V87.1614L14.7942 90.1095L14.8893 90.4899L14.9844 91.8213L15.2697 92.9626L15.3648 93.8185L15.7452 95.7205L16.1256 97.147L16.4109 97.8127L16.9815 98.6687L17.457 99.1442L18.408 99.6197L20.4051 100H24.0189L25.6356 99.5246L26.6817 98.4785L27.1572 97.6225L27.4425 96.7666L27.7278 94.3891L27.8229 92.6773L27.918 89.5389L27.8229 89.2536L27.918 88.3026L27.8229 87.5418V86.5907H26.3013L25.5405 86.4956L25.1601 86.5907L24.5895 86.4956H23.6385L22.5924 86.4005H20.4051L19.0737 86.3054H18.8835H17.7423L16.9815 86.2103V86.4005H16.7913V86.2103L15.1746 86.1152Z" fill="#23241C"/>
<path d="M52.7487 86.2109H49.0398L48.7545 86.306H46.9476L44.3799 86.4011H43.4289L41.5269 86.4962H40.5759L39.6249 86.5913L39.5298 87.4473V92.0121L39.6249 94.3897L39.72 95.2456L39.9102 95.9113L40.1955 97.528L40.7661 98.4791L41.5269 99.2399L42.3828 99.6203L43.2387 99.8105L44.1897 99.9056H46.5672L47.9937 99.7154L49.23 99.4301L50.2761 98.6693L50.9418 97.7182L51.3222 96.6721L51.7977 94.1995L51.9879 93.2485L52.3683 90.5856L52.4634 89.6346L52.5585 89.4444L52.8438 86.8766V86.306L52.7487 86.2109Z" fill="#23241C"/>
<path d="M25.6436 9.03809L25.332 9.1416L24.916 9.03809H23.2549L20.0361 9.1416H18.7383L18.4785 9.24609H17.752L17.4922 9.34961H16.4014L15.9863 9.50586L15.2598 9.71289H15.0518L14.7402 9.81738H13.5977L13.3389 9.9209H13.0791L12.7676 10.1289L12.5596 10.3877H12.1445L11.1055 10.4922L10.7939 10.5957L10.2236 10.6475L9.75586 10.752L9.23633 10.9072H8.71777L8.19824 11.1152L7.83496 11.4268L7.47168 11.582L7.16016 11.8418L6.74512 12.0498H6.3291L5.81055 12.3613H5.49902L5.08301 12.4648L4.87598 12.5684H4.56445L4.51172 12.6211L4.25293 13.0879L4.04492 13.1914L3.83691 13.8145H3.62988L2.79883 15.4766L2.4873 16.6182L2.38379 17.0342L2.07227 18.4873L1.96777 20.2529L1.86426 21.084V41.0215L1.76074 42.0596L1.86426 42.8906L1.76074 43.6172L1.86426 43.7207L1.76074 45.5898V46.7324L1.70801 46.7842L1.76074 46.8359V49.2246L1.86426 50.0557L1.76074 50.8857V51.8203L1.86426 52.0283V52.6514L1.8125 52.9111V53.0146L1.76074 53.1709V53.6895L1.86426 55.1436V56.2861L1.76074 57.2207V57.6357L1.65625 57.9473L1.76074 57.8955V58.7256L1.86426 58.8301V59.4014L1.96777 59.6084V59.7129L1.86426 60.2314V65.8389L1.96777 66.0469V67.3965L1.86426 67.6045V68.2275L1.96777 68.4355V69.5771L2.07227 70.3047L1.96777 70.6162L2.17578 72.2773V73.1084L2.2793 74.1465V74.873H2.4873L2.38379 75.1846L2.79883 78.6113L2.90234 79.3389V79.4355C3.08529 79.5531 3.20996 79.7675 3.20996 80.0146C3.20988 80.0722 3.20103 80.1283 3.18848 80.1816C3.78335 80.4981 4.25472 80.9693 4.52148 81.5322C4.56777 81.5237 4.61549 81.5186 4.66406 81.5186C5.12268 81.5187 5.494 81.9141 5.49414 82.4014C5.49405 82.4913 5.48164 82.5794 5.45801 82.6611H5.60156V82.7832C5.71772 82.8285 5.80078 82.9411 5.80078 83.0732C5.80071 83.0833 5.79881 83.0937 5.79785 83.1035C5.98088 83.1554 6.13957 83.2751 6.25195 83.4375C6.31827 83.4054 6.39379 83.3857 6.47461 83.3857C6.73249 83.3858 6.94125 83.5716 6.94141 83.8008C6.94141 83.87 6.92138 83.9348 6.8877 83.9922C7.26408 84.1711 7.59516 84.4682 7.85059 84.8496C7.87721 84.8443 7.90508 84.8408 7.93359 84.8408C8.13418 84.8409 8.29685 84.9804 8.29688 85.1523C8.29683 85.1971 8.2855 85.2399 8.26562 85.2783L8.50977 85.3613H9.0293L9.13281 85.5684L9.34082 85.4648L9.44434 85.6729L10.6904 85.8799L12.9746 86.1914L14.1172 86.2959H15.0518L15.7783 86.3994H16.8174L17.3359 86.5029H17.5439L17.6475 86.6074L17.752 86.1914L17.8555 86.5029L17.6475 86.6074L18.375 86.7109L18.8936 86.9189L19.5166 87.0225L19.9326 87.126H20.7881L20.9678 87.0459V86.8662H22.3105L22.3203 86.7891L22.3721 86.7764V86.7754L22.6318 86.7109L24.8125 86.8145H26.0586L26.2139 87.126H30.835V86.7109H31.043L31.1465 86.9189L31.874 86.8145L32.2891 86.9189H33.8467L34.0537 87.0225L34.2617 86.8145H34.9883L35.4043 86.9189V87.126H40.0771L40.1807 86.7109H41.0117L41.7383 86.8145L41.8418 86.7109H42.4648L42.7764 86.8145L43.0859 86.7695V86.6543H44.0156L44.4385 86.6074V86.6543H48.501L48.4873 86.6074L49.3184 86.3994H50.3564L50.7725 86.5029L51.707 86.2959L51.9141 86.1914L52.0186 86.3994L53.0566 86.2959H53.6797L53.9912 86.1914H54.6143L55.3408 85.9844L57.1064 85.8799L58.4561 85.5684L58.8721 85.4648V85.2568H59.7021L60.7402 84.8418L60.9482 84.6338L61.3633 84.4268L61.8828 84.1152L63.0254 83.1807V82.9727H63.2324V82.5576H63.4404L64.167 81.208L64.2715 80.6885L64.6865 79.5459L64.998 77.8848L65.1016 76.5352L65.2061 76.0156V74.7695L65.3096 74.5615V72.9004L65.4131 71.8623V70.2002L65.5176 69.7852V66.1504L65.4131 65.1123V64.8008L65.5176 63.6582V60.0244L65.4131 59.7129L65.4658 59.6602V59.5566L65.5176 59.5049V58.5703L65.4131 58.2588L65.5176 57.8438V54.209L65.4131 53.7939V53.2227L65.5176 53.1709V52.1836L65.4658 52.0801L65.5176 51.9248L65.6211 51.8203H65.5176V50.6787L65.4131 49.9512L65.3096 49.1211L65.5176 49.0166L65.4131 48.8096V47.7705L65.3096 47.3555H65.4131L65.3096 47.1992V43.7207L65.2061 42.6826V42.2676L64.998 20.4609V19.7334H64.79L64.8945 19.1104L64.79 18.3838V17.6572L64.583 16.9297L64.167 15.3721L63.752 14.4375L63.3369 13.7109L63.0254 13.1914L62.9736 13.1396H62.7656V13.0879H62.6621L62.6094 13.1396L62.5059 13.0879L62.4023 12.9844L62.1943 12.8799L61.9863 12.5684L61.3633 12.0498L60.8965 11.6338H60.5332L59.9102 11.4785L57.3662 10.9072L56.8984 10.8037L56.6914 10.6475H56.0684L55.9121 10.5439H55.4971L55.3408 10.4922L55.1338 10.4404L54.7695 10.3877H54.458L53.9912 10.3359L53.0566 10.1289L52.7969 10.0244H52.2783V9.9209H52.0186L51.8105 9.86914L51.5508 9.76465H50.5127L50.0977 9.66113L49.3701 9.50586L49.0068 9.45312H48.0205L47.8125 9.40137H47.6572L47.5527 9.29785H47.3457L45.4766 9.1416H43.7109L43.2959 9.03809H42.8809L41.9463 9.24609L41.8418 9.03809L41.5303 9.1416L41.3232 9.03809L40.3887 9.1416L39.4541 9.03809L38.9346 9.1416L38.5195 9.03809L35.9229 8.93457H28.9658L25.6436 9.03809ZM38.208 12.0498L38.7266 11.9453V12.1533L39.3496 12.0498L41.0117 12.1533H43.1924L44.2305 12.3613L44.334 12.1533H45.0615L46.8262 12.3613H48.3838L48.7988 12.4648H49.5264L50.0449 12.5684L51.8105 12.6729L53.6797 12.8799L55.3408 13.0879L56.0684 13.2959H56.6914V13.5029H57.418L58.6641 13.8145L59.5986 14.334V14.542L59.9102 14.4375L60.1172 14.8535L60.5332 15.0605L60.6367 15.3721L61.0518 15.5801L61.3633 16.0996L61.6748 16.7227L62.0908 18.5918V19.2148L62.1943 19.3184V19.8379L62.0908 20.0449L62.2979 20.668V40.71L62.4023 41.0215V42.3711L62.5059 42.8906L62.6094 43.9287L62.5059 44.4482L62.6094 45.7979V46.8359H62.5059L62.4023 47.459L62.6094 47.9785L62.7139 48.29V49.6396L62.8174 50.0557L62.7139 50.8857V54.3125L62.8174 55.2471L62.7139 55.3516L62.8174 56.2861L62.7236 56.7568L62.7139 56.9092L62.7344 57.168L62.7139 57.584L62.6094 57.8955L62.5059 58.1553V58.2588L62.4023 58.5703L62.8174 58.8818V60.959L62.9209 61.374L62.8174 62.1006V65.3203L62.7139 68.4355V69.8887L62.6094 73.2119V73.835L62.5059 74.458V75.9121L62.2979 77.2617V77.7812L62.0908 78.2998L61.9863 79.1309L61.5713 80.0654L60.9482 81.3115L60.4287 81.623H60.0137L59.9102 81.9346L59.1826 82.3496L58.249 82.5576L57.1064 82.8691L55.8604 83.0762L55.4453 83.1807L54.5107 83.2842L53.4717 83.3877L53.1602 83.4922H51.499L50.876 83.5957H49.8379L48.7988 83.8037L48.2803 83.6992L47.0342 83.8037H44.4385L43.1924 83.9072V83.6992L42.2578 83.9072L41.4268 84.0107L39.7656 83.9072L39.2461 84.0107H37.8965L37.2734 83.9072L35.9229 84.0107H33.7422L33.2236 83.9072L33.1201 84.0107H30.9395L30.4199 84.1152H30.2119V83.9072L29.5889 84.0107H28.3428L28.0312 83.8037V84.0107H26.0586L25.7471 83.9072H24.293L23.3584 84.0107H23.0469V83.8037L22.4238 83.9072L20.5547 83.8037H19.5166L18.8936 83.6992H16.9209L15.4668 83.4922H14.2207L13.8057 83.3877H13.1826L12.6631 83.2842L11.7285 83.1807L8.82129 82.4541L7.47168 81.7266L6.64062 80.8965V80.6885H6.43359L5.91406 79.5459L5.60254 78.5078L5.70605 78.1963H5.49902L5.29102 77.0537L5.1875 76.1191L5.08301 75.0811L4.87598 73.7314L4.97949 72.2773L4.87598 71.9658V70.8232L4.97949 70.6162L4.77148 70.5117V69.2656L4.66797 68.124V58.5703L4.61621 58.4141L4.66797 58.3623L4.61621 58.3105V58.2588L4.56445 58.207V57.0127L4.51172 56.7529L4.56445 56.1816L4.66797 54.7285L4.56445 54.209L4.66797 53.5859L4.61621 53.4297V53.1709L4.56445 52.9111V46.5244L4.45996 44.7598L4.56445 42.8906L4.66797 42.7861L4.56445 41.8516L4.66797 40.3984L4.77148 20.668L5.08301 18.1758L5.60254 16.6182L6.12207 15.5801L6.53711 15.165H6.74512L6.95215 14.749L7.67871 14.334L7.99023 14.0225L8.71777 13.9189V13.7109L10.0674 13.2959H10.5869L11.3135 13.0879H11.833L12.1445 12.9844L13.9092 12.7764L15.2598 12.6729L15.9863 12.5684L16.1943 12.3613L16.6094 12.4648L17.752 12.3613H18.4785L18.998 12.2568H19.7246L20.2432 12.1533H21.2822L23.0469 12.0498L23.5664 12.1533L23.6699 11.9453L24.6045 12.0498L25.0205 11.9453L25.4355 12.0498L26.3701 11.9453L27.0967 12.0498L28.5508 11.9453H33.2236L34.1582 12.1533L34.2617 11.9453H37.4805L38.208 12.0498ZM62.7139 56.8047L62.7236 56.7568V56.7529L62.7139 56.8047Z" fill="#23241C"/>
</svg>
