<svg width="83" height="100" viewBox="0 0 83 100" fill="none" xmlns="http://www.w3.org/2000/svg">
<path d="M56.2314 0.105469H55.0891L54.9853 0.20931L54.3623 0.105469H54.0508L52.8047 0.31315L52.4932 0.416991L51.7663 0.520832L51.6625 0.728514L51.1433 0.832354L50.5202 1.24772L50.3126 1.14388V1.35156H50.1049V1.55924L49.5857 1.66308L49.1703 1.87076L48.755 2.38997L48.4435 2.49381L48.0281 3.01301V3.22069H47.8204V3.42838L47.5089 3.53222V3.7399H47.3013L46.8859 4.57062L46.6782 4.46678L46.5744 4.88215L46.2629 5.81671H46.4705V6.0244H46.2629V6.33592L46.0552 6.43976V6.75128L45.9513 7.68585L45.8475 7.89353H46.0552L45.9513 8.8281V9.55498L46.0552 9.86651V10.9049L46.2629 11.3203L46.8859 11.528H47.5089L47.9243 11.6318L48.3396 11.528L49.1703 11.6318L49.7934 11.528H50.1049V11.7356H50.5202H51.1433H51.4548H52.2855H52.597L53.1162 11.8395H53.4277L54.3623 11.9433H54.6738L55.193 12.0472L55.9198 12.151L56.1275 12.0472V12.2548L56.5429 12.151L56.6467 12.2548L58.3081 12.4625L58.6197 12.6702L59.2427 12.8779V12.6702H59.4504L59.5542 12.8779L60.6964 13.1894L61.1118 13.6048L61.8386 13.8125L61.9425 14.124H62.254H62.5655L62.6694 14.5393L63.0847 14.8509H63.2924V15.0585L63.8116 14.8509L64.6423 14.0201L64.9538 13.0856H65.1615L65.2653 12.3587L65.5768 12.2548L65.6807 11.6318L65.5768 11.4241H65.7845V10.6972L65.9922 10.178V9.76267V9.3473V8.8281V8.51658L65.7845 8.41273L65.6807 7.58201L65.5768 7.0628L65.473 6.75128H65.2653L65.1615 6.0244H64.9538L64.7461 5.40135L64.3308 4.67446L64.0193 4.15526L63.7077 3.84374H63.5001V3.63606L63.0847 3.22069H62.877V2.90917L62.4617 2.59765L61.8386 2.38997L61.7348 2.07844L61.2156 1.9746L61.1118 1.66308L60.4887 1.55924L60.3849 1.35156L59.8657 1.04004V1.24772H59.658L59.5542 1.04004H59.3465L59.1388 0.832354H58.8273L58.412 0.624673L57.3736 0.416991L57.2698 0.20931H57.0621L56.9582 0.416991L56.439 0.31315H56.2314V0.105469Z" fill="#020617"/>
<path d="M11.8931 0L10.9586 0.207682L10.4394 0.103841L9.60867 0.207682H9.29716L8.67413 0.311522L8.25877 0.415363L7.84342 0.623045H7.5319L7.32423 0.830727L7.11655 0.726886V0.934567L6.38968 1.14225L6.182 1.34993L4.93594 1.76529L4.41675 2.2845V2.49218L3.68988 2.59602L3.58604 3.01138L3.37836 3.11522L2.85917 3.63443L2.54765 4.15363L2.02846 4.88052L1.82078 4.98436V5.19204L1.61311 5.39972L1.50927 5.81509L1.30159 6.02277L1.19775 6.54197L0.886236 7.47654L0.678559 8.30727V10.1764L0.886236 11.4225L1.19775 12.2532L1.61311 13.2916L1.82078 13.3955V13.6031H2.02846L2.23614 14.2262L2.54765 14.5377L2.65149 14.8492L3.17068 15.2646L3.27452 15.0569L3.79371 14.9531L3.89755 14.5377L4.20907 14.4339L4.62442 14.2262L4.93594 14.1224L5.24745 13.8108L5.87049 13.6031L6.28584 13.3955V13.1878L7.42806 12.9801L7.94726 12.6686H8.57029L9.08948 12.3571L10.4394 12.2532L10.6471 12.0455L11.2701 12.1494L11.6854 12.0455L11.8931 12.1494L12.2046 11.9417H12.5162H13.0353L13.243 11.734L13.7622 11.8379L14.5929 11.734H15.7351L16.1505 11.8379V11.6302H16.3582V11.8379L16.8774 11.6302L17.7081 11.734L18.5388 11.5263L18.8503 11.6302L19.2657 11.5263H19.9925L20.0964 11.111H20.304V10.9033L20.5117 10.7994V10.4879L20.304 10.3841L20.5117 9.96872V9.03415L20.4079 8.30727L20.5117 8.09958L20.304 7.06118L20.2002 6.64581V6.33429L19.9925 5.91893H19.7848L19.8887 5.6074L19.5772 5.50356L19.4733 4.77668L19.058 4.36131L18.8503 3.73827L18.3311 3.32291L18.1234 3.01138H17.9158V2.8037L17.085 2.07682L16.6697 1.86913L16.3582 1.55761L15.1121 0.934567L14.9044 0.726886L14.0737 0.623045L12.8277 0.207682L12.4123 0.103841L11.8931 0Z" fill="#020617"/>
<path d="M20.031 66.1211L19.3768 66.2663L19.1587 66.6293L18.9407 66.7745L18.868 67.1374L18.7226 67.21L18.3591 67.7182V67.8634H18.2137L18.141 68.5167L17.923 68.5893L17.8503 69.0975L17.7776 69.2427L17.7049 69.896L17.6322 70.259L17.7049 70.4042L17.5595 70.4768L17.6322 70.622L17.5595 71.3479L17.7049 71.6383L17.6322 72.0013L17.7049 72.5095H17.923L17.8503 72.7999L17.9957 73.0902L18.141 73.8888L18.2864 73.9614L18.3591 74.3243H18.5045L18.4318 74.5421L18.6499 74.6873L18.7226 74.9051H18.868V75.1955L19.086 75.2681L19.5949 75.9214L19.9583 76.2118L20.031 76.357L20.3945 76.5748L20.4672 76.72H20.6125L20.6852 76.8652L21.0487 76.9378L21.1214 77.1556L21.5575 77.3008H21.7756L21.8483 77.5185L22.1391 77.4459V77.5911H22.3571L22.4298 77.7363L22.6479 77.8089L22.7933 77.7363L22.866 77.8815L23.1567 77.9541L23.6656 78.0993L24.3925 78.1719V78.3171L25.0467 78.3897L25.3375 78.4623H25.6282H26.3552H26.6459H26.864L26.9367 78.3171H27.0821V78.4623L27.3728 78.3171L27.4455 78.3897L27.9544 78.1719L28.6813 78.0267V77.8815H28.8267V77.7363H29.0447V77.5185L29.1174 77.6637H29.2628V77.4459H29.4082V77.3008H29.6263L29.7716 77.0104L29.917 76.9378V76.7926H30.0624V76.6474L30.2078 76.5748L30.4259 75.9214L30.2078 75.7763L30.0624 75.8488V75.7037H29.5536L29.4082 75.7763L29.3355 75.5585L28.8267 75.4859L28.754 75.5585L28.4632 75.4859L28.6086 75.3407H29.6989V75.1955L29.917 75.2681V75.1229H30.0624L30.1351 75.2681L30.6439 75.1229L31.0074 74.6873L31.0801 74.1792L31.0074 73.5258L30.6439 73.1628H30.4985L30.4259 73.0176H29.7716L29.0447 72.945H28.8267L28.4632 72.7999L28.5359 72.7273H29.1901L29.6989 72.6547L30.2805 72.5821L30.4259 72.6547L30.5712 72.4369L30.4985 72.2191L30.0624 71.3479L29.6989 71.2028L29.6263 70.9124L28.972 70.4768L28.6086 70.4042L28.3178 70.1138H27.9544L27.7363 69.896L27.3728 69.9686L26.9367 69.8234H26.6459L26.5005 69.6783H26.2098V69.8234L25.7009 69.7509L25.2648 69.6057L24.2471 69.3879L23.6656 69.0975H23.5202L23.4475 68.9523L23.3748 69.0249L23.2294 68.8071H23.084L22.3571 68.2989L22.2118 68.1538L22.0664 67.936L21.7029 67.7908L21.6302 67.5004H21.4848L21.4122 67.1374L21.1214 66.9922V66.847L20.6125 66.4115H20.4672L20.3945 66.2663L20.031 66.1211Z" fill="#020617"/>
<path d="M47.8317 66.1211L47.2501 66.3392H47.1047L46.7413 66.7754L46.4505 67.0662L46.3051 67.357L45.2148 68.4475V68.5929L44.8513 68.6656L44.5606 68.8837L44.1971 69.1018L44.1244 69.2473L43.9063 69.1745V69.32L43.6156 69.3927L42.8887 69.5381L42.6706 69.6108H42.3798V69.7562L41.9437 69.6835L41.6529 69.8289L41.5802 69.6835V69.8289L41.2168 69.7562L41.0714 69.8289H40.4899V69.9743H40.3445L40.2718 69.8289L40.1264 69.9743L39.7629 70.047L39.036 70.4105L38.7453 70.4832V70.6286L38.4545 70.7013L37.9457 71.1375V71.3556L37.5822 71.501L37.5095 71.8645L37.4368 72.0099L37.2914 72.0826L37.2187 72.5915H37.5095L37.5822 72.7369L38.091 72.6642H38.5272H38.7453H39.1087L39.4722 72.7369L39.3268 72.8823L38.818 72.955L38.6726 72.8823V73.0277H37.4368L37.0734 73.1731L36.8553 73.5366L36.7099 73.9728V74.409L36.928 74.8453L37.2914 75.2088L38.091 75.2815L38.2364 75.3542V75.2088H38.4545V75.3542H39.1814L39.036 75.4996L38.5999 75.5723V75.7177L38.3091 75.645L38.1637 75.7177H37.6549L37.2914 75.9358L37.2187 76.0812H37.4368L37.5822 76.5901L37.6549 76.8082L38.2364 77.3171H38.3818V77.4625L38.6726 77.6079L38.8906 77.826L39.2541 77.8987L39.3268 78.1168L39.5449 78.0441L39.6176 78.1895H39.9083L40.5625 78.4076L41.0714 78.553L41.3621 78.4076L41.4348 78.553L42.0164 78.4076L42.5979 78.4803L43.034 78.3349H43.3975L43.761 78.2622V78.1168L44.1971 78.0441L44.5606 78.1168L44.7059 78.0441L44.7786 77.8987L45.3602 77.826L45.5782 77.6079L46.1598 77.4625L46.4505 77.2444L46.5959 77.1717V77.0263H46.814V76.8809L47.2501 76.8082L47.3228 76.5174H47.6136V76.2993L47.977 76.2266L48.2678 75.7904L48.3405 75.5723L48.5586 75.4996V75.3542H48.704L49.0674 74.7725V74.5544L49.2855 74.4817L49.4309 74.2636L49.3582 74.0455H49.5036L49.5762 73.6093L49.7943 73.5366V73.1731L49.867 72.8823L50.0124 72.5915L50.0851 71.9372L50.1578 71.4283L50.2305 71.1375H50.0851L50.1578 70.774L50.0851 70.4105V70.1924L50.0124 69.6835L49.867 69.1745H49.7216L49.7943 68.7383L49.6489 68.5929L49.5036 68.3021V68.0113H49.3582V67.7932L49.1401 67.6478L48.922 67.0662L48.5586 66.7754L48.4132 66.4119L48.1951 66.3392V66.2665H47.8317V66.1211Z" fill="#020617"/>
<path d="M34.992 55.4082L34.6296 55.4809H33.3974H33.18L32.4552 55.6264L32.3827 55.4809L31.5129 55.7719L31.0056 56.1356L30.9331 56.2811H30.7882L30.7157 56.572L30.5707 57.0812L30.7882 57.6631L30.7157 57.8086H30.9331L31.0056 58.3178L31.2955 58.6087L31.5854 58.8269L31.6579 58.9724L31.9478 59.1179L32.1653 59.3361L32.8176 59.5543H33.035L33.18 60.2817L33.035 60.3545L33.1075 60.6454L33.035 60.9364V61.1546L33.1075 61.3728L33.035 61.591V61.8093L32.9625 62.2457L32.5277 62.6094L32.4552 62.4639L32.3827 62.6094L31.8029 62.6821L31.0056 62.6094L30.4982 62.4639V62.3184L29.9909 62.1002V61.9547H29.8459L29.701 61.591L29.6285 61.4456H29.4835L29.411 61.3001L29.1211 61.1546L28.6138 61.3001L28.2514 61.7365L28.1789 62.1002H28.3239L28.2514 62.3184L28.4688 62.8276L28.6862 63.0458L28.8312 63.264L29.0486 63.3368L29.1211 63.555L29.2661 63.4823V63.7005L29.6285 63.9187L29.7734 64.0642L30.4258 64.2824L31.0781 64.4279L31.8029 64.5733V64.5006L32.7451 64.3551L33.3974 64.1369L33.6149 63.9187V63.7732H33.7598V63.6277H34.0497L34.1222 63.846L34.3396 63.9187L34.4121 64.0642H34.6296V64.2096L35.2819 64.2824L35.5718 64.4279L35.8617 64.5006L36.0067 64.4279L36.0792 64.5733L36.4415 64.5006H36.7315V64.3551L37.0939 64.4279H37.3113V64.2824L37.6737 64.2096L38.1086 64.0642L38.3985 63.9187V63.7732L38.5435 63.7005L38.7609 63.6277L38.8334 63.4823H39.0508L39.3407 62.9731L39.5582 62.6094L39.7031 62.0275L39.6306 61.591L39.4132 61.3728H39.2682L39.1958 61.2273H38.6159L38.2535 61.4456L38.1086 61.8093L37.8911 62.0275V62.2457H37.6012L37.5287 62.5366L36.5865 62.6094L35.9342 62.6821L35.4993 62.5366V62.4639L35.0644 62.3912L34.847 62.0275V61.6638L34.702 61.3001L34.847 61.2273L34.7745 60.9364V60.3545L34.847 60.0635V59.7726L34.9195 59.5543L35.5718 59.3361L35.6443 59.1906H35.8617V59.0452H36.0067V58.8997L36.2966 58.8269V58.6815H36.4415L36.659 58.4633L36.7315 58.1723L36.8764 58.0996L37.0214 57.5176L37.1663 57.3722L37.0939 57.2267L37.1663 56.6448L36.9489 56.3538H36.8039L36.7315 55.9901L36.4415 55.8446L35.7892 55.6264L35.7168 55.4809L35.0644 55.5537L34.992 55.4082Z" fill="#020617"/>
<path d="M49.2434 42.5762H36.905L36.5715 42.6595L35.4044 42.5762L35.0709 42.6595L34.9042 42.5762H19.3979L17.9807 42.6595L16.8135 42.8263L15.563 43.0764L13.8123 43.8267L12.7285 44.577L12.2283 45.1606L11.8115 45.5775L11.3113 46.4111L10.8944 47.6617L10.6443 49.079L10.3942 51.6634V54.1645L10.4776 54.9148L10.9778 56.5822L11.7281 57.9161L12.4784 58.7498L13.4788 59.5001L14.7293 60.167L16.3967 60.5839L17.9807 60.7506L19.5646 60.6673L21.3987 60.3338L22.2324 60.0003L23.5663 59.3333L24.5667 58.4163L25.2336 57.5826L25.7338 56.8323L26.234 55.9152L26.6508 55.2483L27.2344 54.4979L28.0681 53.831L29.4853 53.0807L31.0693 52.5805L32.1531 52.4137L32.7367 52.3303H34.9042L36.4882 52.4971L38.2389 52.9973L39.8229 53.7476L40.1563 53.9144V54.0811L40.5732 54.2478V54.4146L41.1567 54.9148L41.3235 55.2483H41.4902L41.6569 55.6651L42.4906 57.2491L42.9908 57.9161L43.0742 58.1662L43.6578 58.6664L44.0746 59.0832L44.7415 59.6668L46.1588 60.2504L47.2425 60.5839L48.5764 60.7506H50.3271L52.4113 60.4171L53.7452 59.9169L54.829 59.3333L55.6626 58.583L56.3296 57.8327L56.5797 57.5826L56.9965 56.6655L57.4133 55.0815L57.5801 53.7476V51.4133L57.4967 50.1628L57.33 48.7455L57.0799 47.4949L56.663 46.4111L56.1628 45.4941L55.746 44.9105L55.0791 44.3269L54.0787 43.66L53.4117 43.3265L51.7444 42.9096L50.5772 42.7429L49.4935 42.6595L49.2434 42.5762Z" fill="#020617"/>
<path d="M15.5535 86.1152H14.7927V87.1614L15.1731 90.1095L15.2682 90.4899L15.3633 91.8213L15.6486 92.9626L15.7437 93.8185L16.1241 95.7205L16.5045 97.147L16.7898 97.8127L17.3604 98.6687L17.8359 99.1442L18.7869 99.6197L20.784 100H24.3978L26.0145 99.5246L27.0606 98.4785L27.5361 97.6225L27.8214 96.7666L28.1067 94.3891L28.2018 92.6773L28.2969 89.5389L28.2018 89.2536L28.2969 88.3026L28.2018 87.5418V86.5907H26.6802L25.9194 86.4956L25.539 86.5907L24.9684 86.4956H24.0174L22.9713 86.4005H20.784L19.4526 86.3054H19.2624H18.1212L17.3604 86.2103V86.4005H17.1702V86.2103L15.5535 86.1152Z" fill="#23241C"/>
<path d="M53.1276 86.2109H49.4187L49.1334 86.306H47.3265L44.7588 86.4011H43.8078L41.9058 86.4962H40.9548L40.0038 86.5913L39.9087 87.4473V92.0121L40.0038 94.3897L40.0989 95.2456L40.2891 95.9113L40.5744 97.528L41.145 98.4791L41.9058 99.2399L42.7617 99.6203L43.6176 99.8105L44.5686 99.9056H46.9461L48.3726 99.7154L49.6089 99.4301L50.655 98.6693L51.3207 97.7182L51.7011 96.6721L52.1766 94.1995L52.3668 93.2485L52.7472 90.5856L52.8423 89.6346L52.9374 89.4444L53.2227 86.8766V86.306L53.1276 86.2109Z" fill="#23241C"/>
<path d="M26.0225 9.03809L25.7109 9.14258L25.2949 9.03809H23.6338L20.415 9.14258H19.1172L18.8574 9.24609H18.1309L17.8711 9.34961H16.7803L16.3652 9.50586L15.6387 9.71289H15.4307L15.1191 9.81738H13.9766L13.7178 9.9209H13.458L13.1465 10.1289L12.9385 10.3887H12.5234L11.4844 10.4922L11.1729 10.5957L10.6025 10.6475L10.1348 10.752L9.61523 10.9072H9.09668L8.57715 11.1152L8.21387 11.4268L7.85059 11.582L7.53906 11.8418L7.12402 12.0498H6.70801L6.18945 12.3613H5.87793L5.46191 12.4648L5.25488 12.5693H4.94336L4.89062 12.6211L4.63184 13.0879L4.42383 13.1924L4.21582 13.8154H4.00879L3.17773 15.4766L2.86621 16.6191L2.7627 17.0342L2.45117 18.4883L2.34668 20.2529L2.24316 21.084V41.0215L2.13965 42.0596L2.24316 42.8906L2.13965 43.6172L2.24316 43.7217L2.13965 45.5908V46.7324L2.08691 46.7842L2.13965 46.8369V49.2246L2.24316 50.0557L2.13965 50.8867V51.8213L2.24316 52.0283V52.6514L2.19141 52.9111V53.0146L2.13965 53.1709V53.6904L2.24316 55.1436V56.2861L2.13965 57.2207V57.6357L2.03516 57.9473L2.13965 57.8955V58.7266L2.24316 58.8301V59.4014L2.34668 59.6094V59.7129L2.24316 60.2324V65.8389L2.34668 66.0469V67.3965L2.24316 67.6045V68.2275L2.34668 68.4355V69.5771L2.45117 70.3047L2.34668 70.6162L2.55469 72.2773V73.1084L2.6582 74.1465V74.873H2.86621L2.7627 75.1846L3.17773 78.6113L3.28125 79.3389V79.4355C3.46416 79.5531 3.58784 79.7675 3.58789 80.0146C3.58789 80.0724 3.57901 80.1281 3.56641 80.1816C4.1614 80.4982 4.63239 80.9692 4.89941 81.5322C4.94577 81.5237 4.99334 81.5186 5.04199 81.5186C5.50078 81.5186 5.87305 81.9139 5.87305 82.4014C5.87303 82.4917 5.86067 82.579 5.83691 82.6611H5.98047V82.7832C6.09691 82.8283 6.17969 82.9409 6.17969 83.0732C6.17969 83.0835 6.1787 83.0935 6.17773 83.1035C6.36047 83.1555 6.51873 83.2753 6.63086 83.4375C6.69711 83.4055 6.77279 83.3857 6.85352 83.3857C7.11124 83.386 7.32012 83.5717 7.32031 83.8008C7.32031 83.8706 7.29886 83.9354 7.26465 83.9932C7.64145 84.172 7.97293 84.4687 8.22852 84.8506C8.25548 84.8451 8.28358 84.8408 8.3125 84.8408C8.51309 84.8409 8.67576 84.9804 8.67578 85.1523C8.67578 85.1977 8.66385 85.2405 8.64355 85.2793L8.88867 85.3613H9.4082L9.51172 85.5693L9.71973 85.4648L9.82324 85.6729L11.0693 85.8809L13.3535 86.1924L14.4961 86.2959H15.4307L16.1572 86.3994H17.1963L17.7148 86.5039H17.9229L18.0264 86.6074L18.1309 86.1924L18.2344 86.5039L18.0264 86.6074L18.7539 86.7109L19.2725 86.9189L19.8955 87.0225L20.3076 87.126H21.167L21.3467 87.0459V86.8662H22.6895L22.6992 86.7891L23.0107 86.7109L25.1914 86.8154H26.4375L26.5928 87.126H31.2139V86.7109H31.4219L31.5254 86.9189L32.2529 86.8154L32.668 86.9189H34.2256L34.4326 87.0225L34.6406 86.8154H35.3672L35.7832 86.9189V87.126H40.4561L40.5596 86.7109H41.3906L42.1172 86.8154L42.2207 86.7109H42.8438L43.1553 86.8154L43.4648 86.7705V86.6543H44.3945L44.8174 86.6074V86.6543H48.8799L48.8662 86.6074L49.6973 86.3994H50.7354L51.1514 86.5039L52.0859 86.2959L52.293 86.1924L52.3975 86.3994L53.4355 86.2959H54.0586L54.3701 86.1924H54.9932L55.7197 85.9844L57.4854 85.8809L58.835 85.5693L59.251 85.4648V85.2578H60.0811L61.1191 84.8418L61.3271 84.6348L61.7422 84.4268L62.2617 84.1152L63.4043 83.1807V82.9727H63.6113V82.5576H63.8193L64.5459 81.208L64.6504 80.6885L65.0654 79.5459L65.377 77.8848L65.4805 76.5352L65.585 76.0156V74.7695L65.6885 74.5615V72.9004L65.792 71.8623V70.2002L65.8965 69.7852V66.1504L65.792 65.1123V64.8008L65.8965 63.6582V60.0244L65.792 59.7129L65.8447 59.6611V59.5566L65.8965 59.5049V58.5703L65.792 58.2588L65.8965 57.8438V54.209L65.792 53.7939V53.2227L65.8965 53.1709V52.1846L65.8447 52.0801L65.8965 51.9248L66 51.8213H65.8965V50.6787L65.792 49.9521L65.6885 49.1211L65.8965 49.0176L65.792 48.8096V47.7715L65.6885 47.3555H65.792L65.6885 47.2002V43.7217L65.585 42.6826V42.2676L65.377 20.4609V19.7344H65.1689L65.2734 19.1113L65.1689 18.3838V17.6572L64.9619 16.9307L64.5459 15.373L64.1309 14.4385L63.7158 13.7109L63.4043 13.1924L63.3525 13.1396H63.1445V13.0879H63.041L62.9883 13.1396L62.8848 13.0879L62.7812 12.9844L62.5732 12.8809L62.3652 12.5693L61.7422 12.0498L61.2754 11.6348H60.9121L60.2891 11.4785L57.7451 10.9072L57.2773 10.8037L57.0703 10.6475H56.4473L56.291 10.5439H55.876L55.7197 10.4922L55.5127 10.4404L55.1484 10.3887H54.8369L54.3701 10.3359L53.4355 10.1289L53.1758 10.0244H52.6572V9.9209H52.3975L52.1895 9.86914L51.9297 9.76562H50.8916L50.4766 9.66113L49.749 9.50586L49.3857 9.4541H48.3994L48.1914 9.40137H48.0361L47.9316 9.29785H47.7246L45.8555 9.14258H44.0898L43.6748 9.03809H43.2598L42.3252 9.24609L42.2207 9.03809L41.9092 9.14258L41.7021 9.03809L40.7676 9.14258L39.833 9.03809L39.3135 9.14258L38.8984 9.03809L36.3018 8.93457H29.3447L26.0225 9.03809ZM38.5869 12.0498L39.1055 11.9463V12.1533L39.7285 12.0498L41.3906 12.1533H43.5713L44.6094 12.3613L44.7129 12.1533H45.4404L47.2051 12.3613H48.7627L49.1777 12.4648H49.9053L50.4238 12.5693L52.1895 12.6729L54.0586 12.8809L55.7197 13.0879L56.4473 13.2959H57.0703V13.5039H57.7969L59.043 13.8154L59.9775 14.334V14.542L60.2891 14.4385L60.4961 14.8535L60.9121 15.0615L61.0156 15.373L61.4307 15.5801L61.7422 16.0996L62.0537 16.7227L62.4697 18.5918V19.2148L62.5732 19.3184V19.8379L62.4697 20.0459L62.6768 20.6689V40.71L62.7812 41.0215V42.3711L62.8848 42.8906L62.9883 43.9287L62.8848 44.4482L62.9883 45.7979V46.8369H62.8848L62.7812 47.46L62.9883 47.9785L63.0928 48.29V49.6406L63.1963 50.0557L63.0928 50.8867V54.3135L63.1963 55.248L63.0928 55.3516L63.1963 56.2861L63.1025 56.7578L63.0928 56.9092L63.1133 57.1689L63.0928 57.584L62.9883 57.8955L62.8848 58.1553V58.2588L62.7812 58.5703L63.1963 58.8818V60.959L63.2998 61.374L63.1963 62.1006V65.3203L63.0928 68.4355V69.8887L62.9883 73.2119V73.835L62.8848 74.458V75.9121L62.6768 77.2617V77.7812L62.4697 78.2998L62.3652 79.1309L61.9502 80.0654L61.3271 81.3115L60.8076 81.623H60.3926L60.2891 81.9346L59.5615 82.3496L58.6279 82.5576L57.4854 82.8691L56.2393 83.0771L55.8242 83.1807L54.8896 83.2842L53.8506 83.3887L53.5391 83.4922H51.8779L51.2549 83.5957H50.2168L49.1777 83.8037L48.6592 83.7002L47.4131 83.8037H44.8174L43.5713 83.9072V83.7002L42.6367 83.9072L41.8057 84.0117L40.1445 83.9072L39.625 84.0117H38.2754L37.6523 83.9072L36.3018 84.0117H34.1211L33.6025 83.9072L33.499 84.0117H31.3184L30.7988 84.1152H30.5908V83.9072L29.9678 84.0117H28.7217L28.4102 83.8037V84.0117H26.4375L26.126 83.9072H24.6719L23.7373 84.0117H23.4258V83.8037L22.8027 83.9072L20.9336 83.8037H19.8955L19.2725 83.7002H17.2998L15.8457 83.4922H14.5996L14.1846 83.3887H13.5615L13.042 83.2842L12.1074 83.1807L9.2002 82.4541L7.85059 81.7266L7.01953 80.8965V80.6885H6.8125L6.29297 79.5459L5.98145 78.5078L6.08496 78.1963H5.87793L5.66992 77.0537L5.56641 76.1191L5.46191 75.0811L5.25488 73.7314L5.3584 72.2773L5.25488 71.9658V70.8232L5.3584 70.6162L5.15039 70.5117V69.2656L5.04688 68.124V58.5703L4.99512 58.415L5.04688 58.3633L4.99512 58.3105V58.2588L4.94336 58.207V57.0127L4.89062 56.7529L4.94336 56.1826L5.04688 54.7285L4.94336 54.209L5.04688 53.5859L4.99512 53.4307V53.1709L4.94336 52.9111V46.5254L4.83887 44.7598L4.94336 42.8906L5.04688 42.7871L4.94336 41.8525L5.04688 40.3984L5.15039 20.6689L5.46191 18.1768L5.98145 16.6191L6.50098 15.5801L6.91602 15.165H7.12402L7.33105 14.75L8.05762 14.334L8.36914 14.0225L9.09668 13.9189V13.7109L10.4463 13.2959H10.9658L11.6924 13.0879H12.2119L12.5234 12.9844L14.2881 12.7764L15.6387 12.6729L16.3652 12.5693L16.5732 12.3613L16.9883 12.4648L18.1309 12.3613H18.8574L19.377 12.2578H20.1035L20.6221 12.1533H21.6611L23.4258 12.0498L23.9453 12.1533L24.0488 11.9463L24.9834 12.0498L25.3994 11.9463L25.8145 12.0498L26.749 11.9463L27.4756 12.0498L28.9297 11.9463H33.6025L34.5371 12.1533L34.6406 11.9463H37.8594L38.5869 12.0498ZM63.1025 56.7529V56.7568L63.1133 56.7012L63.1025 56.7529Z" fill="#23241C"/>
<path d="M52.0391 35.9854H57.6126" stroke="black" stroke-width="2.25" stroke-linecap="round"/>
<path d="M52.0391 41.25H57.6126" stroke="black" stroke-width="2.25" stroke-linecap="round"/>
<path d="M52 41.2504L57.5736 35.9854" stroke="black" stroke-width="2.25" stroke-linecap="round"/>
<path d="M70.0371 12H80.8746" stroke="black" stroke-width="3.75" stroke-linecap="round"/>
<path d="M70.0371 22.2383H80.8746" stroke="black" stroke-width="3.75" stroke-linecap="round"/>
<path d="M69.959 22.2375L80.7965 12" stroke="black" stroke-width="3.75" stroke-linecap="round"/>
<path d="M61.9766 27.7959H71.507" stroke="black" stroke-width="3" stroke-linecap="round"/>
<path d="M61.9766 36.7988H71.507" stroke="black" stroke-width="3" stroke-linecap="round"/>
<path d="M61.9082 36.7988L71.4387 27.7959" stroke="black" stroke-width="3" stroke-linecap="round"/>
<path d="M14.1289 51C16.3838 53.6096 21.3838 53.7231 24.1289 51" stroke="white" stroke-width="2.5" stroke-linecap="round"/>
<path d="M15.8242 52.2896C14.7416 52.1608 13.4592 53.1986 13.3044 54.4185" stroke="white" stroke-width="2.2" stroke-linecap="round"/>
<path d="M19.1295 53.0676C18.0253 52.7993 16.5322 53.6057 16.1816 54.737" stroke="white" stroke-width="2.2" stroke-linecap="round"/>
<path d="M54.1289 51C51.874 53.6096 46.874 53.7231 44.1289 51" stroke="white" stroke-width="2.5" stroke-linecap="round"/>
<path d="M52.4337 52.2896C53.5163 52.1608 54.7986 53.1986 54.9534 54.4185" stroke="white" stroke-width="2.2" stroke-linecap="round"/>
<path d="M49.1283 53.0676C50.2325 52.7993 51.7256 53.6057 52.0762 54.737" stroke="white" stroke-width="2.2" stroke-linecap="round"/>
</svg>
