<svg width="81" height="100" viewBox="0 0 81 100" fill="none" xmlns="http://www.w3.org/2000/svg">
<path d="M55.5536 0.105469H54.4114L54.3076 0.20931L53.6845 0.105469H53.373L52.127 0.31315L51.8154 0.416991L51.0886 0.520832L50.9847 0.728514L50.4655 0.832354L49.8425 1.24772L49.6348 1.14388V1.35156H49.4272V1.55924L48.908 1.66308L48.4926 1.87076L48.0773 2.38997L47.7657 2.49381L47.3504 3.01301V3.22069H47.1427V3.42838L46.8312 3.53222V3.7399H46.6235L46.2082 4.57062L46.0005 4.46678L45.8966 4.88215L45.5851 5.81671H45.7928V6.0244H45.5851V6.33592L45.3775 6.43976V6.75128L45.2736 7.68585L45.1698 7.89353H45.3775L45.2736 8.8281V9.55498L45.3775 9.86651V10.9049L45.5851 11.3203L46.2082 11.528H46.8312L47.2465 11.6318L47.6619 11.528L48.4926 11.6318L49.1156 11.528H49.4272V11.7356H49.8425H50.4655H50.7771H51.6078H51.9193L52.4385 11.8395H52.75L53.6845 11.9433H53.9961L54.5152 12.0472L55.2421 12.151L55.4498 12.0472V12.2548L55.8651 12.151L55.969 12.2548L57.6304 12.4625L57.9419 12.6702L58.5649 12.8779V12.6702H58.7726L58.8765 12.8779L60.0187 13.1894L60.434 13.6048L61.1609 13.8125L61.2648 14.124H61.5763H61.8878L61.9916 14.5393L62.407 14.8509H62.6147V15.0585L63.1338 14.8509L63.9646 14.0201L64.2761 13.0856H64.4837L64.5876 12.3587L64.8991 12.2548L65.0029 11.6318L64.8991 11.4241H65.1068V10.6972L65.3145 10.178V9.76266V9.3473V8.8281V8.51657L65.1068 8.41273L65.0029 7.58201L64.8991 7.0628L64.7953 6.75128H64.5876L64.4837 6.0244H64.2761L64.0684 5.40135L63.653 4.67446L63.3415 4.15526L63.03 3.84374H62.8223V3.63606L62.407 3.22069H62.1993V2.90917L61.7839 2.59765L61.1609 2.38997L61.0571 2.07844L60.5379 1.9746L60.434 1.66308L59.811 1.55924L59.7072 1.35156L59.188 1.04004V1.24772H58.9803L58.8765 1.04004H58.6688L58.4611 0.832354H58.1496L57.7342 0.624673L56.6959 0.416991L56.592 0.20931H56.3843L56.2805 0.416991L55.7613 0.31315H55.5536V0.105469Z" fill="#020617"/>
<path d="M11.2154 0L10.2808 0.207682L9.76165 0.103841L8.93094 0.207682H8.61942L7.99639 0.311522L7.58104 0.415363L7.16568 0.623045H6.85417L6.64649 0.830727L6.43881 0.726886V0.934567L5.71194 1.14225L5.50427 1.34993L4.2582 1.76529L3.73901 2.2845V2.49218L3.01214 2.59602L2.9083 3.01138L2.70063 3.11522L2.18143 3.63443L1.86992 4.15363L1.35073 4.88052L1.14305 4.98436V5.19204L0.935371 5.39972L0.831533 5.81509L0.623856 6.02277L0.520018 6.54197L0.208502 7.47654L0.000823975 8.30727V10.1764L0.208502 11.4225L0.520018 12.2532L0.935371 13.2916L1.14305 13.3955V13.6031H1.35073L1.5584 14.2262L1.86992 14.5377L1.97376 14.8492L2.49295 15.2646L2.59679 15.0569L3.11598 14.9531L3.21982 14.5377L3.53133 14.4339L3.94669 14.2262L4.2582 14.1224L4.56972 13.8108L5.19275 13.6031L5.60811 13.3955V13.1878L6.75033 12.9801L7.26952 12.6686H7.89255L8.41175 12.3571L9.76165 12.2532L9.96932 12.0455L10.5924 12.1494L11.0077 12.0455L11.2154 12.1494L11.5269 11.9417H11.8384H12.3576L12.5653 11.734L13.0845 11.8379L13.9152 11.734H15.0574L15.4728 11.8379V11.6302H15.6804V11.8379L16.1996 11.6302L17.0303 11.734L17.8611 11.5263L18.1726 11.6302L18.5879 11.5263H19.3148L19.4186 11.111H19.6263V10.9033L19.834 10.7994V10.4879L19.6263 10.3841L19.834 9.96872V9.03415L19.7301 8.30727L19.834 8.09958L19.6263 7.06118L19.5225 6.64581V6.33429L19.3148 5.91893H19.1071L19.211 5.6074L18.8994 5.50356L18.7956 4.77668L18.3802 4.36131L18.1726 3.73827L17.6534 3.32291L17.4457 3.01138H17.238V2.8037L16.4073 2.07682L15.992 1.86913L15.6804 1.55761L14.4344 0.934567L14.2267 0.726886L13.396 0.623045L12.1499 0.207682L11.7346 0.103841L11.2154 0Z" fill="#020617"/>
<path d="M19.3533 66.1211L18.6991 66.2663L18.481 66.6293L18.2629 66.7745L18.1902 67.1374L18.0448 67.21L17.6814 67.7182V67.8634H17.536L17.4633 68.5167L17.2452 68.5893L17.1726 69.0975L17.0999 69.2427L17.0272 69.896L16.9545 70.259L17.0272 70.4042L16.8818 70.4768L16.9545 70.622L16.8818 71.3479L17.0272 71.6383L16.9545 72.0013L17.0272 72.5095H17.2452L17.1726 72.7999L17.3179 73.0902L17.4633 73.8888L17.6087 73.9614L17.6814 74.3243H17.8268L17.7541 74.5421L17.9722 74.6873L18.0448 74.9051H18.1902V75.1955L18.4083 75.2681L18.9171 75.9214L19.2806 76.2118L19.3533 76.357L19.7167 76.5748L19.7894 76.72H19.9348L20.0075 76.8652L20.371 76.9378L20.4437 77.1556L20.8798 77.3008H21.0979L21.1706 77.5185L21.4613 77.4459V77.5911H21.6794L21.7521 77.7363L21.9702 77.8089L22.1156 77.7363L22.1882 77.8815L22.479 77.9541L22.9878 78.0993L23.7148 78.1719V78.3171L24.369 78.3897L24.6597 78.4623H24.9505H25.6774H25.9682H26.1863L26.2589 78.3171H26.4043V78.4623L26.6951 78.3171L26.7678 78.3897L27.2766 78.1719L28.0035 78.0267V77.8815H28.1489V77.7363H28.367V77.5185L28.4397 77.6637H28.5851V77.4459H28.7304V77.3008H28.9485L29.0939 77.0104L29.2393 76.9378V76.7926H29.3847V76.6474L29.53 76.5748L29.7481 75.9214L29.53 75.7763L29.3847 75.8488V75.7037H28.8758L28.7304 75.7763L28.6578 75.5585L28.1489 75.4859L28.0762 75.5585L27.7855 75.4859L27.9308 75.3407H29.0212V75.1955L29.2393 75.2681V75.1229H29.3847L29.4574 75.2681L29.9662 75.1229L30.3297 74.6873L30.4023 74.1792L30.3297 73.5258L29.9662 73.1628H29.8208L29.7481 73.0176H29.0939L28.367 72.945H28.1489L27.7855 72.7999L27.8582 72.7273H28.5124L29.0212 72.6547L29.6027 72.5821L29.7481 72.6547L29.8935 72.4369L29.8208 72.2191L29.3847 71.3479L29.0212 71.2028L28.9485 70.9124L28.2943 70.4768L27.9308 70.4042L27.6401 70.1138H27.2766L27.0585 69.896L26.6951 69.9686L26.2589 69.8234H25.9682L25.8228 69.6783H25.532V69.8234L25.0232 69.7509L24.587 69.6057L23.5694 69.3879L22.9878 69.0975H22.8425L22.7698 68.9523L22.6971 69.0249L22.5517 68.8071H22.4063L21.6794 68.2989L21.534 68.1538L21.3886 67.936L21.0252 67.7908L20.9525 67.5004H20.8071L20.7344 67.1374L20.4437 66.9922V66.847L19.9348 66.4115H19.7894L19.7167 66.2663L19.3533 66.1211Z" fill="#020617"/>
<path d="M34.3142 55.4082L33.9518 55.4809H32.7197H32.5022L31.7774 55.6264L31.705 55.4809L30.8352 55.7719L30.3279 56.1356L30.2554 56.2811H30.1104L30.0379 56.572L29.893 57.0812L30.1104 57.6631L30.0379 57.8086H30.2554L30.3279 58.3178L30.6178 58.6087L30.9077 58.8269L30.9802 58.9724L31.2701 59.1179L31.4875 59.3361L32.1398 59.5543H32.3573L32.5022 60.2817L32.3573 60.3545L32.4298 60.6454L32.3573 60.9364V61.1546L32.4298 61.3728L32.3573 61.591V61.8093L32.2848 62.2457L31.8499 62.6094L31.7774 62.4639L31.705 62.6094L31.1251 62.6821L30.3279 62.6094L29.8205 62.4639V62.3184L29.3131 62.1002V61.9547H29.1682L29.0232 61.591L28.9507 61.4456H28.8058L28.7333 61.3001L28.4434 61.1546L27.936 61.3001L27.5736 61.7365L27.5012 62.1002H27.6461L27.5736 62.3184L27.7911 62.8276L28.0085 63.0458L28.1535 63.264L28.3709 63.3368L28.4434 63.555L28.5883 63.4823V63.7005L28.9507 63.9187L29.0957 64.0642L29.748 64.2824L30.4003 64.4279L31.1251 64.5733V64.5006L32.0674 64.3551L32.7197 64.1369L32.9371 63.9187V63.7732H33.0821V63.6277H33.372L33.4445 63.846L33.6619 63.9187L33.7344 64.0642H33.9518V64.2096L34.6041 64.2824L34.8941 64.4279L35.184 64.5006L35.3289 64.4279L35.4014 64.5733L35.7638 64.5006H36.0537V64.3551L36.4161 64.4279H36.6336V64.2824L36.996 64.2096L37.4308 64.0642L37.7208 63.9187V63.7732L37.8657 63.7005L38.0832 63.6277L38.1556 63.4823H38.3731L38.663 62.9731L38.8804 62.6094L39.0254 62.0275L38.9529 61.591L38.7355 61.3728H38.5905L38.518 61.2273H37.9382L37.5758 61.4456L37.4308 61.8093L37.2134 62.0275V62.2457H36.9235L36.851 62.5366L35.9088 62.6094L35.2565 62.6821L34.8216 62.5366V62.4639L34.3867 62.3912L34.1693 62.0275V61.6638L34.0243 61.3001L34.1693 61.2273L34.0968 60.9364V60.3545L34.1693 60.0635V59.7726L34.2417 59.5543L34.8941 59.3361L34.9665 59.1906H35.184V59.0452H35.3289V58.8997L35.6189 58.8269V58.6815H35.7638L35.9813 58.4633L36.0537 58.1723L36.1987 58.0996L36.3437 57.5176L36.4886 57.3722L36.4161 57.2267L36.4886 56.6448L36.2712 56.3538H36.1262L36.0537 55.9901L35.7638 55.8446L35.1115 55.6264L35.039 55.4809L34.3867 55.5537L34.3142 55.4082Z" fill="#020617"/>
<path d="M48.5656 42.5762H36.2273L35.8938 42.6595L34.7267 42.5762L34.3932 42.6595L34.2265 42.5762H18.7202L17.3029 42.6595L16.1358 42.8263L14.8853 43.0764L13.1346 43.8267L12.0508 44.577L11.5506 45.1606L11.1337 45.5775L10.6335 46.4111L10.2167 47.6617L9.96661 49.079L9.71651 51.6634V54.1645L9.79987 54.9148L10.3001 56.5822L11.0504 57.9161L11.8007 58.7498L12.8011 59.5001L14.0516 60.167L15.7189 60.5839L17.3029 60.7506L18.8869 60.6672L20.721 60.3338L21.5546 60.0003L22.8885 59.3333L23.8889 58.4163L24.5559 57.5826L25.0561 56.8323L25.5563 55.9152L25.9731 55.2483L26.5567 54.4979L27.3904 53.831L28.8076 53.0807L30.3916 52.5805L31.4753 52.4137L32.0589 52.3303H34.2265L35.8104 52.4971L37.5612 52.9973L39.1451 53.7476L39.4786 53.9144V54.0811L39.8954 54.2478V54.4146L40.479 54.9148L40.6457 55.2483H40.8125L40.9792 55.6651L41.8129 57.2491L42.3131 57.9161L42.3965 58.1662L42.98 58.6664L43.3969 59.0832L44.0638 59.6668L45.481 60.2504L46.5648 60.5839L47.8987 60.7506H49.6494L51.7336 60.4171L53.0675 59.9169L54.1512 59.3333L54.9849 58.583L55.6518 57.8327L55.9019 57.5826L56.3188 56.6655L56.7356 55.0815L56.9023 53.7476V51.4133L56.819 50.1628L56.6522 48.7455L56.4021 47.4949L55.9853 46.4111L55.4851 45.4941L55.0683 44.9105L54.4013 44.3269L53.4009 43.66L52.734 43.3265L51.0666 42.9096L49.8995 42.7429L48.8157 42.6595L48.5656 42.5762Z" fill="#020617"/>
<path d="M20.3041 47.4951H19.3037L18.3033 47.7452L17.6363 48.1621V48.3288L17.2195 48.4955L16.6359 49.2459L16.2191 50.2463L15.969 51.3301V52.3305L16.2191 53.5811L16.7193 54.5815L17.3029 55.2484L17.8864 55.6653L18.5534 55.9154L19.3037 56.0821L20.6376 55.9988L21.4712 55.6653L22.3049 54.9983L22.555 54.6649V54.4981H22.7217L23.0552 53.9145L23.3053 52.8307L23.3887 51.5802L23.2219 50.413L22.8885 49.496L22.4716 48.829L21.8047 48.0787L21.3879 47.8286L20.8043 47.5785L20.3041 47.4951Z" fill="#FEFDF9"/>
<path d="M47.6511 47.4951H46.5674L45.5669 47.7452L44.6499 48.3288L43.983 49.0791L43.5661 49.9128L43.3994 50.4964L43.2327 52.1638L43.5661 53.7478L44.1497 54.6649L44.9834 55.4985H45.1501V55.6653L46.0671 55.9988L46.9008 56.0821L47.6511 55.9988L48.4848 55.7486L49.3185 55.2484V55.0817L49.6519 54.9983L50.0688 54.4147L50.4856 53.4143L50.6523 52.664V51.4968L50.4856 50.413L50.1521 49.4126L49.902 49.0791L49.7353 48.829H49.5686L49.4018 48.4955L48.7349 47.912L47.9846 47.5785L47.6511 47.4951Z" fill="#FEFDF9"/>
<path d="M20.0542 49.9971L19.3872 50.0804L18.8037 50.5807L18.5536 51.1642L18.4702 52.0813L18.7203 52.9984L19.1371 53.4986L19.6373 53.7487L20.3876 53.6653L20.9712 53.1651L21.3047 52.3314V51.331L20.8879 50.4973L20.3876 50.0804L20.0542 49.9971Z" fill="#020617"/>
<path d="M47.1441 50.0771H46.3105L45.5601 50.6607L45.31 51.3277V52.3281L45.4768 52.8283L45.977 53.4953L46.3938 53.7454H47.0608L47.561 53.4119L47.8944 52.9951L48.1445 52.078L48.0612 50.9942L47.7277 50.494L47.1441 50.0771Z" fill="#27251C"/>
<path d="M14.8758 86.1152H14.115V87.1614L14.4954 90.1095L14.5905 90.4899L14.6856 91.8213L14.9709 92.9626L15.066 93.8185L15.4464 95.7205L15.8268 97.147L16.1121 97.8127L16.6827 98.6687L17.1582 99.1442L18.1092 99.6197L20.1063 100H23.7201L25.3367 99.5246L26.3828 98.4785L26.8583 97.6225L27.1436 96.7666L27.4289 94.3891L27.524 92.6773L27.6191 89.5389L27.524 89.2536L27.6191 88.3026L27.524 87.5418V86.5907H26.0024L25.2416 86.4956L24.8613 86.5907L24.2907 86.4956H23.3397L22.2936 86.4005H20.1063L18.7749 86.3054H18.5847H17.4435L16.6827 86.2103V86.4005H16.4925V86.2103L14.8758 86.1152Z" fill="#23241C"/>
<path d="M52.4498 86.2109H48.7409L48.4556 86.306H46.6487L44.0811 86.4011H43.1301L41.2281 86.4962H40.2771L39.3261 86.5913L39.231 87.4473V92.0121L39.3261 94.3897L39.4212 95.2456L39.6114 95.9113L39.8967 97.528L40.4673 98.4791L41.2281 99.2399L42.084 99.6203L42.9399 99.8105L43.8909 99.9056H46.2683L47.6948 99.7154L48.9311 99.4301L49.9772 98.6693L50.6429 97.7182L51.0233 96.6721L51.4988 94.1995L51.689 93.2485L52.0694 90.5856L52.1645 89.6346L52.2596 89.4444L52.5449 86.8766V86.306L52.4498 86.2109Z" fill="#23241C"/>
<path d="M25.3447 9.03809L25.0332 9.14258L24.6172 9.03809H22.9561L19.7373 9.14258H18.4395L18.1797 9.24609H17.4531L17.1934 9.34961H16.1025L15.6875 9.50586L14.9609 9.71289H14.7529L14.4414 9.81738H13.2988L13.04 9.9209H12.7803L12.4688 10.1289L12.2607 10.3887H11.8457L10.8066 10.4922L10.4951 10.5957L9.9248 10.6475L9.45703 10.752L8.9375 10.9072H8.41895L7.89941 11.1152L7.53613 11.4268L7.17285 11.582L6.86133 11.8418L6.44629 12.0498H6.03027L5.51172 12.3613H5.2002L4.78418 12.4648L4.57715 12.5693H4.26562L4.21289 12.6211L3.9541 13.0879L3.74609 13.1924L3.53809 13.8154H3.33105L2.5 15.4766L2.18848 16.6191L2.08496 17.0342L1.77344 18.4883L1.66895 20.2529L1.56543 21.084V41.0215L1.46191 42.0596L1.56543 42.8906L1.46191 43.6172L1.56543 43.7217L1.46191 45.5908V46.7324L1.40918 46.7842L1.46191 46.8369V49.2246L1.56543 50.0557L1.46191 50.8867V51.8213L1.56543 52.0283V52.6514L1.51367 52.9111V53.0146L1.46191 53.1709V53.6904L1.56543 55.1436V56.2861L1.46191 57.2207V57.6357L1.35742 57.9473L1.46191 57.8955V58.7266L1.56543 58.8301V59.4014L1.66895 59.6094V59.7129L1.56543 60.2324V65.8389L1.66895 66.0469V67.3965L1.56543 67.6045V68.2275L1.66895 68.4355V69.5771L1.77344 70.3047L1.66895 70.6162L1.87695 72.2773V73.1084L1.98047 74.1465V74.873H2.18848L2.08496 75.1846L2.5 78.6113L2.60352 79.3389V79.4355C2.78643 79.5531 2.9101 79.7675 2.91016 80.0146C2.91016 80.0724 2.90127 80.1281 2.88867 80.1816C3.48367 80.4982 3.95465 80.9692 4.22168 81.5322C4.26804 81.5237 4.3156 81.5186 4.36426 81.5186C4.82304 81.5186 5.19531 81.9139 5.19531 82.4014C5.1953 82.4917 5.18294 82.579 5.15918 82.6611H5.30273V82.7832C5.41917 82.8283 5.50195 82.9409 5.50195 83.0732C5.50195 83.0835 5.50097 83.0935 5.5 83.1035C5.68273 83.1555 5.841 83.2753 5.95312 83.4375C6.01938 83.4055 6.09506 83.3857 6.17578 83.3857C6.43351 83.386 6.64238 83.5717 6.64258 83.8008C6.64258 83.8706 6.62112 83.9354 6.58691 83.9932C6.96371 84.172 7.29519 84.4687 7.55078 84.8506C7.57775 84.8451 7.60585 84.8408 7.63477 84.8408C7.83536 84.8409 7.99802 84.9804 7.99805 85.1523C7.99805 85.1977 7.98611 85.2405 7.96582 85.2793L8.21094 85.3613H8.73047L8.83398 85.5693L9.04199 85.4648L9.14551 85.6729L10.3916 85.8809L12.6758 86.1924L13.8184 86.2959H14.7529L15.4795 86.3994H16.5186L17.0371 86.5039H17.2451L17.3486 86.6074L17.4531 86.1924L17.5566 86.5039L17.3486 86.6074L18.0762 86.7109L18.5947 86.9189L19.2178 87.0225L19.6299 87.126H20.4893L20.6689 87.0459V86.8662H22.0117L22.0215 86.7891L22.333 86.7109L24.5137 86.8154H25.7598L25.915 87.126H30.5361V86.7109H30.7441L30.8477 86.9189L31.5752 86.8154L31.9902 86.9189H33.5479L33.7549 87.0225L33.9629 86.8154H34.6895L35.1055 86.9189V87.126H39.7783L39.8818 86.7109H40.7129L41.4395 86.8154L41.543 86.7109H42.166L42.4775 86.8154L42.7871 86.7705V86.6543H43.7168L44.1396 86.6074V86.6543H48.2021L48.1885 86.6074L49.0195 86.3994H50.0576L50.4736 86.5039L51.4082 86.2959L51.6152 86.1924L51.7197 86.3994L52.7578 86.2959H53.3809L53.6924 86.1924H54.3154L55.042 85.9844L56.8076 85.8809L58.1572 85.5693L58.5732 85.4648V85.2578H59.4033L60.4414 84.8418L60.6494 84.6348L61.0645 84.4268L61.584 84.1152L62.7266 83.1807V82.9727H62.9336V82.5576H63.1416L63.8682 81.208L63.9727 80.6885L64.3877 79.5459L64.6992 77.8848L64.8027 76.5352L64.9072 76.0156V74.7695L65.0107 74.5615V72.9004L65.1143 71.8623V70.2002L65.2188 69.7852V66.1504L65.1143 65.1123V64.8008L65.2188 63.6582V60.0244L65.1143 59.7129L65.167 59.6611V59.5566L65.2188 59.5049V58.5703L65.1143 58.2588L65.2188 57.8438V54.209L65.1143 53.7939V53.2227L65.2188 53.1709V52.1846L65.167 52.0801L65.2188 51.9248L65.3223 51.8213H65.2188V50.6787L65.1143 49.9521L65.0107 49.1211L65.2188 49.0176L65.1143 48.8096V47.7715L65.0107 47.3555H65.1143L65.0107 47.2002V43.7217L64.9072 42.6826V42.2676L64.6992 20.4609V19.7344H64.4912L64.5957 19.1113L64.4912 18.3838V17.6572L64.2842 16.9307L63.8682 15.373L63.4531 14.4385L63.0381 13.7109L62.7266 13.1924L62.6748 13.1396H62.4668V13.0879H62.3633L62.3105 13.1396L62.207 13.0879L62.1035 12.9844L61.8955 12.8809L61.6875 12.5693L61.0645 12.0498L60.5977 11.6348H60.2344L59.6113 11.4785L57.0674 10.9072L56.5996 10.8037L56.3926 10.6475H55.7695L55.6133 10.5439H55.1982L55.042 10.4922L54.835 10.4404L54.4707 10.3887H54.1592L53.6924 10.3359L52.7578 10.1289L52.498 10.0244H51.9795V9.9209H51.7197L51.5117 9.86914L51.252 9.76562H50.2139L49.7988 9.66113L49.0713 9.50586L48.708 9.4541H47.7217L47.5137 9.40137H47.3584L47.2539 9.29785H47.0469L45.1777 9.14258H43.4121L42.9971 9.03809H42.582L41.6475 9.24609L41.543 9.03809L41.2314 9.14258L41.0244 9.03809L40.0898 9.14258L39.1553 9.03809L38.6357 9.14258L38.2207 9.03809L35.624 8.93457H28.667L25.3447 9.03809ZM37.9092 12.0498L38.4277 11.9463V12.1533L39.0508 12.0498L40.7129 12.1533H42.8936L43.9316 12.3613L44.0352 12.1533H44.7627L46.5273 12.3613H48.085L48.5 12.4648H49.2275L49.7461 12.5693L51.5117 12.6729L53.3809 12.8809L55.042 13.0879L55.7695 13.2959H56.3926V13.5039H57.1191L58.3652 13.8154L59.2998 14.334V14.542L59.6113 14.4385L59.8184 14.8535L60.2344 15.0615L60.3379 15.373L60.7529 15.5801L61.0645 16.0996L61.376 16.7227L61.792 18.5918V19.2148L61.8955 19.3184V19.8379L61.792 20.0459L61.999 20.6689V40.71L62.1035 41.0215V42.3711L62.207 42.8906L62.3105 43.9287L62.207 44.4482L62.3105 45.7979V46.8369H62.207L62.1035 47.46L62.3105 47.9785L62.415 48.29V49.6406L62.5186 50.0557L62.415 50.8867V54.3135L62.5186 55.248L62.415 55.3516L62.5186 56.2861L62.4248 56.7578L62.415 56.9092L62.4355 57.1689L62.415 57.584L62.3105 57.8955L62.207 58.1553V58.2588L62.1035 58.5703L62.5186 58.8818V60.959L62.6221 61.374L62.5186 62.1006V65.3203L62.415 68.4355V69.8887L62.3105 73.2119V73.835L62.207 74.458V75.9121L61.999 77.2617V77.7812L61.792 78.2998L61.6875 79.1309L61.2725 80.0654L60.6494 81.3115L60.1299 81.623H59.7148L59.6113 81.9346L58.8838 82.3496L57.9502 82.5576L56.8076 82.8691L55.5615 83.0771L55.1465 83.1807L54.2119 83.2842L53.1729 83.3887L52.8613 83.4922H51.2002L50.5771 83.5957H49.5391L48.5 83.8037L47.9814 83.7002L46.7354 83.8037H44.1396L42.8936 83.9072V83.7002L41.959 83.9072L41.1279 84.0117L39.4668 83.9072L38.9473 84.0117H37.5977L36.9746 83.9072L35.624 84.0117H33.4434L32.9248 83.9072L32.8213 84.0117H30.6406L30.1211 84.1152H29.9131V83.9072L29.29 84.0117H28.0439L27.7324 83.8037V84.0117H25.7598L25.4482 83.9072H23.9941L23.0596 84.0117H22.748V83.8037L22.125 83.9072L20.2559 83.8037H19.2178L18.5947 83.7002H16.6221L15.168 83.4922H13.9219L13.5068 83.3887H12.8838L12.3643 83.2842L11.4297 83.1807L8.52246 82.4541L7.17285 81.7266L6.3418 80.8965V80.6885H6.13477L5.61523 79.5459L5.30371 78.5078L5.40723 78.1963H5.2002L4.99219 77.0537L4.88867 76.1191L4.78418 75.0811L4.57715 73.7314L4.68066 72.2773L4.57715 71.9658V70.8232L4.68066 70.6162L4.47266 70.5117V69.2656L4.36914 68.124V58.5703L4.31738 58.415L4.36914 58.3633L4.31738 58.3105V58.2588L4.26562 58.207V57.0127L4.21289 56.7529L4.26562 56.1826L4.36914 54.7285L4.26562 54.209L4.36914 53.5859L4.31738 53.4307V53.1709L4.26562 52.9111V46.5254L4.16113 44.7598L4.26562 42.8906L4.36914 42.7871L4.26562 41.8525L4.36914 40.3984L4.47266 20.6689L4.78418 18.1768L5.30371 16.6191L5.82324 15.5801L6.23828 15.165H6.44629L6.65332 14.75L7.37988 14.334L7.69141 14.0225L8.41895 13.9189V13.7109L9.76855 13.2959H10.2881L11.0146 13.0879H11.5342L11.8457 12.9844L13.6104 12.7764L14.9609 12.6729L15.6875 12.5693L15.8955 12.3613L16.3105 12.4648L17.4531 12.3613H18.1797L18.6992 12.2578H19.4258L19.9443 12.1533H20.9834L22.748 12.0498L23.2676 12.1533L23.3711 11.9463L24.3057 12.0498L24.7217 11.9463L25.1367 12.0498L26.0713 11.9463L26.7979 12.0498L28.252 11.9463H32.9248L33.8594 12.1533L33.9629 11.9463H37.1816L37.9092 12.0498ZM62.4248 56.7529V56.7568L62.4355 56.7012L62.4248 56.7529Z" fill="#23241C"/>
<path d="M74.6198 60.1278C74.6198 60.1278 74.6065 60.1262 74.6217 60.1461C74.6929 60.1819 74.7487 60.1979 74.8046 60.2138C74.8046 60.2138 74.7956 60.2163 74.8095 60.2385C74.8803 60.275 74.9372 60.2892 74.9941 60.3034C74.9941 60.3034 74.9839 60.3062 74.9956 60.3342C75.1563 60.4064 75.3053 60.4506 75.4543 60.4948C75.4543 60.4948 75.447 60.4964 75.4594 60.5238C75.5906 60.5941 75.7094 60.637 75.8282 60.6799C75.8282 60.6799 75.8201 60.6813 75.8221 60.7079C75.9127 60.7569 76.0013 60.7792 76.0898 60.8016C78.0792 61.8436 79.1069 63.6066 79.7387 65.6668C79.7567 65.7253 79.7807 65.7819 79.7808 65.8995C79.7549 66.0662 79.7217 66.181 79.7497 66.2781C80.1082 67.5201 80.1953 68.7916 80.1993 70.076C80.2011 70.671 80.2485 71.2659 80.2752 71.8608C80.2807 71.9017 80.2863 71.9427 80.2693 72.0337C80.23 72.1661 80.2132 72.2485 80.1957 72.3677C80.1352 73.3458 80.0753 74.2872 80.0154 75.2286L80.0154 75.2289C80.0153 75.2275 80.0131 75.2226 79.9829 75.228L79.9761 75.2339C79.904 75.2964 79.8432 75.3491 79.8301 75.4117C79.6459 76.2961 79.4785 77.1841 79.2858 78.0667C79.1795 78.5535 79.0336 79.0317 78.9056 79.5138C78.9056 79.5138 78.9198 79.5118 78.8957 79.5199C78.8733 79.5807 78.8749 79.6334 78.8765 79.6861C78.0263 81.8584 76.5755 83.5142 74.5181 84.6768C74.3911 84.7162 74.3165 84.7722 74.2418 84.8283C74.2418 84.8283 74.2384 84.8208 74.2117 84.8202C74.1412 84.8556 74.0974 84.8916 74.0536 84.9276C74.0536 84.9276 74.0536 84.9163 74.0278 84.9158C73.9571 84.9504 73.9121 84.9854 73.8671 85.0204C73.8671 85.0204 73.8672 85.0092 73.8376 85.0088C73.6411 85.1041 73.4742 85.2 73.3072 85.2958L73.3071 85.2959C73.3071 85.2959 73.3064 85.2864 73.2743 85.284C73.0454 85.3761 72.8486 85.4707 72.6518 85.5653C72.6518 85.5653 72.651 85.5587 72.6209 85.5598C72.518 85.5962 72.4453 85.6315 72.3725 85.6667C72.3725 85.6667 72.3739 85.6568 72.3374 85.6549C71.4994 85.858 70.6977 86.0625 69.8971 86.2709C69.8798 86.2754 69.8738 86.3239 69.8626 86.3519C69.7078 86.3723 69.553 86.3926 69.3441 86.3899C69.4417 86.2039 69.5934 86.0409 69.7452 85.8779L69.7978 85.937L70.0369 85.3422C69.8638 85.3205 69.6969 85.2718 69.5346 85.2842C68.9039 85.3326 68.2757 85.4388 67.6448 85.4538C65.7258 85.4996 63.8063 85.5327 61.9284 85.0078C60.4317 84.5895 59.0372 84.0067 57.9502 82.8336C56.7462 81.5342 56.5514 79.4876 57.5249 78.0709C57.7967 77.6754 58.344 77.4743 58.8145 77.5488C59.6667 77.6838 60.5215 77.881 61.3779 77.8956C64.047 77.941 66.7174 77.917 69.3872 77.9088C69.7506 77.9077 70.0099 77.7161 70.0411 77.3246C70.071 76.9484 69.862 76.7168 69.5045 76.7024C68.8599 76.6764 68.2131 76.7104 67.5674 76.7008C64.8572 76.6603 62.1408 76.8623 59.439 76.5131C58.9986 76.4561 58.5092 76.4049 58.1461 76.1821C55.6493 74.6501 55.691 71.3784 57.6625 69.6939C57.9705 69.4307 58.3656 69.1537 58.7449 69.1132C59.5938 69.0226 60.4582 69.0743 61.3163 69.0732C62.9306 69.0713 64.545 69.0733 66.1593 69.0732C67.308 69.0731 68.4569 69.0607 69.6054 69.0778C70.0201 69.084 70.3498 68.9549 70.3896 68.5378C70.4294 68.1202 70.1116 67.9594 69.7201 67.9392C69.4588 67.9257 69.1986 67.8715 68.9377 67.8703L68.6987 67.8693C67.1681 67.8626 65.6375 67.8559 64.1071 67.8694C62.8992 67.8802 61.6918 67.929 60.4839 67.9511C59.8511 67.9627 59.2179 67.9531 58.5352 67.9531C58.503 67.9103 58.4364 67.7859 58.3379 67.6965C57.2719 66.7289 56.975 65.4911 57.2466 64.1497C57.6038 62.3857 58.8222 61.3306 60.4321 60.6797C61.7863 60.1321 63.2285 60.0372 64.658 59.9607C66.016 59.888 67.3814 59.9165 68.7424 59.9482C69.7147 59.9708 70.6849 60.0763 71.6567 60.1357C71.9387 60.1529 72.2227 60.1383 72.5159 60.1383V59.4971L73.7372 59.7626L74.6198 60.1278Z" fill="#020617"/>
<path d="M64.115 86.5884C63.2719 86.4636 62.4621 86.3364 61.5945 86.1783C61.3991 86.1217 61.2616 86.096 61.1206 86.0707C61.1172 86.071 61.1105 86.0729 61.0889 86.0506C60.2742 85.6831 59.4812 85.3379 58.6728 84.9647C58.1667 84.5799 57.6758 84.2231 57.1739 83.8444C57.1389 83.7799 57.115 83.7372 57.0911 83.6946C56.5307 82.9804 56.0363 82.2307 55.8047 81.2679C55.7872 81.1617 55.7839 81.1194 55.7806 81.0389C55.773 80.4661 55.6952 79.9207 55.7762 79.4C55.8689 78.8042 56.1027 78.2303 56.2992 77.6345C56.3684 77.5688 56.4136 77.5155 56.4759 77.4499C56.5169 77.4198 56.5298 77.3959 56.5589 77.3503C56.6874 77.2237 56.7886 77.1128 56.9527 76.9331C56.7179 76.6932 56.4839 76.4541 56.2511 76.1816C56.091 75.9357 55.9297 75.7232 55.7708 75.5076C55.7732 75.5045 55.7772 75.5113 55.7818 75.4742C55.6589 75.1788 55.5314 74.9204 55.4076 74.6617C55.4113 74.6613 55.4106 74.6686 55.4123 74.6285C55.3886 74.4235 55.3441 74.259 55.3411 74.0937C55.3277 73.3506 55.3261 72.6074 55.3223 71.828C55.4451 71.3464 55.566 70.901 55.6878 70.46C55.6887 70.4644 55.6796 70.4642 55.7073 70.4515C55.7503 70.3822 55.7656 70.3256 55.7822 70.2734C55.7835 70.2778 55.7743 70.2786 55.8015 70.266C55.8448 70.1974 55.8608 70.1415 55.8779 70.0892C55.8789 70.0929 55.8718 70.0904 55.9034 70.0898C56.013 69.9366 56.0911 69.7841 56.1768 69.6013C56.3733 69.3513 56.5516 69.1211 56.7536 68.9141C57.1358 68.5226 57.19 68.1473 56.9017 67.6605C56.8249 67.5309 56.7274 67.4135 56.6327 67.2639C56.595 67.1939 56.564 67.1505 56.5345 67.0759C56.4756 66.9401 56.4152 66.8356 56.3537 66.7347C56.3526 66.7383 56.3601 66.7387 56.3546 66.703C56.2537 66.2268 56.1584 65.7863 56.0907 65.3193C56.1617 64.8102 56.205 64.3274 56.2488 63.8485C56.2492 63.8524 56.2414 63.8518 56.2701 63.8354C56.3127 63.7339 56.3266 63.6488 56.3409 63.5677C56.3413 63.5717 56.3333 63.5707 56.3652 63.5603C56.5017 63.2951 56.6063 63.0404 56.713 62.7544C57.0394 62.2535 57.3639 61.7837 57.7133 61.3034C57.7704 61.2503 57.8025 61.2077 57.8585 61.1498C57.9054 61.0833 57.9283 61.0322 57.9471 60.979C57.9431 60.9771 57.9433 60.9861 57.9721 60.9758C58.1368 60.8427 58.2727 60.72 58.4292 60.5928C58.4769 60.574 58.4922 60.5516 58.5225 60.5065C58.6589 60.403 58.7685 60.3142 58.9038 60.2232C58.97 60.1921 59.0104 60.1631 59.0744 60.1287C59.1328 60.0904 59.1675 60.0574 59.2379 60.0247C59.9039 59.7824 60.516 59.4579 61.1681 59.3127C63.1113 58.88 65.0983 58.8634 67.0786 58.8389C67.848 58.8294 68.6184 58.8894 69.4147 58.9165C69.4585 58.9128 69.4759 58.9103 69.4895 58.9099C69.4857 58.9118 69.4874 58.9034 69.4994 58.9286C69.545 58.9674 69.5786 58.981 69.6523 58.9973C70.3349 59.0626 70.9774 59.1251 71.6302 59.2094C71.6651 59.2511 71.6898 59.271 71.7145 59.2908C71.9813 59.3596 72.2482 59.4284 72.5146 59.4971C72.5146 59.714 72.5146 59.8925 72.5146 60.1383C72.2215 60.1383 71.9375 60.1529 71.6554 60.1356C70.6837 60.0763 69.7135 59.9708 68.7412 59.9482C67.3801 59.9165 66.0148 59.888 64.6568 59.9606C63.2272 60.0371 61.7851 60.132 60.4308 60.6796C58.8209 61.3306 57.6025 62.3857 57.2453 64.1497C56.9737 65.4911 57.2707 66.7288 58.3367 67.6965C58.4351 67.7859 58.5017 67.9103 58.534 67.9531C59.2166 67.9531 59.8498 67.9627 60.4827 67.9511C61.6905 67.929 62.898 67.8802 64.1058 67.8694C65.7159 67.8551 67.3263 67.8633 68.9365 67.8703C69.1973 67.8714 69.4575 67.9257 69.7188 67.9392C70.1103 67.9594 70.4281 68.1202 70.3883 68.5378C70.3486 68.9549 70.0188 69.084 69.6041 69.0778C68.4557 69.0607 67.3068 69.0731 66.1581 69.0732C64.5437 69.0733 62.9294 69.0713 61.315 69.0732C60.4569 69.0743 59.5926 69.0226 58.7437 69.1132C58.3643 69.1536 57.9693 69.4307 57.6612 69.6939C55.6898 71.3783 55.6481 74.6501 58.1449 76.1821C58.508 76.4049 58.9973 76.4561 59.4378 76.513C62.1395 76.8623 64.856 76.6603 67.5662 76.7007C68.2118 76.7104 68.8586 76.6764 69.5033 76.7024C69.8608 76.7168 70.0697 76.9484 70.0398 77.3246C70.0087 77.7161 69.7494 77.9076 69.386 77.9088C66.7161 77.917 64.0458 77.9409 61.3766 77.8956C60.5202 77.881 59.6654 77.6838 58.8133 77.5488C58.3428 77.4742 57.7954 77.6754 57.5237 78.0709C56.5501 79.4876 56.7449 81.5342 57.9489 82.8336C59.0359 84.0067 60.4305 84.5895 61.9272 85.0078C63.8051 85.5327 65.7246 85.4996 67.6436 85.4538C68.2744 85.4388 68.9027 85.3326 69.5334 85.2842C69.6956 85.2717 69.8625 85.3205 70.0356 85.3422C69.9462 85.5648 69.8714 85.7509 69.7966 85.937C69.779 85.9173 69.7615 85.8976 69.7439 85.8779C69.5922 86.0409 69.4405 86.2039 69.3035 86.3921C69.3183 86.4172 69.312 86.4171 69.283 86.4051C69.1069 86.2672 68.9862 86.2533 68.9203 86.4718C67.3297 86.5099 65.7391 86.5479 64.115 86.5884Z" fill="white"/>
<path d="M57.9272 53.1369C57.7701 51.2652 58.0002 49.4736 59.0988 47.8892C59.6692 47.0666 60.4741 46.525 61.448 46.1841C61.5146 46.1869 61.5386 46.1752 61.5625 46.1635C61.608 46.1346 61.6535 46.1057 61.7434 46.0981C61.8664 46.0832 61.9448 46.047 62.0233 46.0109C62.0397 46.0017 62.056 45.9926 62.1297 46.0094C62.9771 46.0726 63.7671 46.1098 64.5571 46.147C64.5571 46.147 64.5473 46.1477 64.5604 46.1767C64.7527 46.2498 64.9319 46.2941 65.1111 46.3383C65.1111 46.3383 65.1043 46.341 65.1102 46.373C65.2435 46.4442 65.3709 46.4834 65.4984 46.5226C65.4984 46.5226 65.536 46.5241 65.5649 46.5512C65.6161 46.6003 65.6429 46.6134 65.6741 46.6178C65.6741 46.6178 65.6657 46.6167 65.6692 46.6469C65.7665 46.7182 65.8603 46.7592 65.9541 46.8002C65.9541 46.8002 65.9458 46.8021 65.9488 46.8314C66.0193 46.8919 66.0868 46.9229 66.1544 46.954C66.1544 46.954 66.1551 46.9609 66.1578 46.992C66.2151 47.0426 66.2699 47.0622 66.3247 47.0817C66.3247 47.0817 66.317 47.0841 66.3198 47.1124C66.3868 47.1822 66.451 47.2236 66.5152 47.265C66.5152 47.265 66.507 47.2671 66.5083 47.2954C66.5724 47.3671 66.6352 47.4105 66.6979 47.454C66.6979 47.454 66.6901 47.4567 66.6926 47.4848C66.7582 47.5554 66.8212 47.598 66.8843 47.6405C66.8843 47.6405 66.8768 47.643 66.885 47.662C66.9185 47.7003 66.9439 47.7196 66.9692 47.739C66.9692 47.739 66.9651 47.7393 66.9669 47.7713C67.032 47.8743 67.0954 47.9452 67.1589 48.0161C67.1589 48.0161 67.1524 48.0181 67.1554 48.0447C67.1919 48.1153 67.2253 48.1593 67.2587 48.2032C67.2587 48.2032 67.2499 48.202 67.249 48.2339C67.4394 48.6477 67.6307 49.0296 67.822 49.4115C67.822 49.4115 67.8126 49.413 67.8096 49.448C67.8995 49.9264 67.9923 50.3698 68.0994 50.8479C68.1967 51.9335 68.3229 52.9832 68.3513 54.0355C68.3843 55.2606 68.4469 56.4786 68.8464 57.6424C68.9748 58.0165 68.8882 58.5346 69.3959 58.7276C69.3959 58.7276 69.3899 58.7314 69.3892 58.7603C69.3882 58.8323 69.3879 58.8754 69.3876 58.9185C68.6177 58.8901 67.8474 58.8301 67.0779 58.8396C65.0976 58.8641 63.1107 58.8807 61.1674 59.3134C60.5154 59.4586 59.9032 59.7831 59.2235 59.9984C59.0721 59.773 58.97 59.5749 58.8686 59.3802C58.8693 59.3836 58.8744 59.3789 58.8722 59.3446C58.855 59.2432 58.84 59.1761 58.8515 59.0955C58.8876 59.0265 58.9159 58.9666 58.9042 58.9161C58.7408 58.2123 58.5339 57.5162 58.4145 56.8053C58.2759 55.9809 58.2186 55.1432 58.1148 54.3126C58.0657 53.9191 57.9906 53.5287 57.9272 53.1369Z" fill="#020617"/>
</svg>
