<svg width="94" height="108" viewBox="0 0 94 108" fill="none" xmlns="http://www.w3.org/2000/svg">
<path d="M65.402 73.2199L64.8338 73.4708L64.6887 73.4791L64.3507 73.9354L64.077 74.2423L63.9485 74.5409L62.9221 75.6919L62.9304 75.837L62.5717 75.9304L62.2938 76.1647L61.9434 76.4032L61.8792 76.5525L61.6573 76.4924L61.6656 76.6375L61.3794 76.7267L60.662 76.9134L60.4484 76.9984L60.1582 77.015L60.1665 77.1601L59.7269 77.1124L59.4449 77.2742L59.364 77.1332L59.3723 77.2783L59.0053 77.2265L58.8643 77.3074L58.2837 77.3406L58.292 77.4857L58.1469 77.494L58.066 77.353L57.9291 77.5065L57.5704 77.5998L56.8654 78.0042L56.5793 78.0934L56.5876 78.2385L56.3015 78.3277L55.8183 78.7922L55.8308 79.01L55.4762 79.1759L55.4244 79.543L55.3601 79.6923L55.2191 79.7731L55.1756 80.2854L55.4659 80.2688L55.5467 80.4098L56.0506 80.3082L56.486 80.2833L56.7038 80.2709L57.0666 80.2501L57.4336 80.302L57.2968 80.4554L56.7929 80.557L56.6436 80.4927L56.6519 80.6379L55.4182 80.7084L55.0636 80.8743L54.8667 81.2497L54.7464 81.6935L54.7713 82.129L55.0139 82.552L55.3975 82.8942L56.2 82.9212L56.3492 82.9855L56.3409 82.8403L56.5587 82.8278L56.567 82.973L57.2927 82.9315L57.1558 83.085L56.7246 83.1825L56.7329 83.3276L56.4384 83.2716L56.2974 83.3525L55.7894 83.3815L55.439 83.62L55.3747 83.7694L55.5924 83.7569L55.7666 84.2567L55.8516 84.4703L56.4613 84.9452L56.6064 84.9369L56.6147 85.0821L56.9133 85.2106L57.1435 85.4159L57.5105 85.4678L57.5955 85.6814L57.8091 85.5964L57.8899 85.7374L58.1802 85.7208L58.8458 85.9012L59.3621 86.0173L59.6441 85.8556L59.725 85.9966L60.2973 85.8182L60.882 85.8576L61.3091 85.6876L61.672 85.6668L62.0307 85.5735L62.0224 85.4284L62.4537 85.3309L62.8207 85.3827L62.9617 85.3018L63.026 85.1525L63.6024 85.0468L63.8077 84.8166L64.38 84.6382L64.6578 84.4039L64.7988 84.323L64.7905 84.1778L65.0082 84.1654L64.9999 84.0202L65.4312 83.9228L65.4872 83.6283L65.7775 83.6117L65.7651 83.3939L66.1238 83.3006L66.3892 82.8485L66.4493 82.6266L66.6629 82.5416L66.6546 82.3964L66.7997 82.3881L67.1294 81.7867L67.1169 81.569L67.3305 81.484L67.4632 81.2579L67.3782 81.0443L67.5233 81.036L67.571 80.5964L67.7846 80.5113L67.7639 80.1484L67.8198 79.854L67.9484 79.5553L67.9836 78.8979L68.0271 78.3857L68.0831 78.0912L67.938 78.0995L67.9898 77.7325L67.8965 77.3737L67.8841 77.1559L67.7824 76.652L67.6083 76.1522L67.4631 76.1605L67.5108 75.7209L67.3573 75.584L67.1956 75.302L67.179 75.0116L67.0339 75.0199L67.0214 74.8022L66.7954 74.6695L66.5445 74.1012L66.165 73.8317L65.9992 73.477L65.7773 73.4169L65.7731 73.3443L65.4103 73.3651L65.402 73.2199Z" fill="#020617"/>
<path d="M51.9723 63.2571L51.6146 63.3504L50.3845 63.4207L50.1674 63.4331L49.4521 63.6197L49.3714 63.4786L48.5197 63.8187L48.0339 64.2108L47.9699 64.3602L47.8251 64.3684L47.7694 64.6631L47.6537 65.1797L47.904 65.7482L47.8399 65.8976L48.057 65.8852L48.1584 66.3894L48.4645 66.6634L48.7664 66.8647L48.8471 67.0058L49.1448 67.1345L49.3743 67.3399L50.038 67.5206L50.2551 67.5082L50.4414 68.2261L50.3008 68.307L50.3898 68.5933L50.334 68.888L50.3464 69.1058L50.4313 69.3195L50.3714 69.5415L50.3838 69.7594L50.3363 70.1993L49.9229 70.5872L49.8423 70.4461L49.7782 70.5955L49.2035 70.7012L48.4033 70.674L47.8885 70.5578L47.8802 70.4125L47.3612 70.2236L47.3529 70.0784L47.2082 70.0866L47.0427 69.7318L46.9621 69.5907L46.8173 69.599L46.7367 69.4579L46.4389 69.3292L45.9407 69.5034L45.6038 69.9598L45.5522 70.327L45.6969 70.3187L45.637 70.5407L45.8831 71.0367L46.1127 71.2421L46.2699 71.4517L46.4911 71.5119L46.5759 71.7256L46.7165 71.6448L46.7289 71.8626L47.1032 72.0598L47.2562 72.1968L47.9199 72.3774L48.5795 72.4854L49.3114 72.5893L49.3072 72.5167L50.2396 72.3177L50.8784 72.0626L51.0831 71.8323L51.0748 71.6871L51.2195 71.6788L51.2112 71.5336L51.5006 71.517L51.5854 71.7307L51.8067 71.791L51.8873 71.9321L52.1044 71.9197L52.1127 72.0649L52.7681 72.1003L53.0659 72.229L53.3595 72.2851L53.5 72.2042L53.5807 72.3453L53.9384 72.252L54.2278 72.2354L54.2195 72.0902L54.5855 72.1421L54.8026 72.1297L54.7942 71.9845L55.1519 71.8912L55.5778 71.7211L55.8589 71.5593L55.8506 71.4141L55.9912 71.3332L56.2041 71.2482L56.2682 71.0988L56.4853 71.0864L56.7457 70.5615L56.942 70.186L57.0535 69.5968L56.9562 69.1652L56.7267 68.9597L56.582 68.968L56.5013 68.8269L55.9224 68.86L55.5731 69.0985L55.4491 69.4699L55.2445 69.7002L55.2569 69.918L54.9675 69.9346L54.9117 70.2292L53.9752 70.3556L53.3281 70.4654L52.8856 70.345L52.8814 70.2724L52.4431 70.2246L52.2053 69.8739L52.1845 69.5108L52.0191 69.1559L52.1596 69.075L52.0707 68.7887L52.0375 68.2077L52.0932 67.9131L52.0766 67.6226L52.1365 67.4006L52.7753 67.1455L52.8394 66.9962L53.0565 66.9838L53.0482 66.8385L53.1929 66.8302L53.1846 66.685L53.4699 66.5958L53.4616 66.4506L53.6063 66.4423L53.8109 66.2121L53.8667 65.9174L54.0073 65.8365L54.1188 65.2473L54.2552 65.0938L54.1745 64.9527L54.2137 64.3676L53.98 64.0895L53.8353 64.0978L53.7422 63.7388L53.4444 63.6101L52.7807 63.4295L52.7001 63.2884L52.053 63.3982L51.9723 63.2571Z" fill="#020617"/>
<path d="M65.4679 49.6329L53.1496 50.337L52.8215 50.4393L51.6515 50.4226L51.3233 50.5249L51.1521 50.4512L35.6711 51.336L34.2609 51.5001L33.1052 51.7332L31.871 52.0543L30.1659 52.9033L29.1267 53.7142L28.6606 54.3254L28.2683 54.7653L27.8164 55.6262L27.4717 56.8985L27.3028 58.3277L27.2006 60.9222L27.3433 63.4192L27.4694 64.1636L28.0639 65.7997L28.8891 67.0886L29.6858 67.8781L30.7274 68.5701L32.0139 69.1646L33.7023 69.4857L35.2932 69.5617L36.8699 69.3881L38.6819 68.9505L39.4952 68.57L40.7888 67.828L41.7353 66.8554L42.3536 65.985L42.8101 65.2074L43.2572 64.2633L43.6353 63.5736L44.1751 62.7912L44.9694 62.0778L46.3415 61.2478L47.8943 60.658L48.9668 60.4297L49.5447 60.3132L51.7087 60.1895L53.2996 60.2656L55.076 60.6651L56.7002 61.3238L57.0427 61.4712L57.0522 61.6377L57.4778 61.7803L57.4874 61.9468L58.0985 62.4129L58.284 62.7363L58.4505 62.7268L58.6407 63.1335L59.5634 64.6673L60.1009 65.3046L60.1984 65.5496L60.8095 66.0157L61.2495 66.4081L61.9486 66.9526L63.3969 67.4544L64.4979 67.7255L65.8391 67.8158L67.587 67.7159L69.6487 67.2641L70.9519 66.6886L72.0006 66.0441L72.7901 65.2474L73.4131 64.4603L73.6486 64.1963L74.0124 63.2569L74.3382 61.6517L74.4285 60.3105L74.2953 57.9799L74.1407 56.7362L73.8934 55.3308L73.5723 54.0965L73.0943 53.0383L72.5426 52.1513L72.0931 51.5924L71.394 51.0478L70.3571 50.4391L69.6723 50.1442L67.9838 49.8232L66.8091 49.7233L65.7223 49.7019L65.4679 49.6329Z" fill="#020617"/>
<path d="M37.5337 56.1565L36.5349 56.2136L35.5504 56.5204L34.9084 56.9746L34.9179 57.141L34.5112 57.3313L33.9714 58.1137L33.6124 59.1363L33.4245 60.2326L33.4816 61.2314L33.8027 62.4656L34.3591 63.4359L34.9798 64.0684L35.5862 64.4513L36.2664 64.6629L37.0249 64.7866L38.3519 64.6272L39.1652 64.2467L39.9594 63.5333L40.1901 63.1861L40.1806 63.0196L40.347 63.0101L40.6467 62.4085L40.8345 61.3121L40.8464 60.0589L40.6133 58.9031L40.2281 58.0066L39.7739 57.3645L39.0652 56.6535L38.6348 56.4276L38.0379 56.2112L37.5337 56.1565Z" fill="#FEFDF9"/>
<path d="M64.8357 54.5961L63.7537 54.6579L62.7692 54.9647L61.8869 55.5997L61.2639 56.3868L60.8953 57.2429L60.7622 57.8351L60.6909 59.5093L61.1142 61.0717L61.7491 61.9539L62.629 62.7387L62.7955 62.7292L62.805 62.8956L63.7396 63.1762L64.5766 63.2119L65.3209 63.0858L66.139 62.7886L66.9428 62.2416L66.9332 62.0751L67.2614 61.9729L67.6443 61.3665L68.0033 60.3439L68.127 59.5853L68.0604 58.42L67.8321 57.3475L67.4421 56.3677L67.1733 56.049L66.9926 55.8089L66.8261 55.8184L66.6406 55.495L65.9415 54.9504L65.1734 54.6603L64.8357 54.5961Z" fill="#FEFDF9"/>
<path d="M36.4273 58.669L35.7662 58.7903L35.2121 59.323L34.9957 59.9199L34.9648 60.8402L35.2669 61.7415L35.7116 62.2171L36.2252 62.4383L36.9696 62.3122L37.5236 61.7795L37.809 60.9282L37.7519 59.9294L37.2882 59.1208L36.765 58.7332L36.4273 58.669Z" fill="#020617"/>
<path d="M63.4758 57.2026L62.6435 57.2502L61.9277 57.8756L61.7161 58.5558L61.7732 59.5545L61.9682 60.0444L62.5056 60.6818L62.9361 60.9077L63.6019 60.8696L64.0823 60.5081L64.3914 60.0729L64.5888 59.1431L64.4437 58.0658L64.0822 57.5855L63.4758 57.2026Z" fill="#020617"/>
<path d="M32.8289 94.0137H32.0681V95.0598L32.4485 98.0079L32.5436 98.3884L32.6387 99.7198L32.924 100.861L33.0191 101.717L33.3995 103.619L33.7799 105.045L34.0652 105.711L34.6358 106.567L35.1113 107.043L36.0623 107.518L38.0594 107.899H41.6732L43.2899 107.423L44.336 106.377L44.8115 105.521L45.0968 104.665L45.3821 102.288L45.4772 100.576L45.5723 97.4373L45.4772 97.152L45.5723 96.201L45.4772 95.4402V94.4892H43.9556L43.1948 94.3941L42.8144 94.4892L42.2438 94.3941H41.2928L40.2467 94.299H38.0594L36.728 94.2039H36.5378H35.3966L34.6358 94.1088V94.299H34.4456V94.1088L32.8289 94.0137Z" fill="#020617"/>
<path d="M70.1825 91.8984H66.5611L66.2825 92.0095H64.5182L62.0111 92.1207H61.0825L59.2254 92.2318H58.2968L57.3682 92.3429L57.2754 93.3429V98.6762L57.3682 101.454L57.4611 102.454L57.6468 103.232L57.9254 105.121L58.4825 106.232L59.2254 107.121L60.0611 107.565L60.8968 107.787L61.8254 107.898H64.1468L65.5397 107.676L66.7468 107.343L67.7682 106.454L68.4182 105.343L68.7897 104.121L69.254 101.232L69.4397 100.121L69.8111 97.0095L69.904 95.8984L69.9968 95.6762L70.2754 92.6762V92.0095L70.1825 91.8984Z" fill="#020617"/>
<path d="M24.1289 91.2842C23.871 91.2842 23.6613 91.47 23.6611 91.6992C23.6611 91.9286 23.8708 92.1152 24.1289 92.1152C24.3868 92.115 24.5957 91.9285 24.5957 91.6992C24.5955 91.4701 24.3866 91.2844 24.1289 91.2842Z" fill="#23241C"/>
<mask id="path-11-inside-1_4127_4485" fill="white">
<path d="M70.2206 6.15605L69.0815 6.23991L68.9855 6.35109L68.3565 6.29327L68.0459 6.31614L66.8184 6.61474L66.5154 6.74117L65.7981 6.8981L65.7098 7.11284L65.1996 7.25452L64.6087 7.7145L64.394 7.62619L64.4093 7.83331L64.2021 7.84856L64.2174 8.05568L63.7072 8.19735L63.3082 8.43497L62.9321 8.98327L62.6291 9.1097L62.2529 9.65799L62.2682 9.86511L62.0611 9.88036L62.0763 10.0875L61.7733 10.2139L61.7885 10.421L61.5814 10.4363L61.2282 11.2953L61.0134 11.2069L60.9404 11.6288L60.6983 12.5837L60.9054 12.5685L60.9207 12.7756L60.7135 12.7908L60.7364 13.1015L60.5369 13.2203L60.5598 13.531L60.5248 14.4707L60.4365 14.6854L60.6436 14.6702L60.6087 15.6099L60.6621 16.3348L60.7885 16.6378L60.8647 17.6734L61.1023 18.0724L61.7389 18.2338L62.3603 18.1881L62.7821 18.2611L63.1888 18.1271L64.0248 18.1697L64.6386 18.0204L64.9492 17.9975L64.9645 18.2046L65.3787 18.1741L66.0001 18.1284L66.3107 18.1055L67.1392 18.0445L67.4499 18.0217L67.9753 18.0871L68.286 18.0642L69.2256 18.0992L69.5363 18.0763L70.0617 18.1418L70.7943 18.1919L70.9937 18.0731L71.009 18.2803L71.4156 18.1462L71.5268 18.2421L73.199 18.3273L73.5249 18.5115L74.1615 18.6729L74.1462 18.4658L74.3534 18.4506L74.4722 18.6501L75.6342 18.8769L76.0789 19.2606L76.8191 19.4144L76.9455 19.7174L77.2562 19.6946L77.5668 19.6717L77.7009 20.0783L78.138 20.3585L78.3451 20.3433L78.3604 20.5504L78.8629 20.3051L79.6304 19.4157L79.8724 18.4608L80.0796 18.4455L80.1297 17.713L80.4328 17.5865L80.4906 16.9575L80.3718 16.7581L80.5789 16.7428L80.5256 16.0179L80.6946 15.4848L80.6641 15.0706L80.6336 14.6563L80.5955 14.1385L80.5726 13.8279L80.3578 13.7395L80.1933 12.9187L80.0516 12.4085L79.9252 12.1054L79.7181 12.1207L79.5612 11.4034L79.354 11.4186L79.1012 10.8125L78.6336 10.1181L78.2848 9.62316L77.9512 9.33535L77.7441 9.3506L77.7289 9.14347L77.2842 8.75973L77.077 8.77497L77.0542 8.46429L76.6171 8.1841L75.9805 8.02272L75.854 7.71966L75.3286 7.65422L75.2022 7.35116L74.5732 7.29334L74.4544 7.09384L73.9137 6.82128L73.929 7.0284L73.7219 7.04365L73.6031 6.84415L73.396 6.85939L73.1736 6.66752L72.8629 6.69039L72.4334 6.51376L71.3826 6.38287L71.2638 6.18338L71.0567 6.19862L70.9684 6.41337L70.443 6.34792L70.2358 6.36317L70.2206 6.15605Z"/>
</mask>
<path d="M70.2206 6.15605L69.0815 6.23991L68.9855 6.35109L68.3565 6.29327L68.0459 6.31614L66.8184 6.61474L66.5154 6.74117L65.7981 6.8981L65.7098 7.11284L65.1996 7.25452L64.6087 7.7145L64.394 7.62619L64.4093 7.83331L64.2021 7.84856L64.2174 8.05568L63.7072 8.19735L63.3082 8.43497L62.9321 8.98327L62.6291 9.1097L62.2529 9.65799L62.2682 9.86511L62.0611 9.88036L62.0763 10.0875L61.7733 10.2139L61.7885 10.421L61.5814 10.4363L61.2282 11.2953L61.0134 11.2069L60.9404 11.6288L60.6983 12.5837L60.9054 12.5685L60.9207 12.7756L60.7135 12.7908L60.7364 13.1015L60.5369 13.2203L60.5598 13.531L60.5248 14.4707L60.4365 14.6854L60.6436 14.6702L60.6087 15.6099L60.6621 16.3348L60.7885 16.6378L60.8647 17.6734L61.1023 18.0724L61.7389 18.2338L62.3603 18.1881L62.7821 18.2611L63.1888 18.1271L64.0248 18.1697L64.6386 18.0204L64.9492 17.9975L64.9645 18.2046L65.3787 18.1741L66.0001 18.1284L66.3107 18.1055L67.1392 18.0445L67.4499 18.0217L67.9753 18.0871L68.286 18.0642L69.2256 18.0992L69.5363 18.0763L70.0617 18.1418L70.7943 18.1919L70.9937 18.0731L71.009 18.2803L71.4156 18.1462L71.5268 18.2421L73.199 18.3273L73.5249 18.5115L74.1615 18.6729L74.1462 18.4658L74.3534 18.4506L74.4722 18.6501L75.6342 18.8769L76.0789 19.2606L76.8191 19.4144L76.9455 19.7174L77.2562 19.6946L77.5668 19.6717L77.7009 20.0783L78.138 20.3585L78.3451 20.3433L78.3604 20.5504L78.8629 20.3051L79.6304 19.4157L79.8724 18.4608L80.0796 18.4455L80.1297 17.713L80.4328 17.5865L80.4906 16.9575L80.3718 16.7581L80.5789 16.7428L80.5256 16.0179L80.6946 15.4848L80.6641 15.0706L80.6336 14.6563L80.5955 14.1385L80.5726 13.8279L80.3578 13.7395L80.1933 12.9187L80.0516 12.4085L79.9252 12.1054L79.7181 12.1207L79.5612 11.4034L79.354 11.4186L79.1012 10.8125L78.6336 10.1181L78.2848 9.62316L77.9512 9.33535L77.7441 9.3506L77.7289 9.14347L77.2842 8.75973L77.077 8.77497L77.0542 8.46429L76.6171 8.1841L75.9805 8.02272L75.854 7.71966L75.3286 7.65422L75.2022 7.35116L74.5732 7.29334L74.4544 7.09384L73.9137 6.82128L73.929 7.0284L73.7219 7.04365L73.6031 6.84415L73.396 6.85939L73.1736 6.66752L72.8629 6.69039L72.4334 6.51376L71.3826 6.38287L71.2638 6.18338L71.0567 6.19862L70.9684 6.41337L70.443 6.34792L70.2358 6.36317L70.2206 6.15605Z" fill="#020617" stroke="#020617" stroke-width="2" mask="url(#path-11-inside-1_4127_4485)"/>
<mask id="path-12-inside-2_4127_4485" fill="white">
<path d="M25.9926 9.30559L25.0758 9.58132L24.5504 9.51588L23.7295 9.68043L23.4188 9.7033L22.8051 9.8526L22.3985 9.98665L21.9995 10.2243L21.6888 10.2471L21.497 10.4695L21.2822 10.3812L21.2975 10.5883L20.5878 10.8488L20.3959 11.0712L19.1837 11.5769L18.7041 12.1328L18.7193 12.3399L18.002 12.4969L17.929 12.9187L17.7295 13.0375L17.2498 13.5934L16.9772 14.1341L16.5128 14.8972L16.3133 15.016L16.3286 15.2231L16.1367 15.4455L16.0636 15.8673L15.8718 16.0897L15.8063 16.6151L15.5643 17.57L15.4181 18.4138L15.5554 20.2779L15.854 21.5053L16.2256 22.3109L16.7161 23.3161L16.9308 23.4044L16.9461 23.6115L17.1532 23.5963L17.4061 24.2024L17.7396 24.4902L17.866 24.7932L18.4143 25.1694L18.5026 24.9546L19.0128 24.8129L19.0859 24.3911L19.3889 24.2646L19.7879 24.027L20.0909 23.9006L20.3787 23.567L20.9849 23.3142L21.3838 23.0766L21.3686 22.8694L22.4925 22.5785L22.9874 22.2297L23.6088 22.1839L24.1037 21.8351L25.4423 21.6325L25.6342 21.4101L26.2632 21.4679L26.6698 21.3339L26.8845 21.4222L27.1799 21.1922L27.4906 21.1693L28.0084 21.1312L28.2003 20.9088L28.7257 20.9743L29.5465 20.8097L30.6857 20.7259L31.1075 20.7989L31.0923 20.5918L31.2994 20.5766L31.3146 20.7837L31.8172 20.5385L32.6533 20.581L33.4665 20.3129L33.7848 20.3936L34.1914 20.2596L34.9163 20.2062L34.9894 19.7843L35.1965 19.7691L35.1812 19.562L35.3807 19.4432L35.3579 19.1325L35.1431 19.0442L35.3198 18.6147L35.2511 17.6826L35.0942 16.9653L35.1825 16.7506L34.8992 15.7302L34.7651 15.3236L34.7423 15.0129L34.5046 14.6139L34.2975 14.6292L34.3782 14.3109L34.0599 14.2302L33.903 13.5129L33.4583 13.1291L33.2054 12.523L32.6571 12.1469L32.4271 11.8514L32.22 11.8667L32.2048 11.6596L31.3229 10.9956L30.8935 10.819L30.5599 10.5312L29.2715 10.0013L29.0491 9.80944L28.213 9.76686L26.9398 9.4441L26.518 9.37104L25.9926 9.30559Z"/>
</mask>
<path d="M25.9926 9.30559L25.0758 9.58132L24.5504 9.51588L23.7295 9.68043L23.4188 9.7033L22.8051 9.8526L22.3985 9.98665L21.9995 10.2243L21.6888 10.2471L21.497 10.4695L21.2822 10.3812L21.2975 10.5883L20.5878 10.8488L20.3959 11.0712L19.1837 11.5769L18.7041 12.1328L18.7193 12.3399L18.002 12.4969L17.929 12.9187L17.7295 13.0375L17.2498 13.5934L16.9772 14.1341L16.5128 14.8972L16.3133 15.016L16.3286 15.2231L16.1367 15.4455L16.0636 15.8673L15.8718 16.0897L15.8063 16.6151L15.5643 17.57L15.4181 18.4138L15.5554 20.2779L15.854 21.5053L16.2256 22.3109L16.7161 23.3161L16.9308 23.4044L16.9461 23.6115L17.1532 23.5963L17.4061 24.2024L17.7396 24.4902L17.866 24.7932L18.4143 25.1694L18.5026 24.9546L19.0128 24.8129L19.0859 24.3911L19.3889 24.2646L19.7879 24.027L20.0909 23.9006L20.3787 23.567L20.9849 23.3142L21.3838 23.0766L21.3686 22.8694L22.4925 22.5785L22.9874 22.2297L23.6088 22.1839L24.1037 21.8351L25.4423 21.6325L25.6342 21.4101L26.2632 21.4679L26.6698 21.3339L26.8845 21.4222L27.1799 21.1922L27.4906 21.1693L28.0084 21.1312L28.2003 20.9088L28.7257 20.9743L29.5465 20.8097L30.6857 20.7259L31.1075 20.7989L31.0923 20.5918L31.2994 20.5766L31.3146 20.7837L31.8172 20.5385L32.6533 20.581L33.4665 20.3129L33.7848 20.3936L34.1914 20.2596L34.9163 20.2062L34.9894 19.7843L35.1965 19.7691L35.1812 19.562L35.3807 19.4432L35.3579 19.1325L35.1431 19.0442L35.3198 18.6147L35.2511 17.6826L35.0942 16.9653L35.1825 16.7506L34.8992 15.7302L34.7651 15.3236L34.7423 15.0129L34.5046 14.6139L34.2975 14.6292L34.3782 14.3109L34.0599 14.2302L33.903 13.5129L33.4583 13.1291L33.2054 12.523L32.6571 12.1469L32.4271 11.8514L32.22 11.8667L32.2048 11.6596L31.3229 10.9956L30.8935 10.819L30.5599 10.5312L29.2715 10.0013L29.0491 9.80944L28.213 9.76686L26.9398 9.4441L26.518 9.37104L25.9926 9.30559Z" fill="#020617" stroke="#020617" stroke-width="2" mask="url(#path-12-inside-2_4127_4485)"/>
<path d="M40.7473 17.2824L40.4443 17.4094L40.0217 17.3358L38.3651 17.4577L35.1627 17.7982L33.8683 17.8935L33.6169 18.0158L32.8923 18.0692L32.6408 18.1915L31.5529 18.2716L31.1505 18.4579L30.4411 18.7177L30.2336 18.7329L29.9306 18.86L28.7911 18.9439L28.5406 19.0661L28.2816 19.0852L27.9862 19.3155L27.7978 19.5899L27.3839 19.6203L26.3552 19.7999L26.0521 19.926L25.4872 20.0194L25.0283 20.158L24.5216 20.351L24.0044 20.3891L23.5016 20.6347L23.1621 20.972L22.8112 21.1535L22.5196 21.4355L22.121 21.6734L21.7061 21.7039L21.2118 22.0527L20.9011 22.0756L20.4938 22.2093L20.295 22.3287L19.9843 22.3516L19.9356 22.4071L19.7117 22.8916L19.512 23.0111L19.3503 23.6478L19.1438 23.663L18.4369 25.3806L18.2101 26.543L18.1374 26.9645L17.9334 28.4375L17.9588 30.2051L17.9165 31.0415L19.3803 50.9252L19.3532 51.9681L19.5175 52.7893L19.4676 53.5215L19.5785 53.6181L19.6125 55.4898L19.6963 56.6283L19.6475 56.6838L19.704 56.7326L19.8793 59.1138L20.0435 59.935L20.0013 60.7714L20.0699 61.7035L20.1883 61.9023L20.2341 62.5237L20.2015 62.7866L20.2091 62.8898L20.169 63.0494L20.2071 63.5676L20.4171 65.0092L20.5009 66.1487L20.4663 67.0883L20.4968 67.5022L20.4154 67.8206L20.5159 67.7613L20.5769 68.5901L20.6877 68.6858L20.7296 69.2555L20.8481 69.4553L20.8557 69.5586L20.7907 70.0843L21.2023 75.6756L21.3208 75.8755L21.4198 77.2214L21.3319 77.4365L21.3776 78.0579L21.4961 78.2577L21.5799 79.3962L21.7376 80.1141L21.6562 80.4325L21.9856 82.0739L22.0466 82.9027L22.2261 83.9304L22.2794 84.655L22.4869 84.6397L22.4065 84.958L23.072 88.345L23.2286 89.063L23.2357 89.1594C23.4268 89.2632 23.5659 89.468 23.5841 89.7144C23.5883 89.772 23.5835 89.8283 23.5749 89.8825C24.1915 90.1546 24.6958 90.5898 25.0035 91.1316C25.0491 91.1197 25.0961 91.1111 25.1447 91.1075C25.6022 91.0738 26.0025 91.4408 26.0383 91.9269C26.0449 92.0171 26.039 92.1051 26.0213 92.1887L26.1645 92.1781L26.1735 92.2999C26.2929 92.3363 26.3837 92.4425 26.3934 92.5745C26.3942 92.5847 26.3939 92.5948 26.3937 92.6048C26.7111 92.6703 26.9736 92.9367 27.0591 93.2902C27.6393 93.3553 28.1706 93.6891 28.5672 94.1966C28.5937 94.1892 28.6214 94.1828 28.6503 94.1807C28.8503 94.1661 29.0228 94.2932 29.0354 94.4647C29.0388 94.5099 29.03 94.5535 29.0126 94.5937L29.2631 94.6575L29.7812 94.6194L29.8997 94.8192L30.0995 94.6997L30.218 94.8996L31.476 95.0156L33.7769 95.1585L34.924 95.1779L35.856 95.1093L36.5882 95.1592L37.6245 95.0829L38.1493 95.149L38.3568 95.1338L38.4676 95.2294L38.5413 94.8078L38.6674 95.1109L38.4676 95.2294L39.2008 95.2792L39.7332 95.4486L40.3622 95.5061L40.7808 95.5791L41.6378 95.516L41.8111 95.4229L41.798 95.2437L43.1371 95.1452L43.1412 95.0675L43.4461 94.9667L45.6286 94.9108L46.8713 94.8193L47.049 95.1177L51.6576 94.7784L51.6271 94.3645L51.8346 94.3492L51.9531 94.549L52.671 94.3924L53.0926 94.4652L54.646 94.3508L54.86 94.4388L55.0523 94.2171L55.7769 94.1638L56.1994 94.2365L56.2146 94.4429L60.8748 94.0999L60.9476 93.6784L61.7764 93.6173L62.5087 93.6682L62.6042 93.5564L63.2256 93.5107L63.544 93.592L63.8494 93.5245L63.8409 93.4086L64.7681 93.3403L65.1863 93.2625L65.1898 93.3093L69.2413 93.011L69.2242 92.9653L70.0378 92.6968L71.073 92.6206L71.4956 92.6943L72.4124 92.4182L72.6113 92.2998L72.7307 92.4986L73.7584 92.3191L74.3797 92.2734L74.6828 92.1473L75.3042 92.1015L76.0135 91.8408L77.7668 91.6079L79.0899 91.1981L79.4971 91.0634L79.4819 90.8569L80.3097 90.796L81.3145 90.3049L81.5067 90.0831L81.9054 89.8452L82.4006 89.4964L83.4715 88.4804L83.4562 88.273L83.6627 88.2578L83.6322 87.8439L83.8397 87.8286L84.4652 86.4293L84.5313 85.9035L84.8613 84.7335L85.05 83.054L85.0542 81.7004L85.1203 81.1746L85.0288 79.9319L85.1167 79.7169L84.9948 78.0602L85.0218 77.0173L84.8998 75.3597L84.9735 74.9381L84.7067 71.3132L84.5263 70.2855L84.5034 69.9749L84.5237 68.8277L84.2569 65.2037L84.1299 64.9007L84.1786 64.8452L84.171 64.741L84.2188 64.6856L84.1502 63.7535L84.0231 63.4505L84.0968 63.0289L83.83 59.404L83.6953 58.9977L83.6534 58.428L83.7538 58.3687L83.6814 57.385L83.6221 57.2846L83.6623 57.126L83.7579 57.0151L83.6547 57.0227L83.5708 55.8832L83.4133 55.1663L83.249 54.3451L83.4489 54.2266L83.3294 54.0268L83.2532 52.9915L83.1194 52.5842L83.2226 52.5766L83.108 52.4294L82.8526 48.9602L82.6731 47.9316L82.6426 47.5177L80.8342 25.7851L80.7809 25.0605L80.5734 25.0758L80.6319 24.4468L80.4743 23.7289L80.4209 23.0043L80.1611 22.2949L79.6319 20.772L79.1494 19.8704L78.682 19.1753L78.3333 18.681L78.2778 18.6322L78.0703 18.6475L78.0665 18.5959L77.9633 18.6035L77.9145 18.659L77.8075 18.615L77.6966 18.5193L77.4816 18.4314L77.2513 18.1359L76.5918 17.6636L76.0958 17.2839L75.7335 17.3106L75.1006 17.2005L72.5216 16.8175L72.0475 16.7486L71.8295 16.608L71.2082 16.6537L71.0447 16.562L70.6308 16.5924L70.4712 16.5523L70.2609 16.5159L69.8938 16.491L69.5832 16.5139L69.1138 16.4955L68.1665 16.3577L67.8998 16.2725L67.3826 16.3106L67.375 16.2074L67.116 16.2264L66.9047 16.1901L66.638 16.1059L65.6028 16.1821L65.1812 16.1084L64.4442 16.007L64.0781 15.982L63.0944 16.0544L62.8831 16.0171L62.7283 16.0285L62.6164 15.9329L62.41 15.9481L60.5345 15.9305L58.7736 16.0601L58.352 15.9864L57.9381 16.0169L57.0213 16.2929L56.9018 16.0931L56.5988 16.2202L56.3847 16.1312L55.4603 16.304L54.5206 16.2684L54.0101 16.4108L53.5885 16.3371L50.9913 16.4245L44.053 16.9352L40.7473 17.2824ZM53.499 19.3635L54.0085 19.2222L54.0237 19.4287L54.6375 19.2797L56.3027 19.2609L58.4775 19.1008L59.5281 19.2321L59.616 19.017L60.3416 18.9636L62.1167 19.0415L63.6702 18.9271L64.0917 18.9999L64.8173 18.9465L65.3421 19.0126L67.1105 18.9862L68.9899 19.0565L70.6618 19.141L71.4026 19.295L72.024 19.2493L72.0392 19.4567L72.7638 19.4034L74.0294 19.6226L74.9996 20.0711L75.0148 20.2786L75.3179 20.1525L75.5549 20.5512L75.985 20.7281L76.1111 21.0312L76.5403 21.2072L76.8891 21.7024L77.2455 22.3009L77.7976 24.1345L77.8434 24.7558L77.9542 24.8515L77.9923 25.3696L77.9044 25.5847L78.1566 26.1908L79.6279 46.1778L79.755 46.4808L79.8541 47.8267L79.9955 48.3373L80.1749 49.365L80.1098 49.8907L80.3121 51.2291L80.3884 52.2653L80.2852 52.2729L80.2277 52.9019L80.4722 53.4038L80.5993 53.7068L80.6985 55.0538L80.8322 55.4601L80.7899 56.2965L81.0415 59.714L81.2134 60.6385L81.1177 60.7493L81.2896 61.6738L81.2307 62.151L81.2321 62.3027L81.2716 62.5603L81.2816 62.9757L81.2003 63.2941L81.1161 63.5607L81.1237 63.664L81.0434 63.9822L81.4801 64.2625L81.6326 66.334L81.7663 66.7403L81.7164 67.4725L81.9528 70.6836L82.0783 73.798L82.185 75.2472L82.3247 78.5691L82.3705 79.1905L82.313 79.8195L82.4197 81.2696L82.3114 82.6309L82.3495 83.149L82.1811 83.6814L82.1379 84.5179L81.7926 85.4804L81.2627 86.7688L80.7675 87.1177L80.3536 87.1481L80.2732 87.4664L79.5781 87.9338L78.6623 88.2097L77.5457 88.6043L76.3182 88.9032L75.9119 89.0369L74.9874 89.2088L73.9588 89.3893L73.6558 89.5154L71.9991 89.6373L71.3853 89.7863L70.3501 89.8625L69.3291 90.1463L68.8043 90.0811L67.5692 90.2758L64.9805 90.4664L63.7454 90.6611L63.7302 90.4546L62.8133 90.7297L61.9922 90.8949L60.3278 90.9127L59.8174 91.055L58.4714 91.1541L57.8424 91.0956L56.5031 91.299L54.3283 91.4591L53.8035 91.393L53.7079 91.5048L51.5332 91.6649L51.0226 91.8062L50.8152 91.8215L50.7999 91.6141L50.1862 91.764L48.9435 91.8555L48.6175 91.6709L48.6328 91.8784L46.6655 92.0232L46.3471 91.9419L44.8969 92.0486L43.9726 92.2214L43.6619 92.2443L43.6466 92.0369L43.0328 92.1858L41.1611 92.2198L40.1259 92.296L39.4969 92.2385L37.5296 92.3834L36.0641 92.2827L34.8214 92.3742L34.3999 92.3014L33.7785 92.3471L33.2527 92.2811L32.3131 92.2464L29.3603 91.7353L27.9609 91.1088L27.0712 90.342L27.0559 90.1345L26.8495 90.1497L26.2474 89.0484L25.8605 88.0359L25.9409 87.7177L25.7344 87.7329L25.4431 86.6086L25.2713 85.6842L25.0908 84.6566L24.7853 83.3258L24.7818 81.868L24.6557 81.5649L24.5718 80.4254L24.6598 80.2114L24.4447 80.1224L24.3532 78.8797L24.1662 77.7488L23.4648 68.2209L23.4018 68.0698L23.4496 68.0144L23.3941 67.9656L23.3903 67.914L23.3349 67.8661L23.2472 66.675L23.1755 66.4198L23.1862 65.8472L23.1827 64.3894L23.0413 63.8789L23.0988 63.2499L23.0358 63.0989L23.0168 62.8398L22.9461 62.5845L22.4773 56.216L22.2434 54.4628L22.2104 52.5911L22.306 52.4802L22.1342 51.5558L22.1307 50.098L20.7855 30.4142L20.9132 27.9058L21.317 26.3143L21.7588 25.2399L22.1422 24.7955L22.3497 24.7802L22.5257 24.3511L23.2198 23.8829L23.5076 23.5493L24.2255 23.3927L24.2103 23.1852L25.5258 22.6722L26.0439 22.6341L26.7532 22.3733L27.2714 22.3351L27.5744 22.209L29.3191 21.872L30.6584 21.6696L31.3754 21.5131L31.5676 21.2903L31.9891 21.3631L33.121 21.176L33.8456 21.1227L34.3561 20.9813L35.0807 20.9279L35.5902 20.7857L36.6265 20.7094L38.3788 20.4766L38.9045 20.5417L38.9925 20.3276L39.9322 20.3622L40.3395 20.2284L40.761 20.3012L41.6854 20.1294L42.4176 20.1793L43.8602 19.9693L48.5204 19.6262L49.4677 19.7641L49.5557 19.55L52.7658 19.3137L53.499 19.3635ZM81.2303 62.1462L81.2306 62.1501L81.2373 62.0938L81.2303 62.1462Z" fill="#020617"/>
<path d="M14.3387 72.1311L13.5863 71.9303L13.4649 71.9475L13.343 71.9655L13.2272 71.9244L13.0999 71.8779L12.6376 71.9688L12.3048 72.1823L12.0835 72.4423L12.0707 72.4654L11.9914 72.7276L12.0393 73.393L12.0806 73.4272L12.3008 73.6038L12.2631 73.8836L12.2521 73.9714L12.5499 74.5638L12.7546 74.6781L12.8105 74.8804L12.8571 75.0474L12.9934 75.2499L13.1444 75.3722L13.2038 75.4199L13.246 75.4826L13.5134 75.8791L13.7802 76.2126L14.1587 76.5704L14.9588 77.2688L15.8579 77.9721L16.5735 78.4734L18.3249 79.4512L19.5116 80.012L19.5107 80.0116L19.9198 80.1885L21.4808 80.8061L22.1434 81.0016L22.1543 80.916L21.8592 80.7512L21.9978 80.5031L21.965 80.4557L21.9433 80.3944L21.8069 80.0017L21.7315 79.8903L21.5603 79.6359L21.587 79.5882L21.4529 79.4618L21.509 79.3612L21.353 79.2741L21.5377 78.9432L21.1773 78.7073L20.6646 78.3696L20.118 78.0645L20.0985 78.0514L19.285 77.4931L19.2426 77.465L19.2075 77.4275L18.9341 77.144L18.5299 76.9184L18.5137 76.6811L18.2521 76.4344L18.0845 76.2759L18.0965 76.0601L17.9224 75.879L17.8852 75.8415L17.858 75.7961L17.2645 74.8417L17.2527 74.8228L17.2427 74.8027L17.1121 74.5419L17.0273 74.4173L16.6009 74.1793L16.6464 73.8434L15.9306 73.1183L15.4065 72.7329L15.0952 72.5591L15.0699 72.5405L14.8212 72.3569L14.3387 72.1311Z" fill="#020617" stroke="#020617"/>
<path d="M19.1129 73.5775L20.8012 72.8782L21.8253 71.8011L20.3552 62.944L19.0015 62.0358L17.2372 62.2771L14.9735 63.1332L13.51 64.5827L13.1602 67.9102L13.515 70.0481L14.7267 71.9127L16.6845 73.441L19.1129 73.5775Z" stroke="#020617" stroke-width="2.5"/>
<path d="M18.0872 66.5717C16.8337 66.4364 16.1142 68.3359 16.5102 69.1194C16.6187 69.3938 16.7182 69.5553 16.9936 69.8542C17.2465 70.0074 17.864 69.9845 17.864 69.9845C17.864 69.9845 18.4391 69.7896 18.4791 69.4311C18.5528 69.067 18.4574 68.5526 18.0292 68.4738" stroke="#020617" stroke-width="1.5" stroke-linecap="round"/>
</svg>
