<svg width="75" height="100" viewBox="0 0 75 100" fill="none" xmlns="http://www.w3.org/2000/svg">
<path d="M5.46056 57.2568L4.66413 57.3453H4.39865L3.8677 57.5223L3.15977 58.0533L2.89429 58.4957V58.7612L2.71731 58.8497V60.5311L2.89429 60.9736L2.98278 61.593H3.15977L3.24826 62.0355L3.42524 62.6549L3.9562 63.8054V63.9824H4.13318V64.2478L4.31016 64.4248V64.7788L4.57564 65.0443L4.75262 65.4867H4.92961L5.10659 66.0177L5.54905 66.8141L5.99151 67.2566L6.08 67.6106L6.25698 67.6991L6.69944 68.23L6.96492 68.4955L7.05341 68.8495H7.23039V69.0265H7.40738L7.49587 69.3805H7.67285V69.5574L7.93833 69.6459L8.11531 69.9999H8.2923V70.1769L7.93833 70.0884L7.49587 69.6459H7.31889L7.1419 69.2035L6.43397 69.0265L6.25698 68.6725L5.81452 68.584V68.3185L5.46056 68.1415L4.84111 67.8761L4.39865 67.6106L3.8677 67.4336L3.24826 67.1681L3.07128 67.2566L2.27485 67.0796L1.92088 67.2566L1.56692 67.5221L1.12446 67.6991L0.947472 68.23L0.85898 68.3185L0.770488 69.115L0.85898 69.3805L0.947472 69.8229H1.12446L1.03596 70.1769L1.12446 70.3539H1.30144L1.21295 70.6194L1.92088 71.6813L2.18636 72.1238L2.36334 72.5662L2.62882 72.6547L2.8058 73.0087H2.98278V73.2742L3.24826 73.4512L3.33675 73.8051H3.60223L3.69072 74.0706L4.31016 74.7786L5.19508 75.6635H5.37206L5.46056 75.929H5.63754L5.90302 76.0175V76.1945L6.52246 76.8139L7.40738 77.4334L7.84984 77.8758L8.2923 78.2298H8.46928V78.4068L8.73475 78.4953L9.00023 78.7608L9.44269 79.0263H9.79666V79.2033H9.97364L10.0621 79.4687L10.5931 79.7342H10.8586V79.9112L11.2125 79.9997V80.1767L11.655 80.2652V80.4422H12.009L12.0974 80.7076L12.5399 80.7961L12.9824 81.1501L13.4248 81.2386V81.4156L14.2212 81.5041V81.6811H14.7522L15.9026 82.035L16.1681 81.9466L16.2566 82.212H17.5839V82.389L18.0264 82.212V82.389H18.9113L19.3538 82.3005L20.5927 82.212H21.2121L23.0704 81.8581V81.6811L23.4244 81.5926L23.5129 81.7696H23.6899L23.7784 81.5926H24.2208L24.3093 81.4156L24.9288 81.1501L25.4597 81.0616V80.7961L25.9022 80.7076L26.9641 79.9997L27.2296 79.9112V79.6457H27.4065V79.4687H27.672V79.2917L28.1145 79.1148L28.026 78.8493L28.4684 78.7608L28.9994 78.0528L29.4418 77.9643L29.1764 77.7874L29.3534 77.4334L29.7073 77.3449L30.4153 75.929L30.5922 75.752V75.398H30.7692L31.0347 74.9556L31.2117 74.6016L31.3887 74.0706L31.5657 73.8051L31.8311 72.9202L32.0081 72.4777V72.0353H32.1851L32.2736 71.4158L32.4506 71.0618L32.5391 69.2035V67.8761L32.4506 66.9911L32.2736 66.9026L32.4506 66.8141V66.6372L32.2736 66.5487L32.0966 66.1062L32.0081 65.4867H31.8311L31.9196 65.2213L31.7426 65.0443L31.6541 64.6903H31.4772L31.5657 64.4248L31.3002 64.0708H31.1232L31.0347 63.7169H30.8577V63.2744L30.5037 63.0974L30.4153 62.8319H30.1498L29.9728 62.478L29.7073 62.2125H29.5303L29.4418 61.947L28.8224 61.593L27.672 61.1506L26.1676 60.8851H25.4597L25.2827 60.7966V60.9736L24.7518 60.8851L24.4863 61.0621L24.3093 60.9736L24.0438 61.0621V61.239L23.6899 61.3275L23.4244 61.416V61.593L23.1589 61.5045L23.0704 61.77L22.5395 61.8585L22.451 62.0355L22.1855 62.124V62.3895L21.6546 62.478L21.3006 63.0974L21.1236 63.2744L21.0351 63.6284H20.7696L20.5927 64.2478L20.2387 64.4248L19.9732 65.0443L19.7077 65.3098L19.7962 65.6637H19.5308L19.4423 66.1947L19.2653 66.2832L19.0883 66.7257L18.9113 66.9911L18.9998 67.2566H18.8228L18.5574 68.0531L18.3804 68.407L18.0264 69.292L17.9379 69.6459L18.0264 69.8229H17.7609L17.6724 70.7079L17.3185 71.1503L17.1415 71.5043L16.9645 72.3007H16.7875L16.3451 73.2742L16.1681 73.4512L16.0796 73.6282V71.8583L15.9911 71.6813L16.0796 71.1503H15.9026L15.9911 70.7964L15.9026 69.8229L15.7256 69.469V69.115H15.5486L15.4601 68.584L15.1947 68.23L15.0177 67.6106L14.8407 67.5221L14.7522 67.1681L14.4867 66.5487H14.3097L14.2212 66.1947L13.9558 66.1062V65.4867L13.5133 64.9558L13.2478 64.4248L13.3363 64.2478L12.9824 64.0708L12.8054 63.5399H12.5399L12.6284 63.2744L12.4514 63.1859L12.1859 62.7434L12.0974 62.478H11.9205L11.7435 62.124L11.478 62.0355L11.301 61.593L10.6816 60.7966H10.5046V60.5311H10.2391L10.0621 60.0001L9.70817 59.8232L9.44269 59.7347L9.26571 59.2922L8.73475 59.0267L8.38079 58.6727L7.93833 58.4957L7.23039 58.0533L7.05341 57.8763L6.52246 57.7878L5.99151 57.4338H5.46056V57.2568Z" fill="#2A2A21"/>
<path d="M59.8747 48.0527L59.7862 48.2297H58.1048L57.5739 48.4067H57.3084H57.0429V48.5837L56.2465 48.8492L55.7156 49.2032H55.5386V49.4686L54.6537 49.9111L54.5652 50.2651H54.3882L54.0342 50.796L53.2378 52.1234L53.1493 52.4774L52.8838 53.0969V53.5393L52.5298 53.7163L52.6183 53.9818L52.5298 54.2473V54.7782L52.3529 55.3092V56.0172L52.2644 56.3711L52.1759 56.9906L52.0874 57.3446V57.787V58.141V59.0259L51.9989 59.4684V61.1498L52.0874 61.8577L52.1759 63.0966L52.3529 63.7161L53.1493 65.8399L53.3263 66.1939L54.0342 66.8134L54.1227 66.9904L54.3882 67.0789L54.4767 67.3443L54.9191 67.4328L55.7156 67.6098L56.158 67.6983H56.8659L57.7509 67.6098L58.1933 67.5213V67.3443L58.6358 67.4328L58.9013 67.1674L59.4322 66.9904V66.8134L59.9632 66.6364L60.4056 66.1939L60.4941 65.8399H60.7596L61.0251 65.309L61.379 64.955L61.4675 64.1586L61.6445 63.8931L61.556 63.7161L61.91 63.8931L62.3524 64.424L62.7949 65.0435H62.9719L63.0604 65.3975H63.2374L63.4143 65.8399L63.8568 66.5479L64.0338 66.6364L64.2108 66.9904L64.2993 67.4328L64.7417 67.8753L65.3612 68.0523L65.8921 67.9638L66.4231 67.6983L66.5116 67.4328L66.777 67.5213L67.131 67.1674V66.9904H67.308V66.7249H67.5735L68.0159 65.9284L68.3699 65.3975V65.132H68.5469L68.6354 64.601L68.9008 64.2471L69.1663 63.3621L69.3433 62.8312L69.4318 61.9462L69.5203 61.4153L69.6973 59.9994V58.672H69.5203V57.964V57.6985L69.4318 56.7251H69.2548L69.3433 56.3711H69.1663V55.6632H68.9893L69.0778 55.3977L68.9008 54.9552L68.7239 54.6898L68.8123 54.5128H68.5469L68.4584 54.1588L67.9274 53.0969L67.662 52.6544L67.485 52.3004L67.308 52.2119L67.2195 51.9465L66.8655 51.5925L66.6885 51.327H66.5116V51.15L66.2461 50.8845L66.1576 50.7075L65.7151 50.4421L65.4497 50.3536L65.3612 49.9996L65.0072 49.9111L64.6532 49.7341V49.5571L63.8568 49.2916L63.4143 49.0262H63.0604V48.8492L62.6179 48.7607V48.5837L62.264 48.6722L62.1755 48.4952H61.8215L61.6445 48.3182H61.1136L60.6711 48.2297H60.1401L59.8747 48.0527Z" fill="#020617"/>
<path d="M35.9803 49.9082H35.8033V50.0852H35.0954L34.299 50.3507L33.8565 50.5277V50.7046L33.0601 50.9701L32.7061 51.5011L32.3521 51.7666L31.9097 52.74L31.5557 53.3595L31.2902 54.3329L31.1132 56.2797L31.2017 56.8992L31.2902 57.3417L31.3787 57.8726H31.5557L31.3787 58.3151H31.5557L31.9097 59.377L32.0867 59.731L32.2636 59.8195L32.5291 60.3504H32.7946V60.6159L33.2371 60.8814H33.414V61.0584L34.0335 61.4124L34.9184 61.5894L35.0069 61.7663L36.0688 61.9433H36.7767L36.9537 62.0318V61.7663H37.2192V61.9433H37.3962V61.7663L37.6616 61.8548L38.4581 61.5009H38.7235V61.3239L39.2545 61.2354L39.343 60.9699H39.697L39.7855 60.5274L40.1394 60.4389L40.7589 59.4655L41.1128 58.5806L41.2013 58.0496L41.4668 56.6337L41.3783 55.6603L41.4668 55.2178L41.3783 54.6869V54.4214H41.2013L41.2898 53.7134H41.0243L41.1128 53.3595L40.6704 52.4745L40.4049 52.1205H40.2279L40.1394 51.7666H39.9624L39.8739 51.3241L39.2545 50.7931L38.9005 50.7046V50.5277L38.2811 50.3507H37.9271V50.1737L37.0422 49.9967H36.2458L35.9803 50.0852V49.9082Z" fill="#2B2A21"/>
<path d="M50.8517 87.166H48.02L47.843 87.2545L47.666 88.2279L47.7545 88.6704L47.666 88.9359L47.7545 90.0863V90.9712L47.666 91.1482L47.7545 92.1217L47.666 92.5641L47.7545 92.8296V93.7145L47.5775 93.803L47.7545 93.8915V96.1924L47.666 96.4578L47.7545 97.1658L47.843 97.9622L48.02 98.4932L48.2854 99.0242L48.7279 99.4666L49.3473 99.6436L49.7898 99.5551L49.8783 99.7321H52.6215V99.5551L53.1525 99.7321H54.2144L55.0108 99.8206H55.4533H55.7187L56.4267 99.2896L56.6922 98.8472L56.7806 98.3162L56.6922 98.0507L56.8691 97.9622L56.6037 97.6968L56.2497 97.2543L56.0727 97.1658L55.8957 96.9003L55.5418 96.7233H55.2763L55.1878 96.5463L54.4799 96.2809L53.241 96.1039L52.4445 96.0154L51.8251 96.1924V95.3959L51.9136 95.2189V94.7765L51.8251 94.334L51.9136 93.8915L51.8251 93.0066V92.8296V92.2986L51.9136 92.0332H51.7366L51.8251 91.2367V90.0863V89.8208L51.9136 89.2014L51.8251 88.8474L51.9136 88.6704L51.8251 88.1394L51.9136 87.9625L51.8251 87.2545L50.8517 87.166Z" fill="#2A2A21"/>
<path d="M39.6179 87.166H37.5826L36.8747 87.2545L35.9013 87.166L35.7243 87.4315V88.4934L35.6358 88.7589L35.8128 88.8474L35.7243 89.2014V89.4668V91.5022L35.6358 91.6792H35.8128L35.7243 92.1217L35.8128 92.8296L35.7243 93.2721L35.6358 93.8915L35.7243 94.334L35.6358 94.511L35.7243 95.1304V96.1924L35.6358 96.5463H35.8128L35.7243 97.4313V97.9622H35.9013L35.8128 98.3162H35.9898L36.0782 98.7587L36.4322 99.2896L36.6977 99.4666H36.9632L37.0517 99.6436L37.4056 99.7321L38.6445 99.8206H40.7683L41.1223 99.9091L43.2461 99.8206L43.954 99.5551L44.308 98.9357L44.3965 98.2277L44.131 97.5198L43.8655 97.4313L43.6885 96.9888H43.4231V96.8118L42.9806 96.7233L42.8921 96.5463L41.9187 96.3694H41.7417L41.6532 96.1924H41.3878L41.1223 96.1039H40.0604H39.8834L39.7949 95.3074L39.8834 94.7765V94.2455L39.7949 93.98L39.8834 93.5376L39.7949 93.3606L39.8834 91.6792L39.7949 90.9712L39.8834 89.7323L39.7949 89.2014L39.9719 89.1129H39.7949L39.8834 88.3164L39.7949 88.051L39.8834 87.697V87.2545L39.6179 87.166Z" fill="#2A2A21"/>
<path d="M36.6884 52.209H36.2459V52.386H35.4495L35.361 52.6515L34.9186 52.7399L34.7416 53.0054L34.2991 53.2709L33.9451 53.8019L33.7682 53.9789L33.3257 55.3063V55.9257L33.2372 56.5452L33.3257 57.2531L33.5027 57.6956V58.1381L33.7682 58.5805H33.9451L33.8567 58.9345H34.0336L34.3876 59.377L34.8301 59.6424H35.0955L35.184 59.8194H35.361L35.6265 59.9964H36.7769L36.8654 59.9079H37.3963L38.0158 59.6424V59.4655H38.2812L38.3697 59.2885L38.5467 59.1115L38.4582 58.9345L38.8122 58.7575L39.1662 57.9611L39.3431 56.8107L39.4316 56.7222V55.6602L39.2547 54.5983L39.0777 54.2443L38.8122 53.8019H38.6352L38.5467 53.4479L38.2812 53.0054L37.6618 52.7399L37.5733 52.4745L37.1309 52.2975L36.6884 52.386V52.209Z" fill="#FAF6EC"/>
<path d="M36.6062 54.5098L35.5443 54.5983V54.8637L35.1903 55.0407V55.2177H35.0134L34.7479 56.0142V56.9876L34.9249 57.5185H35.1019L35.1903 57.8725L35.8983 58.2265L36.2522 58.315L36.6062 58.2265H36.8717L37.3142 58.138L37.5796 57.6955L37.8451 57.1646L37.9336 56.3681L37.8451 55.8372L37.9336 55.6602H37.6681L37.5796 55.2177L37.2257 54.8637L36.6062 54.5098Z" fill="#2C2A21"/>
<path d="M54.3956 60.3506L54.2186 60.4391L54.3071 61.2355H54.4841V61.501H54.661V61.7665H54.9265L55.1035 62.1205L55.4575 62.209L55.6344 62.5629L55.8999 62.7399H56.2539L56.3424 62.9169L57.0503 63.0054L57.1388 63.2709H58.9971L59.1741 63.3594V63.1824L59.9706 63.2709L60.8555 62.8284L60.5015 62.4744H59.8821V62.6514H58.9086L57.3158 62.4744L56.6964 62.1205L55.8114 61.7665L55.546 61.501H55.2805V61.324H55.1035V61.147L54.838 61.0585L54.661 60.7046L54.4841 60.6161L54.3956 60.3506Z" fill="#F9F5EA"/>
<path d="M23.2461 72.5615H22.8921L22.6267 73.0925L22.0072 73.9774L21.5647 74.4199L21.2993 74.7739V74.9509L20.8568 75.1278L20.4144 75.6588V75.8358L20.0604 76.0128L19.7949 76.2783L19.4409 76.5437V76.7207L18.9985 76.8977L18.8215 77.2517L18.379 77.4287V77.6057L17.9366 77.6942L18.0251 77.9596L18.91 77.5172L18.9985 77.2517L19.7949 77.0747V76.8977L20.0604 76.8092V76.6322L20.5028 76.4552V76.2783L20.7683 76.1898L20.8568 75.9243H21.1223L21.2993 75.5703L21.4763 75.4818V75.2163L21.7417 75.1278V74.9509L22.0957 74.7739L22.4497 74.1544L22.6267 74.0659L22.8036 73.4465L23.0691 73.358L22.8921 72.9155L23.1576 72.827L23.2461 72.5615Z" fill="#F9F5EA"/>
<path d="M25.4492 76.9883H25.2722L24.7413 77.6962L24.4758 77.8732V78.0502H24.2988L24.2103 78.2272L23.8564 78.4927L23.5024 78.8466V79.0236H23.2369V79.2006H22.9714L22.529 79.6431L22.4405 79.9086L22.175 79.9971L22.352 80.1741L22.883 79.9971V79.8201H23.0599V79.6431L23.5909 79.4661L24.1218 78.8466L24.2988 78.7582V78.5812L24.5643 78.4927L24.8298 78.2272V78.0502L25.1837 77.8732L25.3607 77.5192L25.4492 76.9883Z" fill="#F8F1E6"/>
<path d="M23.7748 99.5576L23.1553 99.6461H22.2704L22.4474 100L23.8633 99.9116L23.7748 99.5576Z" fill="#FBF7ED"/>
<path d="M26.0745 99.5576H25.5436L25.4551 99.7346L26.2515 99.9116L26.6055 99.7346L26.0745 99.5576Z" fill="#F9F0E5"/>
<path d="M37.7578 64.6895L36.9614 64.7779L36.7844 64.6895L36.3419 64.7779H34.2181L33.5102 64.9549L33.2447 65.0434L32.8908 65.3974L32.9792 65.9284L33.4217 66.1938L33.7757 66.3708L34.1296 66.2823V66.4593L34.4836 66.5478L34.5721 66.4593H35.3685L35.5455 66.5478L35.8995 66.4593L36.5189 66.5478L37.0499 66.4593L37.4923 66.5478L38.0233 66.4593L38.7312 66.5478L39.5276 66.2823V66.1054L39.7931 66.1938V66.0169H39.9701L40.0586 65.3089L39.6161 64.9549L39.2622 64.7779H37.8463L37.7578 64.6895Z" fill="#EC2CBF"/>
<path fill-rule="evenodd" clip-rule="evenodd" d="M45.4523 0L44.5674 0.176987L44.0364 0.442468L43.8594 0.796442H43.5055L43.3285 1.06192L43.1515 1.59288L42.886 2.92029L42.9745 3.80523L43.1515 4.86715L43.24 5.66359L43.417 6.46003L43.5055 6.9025L43.6825 6.991V7.34497H43.8594V8.05292L44.1249 8.40689L44.2134 8.84936L44.3904 9.46882L44.6559 10.0883L44.3019 9.7343L43.24 8.14141L42.5321 7.43346V7.16798L42.0896 6.72551L41.8241 6.63702L41.7356 6.28305L41.5587 6.10606H41.2932L41.1162 5.66359L40.8507 5.5751L40.3198 4.95564H40.0543L39.9658 4.60167L39.5233 4.42468V4.24769L38.5499 3.53974H38.3729L38.4614 3.27426H38.019V3.09728L37.3995 2.8318L37.1341 2.7433V2.56631L36.7801 2.47782L36.6916 2.30083H36.3376V2.12385L35.5412 1.76987L35.0987 1.59288L34.1253 1.50439H33.2404L32.3555 1.94686L32.444 2.21234H32.267L32.1785 2.03535V2.21234H32.0015L31.8245 2.38933L31.7361 2.65481L31.6476 3.89372L31.8245 3.98221L31.7361 4.33619H31.913V4.86715L32.3555 5.75208H32.5325L32.621 6.10606L32.9749 6.72551H33.1519L33.2404 7.16798L33.5059 7.61045L34.0368 8.3184L34.2138 8.49539H34.3908L34.5678 8.76087L34.3908 8.84936L34.7448 8.93785V9.11484H34.9218V9.29183H35.0987V9.6458L35.3642 9.82279L34.9218 9.6458L34.0368 9.02635L33.9484 8.84936L33.4174 8.67237L33.1519 8.40689L32.621 8.14141L32.1785 7.87593L31.5591 7.69894L31.2051 7.52196H30.9396V7.34497L29.8777 7.16798V6.991L28.4619 6.63702L27.6654 6.72551L27.5769 6.54853L27.1345 6.63702H26.4265L26.1611 6.81401H25.9841V6.991H25.5416V7.16798H25.3646V7.34497L25.0992 7.43346L25.1877 7.69894L25.0107 7.78744L24.8337 8.67237L25.1877 9.6458L25.2762 9.99978L25.5416 10.3538L25.9841 10.7077L26.1611 10.9732H26.3381L26.4265 11.2387L26.7805 11.6812H27.1345V11.8581L28.0194 12.3891L28.5503 12.8316L29.3468 13.1855H29.5238V13.3625L29.7892 13.451L29.8777 13.628L29.5238 13.5395L29.1698 13.628H27.8424L27.4 13.7165H27.1345H26.1611L25.7186 13.8935L25.3646 13.7165L25.1877 13.805V13.982L24.4797 13.8935L23.7718 14.159L23.3293 14.2475L22.8869 14.159L22.1789 14.4245L21.471 14.513L21.294 14.6899L20.2321 15.0439V15.2209L19.8781 15.1324L19.6127 15.3979L19.1702 15.5749L18.9047 15.8404L18.2853 16.3713L18.1083 16.8138H17.9313L17.7543 17.0793V17.3447L17.4889 17.4332L17.2234 17.9642L16.9579 18.4067L16.8694 18.8491L16.604 19.1146L16.5155 19.4686L16.6924 19.9111H16.5155L16.25 20.619V21.4155L16.073 22.2119L15.896 22.8314H16.073L15.896 23.7163V25.0437L15.719 45.9282H15.896V46.1052H15.719L15.8075 46.9016L15.719 47.2556H15.896L15.719 47.7865L15.8075 48.052L15.719 48.8485L15.8075 49.2909L15.719 49.4679L15.8075 49.9104L15.719 50.2644V51.5033L15.896 51.7688L15.719 52.2997V53.1847L15.896 53.3616L15.8075 54.0696L15.719 54.866L15.8075 55.1315V55.751L15.719 55.928V56.2819L15.896 57.0784L15.719 57.1669L15.8075 59.2022V59.4677L15.719 59.6447L15.8075 61.68L15.719 62.2995L15.8075 62.565V63.1844H15.9845L15.8075 63.7154V65.1313L15.896 65.3083V66.0162L15.8075 66.2817L15.896 66.7242L15.8075 66.9012L15.896 67.2551L15.8075 67.6976L15.896 68.671V69.556L15.719 69.4675V69.1135H15.542L15.4536 68.5825L15.1881 68.2286L15.0111 67.6091L14.8341 67.5206L14.7456 67.1666L14.4801 66.5472H14.3032L14.2147 66.1932L13.9492 66.1047V65.4853L13.5067 64.9543L13.2413 64.4233L13.3298 64.2464L12.9758 64.0694L12.7988 63.5384H12.5333L12.6218 63.2729L12.4448 63.1844L12.1794 62.742L12.0909 62.4765H11.9139L11.7369 62.1225L11.4714 62.034L11.2944 61.5916L10.675 60.7951H10.498V60.5296H10.2325L10.0556 59.9987L9.70159 59.8217L9.43611 59.7332L9.25913 59.2907L8.72818 59.0252L8.37421 58.6713L7.93175 58.4943L7.22382 58.0518L7.04683 57.8748L6.51588 57.7863L5.98493 57.4324H5.45398L5.36549 57.2554L4.65755 57.3439H4.39208L3.86113 57.5208L3.15319 58.0518L2.88772 58.4943V58.7598L2.71073 58.8482V60.5296L2.88772 60.9721L2.97621 61.5916H3.15319L3.24168 62.034L3.41867 62.6535L3.94962 63.8039V63.9809H4.1266V64.2464L4.30358 64.4233V64.7773L4.56906 65.0428L4.74604 65.4853H4.92303L5.10001 66.0162L5.54247 66.8127L5.98493 67.2551L6.07342 67.6091L6.25041 67.6976L6.69286 68.2286L6.95834 68.4941L7.04683 68.848H7.22382V69.025H7.4008L7.48929 69.379H7.66627V69.556L7.93175 69.6445L8.10873 69.9984H8.28572V70.1754L7.93175 70.0869L7.48929 69.6445H7.31231L7.13532 69.202L6.42739 69.025L6.25041 68.671L5.80795 68.5825V68.3171L5.45398 68.1401L4.83454 67.8746L4.39208 67.6091L3.86113 67.4321L3.24168 67.1666L3.0647 67.2551L2.26827 67.0782L1.9143 67.2551L1.56034 67.5206L1.11788 67.6976L0.940895 68.2286L0.852403 68.3171L0.763911 69.1135L0.852403 69.379L0.940895 69.8215H1.11788L1.02939 70.1754L1.11788 70.3524H1.29486L1.20637 70.6179L1.9143 71.6798L2.17978 72.1223L2.35676 72.5648L2.62224 72.6533L2.79922 73.0072H2.97621V73.2727L3.24168 73.4497L3.33017 73.8037H3.59565L3.68414 74.0691L4.30358 74.7771L5.1885 75.662H5.36549L5.45398 75.9275H5.63096L5.89644 76.016V76.193L6.51588 76.8125L7.4008 77.4319L7.84326 77.8744L8.28572 78.2283H8.4627V78.4053L8.72818 78.4938L8.99365 78.7593L9.43611 79.0248H9.79008V79.2018H9.96706L10.0556 79.4673L10.5865 79.7327H10.852V79.9097L11.2059 79.9982V80.1752L11.6484 80.2637V80.4407H12.0024L12.0909 80.7062L12.5333 80.7947L12.9758 81.1486L13.4182 81.2371V81.4141L14.2147 81.5026V81.6796H14.7456L15.896 82.0336L16.1615 81.9451L16.25 82.2106L16.7809 82.1221V82.3875H16.9579L17.0464 82.83H17.2234L17.3119 83.184L17.4889 83.538L17.6659 83.6265L17.8428 83.9804L18.5508 84.6884L19.3472 85.1309L19.4357 85.3078L19.8781 85.4848L20.1436 85.7503L20.8516 85.8388L20.9401 86.0158L21.825 86.2813H22.4444L22.7984 86.4583L23.6833 86.6352L24.5682 86.7237L24.9222 86.8122H25.7186L26.1611 86.9892H27.6654L27.7539 87.1662V86.9892H27.9309L28.0194 87.1662L28.1079 87.0777L28.9043 87.1662L29.3468 87.0777L29.6123 87.1662H30.7626L31.3821 87.2547L32.267 87.1662H35.7182L36.3376 87.2547L37.842 87.3432L39.6118 87.2547L40.6295 87.3432L42.4436 87.2547L43.1073 87.3432L43.8594 87.2547L45.8505 87.3432L47.8416 87.2547L49.1689 87.3432L50.4963 87.2547L51.9122 87.3432L52.3547 87.2547H55.6289L56.5138 87.0777V87.2547H57.9296L58.8146 87.1662H61.2038L61.8233 86.9892L62.6197 87.0777L63.1507 86.9892H63.9471V86.8122L64.478 86.9007L64.5665 86.8122L65.9824 86.6352L67.1328 86.4583L67.3983 86.2813L68.1062 86.1928L68.8141 85.8388L69.6991 85.4848L70.1415 85.3963V85.1309H70.584L70.4955 84.8654H70.761V84.6884L71.3804 84.5114V84.3344L71.9998 83.8034L72.3538 83.184V83.007H72.5308L72.8848 82.2991L72.9733 81.6796H73.2387V81.1486L73.5042 80.3522L73.6812 79.0248L73.7697 78.5823L73.8582 77.9629V76.8125L73.9467 76.6355H73.7697L73.8582 76.2815V75.3966L73.9467 75.1311V73.1842L74.0352 73.0072L73.9467 72.0338V66.3702L74.0352 65.3968L73.9467 65.1313V61.2376L74.0352 60.9721L73.9467 60.7951V53.3616L74.0352 52.8307V52.4767L73.9467 51.7688V50.9723V50.7068L73.8582 50.4414L73.9467 50.0874V48.8485L73.8582 48.406L73.9467 47.7865L73.7697 46.9016L73.8582 46.7246L73.7697 25.3977V24.3357L73.5927 23.2738L73.6812 22.9198V22.6544L73.5927 21.9464L73.3272 20.796L73.2387 20.442L73.3272 20.1765L73.1502 19.9111L73.0617 19.3801L72.7078 18.4952L72.6193 18.3182H72.4423L72.5308 18.0527L71.9998 17.1678L71.8229 16.9023H71.6459L71.7344 16.6368H71.4689L71.3804 16.3713L70.9379 15.9288L70.4955 15.5749L70.23 15.3094L69.6991 15.1324L69.0796 14.7784L68.9026 14.6014L67.5753 14.4245L66.6903 14.0705L66.3364 14.2475L66.0709 13.982L65.6284 14.0705L65.5399 13.8935H64.3895L63.9471 13.805L62.5312 13.7165L62.0888 13.628H60.6729L60.4074 13.7165L60.3189 13.5395L59.965 13.451L59.3455 13.5395L58.9031 13.451V13.628H58.3721L58.1066 13.451L56.8677 13.5395H55.9828L55.7173 13.451L54.8324 13.5395L54.4785 13.451L54.1245 13.5395L54.036 13.3625V13.5395H53.4166L53.3281 13.3625L52.7971 13.5395L52.3547 13.3625V11.5927L52.1777 9.82279L52.0892 9.20334V8.93785H51.9122L51.7352 7.69894L51.5582 7.25648V7.07949H51.3812L51.2928 6.63702V6.37154L51.1158 6.01757H50.9388V5.5751L50.6733 4.95564H50.4963L50.4078 4.51317H50.2309L50.1424 4.07071L50.0539 3.89372H49.8769L49.7884 3.53974H49.6114L49.5229 3.09728L49.3459 2.65481L48.815 2.21234L48.461 2.12385L48.5495 1.85837H48.3725V1.50439H47.9301L47.7531 1.15042L47.4876 0.884936L46.9567 0.619455L46.7797 0.442468L45.5408 0.0884936L45.4523 0ZM54.3015 16.1058L54.1245 16.0173L53.4166 16.1058H52.5316H52.1777L51.3812 16.1943V16.0173L50.4963 16.1058H49.6999H49.5229H44.8328L44.2134 16.0173L44.0364 16.1058H43.594H43.417H42.2666H41.9126H41.2932L40.8507 16.1943L40.5852 16.1058L39.7888 16.1943L39.6118 16.1058H39.1694L39.0809 16.1943L37.9305 16.1058L37.3995 16.1943L36.4261 16.1058L35.6297 16.1943H34.9218L34.1253 16.1058L33.9484 16.1943H32.09H31.8245L31.6476 16.2828H30.7626L30.5857 16.1943H30.3202L30.2317 16.3713L29.9662 16.1943L29.5238 16.3713H28.1079L27.7539 16.4598H27.046L26.9575 16.5483L26.4265 16.4598L26.1611 16.5483H25.6301L25.4531 16.7253L25.2762 16.6368L24.7452 16.8138L23.5948 16.9023L22.3559 17.2563L21.3825 17.6102V17.7872L20.5861 18.0527L20.1436 18.6722L19.7012 19.3801L19.5242 19.7341L19.3472 20.1765L19.4357 20.442H19.2587L19.1702 20.8845L19.0817 21.15L18.9932 21.5924L18.8162 23.0968L18.9047 23.4508H18.7278L18.6393 23.7163L18.8162 23.8048L18.6393 24.2472V46.9901V47.3441V48.6715L18.5508 49.2024L18.6393 49.6449L18.5508 50.0874V51.5918L18.6393 51.9457L18.5508 52.3882V53.7156L18.6393 54.0696L18.5508 54.9545L18.6393 56.3704L18.5508 57.1669V57.7863L18.6393 57.9633L18.5508 58.6713V59.4677L18.6393 60.3526L18.5508 60.8836V63.2729L18.6393 63.6269L18.5508 65.8392L18.7278 65.9277V66.1932H18.5508L18.6393 66.5472V67.3436L18.8162 67.4321V67.2551H18.9932V66.9897L19.1702 66.7242L19.4357 66.1932L19.5242 65.6623H19.7897V65.3083L20.0551 65.0428L20.3206 64.4233L20.6746 64.0694L20.7631 63.6269H21.0285L21.7365 62.565L22.1789 62.388V62.1225H22.4444L22.7984 61.9455L23.1523 61.5916H23.4178V61.4146H23.6833L24.0373 61.2376V61.0606L24.3912 61.1491L24.8337 60.9721H25.2762H25.4531H26.1611L27.6654 61.2376L28.8158 61.68L29.4353 62.034L29.7007 62.2995L30.1432 62.8305H30.4087V63.0959L30.8511 63.2729L30.7626 63.4499L30.8511 63.7154H31.0281V63.8924L31.3821 64.3349L31.4706 64.6888H31.6476L31.7361 65.1313L31.8245 65.4853H32.0015L31.913 65.6623L32.0015 66.1047L32.1785 66.5472L32.444 66.6357L32.1785 66.9012L32.3555 67.0782L32.444 67.8746V69.202L32.3555 71.0604L32.09 71.6798L32.1785 72.0338H32.0015L31.913 72.4763L31.7361 72.9187L31.4706 73.8037L31.2051 74.1576L31.1166 74.6001L30.9396 74.7771L30.7626 75.3966H30.5857L30.4972 75.7505L30.3202 75.9275L29.7892 76.9009L29.7007 77.3434H29.3468L29.1698 77.6974V77.9629H28.9043L28.5503 78.4938L28.4619 78.7593L28.0194 78.8478V79.0248L27.6654 79.2903V79.4673H27.4V79.6442H27.223V79.9097L26.7805 79.9982L26.3381 80.3522L25.4531 80.7947V81.0601L25.2762 80.9717L24.9222 81.0601L24.1258 81.4141L23.7718 81.5026L23.6833 81.7681H23.5063V81.5026L23.0639 81.6796V81.8566L21.648 82.0336L20.0551 82.2106V82.476L20.5861 82.5645L20.6746 82.7415L21.9135 83.361L22.1789 83.2725V83.4495L22.7099 83.538L23.0639 83.715L24.0373 83.8919L24.6567 84.0689H25.2762L25.5416 83.9804L26.0726 84.2459H27.223L27.4884 84.3344L28.1964 84.4229H28.9043L29.7892 84.3344L30.3202 84.5114H31.0281L31.4706 84.5999L32.0015 84.5114H32.267L32.444 84.5999L33.0634 84.5114L33.4174 84.5999H34.3023L34.5678 84.5114L35.0987 84.5999L35.4527 84.5114H35.7182L36.3376 84.5999H37.2225H37.3995L38.3729 84.5114L38.7269 84.3344V84.5999H38.9039H39.1694L39.6118 84.5114L39.7888 84.5999L40.2313 84.4229V84.5999L42.4436 84.5114L43.3285 84.6884L43.417 84.5114L43.594 84.5999L43.8594 84.5114L45.0098 84.5999L45.0983 84.3344H45.2753V84.5114L46.5142 84.5999L47.8416 84.5114L48.107 84.5999L48.461 84.5114L48.815 84.5999L48.9035 84.4229L49.1689 84.5114H50.4963L51.4697 84.5999L52.6201 84.4229H52.8856L53.859 84.5114L54.036 84.5999H54.567H54.8324L55.1864 84.4229L55.8058 84.5114L56.6908 84.4229L57.1332 84.5114L57.3987 84.4229L58.3721 84.5114L58.5491 84.4229H59.08H59.257H60.6729L61.8233 84.3344L63.5931 84.2459L64.7435 84.0689H65.0975L65.7169 83.8919L66.6018 83.8034L66.6903 83.6265L67.0443 83.715V83.538L67.6637 83.4495L67.7522 83.2725H67.9292L68.6372 83.0955V82.9185H68.9026L69.3451 82.476L69.9645 81.9451V81.6796H70.1415L70.407 80.9717L70.6725 80.1752L70.8494 79.3788L70.9379 78.5823L71.0264 77.6974L70.9379 77.3434L71.0264 77.2549L71.1149 77.0779L70.9379 76.9894L71.2034 75.839V75.0426L71.1149 74.7771L71.2034 74.5116L71.2919 73.8922L71.2034 73.3612L71.3804 72.8302V72.2993L71.2919 72.0338V71.3258L71.2034 70.8834L71.2919 70.5294V70.2639L71.3804 69.8215L71.2034 69.733L71.2919 69.202L71.3804 68.848V68.4056L71.2034 67.8746L71.2919 66.9012L71.3804 66.5472L71.2919 66.2817V65.6623H71.4689L71.2919 65.2198V63.8039V63.4499L71.1149 63.0959H71.2919L71.2034 62.8305L71.2919 62.388V62.1225L71.3804 61.68L71.2919 61.4146L71.3804 60.8836L71.2919 60.7066V59.8217L71.1149 59.7332V59.5562H71.3804L71.2919 59.0252L71.2034 58.6713L71.2919 58.2288L71.2034 57.5208V57.2554L71.2919 56.7244L71.2034 56.3704L71.3804 56.1934L71.2919 55.6625L71.1149 55.043H71.2919V54.1581L71.2034 53.8926L71.2919 53.0077L71.2034 52.8307L71.2919 52.4767V51.6803L71.1149 51.5918L71.2034 51.0608L71.2919 50.8838L71.2034 50.1759L71.2919 49.3794L71.2034 48.229L71.2919 47.4326L71.2034 47.2556V46.6361L71.1149 25.3092L71.2034 24.6012L71.1149 24.4242L71.0264 23.7163V23.3623L70.9379 22.6544V21.9464L70.761 21.5924L70.584 20.7075L70.4955 19.9996L70.23 19.7341L70.053 19.2031H69.876V18.9376L69.6991 18.5837H69.5221V18.4067L69.0796 17.8757L68.4602 17.6102L68.1062 17.3447L67.3983 17.1678L66.4249 16.9023L65.8939 16.7253L64.7435 16.5483L64.1241 16.6368V16.4598L63.6816 16.3713L63.2392 16.4598L62.5312 16.2828L62.0888 16.4598V16.2828H61.0269L60.7614 16.1943L60.4074 16.2828L59.6995 16.1943H58.6376L58.2836 16.1058L58.1066 16.1943L57.6642 16.1058L57.1332 16.1943L56.7792 16.1058H54.3015Z" fill="#115E24"/>
</svg>
