<svg width="88" height="100" viewBox="0 0 88 100" fill="none" xmlns="http://www.w3.org/2000/svg">
<path d="M5.42345 57.2568L4.62702 57.3453H4.36154L3.83059 57.5223L3.12266 58.0533L2.85718 58.4957V58.7612L2.6802 58.8497V60.5311L2.85718 60.9736L2.94568 61.593H3.12266L3.21115 62.0355L3.38813 62.6549L3.91909 63.8054V63.9824H4.09607V64.2478L4.27305 64.4248V64.7788L4.53853 65.0443L4.71551 65.4867H4.8925L5.06948 66.0177L5.51194 66.8141L5.9544 67.2566L6.04289 67.6106L6.21987 67.6991L6.66233 68.23L6.92781 68.4955L7.0163 68.8495H7.19328V69.0265H7.37027L7.45876 69.3805H7.63574V69.5574L7.90122 69.6459L8.0782 69.9999H8.25519V70.1769L7.90122 70.0884L7.45876 69.6459H7.28178L7.10479 69.2035L6.39686 69.0265L6.21987 68.6725L5.77741 68.584V68.3185L5.42345 68.1415L4.804 67.8761L4.36154 67.6106L3.83059 67.4336L3.21115 67.1681L3.03417 67.2566L2.23774 67.0796L1.88377 67.2566L1.52981 67.5221L1.08735 67.6991L0.910363 68.23L0.821871 68.3185L0.733379 69.115L0.821871 69.3805L0.910363 69.8229H1.08735L0.998855 70.1769L1.08735 70.3539H1.26433L1.17584 70.6194L1.88377 71.6813L2.14925 72.1238L2.32623 72.5662L2.59171 72.6547L2.76869 73.0087H2.94568V73.2742L3.21115 73.4512L3.29964 73.8051H3.56512L3.65361 74.0706L4.27305 74.7786L5.15797 75.6635H5.33496L5.42345 75.929H5.60043L5.86591 76.0175V76.1945L6.48535 76.8139L7.37027 77.4334L7.81273 77.8758L8.25519 78.2298H8.43217V78.4068L8.69765 78.4953L8.96312 78.7608L9.40558 79.0263H9.75955V79.2033H9.93653L10.025 79.4687L10.556 79.7342H10.8214V79.9112L11.1754 79.9997V80.1767L11.6179 80.2652V80.4422H11.9718L12.0603 80.7076L12.5028 80.7961L12.9453 81.1501L13.3877 81.2386V81.4156L14.1841 81.5041V81.6811H14.7151L15.8655 82.035L16.131 81.9466L16.2195 82.212H17.5468V82.389L17.9893 82.212V82.389H18.8742L19.3167 82.3005L20.5556 82.212H21.175L23.0333 81.8581V81.6811L23.3873 81.5926L23.4758 81.7696H23.6528L23.7413 81.5926H24.1837L24.2722 81.4156L24.8917 81.1501L25.4226 81.0616V80.7961L25.8651 80.7076L26.927 79.9997L27.1924 79.9112V79.6457H27.3694V79.4687H27.6349V79.2917L28.0774 79.1148L27.9889 78.8493L28.4313 78.7608L28.9623 78.0528L29.4047 77.9643L29.1393 77.7874L29.3162 77.4334L29.6702 77.3449L30.3781 75.929L30.5551 75.752V75.398H30.7321L30.9976 74.9556L31.1746 74.6016L31.3516 74.0706L31.5285 73.8051L31.794 72.9202L31.971 72.4777V72.0353H32.148L32.2365 71.4158L32.4135 71.0618L32.502 69.2035V67.8761L32.4135 66.9911L32.2365 66.9026L32.4135 66.8141V66.6372L32.2365 66.5487L32.0595 66.1062L31.971 65.4867H31.794L31.8825 65.2213L31.7055 65.0443L31.617 64.6903H31.4401L31.5285 64.4248L31.2631 64.0708H31.0861L30.9976 63.7169H30.8206V63.2744L30.4666 63.0974L30.3781 62.8319H30.1127L29.9357 62.478L29.6702 62.2125H29.4932L29.4047 61.947L28.7853 61.593L27.6349 61.1506L26.1305 60.8851H25.4226L25.2456 60.7966V60.9736L24.7147 60.8851L24.4492 61.0621L24.2722 60.9736L24.0067 61.0621V61.239L23.6528 61.3275L23.3873 61.416V61.593L23.1218 61.5045L23.0333 61.77L22.5024 61.8585L22.4139 62.0355L22.1484 62.124V62.3895L21.6175 62.478L21.2635 63.0974L21.0865 63.2744L20.998 63.6284H20.7325L20.5556 64.2478L20.2016 64.4248L19.9361 65.0443L19.6706 65.3098L19.7591 65.6637H19.4937L19.4052 66.1947L19.2282 66.2832L19.0512 66.7257L18.8742 66.9911L18.9627 67.2566H18.7857L18.5202 68.0531L18.3433 68.407L17.9893 69.292L17.9008 69.6459L17.9893 69.8229H17.7238L17.6353 70.7079L17.2814 71.1503L17.1044 71.5043L16.9274 72.3007H16.7504L16.3079 73.2742L16.131 73.4512L16.0425 73.6282V71.8583L15.954 71.6813L16.0425 71.1503H15.8655L15.954 70.7964L15.8655 69.8229L15.6885 69.469V69.115H15.5115L15.423 68.584L15.1576 68.23L14.9806 67.6106L14.8036 67.5221L14.7151 67.1681L14.4496 66.5487H14.2726L14.1841 66.1947L13.9187 66.1062V65.4867L13.4762 64.9558L13.2107 64.4248L13.2992 64.2478L12.9453 64.0708L12.7683 63.5399H12.5028L12.5913 63.2744L12.4143 63.1859L12.1488 62.7434L12.0603 62.478H11.8834L11.7064 62.124L11.4409 62.0355L11.2639 61.593L10.6445 60.7966H10.4675V60.5311H10.202L10.025 60.0001L9.67106 59.8232L9.40558 59.7347L9.2286 59.2922L8.69765 59.0267L8.34368 58.6727L7.90122 58.4957L7.19328 58.0533L7.0163 57.8763L6.48535 57.7878L5.9544 57.4338H5.42345V57.2568Z" fill="#2A2A21"/>
<path d="M59.8376 48.0527L59.7491 48.2297H58.0677L57.5368 48.4067H57.2713H57.0058V48.5837L56.2094 48.8492L55.6784 49.2032H55.5015V49.4686L54.6165 49.9111L54.528 50.2651H54.3511L53.9971 50.796L53.2007 52.1234L53.1122 52.4774L52.8467 53.0969V53.5393L52.4927 53.7163L52.5812 53.9818L52.4927 54.2473V54.7782L52.3158 55.3092V56.0172L52.2273 56.3711L52.1388 56.9906L52.0503 57.3446V57.787V58.141V59.0259L51.9618 59.4684V61.1498L52.0503 61.8577L52.1388 63.0966L52.3158 63.7161L53.1122 65.8399L53.2892 66.1939L53.9971 66.8134L54.0856 66.9904L54.3511 67.0789L54.4396 67.3443L54.882 67.4328L55.6784 67.6098L56.1209 67.6983H56.8288L57.7138 67.6098L58.1562 67.5213V67.3443L58.5987 67.4328L58.8642 67.1674L59.3951 66.9904V66.8134L59.9261 66.6364L60.3685 66.1939L60.457 65.8399H60.7225L60.988 65.309L61.3419 64.955L61.4304 64.1586L61.6074 63.8931L61.5189 63.7161L61.8729 63.8931L62.3153 64.424L62.7578 65.0435H62.9348L63.0233 65.3975H63.2003L63.3772 65.8399L63.8197 66.5479L63.9967 66.6364L64.1737 66.9904L64.2622 67.4328L64.7046 67.8753L65.3241 68.0523L65.855 67.9638L66.386 67.6983L66.4744 67.4328L66.7399 67.5213L67.0939 67.1674V66.9904H67.2709V66.7249H67.5364L67.9788 65.9284L68.3328 65.3975V65.132H68.5098L68.5983 64.601L68.8637 64.2471L69.1292 63.3621L69.3062 62.8312L69.3947 61.9462L69.4832 61.4153L69.6602 59.9994V58.672H69.4832V57.964V57.6985L69.3947 56.7251H69.2177L69.3062 56.3711H69.1292V55.6632H68.9522L69.0407 55.3977L68.8637 54.9552L68.6867 54.6898L68.7752 54.5128H68.5098L68.4213 54.1588L67.8903 53.0969L67.6248 52.6544L67.4479 52.3004L67.2709 52.2119L67.1824 51.9465L66.8284 51.5925L66.6514 51.327H66.4744V51.15L66.209 50.8845L66.1205 50.7075L65.678 50.4421L65.4125 50.3536L65.3241 49.9996L64.9701 49.9111L64.6161 49.7341V49.5571L63.8197 49.2916L63.3772 49.0262H63.0233V48.8492L62.5808 48.7607V48.5837L62.2268 48.6722L62.1383 48.4952H61.7844L61.6074 48.3182H61.0764L60.634 48.2297H60.103L59.8376 48.0527Z" fill="#020617"/>
<path d="M50.8146 87.166H47.9828L47.8059 87.2545L47.6289 88.2279L47.7174 88.6704L47.6289 88.9359L47.7174 90.0863V90.9712L47.6289 91.1482L47.7174 92.1217L47.6289 92.5641L47.7174 92.8296V93.7145L47.5404 93.803L47.7174 93.8915V96.1924L47.6289 96.4578L47.7174 97.1658L47.8059 97.9622L47.9828 98.4932L48.2483 99.0242L48.6908 99.4666L49.3102 99.6436L49.7527 99.5551L49.8412 99.7321H52.5844V99.5551L53.1154 99.7321H54.1773L54.9737 99.8206H55.4162H55.6816L56.3896 99.2896L56.655 98.8472L56.7435 98.3162L56.655 98.0507L56.832 97.9622L56.5666 97.6968L56.2126 97.2543L56.0356 97.1658L55.8586 96.9003L55.5047 96.7233H55.2392L55.1507 96.5463L54.4428 96.2809L53.2039 96.1039L52.4074 96.0154L51.788 96.1924V95.3959L51.8765 95.2189V94.7765L51.788 94.334L51.8765 93.8915L51.788 93.0066V92.8296V92.2986L51.8765 92.0332H51.6995L51.788 91.2367V90.0863V89.8208L51.8765 89.2014L51.788 88.8474L51.8765 88.6704L51.788 88.1394L51.8765 87.9625L51.788 87.2545L50.8146 87.166Z" fill="#2A2A21"/>
<path d="M39.5808 87.166H37.5455L36.8376 87.2545L35.8642 87.166L35.6872 87.4315V88.4934L35.5987 88.7589L35.7757 88.8474L35.6872 89.2014V89.4668V91.5022L35.5987 91.6792H35.7757L35.6872 92.1217L35.7757 92.8296L35.6872 93.2721L35.5987 93.8915L35.6872 94.334L35.5987 94.511L35.6872 95.1304V96.1924L35.5987 96.5463H35.7757L35.6872 97.4313V97.9622H35.8642L35.7757 98.3162H35.9526L36.0411 98.7587L36.3951 99.2896L36.6606 99.4666H36.9261L37.0146 99.6436L37.3685 99.7321L38.6074 99.8206H40.7312L41.0852 99.9091L43.209 99.8206L43.9169 99.5551L44.2709 98.9357L44.3594 98.2277L44.0939 97.5198L43.8284 97.4313L43.6514 96.9888H43.386V96.8118L42.9435 96.7233L42.855 96.5463L41.8816 96.3694H41.7046L41.6161 96.1924H41.3507L41.0852 96.1039H40.0233H39.8463L39.7578 95.3074L39.8463 94.7765V94.2455L39.7578 93.98L39.8463 93.5376L39.7578 93.3606L39.8463 91.6792L39.7578 90.9712L39.8463 89.7323L39.7578 89.2014L39.9348 89.1129H39.7578L39.8463 88.3164L39.7578 88.051L39.8463 87.697V87.2545L39.5808 87.166Z" fill="#2A2A21"/>
<path d="M54.3585 60.3506L54.1815 60.4391L54.27 61.2355H54.4469V61.501H54.6239V61.7665H54.8894L55.0664 62.1205L55.4204 62.209L55.5973 62.5629L55.8628 62.7399H56.2168L56.3053 62.9169L57.0132 63.0054L57.1017 63.2709H58.96L59.137 63.3594V63.1824L59.9334 63.2709L60.8184 62.8284L60.4644 62.4744H59.8449V62.6514H58.8715L57.2787 62.4744L56.6592 62.1205L55.7743 61.7665L55.5088 61.501H55.2434V61.324H55.0664V61.147L54.8009 61.0585L54.6239 60.7046L54.4469 60.6161L54.3585 60.3506Z" fill="#F9F5EA"/>
<path d="M23.209 72.5615H22.855L22.5895 73.0925L21.9701 73.9774L21.5276 74.4199L21.2622 74.7739V74.9509L20.8197 75.1278L20.3772 75.6588V75.8358L20.0233 76.0128L19.7578 76.2783L19.4038 76.5437V76.7207L18.9614 76.8977L18.7844 77.2517L18.3419 77.4287V77.6057L17.8995 77.6942L17.988 77.9596L18.8729 77.5172L18.9614 77.2517L19.7578 77.0747V76.8977L20.0233 76.8092V76.6322L20.4657 76.4552V76.2783L20.7312 76.1898L20.8197 75.9243H21.0852L21.2622 75.5703L21.4391 75.4818V75.2163L21.7046 75.1278V74.9509L22.0586 74.7739L22.4126 74.1544L22.5895 74.0659L22.7665 73.4465L23.032 73.358L22.855 72.9155L23.1205 72.827L23.209 72.5615Z" fill="#F9F5EA"/>
<path d="M25.4121 76.9883H25.2351L24.7042 77.6962L24.4387 77.8732V78.0502H24.2617L24.1732 78.2272L23.8193 78.4927L23.4653 78.8466V79.0236H23.1998V79.2006H22.9343L22.4919 79.6431L22.4034 79.9086L22.1379 79.9971L22.3149 80.1741L22.8458 79.9971V79.8201H23.0228V79.6431L23.5538 79.4661L24.0847 78.8466L24.2617 78.7582V78.5812L24.5272 78.4927L24.7927 78.2272V78.0502L25.1466 77.8732L25.3236 77.5192L25.4121 76.9883Z" fill="#F8F1E6"/>
<path d="M23.7377 99.5576L23.1182 99.6461H22.2333L22.4103 100L23.8262 99.9116L23.7377 99.5576Z" fill="#FBF7ED"/>
<path d="M26.0374 99.5576H25.5065L25.418 99.7346L26.2144 99.9116L26.5684 99.7346L26.0374 99.5576Z" fill="#F9F0E5"/>
<path d="M37.7207 64.6895L36.9243 64.7779L36.7473 64.6895L36.3048 64.7779H34.181L33.4731 64.9549L33.2076 65.0434L32.8536 65.3974L32.9421 65.9284L33.3846 66.1938L33.7386 66.3708L34.0925 66.2823V66.4593L34.4465 66.5478L34.535 66.4593H35.3314L35.5084 66.5478L35.8624 66.4593L36.4818 66.5478L37.0128 66.4593L37.4552 66.5478L37.9862 66.4593L38.6941 66.5478L39.4905 66.2823V66.1054L39.756 66.1938V66.0169H39.933L40.0215 65.3089L39.579 64.9549L39.2251 64.7779H37.8092L37.7207 64.6895Z" fill="#EC2CBF"/>
<path fill-rule="evenodd" clip-rule="evenodd" d="M45.4152 0L44.5303 0.176987L43.9993 0.442468L43.8223 0.796442H43.4684L43.2914 1.06192L43.1144 1.59288L42.8489 2.92029L42.9374 3.80523L43.1144 4.86715L43.2029 5.66359L43.3799 6.46003L43.4684 6.9025L43.6453 6.991V7.34497H43.8223V8.05292L44.0878 8.40689L44.1763 8.84936L44.3533 9.46882L44.6188 10.0883L44.2648 9.7343L43.2029 8.14141L42.495 7.43346V7.16798L42.0525 6.72551L41.787 6.63702L41.6985 6.28305L41.5215 6.10606H41.2561L41.0791 5.66359L40.8136 5.5751L40.2827 4.95564H40.0172L39.9287 4.60167L39.4862 4.42468V4.24769L38.5128 3.53974H38.3358L38.4243 3.27426H37.9819V3.09728L37.3624 2.8318L37.0969 2.7433V2.56631L36.743 2.47782L36.6545 2.30083H36.3005V2.12385L35.5041 1.76987L35.0616 1.59288L34.0882 1.50439H33.2033L32.3184 1.94686L32.4069 2.21234H32.2299L32.1414 2.03535V2.21234H31.9644L31.7874 2.38933L31.6989 2.65481L31.6105 3.89372L31.7874 3.98221L31.6989 4.33619H31.8759V4.86715L32.3184 5.75208H32.4954L32.5839 6.10606L32.9378 6.72551H33.1148L33.2033 7.16798L33.4688 7.61045L33.9997 8.3184L34.1767 8.49539H34.3537L34.5307 8.76087L34.3537 8.84936L34.7077 8.93785V9.11484H34.8847V9.29183H35.0616V9.6458L35.3271 9.82279L34.8847 9.6458L33.9997 9.02635L33.9112 8.84936L33.3803 8.67237L33.1148 8.40689L32.5839 8.14141L32.1414 7.87593L31.522 7.69894L31.168 7.52196H30.9025V7.34497L29.8406 7.16798V6.991L28.4247 6.63702L27.6283 6.72551L27.5398 6.54853L27.0974 6.63702H26.3894L26.124 6.81401H25.947V6.991H25.5045V7.16798H25.3275V7.34497L25.0621 7.43346L25.1506 7.69894L24.9736 7.78744L24.7966 8.67237L25.1506 9.6458L25.239 9.99978L25.5045 10.3538L25.947 10.7077L26.124 10.9732H26.3009L26.3894 11.2387L26.7434 11.6812H27.0974V11.8581L27.9823 12.3891L28.5132 12.8316L29.3097 13.1855H29.4867V13.3625L29.7521 13.451L29.8406 13.628L29.4867 13.5395L29.1327 13.628H27.8053L27.3628 13.7165H27.0974H26.124L25.6815 13.8935L25.3275 13.7165L25.1506 13.805V13.982L24.4426 13.8935L23.7347 14.159L23.2922 14.2475L22.8498 14.159L22.1418 14.4245L21.4339 14.513L21.2569 14.6899L20.195 15.0439V15.2209L19.841 15.1324L19.5756 15.3979L19.1331 15.5749L18.8676 15.8404L18.2482 16.3713L18.0712 16.8138H17.8942L17.7172 17.0793V17.3447L17.4518 17.4332L17.1863 17.9642L16.9208 18.4067L16.8323 18.8491L16.5668 19.1146L16.4783 19.4686L16.6553 19.9111H16.4783L16.2129 20.619V21.4155L16.0359 22.2119L15.8589 22.8314H16.0359L15.8589 23.7163V25.0437L15.6819 45.9282H15.8589V46.1052H15.6819L15.7704 46.9016L15.6819 47.2556H15.8589L15.6819 47.7865L15.7704 48.052L15.6819 48.8485L15.7704 49.2909L15.6819 49.4679L15.7704 49.9104L15.6819 50.2644V51.5033L15.8589 51.7688L15.6819 52.2997V53.1847L15.8589 53.3616L15.7704 54.0696L15.6819 54.866L15.7704 55.1315V55.751L15.6819 55.928V56.2819L15.8589 57.0784L15.6819 57.1669L15.7704 59.2022V59.4677L15.6819 59.6447L15.7704 61.68L15.6819 62.2995L15.7704 62.565V63.1844H15.9474L15.7704 63.7154V65.1313L15.8589 65.3083V66.0162L15.7704 66.2817L15.8589 66.7242L15.7704 66.9012L15.8589 67.2551L15.7704 67.6976L15.8589 68.671V69.556L15.6819 69.4675V69.1135H15.5049L15.4164 68.5825L15.151 68.2286L14.974 67.6091L14.797 67.5206L14.7085 67.1666L14.443 66.5472H14.2661L14.1776 66.1932L13.9121 66.1047V65.4853L13.4696 64.9543L13.2042 64.4233L13.2926 64.2464L12.9387 64.0694L12.7617 63.5384H12.4962L12.5847 63.2729L12.4077 63.1844L12.1422 62.742L12.0538 62.4765H11.8768L11.6998 62.1225L11.4343 62.034L11.2573 61.5916L10.6379 60.7951H10.4609V60.5296H10.1954L10.0184 59.9987L9.66448 59.8217L9.399 59.7332L9.22202 59.2907L8.69107 59.0252L8.3371 58.6713L7.89464 58.4943L7.18671 58.0518L7.00972 57.8748L6.47877 57.7863L5.94782 57.4324H5.41687L5.32838 57.2554L4.62044 57.3439H4.35497L3.82402 57.5208L3.11608 58.0518L2.85061 58.4943V58.7598L2.67362 58.8482V60.5296L2.85061 60.9721L2.9391 61.5916H3.11608L3.20457 62.034L3.38156 62.6535L3.91251 63.8039V63.9809H4.08949V64.2464L4.26648 64.4233V64.7773L4.53195 65.0428L4.70893 65.4853H4.88592L5.0629 66.0162L5.50536 66.8127L5.94782 67.2551L6.03631 67.6091L6.2133 67.6976L6.65575 68.2286L6.92123 68.4941L7.00972 68.848H7.18671V69.025H7.36369L7.45218 69.379H7.62917V69.556L7.89464 69.6445L8.07162 69.9984H8.24861V70.1754L7.89464 70.0869L7.45218 69.6445H7.2752L7.09821 69.202L6.39028 69.025L6.2133 68.671L5.77084 68.5825V68.3171L5.41687 68.1401L4.79743 67.8746L4.35497 67.6091L3.82402 67.4321L3.20457 67.1666L3.02759 67.2551L2.23116 67.0782L1.8772 67.2551L1.52323 67.5206L1.08077 67.6976L0.903785 68.2286L0.815293 68.3171L0.726802 69.1135L0.815293 69.379L0.903785 69.8215H1.08077L0.992277 70.1754L1.08077 70.3524H1.25775L1.16926 70.6179L1.8772 71.6798L2.14267 72.1223L2.31965 72.5648L2.58513 72.6533L2.76211 73.0072H2.9391V73.2727L3.20457 73.4497L3.29306 73.8037H3.55854L3.64703 74.0691L4.26648 74.7771L5.15139 75.662H5.32838L5.41687 75.9275H5.59385L5.85933 76.016V76.193L6.47877 76.8125L7.36369 77.4319L7.80615 77.8744L8.24861 78.2283H8.42559V78.4053L8.69107 78.4938L8.95654 78.7593L9.399 79.0248H9.75297V79.2018H9.92995L10.0184 79.4673L10.5494 79.7327H10.8149V79.9097L11.1688 79.9982V80.1752L11.6113 80.2637V80.4407H11.9653L12.0538 80.7062L12.4962 80.7947L12.9387 81.1486L13.3811 81.2371V81.4141L14.1776 81.5026V81.6796H14.7085L15.8589 82.0336L16.1244 81.9451L16.2129 82.2106L16.7438 82.1221V82.3875H16.9208L17.0093 82.83H17.1863L17.2748 83.184L17.4518 83.538L17.6287 83.6265L17.8057 83.9804L18.5137 84.6884L19.3101 85.1309L19.3986 85.3078L19.841 85.4848L20.1065 85.7503L20.8144 85.8388L20.9029 86.0158L21.7879 86.2813H22.4073L22.7613 86.4583L23.6462 86.6352L24.5311 86.7237L24.8851 86.8122H25.6815L26.124 86.9892H27.6283L27.7168 87.1662V86.9892H27.8938L27.9823 87.1662L28.0708 87.0777L28.8672 87.1662L29.3097 87.0777L29.5751 87.1662H30.7255L31.345 87.2547L32.2299 87.1662H35.6811L36.3005 87.2547L37.8049 87.3432L39.5747 87.2547L40.5924 87.3432L42.4065 87.2547L43.0701 87.3432L43.8223 87.2547L45.8134 87.3432L47.8045 87.2547L49.1318 87.3432L50.4592 87.2547L51.8751 87.3432L52.3175 87.2547H55.5917L56.4767 87.0777V87.2547H57.8925L58.7775 87.1662H61.1667L61.7862 86.9892L62.5826 87.0777L63.1136 86.9892H63.91V86.8122L64.4409 86.9007L64.5294 86.8122L65.9453 86.6352L67.0957 86.4583L67.3612 86.2813L68.0691 86.1928L68.777 85.8388L69.6619 85.4848L70.1044 85.3963V85.1309H70.5469L70.4584 84.8654H70.7238V84.6884L71.3433 84.5114V84.3344L71.9627 83.8034L72.3167 83.184V83.007H72.4937L72.8477 82.2991L72.9361 81.6796H73.2016V81.1486L73.4671 80.3522L73.6441 79.0248L73.7326 78.5823L73.8211 77.9629V76.8125L73.9096 76.6355H73.7326L73.8211 76.2815V75.3966L73.9096 75.1311V73.1842L73.998 73.0072L73.9096 72.0338V66.3702L73.998 65.3968L73.9096 65.1313V61.2376L73.998 60.9721L73.9096 60.7951V53.3616L73.998 52.8307V52.4767L73.9096 51.7688V50.9723V50.7068L73.8211 50.4414L73.9096 50.0874V48.8485L73.8211 48.406L73.9096 47.7865L73.7326 46.9016L73.8211 46.7246L73.7326 25.3977V24.3357L73.5556 23.2738L73.6441 22.9198V22.6544L73.5556 21.9464L73.2901 20.796L73.2016 20.442L73.2901 20.1765L73.1131 19.9111L73.0246 19.3801L72.6707 18.4952L72.5822 18.3182H72.4052L72.4937 18.0527L71.9627 17.1678L71.7858 16.9023H71.6088L71.6973 16.6368H71.4318L71.3433 16.3713L70.9008 15.9288L70.4584 15.5749L70.1929 15.3094L69.6619 15.1324L69.0425 14.7784L68.8655 14.6014L67.5381 14.4245L66.6532 14.0705L66.2993 14.2475L66.0338 13.982L65.5913 14.0705L65.5028 13.8935H64.3524L63.91 13.805L62.4941 13.7165L62.0516 13.628H60.6358L60.3703 13.7165L60.2818 13.5395L59.9278 13.451L59.3084 13.5395L58.8659 13.451V13.628H58.335L58.0695 13.451L56.8306 13.5395H55.9457L55.6802 13.451L54.7953 13.5395L54.4413 13.451L54.0874 13.5395L53.9989 13.3625V13.5395H53.3794L53.291 13.3625L52.76 13.5395L52.3175 13.3625V11.5927L52.1406 9.82279L52.0521 9.20334V8.93785H51.8751L51.6981 7.69894L51.5211 7.25648V7.07949H51.3441L51.2556 6.63702V6.37154L51.0787 6.01757H50.9017V5.5751L50.6362 4.95564H50.4592L50.3707 4.51317H50.1937L50.1052 4.07071L50.0168 3.89372H49.8398L49.7513 3.53974H49.5743L49.4858 3.09728L49.3088 2.65481L48.7779 2.21234L48.4239 2.12385L48.5124 1.85837H48.3354V1.50439H47.893L47.716 1.15042L47.4505 0.884936L46.9195 0.619455L46.7426 0.442468L45.5037 0.0884936L45.4152 0ZM54.2644 16.1058L54.0874 16.0173L53.3794 16.1058H52.4945H52.1406L51.3441 16.1943V16.0173L50.4592 16.1058H49.6628H49.4858H44.7957L44.1763 16.0173L43.9993 16.1058H43.5569H43.3799H42.2295H41.8755H41.2561L40.8136 16.1943L40.5481 16.1058L39.7517 16.1943L39.5747 16.1058H39.1323L39.0438 16.1943L37.8934 16.1058L37.3624 16.1943L36.389 16.1058L35.5926 16.1943H34.8847L34.0882 16.1058L33.9112 16.1943H32.0529H31.7874L31.6105 16.2828H30.7255L30.5486 16.1943H30.2831L30.1946 16.3713L29.9291 16.1943L29.4867 16.3713H28.0708L27.7168 16.4598H27.0089L26.9204 16.5483L26.3894 16.4598L26.124 16.5483H25.593L25.416 16.7253L25.239 16.6368L24.7081 16.8138L23.5577 16.9023L22.3188 17.2563L21.3454 17.6102V17.7872L20.549 18.0527L20.1065 18.6722L19.6641 19.3801L19.4871 19.7341L19.3101 20.1765L19.3986 20.442H19.2216L19.1331 20.8845L19.0446 21.15L18.9561 21.5924L18.7791 23.0968L18.8676 23.4508H18.6906L18.6022 23.7163L18.7791 23.8048L18.6022 24.2472V46.9901V47.3441V48.6715L18.5137 49.2024L18.6022 49.6449L18.5137 50.0874V51.5918L18.6022 51.9457L18.5137 52.3882V53.7156L18.6022 54.0696L18.5137 54.9545L18.6022 56.3704L18.5137 57.1669V57.7863L18.6022 57.9633L18.5137 58.6713V59.4677L18.6022 60.3526L18.5137 60.8836V63.2729L18.6022 63.6269L18.5137 65.8392L18.6906 65.9277V66.1932H18.5137L18.6022 66.5472V67.3436L18.7791 67.4321V67.2551H18.9561V66.9897L19.1331 66.7242L19.3986 66.1932L19.4871 65.6623H19.7525V65.3083L20.018 65.0428L20.2835 64.4233L20.6375 64.0694L20.726 63.6269H20.9914L21.6994 62.565L22.1418 62.388V62.1225H22.4073L22.7613 61.9455L23.1152 61.5916H23.3807V61.4146H23.6462L24.0002 61.2376V61.0606L24.3541 61.1491L24.7966 60.9721H25.239H25.416H26.124L27.6283 61.2376L28.7787 61.68L29.3982 62.034L29.6636 62.2995L30.1061 62.8305H30.3716V63.0959L30.814 63.2729L30.7255 63.4499L30.814 63.7154H30.991V63.8924L31.345 64.3349L31.4335 64.6888H31.6105L31.6989 65.1313L31.7874 65.4853H31.9644L31.8759 65.6623L31.9644 66.1047L32.1414 66.5472L32.4069 66.6357L32.1414 66.9012L32.3184 67.0782L32.4069 67.8746V69.202L32.3184 71.0604L32.0529 71.6798L32.1414 72.0338H31.9644L31.8759 72.4763L31.6989 72.9187L31.4335 73.8037L31.168 74.1576L31.0795 74.6001L30.9025 74.7771L30.7255 75.3966H30.5486L30.4601 75.7505L30.2831 75.9275L29.7521 76.9009L29.6636 77.3434H29.3097L29.1327 77.6974V77.9629H28.8672L28.5132 78.4938L28.4247 78.7593L27.9823 78.8478V79.0248L27.6283 79.2903V79.4673H27.3628V79.6442H27.1859V79.9097L26.7434 79.9982L26.3009 80.3522L25.416 80.7947V81.0601L25.239 80.9717L24.8851 81.0601L24.0886 81.4141L23.7347 81.5026L23.6462 81.7681H23.4692V81.5026L23.0267 81.6796V81.8566L21.6109 82.0336L20.018 82.2106V82.476L20.549 82.5645L20.6375 82.7415L21.8764 83.361L22.1418 83.2725V83.4495L22.6728 83.538L23.0267 83.715L24.0002 83.8919L24.6196 84.0689H25.239L25.5045 83.9804L26.0355 84.2459H27.1859L27.4513 84.3344L28.1593 84.4229H28.8672L29.7521 84.3344L30.2831 84.5114H30.991L31.4335 84.5999L31.9644 84.5114H32.2299L32.4069 84.5999L33.0263 84.5114L33.3803 84.5999H34.2652L34.5307 84.5114L35.0616 84.5999L35.4156 84.5114H35.6811L36.3005 84.5999H37.1854H37.3624L38.3358 84.5114L38.6898 84.3344V84.5999H38.8668H39.1323L39.5747 84.5114L39.7517 84.5999L40.1942 84.4229V84.5999L42.4065 84.5114L43.2914 84.6884L43.3799 84.5114L43.5569 84.5999L43.8223 84.5114L44.9727 84.5999L45.0612 84.3344H45.2382V84.5114L46.4771 84.5999L47.8045 84.5114L48.0699 84.5999L48.4239 84.5114L48.7779 84.5999L48.8664 84.4229L49.1318 84.5114H50.4592L51.4326 84.5999L52.583 84.4229H52.8485L53.8219 84.5114L53.9989 84.5999H54.5298H54.7953L55.1493 84.4229L55.7687 84.5114L56.6536 84.4229L57.0961 84.5114L57.3616 84.4229L58.335 84.5114L58.512 84.4229H59.0429H59.2199H60.6358L61.7862 84.3344L63.556 84.2459L64.7064 84.0689H65.0604L65.6798 83.8919L66.5647 83.8034L66.6532 83.6265L67.0072 83.715V83.538L67.6266 83.4495L67.7151 83.2725H67.8921L68.6 83.0955V82.9185H68.8655L69.308 82.476L69.9274 81.9451V81.6796H70.1044L70.3699 80.9717L70.6354 80.1752L70.8123 79.3788L70.9008 78.5823L70.9893 77.6974L70.9008 77.3434L70.9893 77.2549L71.0778 77.0779L70.9008 76.9894L71.1663 75.839V75.0426L71.0778 74.7771L71.1663 74.5116L71.2548 73.8922L71.1663 73.3612L71.3433 72.8302V72.2993L71.2548 72.0338V71.3258L71.1663 70.8834L71.2548 70.5294V70.2639L71.3433 69.8215L71.1663 69.733L71.2548 69.202L71.3433 68.848V68.4056L71.1663 67.8746L71.2548 66.9012L71.3433 66.5472L71.2548 66.2817V65.6623H71.4318L71.2548 65.2198V63.8039V63.4499L71.0778 63.0959H71.2548L71.1663 62.8305L71.2548 62.388V62.1225L71.3433 61.68L71.2548 61.4146L71.3433 60.8836L71.2548 60.7066V59.8217L71.0778 59.7332V59.5562H71.3433L71.2548 59.0252L71.1663 58.6713L71.2548 58.2288L71.1663 57.5208V57.2554L71.2548 56.7244L71.1663 56.3704L71.3433 56.1934L71.2548 55.6625L71.0778 55.043H71.2548V54.1581L71.1663 53.8926L71.2548 53.0077L71.1663 52.8307L71.2548 52.4767V51.6803L71.0778 51.5918L71.1663 51.0608L71.2548 50.8838L71.1663 50.1759L71.2548 49.3794L71.1663 48.229L71.2548 47.4326L71.1663 47.2556V46.6361L71.0778 25.3092L71.1663 24.6012L71.0778 24.4242L70.9893 23.7163V23.3623L70.9008 22.6544V21.9464L70.7238 21.5924L70.5469 20.7075L70.4584 19.9996L70.1929 19.7341L70.0159 19.2031H69.8389V18.9376L69.6619 18.5837H69.485V18.4067L69.0425 17.8757L68.4231 17.6102L68.0691 17.3447L67.3612 17.1678L66.3877 16.9023L65.8568 16.7253L64.7064 16.5483L64.087 16.6368V16.4598L63.6445 16.3713L63.202 16.4598L62.4941 16.2828L62.0516 16.4598V16.2828H60.9897L60.7243 16.1943L60.3703 16.2828L59.6624 16.1943H58.6005L58.2465 16.1058L58.0695 16.1943L57.6271 16.1058L57.0961 16.1943L56.7421 16.1058H54.2644Z" fill="#115E24"/>
<path d="M57.0391 37.9854H62.6126" stroke="black" stroke-width="2.25" stroke-linecap="round"/>
<path d="M57.0391 43.25H62.6126" stroke="black" stroke-width="2.25" stroke-linecap="round"/>
<path d="M57 43.2504L62.5736 37.9854" stroke="black" stroke-width="2.25" stroke-linecap="round"/>
<path d="M75.0371 14H85.8746" stroke="black" stroke-width="3.75" stroke-linecap="round"/>
<path d="M75.0371 24.2383H85.8746" stroke="black" stroke-width="3.75" stroke-linecap="round"/>
<path d="M74.959 24.2375L85.7965 14" stroke="black" stroke-width="3.75" stroke-linecap="round"/>
<path d="M66.9766 29.7959H76.507" stroke="black" stroke-width="3" stroke-linecap="round"/>
<path d="M66.9766 38.7988H76.507" stroke="black" stroke-width="3" stroke-linecap="round"/>
<path d="M66.9082 38.7988L76.4387 29.7959" stroke="black" stroke-width="3" stroke-linecap="round"/>
<path d="M32.1289 53C34.3838 55.6096 39.3838 55.7231 42.1289 53" stroke="black" stroke-width="2.5" stroke-linecap="round"/>
<path d="M33.8242 54.2896C32.7416 54.1608 31.4592 55.1986 31.3044 56.4185" stroke="black" stroke-width="2.2" stroke-linecap="round"/>
<path d="M37.1295 55.0676C36.0253 54.7993 34.5322 55.6057 34.1816 56.737" stroke="black" stroke-width="2.2" stroke-linecap="round"/>
</svg>
