<svg width="62" height="100" viewBox="0 0 62 100" fill="none" xmlns="http://www.w3.org/2000/svg">
<path d="M47.4298 48.0527L47.3413 48.2297H45.66L45.129 48.4067H44.8636H44.5981V48.5837L43.8017 48.8492L43.2707 49.2032H43.0937V49.4686L42.2088 49.9111L42.1203 50.2651H41.9433L41.5894 50.796L40.7929 52.1234L40.7045 52.4774L40.439 53.0969V53.5393L40.085 53.7163L40.1735 53.9818L40.085 54.2473V54.7782L39.908 55.3092V56.0172L39.8195 56.3711L39.731 56.9906L39.6426 57.3446V57.787V58.141V59.0259L39.5541 59.4684V61.1498L39.6426 61.8577L39.731 63.0966L39.908 63.7161L40.7045 65.8399L40.8814 66.1939L41.5894 66.8134L41.6779 66.9904L41.9433 67.0789L42.0318 67.3443L42.4743 67.4328L43.2707 67.6098L43.7132 67.6983H44.4211L45.306 67.6098L45.7485 67.5213V67.3443L46.1909 67.4328L46.4564 67.1674L46.9874 66.9904V66.8134L47.5183 66.6364L47.9608 66.1939L48.0493 65.8399H48.3148L48.5802 65.309L48.9342 64.955L49.0227 64.1586L49.1997 63.8931L49.1112 63.7161L49.4651 63.8931L49.9076 64.424L50.3501 65.0435H50.527L50.6155 65.3975H50.7925L50.9695 65.8399L51.412 66.5479L51.589 66.6364L51.7659 66.9904L51.8544 67.4328L52.2969 67.8753L52.9163 68.0523L53.4473 67.9638L53.9782 67.6983L54.0667 67.4328L54.3322 67.5213L54.6862 67.1674V66.9904H54.8632V66.7249H55.1286L55.5711 65.9284L55.9251 65.3975V65.132H56.102L56.1905 64.601L56.456 64.2471L56.7215 63.3621L56.8985 62.8312L56.987 61.9462L57.0754 61.4153L57.2524 59.9994V58.672H57.0754V57.964V57.6985L56.987 56.7251H56.81L56.8985 56.3711H56.7215V55.6632H56.5445L56.633 55.3977L56.456 54.9552L56.279 54.6898L56.3675 54.5128H56.102L56.0135 54.1588L55.4826 53.0969L55.2171 52.6544L55.0401 52.3004L54.8632 52.2119L54.7747 51.9465L54.4207 51.5925L54.2437 51.327H54.0667V51.15L53.8012 50.8845L53.7128 50.7075L53.2703 50.4421L53.0048 50.3536L52.9163 49.9996L52.5624 49.9111L52.2084 49.7341V49.5571L51.412 49.2916L50.9695 49.0262H50.6155V48.8492L50.1731 48.7607V48.5837L49.8191 48.6722L49.7306 48.4952H49.3767L49.1997 48.3182H48.6687L48.2263 48.2297H47.6953L47.4298 48.0527Z" fill="#020617"/>
<path d="M23.5355 49.9082H23.3585V50.0852H22.6505L21.8541 50.3507L21.4117 50.5277V50.7046L20.6152 50.9701L20.2613 51.5011L19.9073 51.7666L19.4648 52.74L19.1109 53.3595L18.8454 54.3329L18.6684 56.2797L18.7569 56.8992L18.8454 57.3417L18.9339 57.8726H19.1109L18.9339 58.3151H19.1109L19.4648 59.377L19.6418 59.731L19.8188 59.8195L20.0843 60.3504H20.3498V60.6159L20.7922 60.8814H20.9692V61.0584L21.5886 61.4124L22.4736 61.5894L22.5621 61.7663L23.624 61.9433H24.3319L24.5089 62.0318V61.7663H24.7744V61.9433H24.9513V61.7663L25.2168 61.8548L26.0132 61.5009H26.2787V61.3239L26.8097 61.2354L26.8982 60.9699H27.2521L27.3406 60.5274L27.6946 60.4389L28.314 59.4655L28.668 58.5806L28.7565 58.0496L29.022 56.6337L28.9335 55.6603L29.022 55.2178L28.9335 54.6869V54.4214H28.7565L28.845 53.7134H28.5795L28.668 53.3595L28.2255 52.4745L27.9601 52.1205H27.7831L27.6946 51.7666H27.5176L27.4291 51.3241L26.8097 50.7931L26.4557 50.7046V50.5277L25.8363 50.3507H25.4823V50.1737L24.5974 49.9967H23.8009L23.5355 50.0852V49.9082Z" fill="#2B2A21"/>
<path d="M38.4069 87.166H35.5751L35.3981 87.2545L35.2212 88.2279L35.3096 88.6704L35.2212 88.9359L35.3096 90.0863V90.9712L35.2212 91.1482L35.3096 92.1217L35.2212 92.5641L35.3096 92.8296V93.7145L35.1327 93.803L35.3096 93.8915V96.1924L35.2212 96.4578L35.3096 97.1658L35.3981 97.9622L35.5751 98.4932L35.8406 99.0242L36.2831 99.4666L36.9025 99.6436L37.345 99.5551L37.4334 99.7321H40.1767V99.5551L40.7076 99.7321H41.7695L42.566 99.8206H43.0084H43.2739L43.9818 99.2896L44.2473 98.8472L44.3358 98.3162L44.2473 98.0507L44.4243 97.9622L44.1588 97.6968L43.8049 97.2543L43.6279 97.1658L43.4509 96.9003L43.0969 96.7233H42.8315L42.743 96.5463L42.035 96.2809L40.7961 96.1039L39.9997 96.0154L39.3803 96.1924V95.3959L39.4688 95.2189V94.7765L39.3803 94.334L39.4688 93.8915L39.3803 93.0066V92.8296V92.2986L39.4688 92.0332H39.2918L39.3803 91.2367V90.0863V89.8208L39.4688 89.2014L39.3803 88.8474L39.4688 88.6704L39.3803 88.1394L39.4688 87.9625L39.3803 87.2545L38.4069 87.166Z" fill="#2A2A21"/>
<path d="M27.1731 87.166H25.1378L24.4298 87.2545L23.4564 87.166L23.2794 87.4315V88.4934L23.191 88.7589L23.3679 88.8474L23.2794 89.2014V89.4668V91.5022L23.191 91.6792H23.3679L23.2794 92.1217L23.3679 92.8296L23.2794 93.2721L23.191 93.8915L23.2794 94.334L23.191 94.511L23.2794 95.1304V96.1924L23.191 96.5463H23.3679L23.2794 97.4313V97.9622H23.4564L23.3679 98.3162H23.5449L23.6334 98.7587L23.9874 99.2896L24.2529 99.4666H24.5183L24.6068 99.6436L24.9608 99.7321L26.1997 99.8206H28.3235L28.6774 99.9091L30.8013 99.8206L31.5092 99.5551L31.8632 98.9357L31.9516 98.2277L31.6862 97.5198L31.4207 97.4313L31.2437 96.9888H30.9782V96.8118L30.5358 96.7233L30.4473 96.5463L29.4739 96.3694H29.2969L29.2084 96.1924H28.9429L28.6774 96.1039H27.6155H27.4386L27.3501 95.3074L27.4386 94.7765V94.2455L27.3501 93.98L27.4386 93.5376L27.3501 93.3606L27.4386 91.6792L27.3501 90.9712L27.4386 89.7323L27.3501 89.2014L27.5271 89.1129H27.3501L27.4386 88.3164L27.3501 88.051L27.4386 87.697V87.2545L27.1731 87.166Z" fill="#2A2A21"/>
<path d="M24.2436 52.209H23.8011V52.386H23.0047L22.9162 52.6515L22.4737 52.7399L22.2967 53.0054L21.8543 53.2709L21.5003 53.8019L21.3233 53.9789L20.8809 55.3063V55.9257L20.7924 56.5452L20.8809 57.2531L21.0579 57.6956V58.1381L21.3233 58.5805H21.5003L21.4118 58.9345H21.5888L21.9428 59.377L22.3852 59.6424H22.6507L22.7392 59.8194H22.9162L23.1817 59.9964H24.332L24.4205 59.9079H24.9515L25.5709 59.6424V59.4655H25.8364L25.9249 59.2885L26.1019 59.1115L26.0134 58.9345L26.3674 58.7575L26.7213 57.9611L26.8983 56.8107L26.9868 56.7222V55.6602L26.8098 54.5983L26.6328 54.2443L26.3674 53.8019H26.1904L26.1019 53.4479L25.8364 53.0054L25.217 52.7399L25.1285 52.4745L24.686 52.2975L24.2436 52.386V52.209Z" fill="#FAF6EC"/>
<path d="M24.1614 54.5098L23.0995 54.5983V54.8637L22.7455 55.0407V55.2177H22.5685L22.3031 56.0142V56.9876L22.48 57.5185H22.657L22.7455 57.8725L23.4534 58.2265L23.8074 58.315L24.1614 58.2265H24.4269L24.8693 58.138L25.1348 57.6955L25.4003 57.1646L25.4888 56.3681L25.4003 55.8372L25.4888 55.6602H25.2233L25.1348 55.2177L24.7808 54.8637L24.1614 54.5098Z" fill="#2C2A21"/>
<path d="M41.9507 60.3506L41.7737 60.4391L41.8622 61.2355H42.0392V61.501H42.2162V61.7665H42.4817L42.6587 62.1205L43.0126 62.209L43.1896 62.5629L43.4551 62.7399H43.8091L43.8975 62.9169L44.6055 63.0054L44.694 63.2709H46.5523L46.7293 63.3594V63.1824L47.5257 63.2709L48.4106 62.8284L48.0567 62.4744H47.4372V62.6514H46.4638L44.871 62.4744L44.2515 62.1205L43.3666 61.7665L43.1011 61.501H42.8356V61.324H42.6587V61.147L42.3932 61.0585L42.2162 60.7046L42.0392 60.6161L41.9507 60.3506Z" fill="#F9F5EA"/>
<path d="M10.8013 72.5615H10.4473L10.1818 73.0925L9.56237 73.9774L9.11991 74.4199L8.85444 74.7739V74.9509L8.41198 75.1278L7.96952 75.6588V75.8358L7.61555 76.0128L7.35008 76.2783L6.99611 76.5437V76.7207L6.55365 76.8977L6.37666 77.2517L5.93421 77.4287V77.6057L5.49175 77.6942L5.58024 77.9596L6.46516 77.5172L6.55365 77.2517L7.35008 77.0747V76.8977L7.61555 76.8092V76.6322L8.05801 76.4552V76.2783L8.32349 76.1898L8.41198 75.9243H8.67745L8.85444 75.5703L9.03142 75.4818V75.2163L9.2969 75.1278V74.9509L9.65086 74.7739L10.0048 74.1544L10.1818 74.0659L10.3588 73.4465L10.6243 73.358L10.4473 72.9155L10.7128 72.827L10.8013 72.5615Z" fill="#F9F5EA"/>
<path d="M13.0044 76.9883H12.8274L12.2964 77.6962L12.031 77.8732V78.0502H11.854L11.7655 78.2272L11.4115 78.4927L11.0576 78.8466V79.0236H10.7921V79.2006H10.5266L10.0842 79.6431L9.99566 79.9086L9.73018 79.9971L9.90717 80.1741L10.4381 79.9971V79.8201H10.6151V79.6431L11.1461 79.4661L11.677 78.8466L11.854 78.7582V78.5812L12.1195 78.4927L12.3849 78.2272V78.0502L12.7389 77.8732L12.9159 77.5192L13.0044 76.9883Z" fill="#F8F1E6"/>
<path d="M11.33 99.5576L10.7105 99.6461H9.82559L10.0026 100L11.4184 99.9116L11.33 99.5576Z" fill="#FBF7ED"/>
<path d="M13.6297 99.5576H13.0987L13.0102 99.7346L13.8067 99.9116L14.1606 99.7346L13.6297 99.5576Z" fill="#F9F0E5"/>
<path d="M25.313 64.6895L24.5165 64.7779L24.3396 64.6895L23.8971 64.7779H21.7733L21.0654 64.9549L20.7999 65.0434L20.4459 65.3974L20.5344 65.9284L20.9769 66.1938L21.3308 66.3708L21.6848 66.2823V66.4593L22.0388 66.5478L22.1273 66.4593H22.9237L23.1007 66.5478L23.4546 66.4593L24.0741 66.5478L24.605 66.4593L25.0475 66.5478L25.5784 66.4593L26.2864 66.5478L27.0828 66.2823V66.1054L27.3483 66.1938V66.0169H27.5253L27.6138 65.3089L27.1713 64.9549L26.8173 64.7779H25.4015L25.313 64.6895Z" fill="#EC2CBF"/>
<path fill-rule="evenodd" clip-rule="evenodd" d="M33.0075 0L32.1225 0.176987L31.5916 0.442468L31.4146 0.796442H31.0606L30.8837 1.06192L30.7067 1.59288L30.4412 2.92029L30.5297 3.80523L30.7067 4.86715L30.7952 5.66359L30.9721 6.46003L31.0606 6.9025L31.2376 6.99099V7.34497H31.4146V8.05292L31.6801 8.40689L31.7686 8.84936L31.9456 9.46882L32.211 10.0883L31.8571 9.7343L30.7952 8.14141L30.0872 7.43346V7.16798L29.6448 6.72551L29.3793 6.63702L29.2908 6.28305L29.1138 6.10606H28.8483L28.6714 5.66359L28.4059 5.5751L27.8749 4.95564H27.6095L27.521 4.60167L27.0785 4.42468V4.24769L26.1051 3.53974H25.9281L26.0166 3.27426H25.5741V3.09728L24.9547 2.8318L24.6892 2.7433V2.56631L24.3353 2.47782L24.2468 2.30083H23.8928V2.12385L23.0964 1.76987L22.6539 1.59288L21.6805 1.50439H20.7956L19.9107 1.94686L19.9992 2.21234H19.8222L19.7337 2.03535V2.21234H19.5567L19.3797 2.38933L19.2912 2.65481L19.2027 3.89372L19.3797 3.98221L19.2912 4.33619H19.4682V4.86715L19.9107 5.75208H20.0876L20.1761 6.10606L20.5301 6.72551H20.7071L20.7956 7.16798L21.0611 7.61045L21.592 8.3184L21.769 8.49539H21.946L22.123 8.76087L21.946 8.84936L22.2999 8.93785V9.11484H22.4769V9.29183H22.6539V9.6458L22.9194 9.82279L22.4769 9.6458L21.592 9.02635L21.5035 8.84936L20.9726 8.67237L20.7071 8.40689L20.1761 8.14141L19.7337 7.87593L19.1142 7.69894L18.7603 7.52196H18.4948V7.34497L17.4329 7.16798V6.99099L16.017 6.63702L15.2206 6.72551L15.1321 6.54853L14.6896 6.63702H13.9817L13.7162 6.81401H13.5392V6.99099H13.0968V7.16798H12.9198V7.34497L12.6543 7.43346L12.7428 7.69894L12.5658 7.78744L12.3889 8.67237L12.7428 9.6458L12.8313 9.99978L13.0968 10.3538L13.5392 10.7077L13.7162 10.9732H13.8932L13.9817 11.2387L14.3357 11.6812H14.6896V11.8581L15.5746 12.3891L16.1055 12.8316L16.9019 13.1855H17.0789V13.3625L17.3444 13.451L17.4329 13.628L17.0789 13.5395L16.725 13.628H15.3976L14.9551 13.7165H14.6896H13.7162L13.2738 13.8935L12.9198 13.7165L12.7428 13.805V13.982L12.0349 13.8935L11.327 14.159L10.8845 14.2475L10.442 14.159L9.7341 14.4245L9.02617 14.513L8.84918 14.6899L7.78728 15.0439V15.2209L7.43331 15.1324L7.16784 15.3979L6.72538 15.5749L6.4599 15.8404L5.84046 16.3713L5.66348 16.8138H5.48649L5.30951 17.0793V17.3447L5.04403 17.4332L4.77856 17.9642L4.51308 18.4067L4.42459 18.8491L4.15911 19.1146L4.07062 19.4686L4.24761 19.9111H4.07062L3.80515 20.619V21.4155L3.62816 22.2119L3.45118 22.8314H3.62816L3.45118 23.7163V25.0437L3.2742 45.9282H3.45118V46.1052H3.2742L3.36269 46.9016L3.2742 47.2556H3.45118L3.2742 47.7865L3.36269 48.052L3.2742 48.8485L3.36269 49.2909L3.2742 49.4679L3.36269 49.9104L3.2742 50.2644V51.5033L3.45118 51.7688L3.2742 52.2997V53.1847L3.45118 53.3616L3.36269 54.0696L3.2742 54.866L3.36269 55.1315V55.751L3.2742 55.928V56.2819L3.45118 57.0784L3.2742 57.1669L3.36269 59.2022V59.4677L3.2742 59.6447L3.36269 61.68L3.2742 62.2995L3.36269 62.565V63.1844H3.53967L3.36269 63.7154V65.1313L3.45118 65.3083V66.0162L3.36269 66.2817L3.45118 66.7242L3.36269 66.9012L3.45118 67.2551L3.36269 67.6976L3.45118 68.671V69.556L3.2742 69.4675V69.1135H3.09721L3.00872 68.5825L2.74324 68.2286L2.56626 67.6091L2.38928 67.5206L2.30079 67.1666L2.03531 66.5472H1.85833L1.76984 66.1932L1.50436 66.1047V65.4853L1.0619 64.9543L0.796425 64.4233L0.884918 64.2464L0.530949 64.0694L0.353966 63.5384H0.0884895L0.176983 63.2729L0 63.1844L15.7345 62.742L15.646 62.4765H15.469L15.2921 62.1225L15.0266 62.034L14.8496 61.5916L14.2302 60.7951H14.0532V60.5296H13.7877L13.6107 59.9987L13.2567 59.8217L12.9913 59.7332L12.8143 59.2907L12.2833 59.0252L11.9294 58.6713L11.4869 58.4943L10.779 58.0518L16.602 57.8748L16.071 57.7863L15.5401 57.4324H15.0091L14.9207 57.2554L14.2127 57.3439H13.9472L13.4163 57.5208L12.7084 58.0518L12.4429 58.4943V58.7598L12.2659 58.8482V60.5296L12.4429 60.9721L12.5314 61.5916H12.7084L12.7968 62.034L12.9738 62.6535L13.5048 63.8039V63.9809H13.6818V64.2464L13.8587 64.4233V64.7773L14.1242 65.0428L14.3012 65.4853H14.4782L14.6552 66.0162L15.0976 66.8127L15.5401 67.2551L15.6286 67.6091L15.8056 67.6976L16.248 68.2286L16.5135 68.494L16.602 68.848H16.779V69.025H16.956L17.0445 69.379H17.2214V69.556L17.4869 69.6445L17.6639 69.9984H17.8409V70.1754L17.4869 70.0869L17.0445 69.6445H16.8675L16.6905 69.202L15.9826 69.025L15.8056 68.671L15.3631 68.5825V68.3171L15.0091 68.1401L14.3897 67.8746L13.9472 67.6091L13.4163 67.4321L12.7968 67.1666L12.6199 67.2551L11.8234 67.0782L11.4695 67.2551L11.1155 67.5206L10.673 67.6976L10.4961 68.2286L10.4076 68.3171L10.3191 69.1135L10.4076 69.379L10.4961 69.8215H10.673L10.5846 70.1754L10.673 70.3524H10.85L10.7615 70.6179L11.4695 71.6798L11.7349 72.1223L11.9119 72.5648L12.1774 72.6533L12.3544 73.0072H12.5314V73.2727L12.7968 73.4497L12.8853 73.8037H13.1508L13.2393 74.0692L13.8587 74.7771L14.7437 75.662H14.9207L15.0091 75.9275H15.1861L15.4516 76.016V76.193L16.071 76.8125L16.956 77.4319L17.3984 77.8744L17.8409 78.2283H18.0179V78.4053L18.2833 78.4938L18.5488 78.7593L18.9913 79.0248H19.3452V79.2018H19.5222L19.6107 79.4673L20.1417 79.7327H20.4071V79.9097L20.7611 79.9982V80.1752L21.2036 80.2637V80.4407H21.5575L21.646 80.7062L0.0884895 80.7947L0.530949 81.1486L0.973408 81.2371V81.4141L1.76984 81.5026V81.6796H2.30079L3.45118 82.0336L3.71666 81.9451L3.80515 82.2106L4.3361 82.1221V82.3876H4.51308L4.60157 82.83H4.77856L4.86705 83.184L5.04403 83.538L5.22102 83.6265L5.398 83.9804L6.10593 84.6884L6.90236 85.1309L6.99085 85.3078L7.43331 85.4848L7.69879 85.7503L8.40672 85.8388L8.49522 86.0158L9.38013 86.2813H9.99958L10.3535 86.4583L11.2385 86.6352L12.1234 86.7237L12.4773 86.8122H13.2738L13.7162 86.9892H15.2206L15.3091 87.1662V86.9892H15.4861L15.5746 87.1662L15.6631 87.0777L16.4595 87.1662L16.9019 87.0777L17.1674 87.1662H18.3178L18.9373 87.2547L19.8222 87.1662H23.2734L23.8928 87.2547L25.3972 87.3432L27.167 87.2547L28.1847 87.3432L29.9987 87.2547L30.6624 87.3432L31.4146 87.2547L33.4057 87.3432L35.3967 87.2547L36.7241 87.3432L38.0515 87.2547L39.4674 87.3432L39.9098 87.2547H43.184L44.0689 87.0777V87.2547H45.4848L46.3697 87.1662H48.759L49.3784 86.9892L50.1749 87.0777L50.7058 86.9892H51.5023V86.8122L52.0332 86.9007L52.1217 86.8122L53.5376 86.6352L54.688 86.4583L54.9534 86.2813L55.6614 86.1928L56.3693 85.8388L57.2542 85.4848L57.6967 85.3963V85.1309H58.1391L58.0506 84.8654H58.3161V84.6884L58.9356 84.5114V84.3344L59.555 83.8034L59.909 83.184V83.007H60.086L60.4399 82.2991L60.5284 81.6796H60.7939V81.1486L61.0594 80.3522L61.2364 79.0248L61.3248 78.5823L61.4133 77.9629V76.8125L61.5018 76.6355H61.3248L61.4133 76.2815V75.3966L61.5018 75.1311V73.1842L61.5903 73.0072L61.5018 72.0338V66.3702L61.5903 65.3968L61.5018 65.1313V61.2376L61.5903 60.9721L61.5018 60.7951V53.3616L61.5903 52.8307V52.4767L61.5018 51.7688V50.9723V50.7068L61.4133 50.4414L61.5018 50.0874V48.8485L61.4133 48.406L61.5018 47.7865L61.3248 46.9016L61.4133 46.7246L61.3248 25.3977V24.3357L61.1479 23.2738L61.2364 22.9198V22.6544L61.1479 21.9464L60.8824 20.796L60.7939 20.442L60.8824 20.1765L60.7054 19.9111L60.6169 19.3801L60.2629 18.4952L60.1745 18.3182H59.9975L60.086 18.0527L59.555 17.1678L59.378 16.9023H59.201L59.2895 16.6368H59.0241L58.9356 16.3713L58.4931 15.9288L58.0506 15.5749L57.7852 15.3094L57.2542 15.1324L56.6348 14.7784L56.4578 14.6014L55.1304 14.4245L54.2455 14.0705L53.8915 14.2475L53.6261 13.982L53.1836 14.0705L53.0951 13.8935H51.9447L51.5023 13.805L50.0864 13.7165L49.6439 13.628H48.2281L47.9626 13.7165L47.8741 13.5395L47.5201 13.451L46.9007 13.5395L46.4582 13.451V13.628H45.9273L45.6618 13.451L44.4229 13.5395H43.538L43.2725 13.451L42.3876 13.5395L42.0336 13.451L41.6797 13.5395L41.5912 13.3625V13.5395H40.9717L40.8832 13.3625L40.3523 13.5395L39.9098 13.3625V11.5927L39.7328 9.82279L39.6443 9.20333V8.93785H39.4674L39.2904 7.69894L39.1134 7.25648V7.07949H38.9364L38.8479 6.63702V6.37154L38.6709 6.01757H38.4939V5.5751L38.2285 4.95564H38.0515L37.963 4.51317H37.786L37.6975 4.07071L37.609 3.89372H37.432L37.3436 3.53974H37.1666L37.0781 3.09728L36.9011 2.65481L36.3701 2.21234L36.0162 2.12385L36.1047 1.85837H35.9277V1.50439H35.4852L35.3082 1.15042L35.0428 0.884936L34.5118 0.619455L34.3348 0.442468L33.0959 0.0884936L33.0075 0ZM41.8566 16.1058L41.6797 16.0173L40.9717 16.1058H40.0868H39.7328L38.9364 16.1943V16.0173L38.0515 16.1058H37.2551H37.0781H32.388L31.7686 16.0173L31.5916 16.1058H31.1491H30.9721H29.8217H29.4678H28.8483L28.4059 16.1943L28.1404 16.1058L27.344 16.1943L27.167 16.1058H26.7245L26.636 16.1943L25.4856 16.1058L24.9547 16.1943L23.9813 16.1058L23.1849 16.1943H22.4769L21.6805 16.1058L21.5035 16.1943H19.6452H19.3797L19.2027 16.2828H18.3178L18.1408 16.1943H17.8754L17.7869 16.3713L17.5214 16.1943L17.0789 16.3713H15.6631L15.3091 16.4598H14.6012L14.5127 16.5483L13.9817 16.4598L13.7162 16.5483H13.1853L13.0083 16.7253L12.8313 16.6368L12.3004 16.8138L11.15 16.9023L9.91108 17.2563L8.93768 17.6102V17.7872L8.14125 18.0527L7.69879 18.6722L7.25633 19.3801L7.07935 19.7341L6.90236 20.1765L6.99085 20.442H6.81387L6.72538 20.8845L6.63689 21.15L6.54839 21.5924L6.37141 23.0968L6.4599 23.4508H6.28292L6.19443 23.7163L6.37141 23.8048L6.19443 24.2472V46.9901V47.3441V48.6715L6.10593 49.2024L6.19443 49.6449L6.10593 50.0874V51.5918L6.19443 51.9457L6.10593 52.3882V53.7156L6.19443 54.0696L6.10593 54.9545L6.19443 56.3704L6.10593 57.1669V57.7863L6.19443 57.9633L6.10593 58.6713V59.4677L6.19443 60.3526L6.10593 60.8836V63.2729L6.19443 63.6269L6.10593 65.8392L6.28292 65.9277V66.1932H6.10593L6.19443 66.5472V67.3436L6.37141 67.4321V67.2551H6.54839V66.9897L6.72538 66.7242L6.99085 66.1932L7.07935 65.6623H7.34482V65.3083L7.6103 65.0428L7.87577 64.4233L8.22974 64.0694L8.31823 63.6269H8.58371L9.29164 62.565L9.7341 62.388V62.1225H9.99958L10.3535 61.9455L10.7075 61.5916H10.973V61.4146H11.2385L11.5924 61.2376V61.0606L11.9464 61.1491L12.3889 60.9721H12.8313H13.0083H13.7162L15.2206 61.2376L10.371 61.68L10.9904 62.034L11.2559 62.2995L11.6984 62.8305H11.9638V63.0959L18.4063 63.2729L18.3178 63.4499L18.4063 63.7154H18.5833V63.8924L18.9373 64.3349L19.0257 64.6888H19.2027L19.2912 65.1313L19.3797 65.4853H19.5567L19.4682 65.6623L19.5567 66.1047L19.7337 66.5472L19.9992 66.6357L19.7337 66.9012L19.9107 67.0782L19.9992 67.8746V69.202L19.9107 71.0604L19.6452 71.6798L19.7337 72.0338H19.5567L19.4682 72.4763L19.2912 72.9187L19.0257 73.8037L18.7603 74.1576L18.6718 74.6001L18.4948 74.7771L18.3178 75.3966H18.1408L18.0523 75.7505L17.8754 75.9275L17.3444 76.9009L17.2559 77.3434H16.9019L16.725 77.6974V77.9629H16.4595L16.1055 78.4938L16.017 78.7593L15.5746 78.8478V79.0248L15.2206 79.2903V79.4673H14.9551V79.6442H14.7781V79.9097L14.3357 79.9982L13.8932 80.3522L13.0083 80.7947V81.0601L12.8313 80.9716L12.4773 81.0601L11.6809 81.4141L11.327 81.5026L11.2385 81.7681H11.0615V81.5026L10.619 81.6796V81.8566L9.20315 82.0336L7.6103 82.2106V82.476L8.14125 82.5645L8.22974 82.7415L9.46862 83.361L9.7341 83.2725V83.4495L10.2651 83.538L10.619 83.715L11.5924 83.8919L12.2119 84.0689H12.8313L13.0968 83.9804L13.6277 84.2459H14.7781L15.0436 84.3344L15.7515 84.4229H16.4595L17.3444 84.3344L17.8754 84.5114H18.5833L19.0257 84.5999L19.5567 84.5114H19.8222L19.9992 84.5999L20.6186 84.5114L20.9726 84.5999H21.8575L22.123 84.5114L22.6539 84.5999L23.0079 84.5114H23.2734L23.8928 84.5999H24.7777H24.9547L25.9281 84.5114L26.2821 84.3344V84.5999H26.4591H26.7245L27.167 84.5114L27.344 84.5999L27.7864 84.4229V84.5999L29.9987 84.5114L30.8837 84.6884L30.9721 84.5114L31.1491 84.5999L31.4146 84.5114L32.565 84.5999L32.6535 84.3344H32.8305V84.5114L34.0694 84.5999L35.3967 84.5114L35.6622 84.5999L36.0162 84.5114L36.3701 84.5999L36.4586 84.4229L36.7241 84.5114H38.0515L39.0249 84.5999L40.1753 84.4229H40.4408L41.4142 84.5114L41.5912 84.5999H42.1221H42.3876L42.7416 84.4229L43.361 84.5114L44.2459 84.4229L44.6884 84.5114L44.9539 84.4229L45.9273 84.5114L46.1042 84.4229H46.6352H46.8122H48.2281L49.3784 84.3344L51.1483 84.2459L52.2987 84.0689H52.6526L53.2721 83.8919L54.157 83.8034L54.2455 83.6265L54.5995 83.715V83.538L55.2189 83.4495L55.3074 83.2725H55.4844L56.1923 83.0955V82.9185H56.4578L56.9003 82.476L57.5197 81.9451V81.6796H57.6967L57.9622 80.9716L58.2276 80.1752L58.4046 79.3788L58.4931 78.5823L58.5816 77.6974L58.4931 77.3434L58.5816 77.2549L58.6701 77.0779L58.4931 76.9894L58.7586 75.839V75.0426L58.6701 74.7771L58.7586 74.5116L58.8471 73.8922L58.7586 73.3612L58.9356 72.8302V72.2993L58.8471 72.0338V71.3259L58.7586 70.8834L58.8471 70.5294V70.2639L58.9356 69.8215L58.7586 69.733L58.8471 69.202L58.9356 68.848V68.4056L58.7586 67.8746L58.8471 66.9012L58.9356 66.5472L58.8471 66.2817V65.6623H59.0241L58.8471 65.2198V63.8039V63.4499L58.6701 63.0959H58.8471L58.7586 62.8305L58.8471 62.388V62.1225L58.9356 61.68L58.8471 61.4146L58.9356 60.8836L58.8471 60.7066V59.8217L58.6701 59.7332V59.5562H58.9356L58.8471 59.0252L58.7586 58.6713L58.8471 58.2288L58.7586 57.5208V57.2554L58.8471 56.7244L58.7586 56.3704L58.9356 56.1934L58.8471 55.6625L58.6701 55.043H58.8471V54.1581L58.7586 53.8926L58.8471 53.0077L58.7586 52.8307L58.8471 52.4767V51.6803L58.6701 51.5918L58.7586 51.0608L58.8471 50.8838L58.7586 50.1759L58.8471 49.3794L58.7586 48.229L58.8471 47.4326L58.7586 47.2556V46.6361L58.6701 25.3092L58.7586 24.6012L58.6701 24.4242L58.5816 23.7163V23.3623L58.4931 22.6544V21.9464L58.3161 21.5924L58.1391 20.7075L58.0506 19.9996L57.7852 19.7341L57.6082 19.2031H57.4312V18.9376L57.2542 18.5837H57.0772V18.4067L56.6348 17.8757L56.0153 17.6102L55.6614 17.3447L54.9534 17.1678L53.98 16.9023L53.4491 16.7253L52.2987 16.5483L51.6792 16.6368V16.4598L51.2368 16.3713L50.7943 16.4598L50.0864 16.2828L49.6439 16.4598V16.2828H48.582L48.3165 16.1943L47.9626 16.2828L47.2546 16.1943H46.1927L45.8388 16.1058L45.6618 16.1943L45.2193 16.1058L44.6884 16.1943L44.3344 16.1058H41.8566Z" fill="#115E24"/>
</svg>
