<svg width="79" height="102" viewBox="0 0 79 102" fill="none" xmlns="http://www.w3.org/2000/svg">
<path d="M60.1559 49.8623L60.0674 50.0393H58.3861L57.8551 50.2163H57.5897H57.3242V50.3933L56.5278 50.6587L55.9968 51.0127H55.8198V51.2782L54.9349 51.7207L54.8464 52.0746H54.6694L54.3155 52.6056L53.519 53.933L53.4305 54.287L53.1651 54.9064V55.3489L52.8111 55.5259L52.8996 55.7914L52.8111 56.0569V56.5878L52.6341 57.1188V57.8267L52.5456 58.1807L52.4571 58.8002L52.3686 59.1541V59.5966V59.9506V60.8355L52.2801 61.278V62.9594L52.3686 63.6673L52.4571 64.9062L52.6341 65.5257L53.4305 67.6495L53.6075 68.0035L54.3155 68.6229L54.4039 68.7999L54.6694 68.8884L54.7579 69.1539L55.2004 69.2424L55.9968 69.4194L56.4393 69.5079H57.1472L58.0321 69.4194L58.4746 69.3309V69.1539L58.917 69.2424L59.1825 68.9769L59.7135 68.7999V68.6229L60.2444 68.446L60.6869 68.0035L60.7754 67.6495H61.0408L61.3063 67.1186L61.6603 66.7646L61.7488 65.9681L61.9258 65.7027L61.8373 65.5257L62.1912 65.7027L62.6337 66.2336L63.0762 66.8531H63.2531L63.3416 67.207H63.5186L63.6956 67.6495L64.1381 68.3575L64.315 68.446L64.492 68.7999L64.5805 69.2424L65.023 69.6849L65.6424 69.8619L66.1734 69.7734L66.7043 69.5079L66.7928 69.2424L67.0583 69.3309L67.4123 68.9769V68.7999H67.5892V68.5345H67.8547L68.2972 67.738L68.6511 67.207V66.9416H68.8281L68.9166 66.4106L69.1821 66.0566L69.4476 65.1717L69.6245 64.6407L69.713 63.7558L69.8015 63.2248L69.9785 61.8089V60.4815H69.8015V59.7736V59.5081L69.713 58.5347H69.5361L69.6245 58.1807H69.4476V57.4728H69.2706L69.3591 57.2073L69.1821 56.7648L69.0051 56.4993L69.0936 56.3223H68.8281L68.7396 55.9684L68.2087 54.9064L67.9432 54.464L67.7662 54.11L67.5892 54.0215L67.5007 53.756L67.1468 53.402L66.9698 53.1366H66.7928V52.9596L66.5273 52.6941L66.4388 52.5171L65.9964 52.2516L65.7309 52.1631L65.6424 51.8092L65.2884 51.7207L64.9345 51.5437V51.3667L64.1381 51.1012L63.6956 50.8357H63.3416V50.6587L62.8992 50.5703V50.3933L62.5452 50.4818L62.4567 50.3048H62.1027L61.9258 50.1278H61.3948L60.9523 50.0393H60.4214L60.1559 49.8623Z" fill="#020617"/>
<path d="M36.2616 51.7178H36.0846V51.8948H35.3766L34.5802 52.1602L34.1377 52.3372V52.5142L33.3413 52.7797L32.9874 53.3107L32.6334 53.5761L32.1909 54.5496L31.837 55.169L31.5715 56.1425L31.3945 58.0893L31.483 58.7088L31.5715 59.1512L31.66 59.6822H31.837L31.66 60.1247H31.837L32.1909 61.1866L32.3679 61.5406L32.5449 61.6291L32.8104 62.16H33.0758V62.4255L33.5183 62.691H33.6953V62.868L34.3147 63.2219L35.1996 63.3989L35.2881 63.5759L36.35 63.7529H37.058L37.235 63.8414V63.5759H37.5004V63.7529H37.6774V63.5759L37.9429 63.6644L38.7393 63.3104H39.0048V63.1334L39.5358 63.045L39.6242 62.7795H39.9782L40.0667 62.337L40.4207 62.2485L41.0401 61.2751L41.3941 60.3901L41.4826 59.8592L41.748 58.4433L41.6596 57.4699L41.748 57.0274L41.6596 56.4964V56.2309H41.4826L41.5711 55.523H41.3056L41.3941 55.169L40.9516 54.2841L40.6861 53.9301H40.5092L40.4207 53.5761H40.2437L40.1552 53.1337L39.5358 52.6027L39.1818 52.5142V52.3372L38.5623 52.1602H38.2084V51.9833L37.3235 51.8063H36.527L36.2616 51.8948V51.7178Z" fill="#020617"/>
<path d="M51.1329 88.9756H48.3012L48.1242 89.0641L47.9472 90.0375L48.0357 90.48L47.9472 90.7455L48.0357 91.8959V92.7808L47.9472 92.9578L48.0357 93.9312L47.9472 94.3737L48.0357 94.6392V95.5241L47.8587 95.6126L48.0357 95.7011V98.0019L47.9472 98.2674L48.0357 98.9754L48.1242 99.7718L48.3012 100.303L48.5667 100.834L49.0091 101.276L49.6286 101.453L50.071 101.365L50.1595 101.542H52.9028V101.365L53.4337 101.542H54.4956L55.2921 101.63H55.7345H56L56.7079 101.099L56.9734 100.657L57.0619 100.126L56.9734 99.8603L57.1504 99.7718L56.8849 99.5063L56.5309 99.0639L56.354 98.9754L56.177 98.7099L55.823 98.5329H55.5575L55.469 98.3559L54.7611 98.0904L53.5222 97.9134L52.7258 97.8249L52.1064 98.0019V97.2055L52.1948 97.0285V96.586L52.1064 96.1436L52.1948 95.7011L52.1064 94.8162V94.6392V94.1082L52.1948 93.8427H52.0179L52.1064 93.0463V91.8959V91.6304L52.1948 91.0109L52.1064 90.657L52.1948 90.48L52.1064 89.949L52.1948 89.772L52.1064 89.0641L51.1329 88.9756Z" fill="#2A2A21"/>
<path d="M40.3416 88.3096H38.9258L37.6869 87.8096H36.0055V89.2408V90.3027L35.917 90.5682L36.094 90.6567L36.0055 91.0106V91.2761V93.3115L35.917 93.4885H36.094L36.0055 93.9309L36.094 94.6389L36.0055 95.0814L35.917 95.7008L36.0055 96.1433L35.917 96.3203L36.0055 96.9397V98.0016L35.917 98.3556H36.094L36.0055 99.2406V99.7715H36.1825L36.094 100.125H36.271L36.3595 100.568L36.7135 101.099L36.9789 101.276H37.2444L37.3329 101.453L37.6869 101.541L38.9258 101.63H41.0496L41.4035 101.718L43.5273 101.63L44.2353 101.364L44.5892 100.745L44.6777 100.037L44.4123 99.3291L44.1468 99.2406L43.9698 98.7981H43.7043V98.6211L43.2619 98.5326L43.1734 98.3556L42.2 98.1786H42.023L41.9345 98.0016H41.669L41.4035 97.9132H40.3416H40.1646L40.0762 97.1167L40.1646 96.5857V96.0548L40.0762 95.7893L40.1646 95.3468L40.0762 95.1698L40.1646 93.4885L40.0762 92.7805L40.1646 91.5416L40.0762 91.0106L40.2531 90.9222H40.0762L40.1646 90.1257L40.0762 89.8602L40.1646 89.5063V89.0638L40.3416 88.3096Z" fill="#2A2A21"/>
<path d="M36.9696 54.0186H36.5272V54.1955H35.7308L35.6423 54.461L35.1998 54.5495L35.0228 54.815L34.5804 55.0805L34.2264 55.6114L34.0494 55.7884L33.607 57.1158V57.7353L33.5185 58.3547L33.607 59.0627L33.7839 59.5052V59.9476L34.0494 60.3901H34.2264L34.1379 60.7441H34.3149L34.6689 61.1865L35.1113 61.452H35.3768L35.4653 61.629H35.6423L35.9077 61.806H37.0581L37.1466 61.7175H37.6776L38.297 61.452V61.275H38.5625L38.651 61.098L38.828 60.9211L38.7395 60.7441L39.0934 60.5671L39.4474 59.7706L39.6244 58.6202L39.7129 58.5317V57.4698L39.5359 56.4079L39.3589 56.0539L39.0934 55.6114H38.9165L38.828 55.2575L38.5625 54.815L37.9431 54.5495L37.8546 54.284L37.4121 54.107L36.9696 54.1955V54.0186Z" fill="#FAF6EC"/>
<path d="M34.8875 56.3193L33.8256 56.4078V56.6733L33.4716 56.8503V57.0273H33.2946L33.0291 57.8237V58.7972L33.2061 59.3281H33.3831L33.4716 59.6821L34.1795 60.0361L34.5335 60.1246L34.8875 60.0361H35.1529L35.5954 59.9476L35.8609 59.5051L36.1264 58.9741L36.2148 58.1777L36.1264 57.6467L36.2148 57.4698H35.9494L35.8609 57.0273L35.5069 56.6733L34.8875 56.3193Z" fill="#020617"/>
<path d="M54.6768 62.1602L54.4998 62.2486L54.5883 63.0451H54.7653V63.3106H54.9423V63.5761H55.2078L55.3847 63.93L55.7387 64.0185L55.9157 64.3725L56.1812 64.5495H56.5351L56.6236 64.7265L57.3316 64.815L57.4201 65.0804H59.2784L59.4554 65.1689V64.992L60.2518 65.0804L61.1367 64.638L60.7828 64.284H60.1633V64.461H59.1899L57.597 64.284L56.9776 63.93L56.0927 63.5761L55.8272 63.3106H55.5617V63.1336H55.3847V62.9566L55.1193 62.8681L54.9423 62.5141L54.7653 62.4256L54.6768 62.1602Z" fill="#F9F5EA"/>
<path d="M23.5273 74.3711H23.1734L22.9079 74.9021L22.2885 75.787L21.846 76.2295L21.5805 76.5834V76.7604L21.1381 76.9374L20.6956 77.4684V77.6454L20.3416 77.8223L20.0762 78.0878L19.7222 78.3533V78.5303L19.2797 78.7073L19.1028 79.0613L18.6603 79.2382V79.4152L18.2178 79.5037L18.3063 79.7692L19.1912 79.3267L19.2797 79.0613L20.0762 78.8843V78.7073L20.3416 78.6188V78.4418L20.7841 78.2648V78.0878L21.0496 77.9993L21.1381 77.7339H21.4035L21.5805 77.3799L21.7575 77.2914V77.0259L22.023 76.9374V76.7604L22.3769 76.5834L22.7309 75.964L22.9079 75.8755L23.0849 75.256L23.3504 75.1675L23.1734 74.7251L23.4389 74.6366L23.5273 74.3711Z" fill="#F9F5EA"/>
<path d="M25.7305 78.7979H25.5535L25.0225 79.5058L24.7571 79.6828V79.8598H24.5801L24.4916 80.0368L24.1376 80.3022L23.7836 80.6562V80.8332H23.5182V81.0102H23.2527L22.8102 81.4527L22.7217 81.7181L22.4563 81.8066L22.6333 81.9836L23.1642 81.8066V81.6296H23.3412V81.4527L23.8721 81.2757L24.4031 80.6562L24.5801 80.5677V80.3907L24.8456 80.3022L25.111 80.0368V79.8598L25.465 79.6828L25.642 79.3288L25.7305 78.7979Z" fill="#F8F1E6"/>
<path d="M24.056 101.367L23.4366 101.456H22.5517L22.7287 101.81L24.1445 101.721L24.056 101.367Z" fill="#FBF7ED"/>
<path d="M26.3558 101.367H25.8248L25.7363 101.544L26.5328 101.721L26.8867 101.544L26.3558 101.367Z" fill="#F9F0E5"/>
<path d="M38.0391 66.499L37.2426 66.5875L37.0656 66.499L36.6232 66.5875H34.4994L33.7914 66.7645L33.526 66.853L33.172 67.207L33.2605 67.7379L33.703 68.0034L34.0569 68.1804L34.4109 68.0919V68.2689L34.7649 68.3574L34.8533 68.2689H35.6498L35.8268 68.3574L36.1807 68.2689L36.8002 68.3574L37.3311 68.2689L37.7736 68.3574L38.3045 68.2689L39.0125 68.3574L39.8089 68.0919V67.9149L40.0744 68.0034V67.8264H40.2514L40.3398 67.1185L39.8974 66.7645L39.5434 66.5875H38.1275L38.0391 66.499Z" fill="#EC2CBF"/>
<path fill-rule="evenodd" clip-rule="evenodd" d="M49.5816 1.94068L48.687 2.05955L48.1398 2.28982L47.9401 2.6315L47.5869 2.6084L47.393 2.86177L47.1817 3.38005L46.8302 4.6873L46.8608 5.57613L46.9681 6.64734L47.0044 7.44786L47.1291 8.25415L47.1885 8.70145L47.3593 8.8013L47.3362 9.15452L47.5129 9.16607L47.4667 9.87251L47.7085 10.2431L47.7679 10.6903L47.9041 11.32L48.1286 11.9555L47.7985 11.5792L46.8428 9.9204L46.1825 9.16776L46.1999 8.90285L45.7872 8.43246L45.5281 8.32683L45.4629 7.96783L45.2978 7.77968L45.0329 7.76235L44.8852 7.30928L44.626 7.20365L44.1366 6.55088L43.8717 6.53355L43.8065 6.17456L43.3765 5.96908L43.3881 5.79247L42.4629 5.02252L42.2863 5.01097L42.392 4.75183L41.9504 4.72296L41.962 4.54635L41.3612 4.24101L41.1021 4.13539L41.1136 3.95878L40.7662 3.84738L40.6894 3.66499L40.3362 3.6419L40.3477 3.46529L39.5761 3.0601L39.1461 2.85462L38.1806 2.7028L37.2975 2.64506L36.3856 3.02885L36.4566 3.29954L36.28 3.28799L36.2033 3.10561L36.1917 3.28222L36.0151 3.27067L35.827 3.43573L35.7213 3.69487L35.5522 4.92537L35.723 5.02522L35.6116 5.37267L35.7882 5.38422L35.7536 5.91405L36.1374 6.82597L36.314 6.83751L36.3792 7.19651L36.692 7.83774L36.8686 7.84929L36.928 8.29659L37.164 8.75543L37.6477 9.49652L37.8127 9.68467L37.9893 9.69622L38.1486 9.97269L37.9662 10.0494L38.3137 10.1608L38.3021 10.3375L38.4787 10.349L38.4672 10.5256L38.6438 10.5372L38.6207 10.8904L38.8741 11.0843L38.4441 10.8788L37.6015 10.203L37.5247 10.0206L37.0065 9.80932L36.7589 9.52708L36.2464 9.22752L35.8222 8.93374L35.2156 8.71671L34.8739 8.51701L34.609 8.49968L34.6206 8.32307L33.5725 8.07718L33.584 7.90057L32.1943 7.45496L31.3938 7.4913L31.317 7.30892L30.8697 7.36835L30.1633 7.32216L29.8868 7.48145L29.7102 7.4699L29.6987 7.64651L29.2572 7.61764L29.2456 7.79425L29.069 7.78271L29.0575 7.95932L28.7868 8.0303L28.8578 8.30099L28.6754 8.37775L28.441 9.24925L28.7307 10.2437L28.7959 10.6027L29.0378 10.9732L29.4562 11.3553L29.6155 11.6318L29.7921 11.6433L29.863 11.914L30.1874 12.3786L30.5406 12.4017L30.5291 12.5784L31.3774 13.1659L31.8784 13.6421L32.65 14.0473L32.8266 14.0588L32.8151 14.2354L33.0742 14.3411L33.151 14.5234L32.8035 14.412L32.4446 14.4773L31.12 14.3906L30.6727 14.4501L30.4078 14.4328L29.4365 14.3692L28.9834 14.517L28.6417 14.3173L28.4594 14.394L28.4478 14.5706L27.7472 14.4361L27.0234 14.6549L26.5761 14.7143L26.1404 14.5971L25.4166 14.8159L24.7044 14.858L24.5163 15.023L23.4335 15.307L23.422 15.4836L23.0745 15.3722L22.7923 15.6198L22.3393 15.7675L22.057 16.0151L21.4043 16.5045L21.1988 16.9345L21.0222 16.9229L20.8282 17.1763L20.8109 17.4412L20.5402 17.5122L20.2407 18.0247L19.9469 18.4489L19.8297 18.8847L19.5475 19.1323L19.4361 19.4797L19.5838 19.9328L19.4072 19.9212L19.0961 20.6104L19.0442 21.4051L18.8156 22.1883L18.5986 22.7949L18.7752 22.8064L18.5408 23.6779L18.4542 25.0025L16.9149 45.8309L17.0915 45.8425L17.08 46.0191L16.9034 46.0076L16.9397 46.8081L16.8283 47.1555L17.0049 47.1671L16.7937 47.6854L16.8647 47.956L16.7244 48.745L16.7838 49.1923L16.684 49.3632L16.7434 49.8105L16.632 50.1579L16.5512 51.3942L16.7104 51.6706L16.4992 52.1889L16.4415 53.072L16.6065 53.2601L16.472 53.9608L16.3317 54.7498L16.4027 55.0205L16.3623 55.6386L16.2625 55.8094L16.2394 56.1626L16.364 56.9689L16.1816 57.0457L16.1371 59.0825L16.1198 59.3474L16.0199 59.5182L15.9754 61.555L15.8467 62.1674L15.9177 62.4381L15.8773 63.0562L16.0539 63.0678L15.8426 63.586L15.7503 64.9989L15.827 65.1813L15.7808 65.8877L15.6752 66.1469L15.7346 66.5942L15.6348 66.765L15.7 67.124L15.5828 67.5598L15.6076 68.5369L15.5499 69.4199L15.464 72.8657L15.6693 77.3887L15.5714 78.8855L15.4736 80.3823L15.6449 81.5282L15.613 82.017L15.5957 82.2819L15.7723 82.2935L15.8317 82.7408L16.0083 82.7523L16.0735 83.1113L16.227 83.4761L16.3978 83.5759L16.5514 83.9407L17.2116 84.6933L17.9775 85.1868L18.0542 85.3692L18.4842 85.5747L18.7318 85.8569L19.4324 85.9914L19.5092 86.1738L20.3749 86.4964L20.993 86.5369L21.3347 86.7366L22.2062 86.9709L23.0834 87.117L23.4309 87.2284L24.2256 87.2803L24.6555 87.4858L26.1567 87.584L26.2335 87.7664L26.245 87.5897L26.4216 87.6013L26.4984 87.7837L26.5924 87.7011L27.3814 87.8414L27.8287 87.782L28.0878 87.8876L29.2358 87.9627L29.8481 88.0914L30.7369 88.0608L34.1808 88.286L34.7931 88.4147L36.2885 88.6012L38.0603 88.6284L39.07 88.7831L40.886 88.8131L41.5425 88.9447L42.2989 88.9055L44.2799 89.1237L46.2725 89.1653L47.5913 89.3403L48.9216 89.3386L50.3287 89.5193L50.776 89.4598L54.0432 89.6735L54.9378 89.5546L54.9263 89.7312L56.3391 89.8236L57.2279 89.793L59.6121 89.9489L60.2418 89.8127L61.0307 89.953L61.5663 89.8993L62.361 89.9513L62.3726 89.7747L62.8966 89.8976L62.9907 89.8151L64.4151 89.7309L65.5746 89.6293L65.8511 89.47L66.5633 89.4279L67.2928 89.1209L68.1989 88.8254L68.6462 88.766L68.6635 88.5011L69.105 88.5299L69.0341 88.2592L69.299 88.2766L69.3105 88.0999L69.9402 87.9638L69.9517 87.7871L70.6045 87.2977L70.9981 86.7027L71.0097 86.5261L71.1863 86.5376L71.5857 85.8543L71.7144 85.2419L71.9793 85.2592L72.014 84.7294L72.3309 83.952L72.5941 82.639L72.7112 82.2032L72.84 81.5909L72.915 80.4429L73.0149 80.2721L72.8383 80.2605L72.9497 79.9131L73.0074 79.03L73.113 78.7709L73.2401 76.8282L73.3399 76.6573L73.3151 75.6802L73.6847 70.0287L73.8365 69.0631L73.7655 68.7924L74.0196 64.907L74.1252 64.6478L74.0484 64.4654L74.5335 57.0478L74.6564 56.5238L74.6795 56.1706L74.6374 55.4583L74.6894 54.6636L74.7067 54.3987L74.6357 54.128L74.7471 53.7805L74.8279 52.5443L74.7685 52.097L74.8972 51.4846L74.7784 50.59L74.8782 50.4192L76.1815 29.1319L76.2507 28.0722L76.1434 27.001L76.2548 26.6536L76.2721 26.3887L76.23 25.6764L76.0402 24.5112L75.975 24.1522L76.0806 23.893L75.9213 23.6166L75.8677 23.081L75.5722 22.1748L75.4954 21.9924L75.3188 21.9809L75.4245 21.7217L74.9524 20.804L74.7931 20.5276L74.6165 20.516L74.7221 20.2569L74.4572 20.2396L74.3862 19.9689L73.9736 19.4985L73.5552 19.1164L73.3076 18.8342L72.7893 18.6229L72.1943 18.2293L72.0292 18.0411L70.7162 17.7779L69.8563 17.3669L69.4915 17.5204L69.2439 17.2382L68.7966 17.2976L68.7199 17.1153L67.5719 17.0402L67.1362 16.923L65.7291 16.7423L65.2934 16.6252L63.8805 16.5328L63.6098 16.6038L63.5331 16.4214L63.1856 16.31L62.5617 16.3579L62.126 16.2407L62.1145 16.4173L61.5846 16.3827L61.3313 16.1887L60.0893 16.1962L59.2062 16.1385L58.9471 16.0328L58.0583 16.0634L57.7108 15.952L57.3518 16.0172L57.2751 15.8348L57.2635 16.0114L56.6454 15.971L56.5687 15.7886L56.0273 15.9306L55.5973 15.7251L55.7128 13.959L55.6517 12.1814L55.6038 11.5575L55.6211 11.2925L55.4445 11.281L55.3487 10.0332L55.201 9.5801L55.2126 9.40349L55.036 9.39194L54.9765 8.94464L54.9938 8.67972L54.8403 8.31496L54.6637 8.30341L54.6926 7.86188L54.4681 7.22643L54.2915 7.21488L54.2321 6.76758L54.0555 6.75603L53.996 6.30873L53.9193 6.12635L53.7427 6.1148L53.6775 5.75581L53.5009 5.74426L53.4414 5.29696L53.2937 4.84389L52.7927 4.36772L52.4453 4.25632L52.5509 3.99718L52.3743 3.98563L52.3974 3.63241L51.9559 3.60354L51.8024 3.23877L51.5548 2.95653L51.0423 2.65697L50.8772 2.46882L49.6641 2.03476L49.5816 1.94068ZM57.361 18.5896L57.1902 18.4897L56.478 18.5319L55.5949 18.4741L55.2417 18.451L54.4412 18.4874L54.4528 18.3107L53.564 18.3413L52.7692 18.2893L52.5926 18.2778L47.9126 17.9718L47.3002 17.8431L47.1178 17.9198L46.6763 17.8909L46.4997 17.8794L45.3518 17.8043L44.9985 17.7812L44.3804 17.7408L43.9331 17.8003L43.674 17.6946L42.8735 17.731L42.7027 17.6311L42.2611 17.6022L42.1671 17.6848L41.0249 17.5214L40.4893 17.5751L39.5237 17.4233L38.7232 17.4596L38.0168 17.4134L37.2279 17.2731L37.0455 17.3499L35.1911 17.2286L34.9262 17.2113L34.7438 17.2881L33.8608 17.2303L33.69 17.1305L33.425 17.1132L33.3252 17.284L33.0718 17.0901L32.6188 17.2378L31.2059 17.1454L30.8469 17.2106L30.1405 17.1644L30.0464 17.247L29.5224 17.124L29.2517 17.195L28.7219 17.1604L28.5337 17.3254L28.3629 17.2256L27.8215 17.3675L26.6678 17.3808L25.4085 17.6532L24.414 17.9429L24.4025 18.1195L23.5904 18.3324L23.1085 18.9217L22.6208 19.5993L22.4211 19.9409L22.2156 20.3709L22.2866 20.6416L22.11 20.6301L21.9928 21.0658L21.8872 21.325L21.77 21.7607L21.4952 23.2503L21.5605 23.6093L21.3838 23.5978L21.2782 23.8569L21.4491 23.9568L21.2436 24.3868L19.7596 47.0812L19.7365 47.4344L19.6499 48.7589L19.527 49.283L19.5864 49.7303L19.4692 50.1661L19.3711 51.6672L19.4363 52.0262L19.3191 52.462L19.2325 53.7866L19.2977 54.1456L19.1517 55.0228L19.1476 56.4415L19.0073 57.2305L18.9669 57.8486L19.0437 58.031L18.9092 58.7316L18.8572 59.5264L18.8878 60.4152L18.7648 60.9393L18.6089 63.3235L18.6741 63.6825L18.4415 65.8843L18.6123 65.9842L18.595 66.2491L18.4184 66.2376L18.4836 66.5966L18.4316 67.3913L18.7186 69.07L19.063 76.7218L18.8271 80.3301L18.8744 82.3189L18.8571 82.5839L19.3811 82.7068L19.4579 82.8892L20.6537 83.5882L20.9244 83.5172L20.9129 83.6938L21.4369 83.8167L21.7786 84.0164L22.7384 84.2566L23.3449 84.4736L23.9631 84.514L24.2337 84.443L24.7462 84.7426L25.8942 84.8176L26.1533 84.9233L26.854 85.0578L27.5604 85.104L28.4492 85.0734L28.9675 85.2846L29.6739 85.3308L30.1096 85.448L30.6452 85.3944L30.9101 85.4117L31.081 85.5115L31.7049 85.4636L32.0523 85.575L32.9354 85.6328L33.206 85.5618L33.7301 85.6847L34.0891 85.6195L34.354 85.6369L34.9663 85.7656L35.8494 85.8233L36.026 85.8349L37.0031 85.8101L37.3678 85.6566L37.3505 85.9215L37.5271 85.933L37.792 85.9503L38.2393 85.8909L38.4102 85.9908L38.8632 85.843L38.8517 86.0196L41.065 86.0757L41.9365 86.31L42.0364 86.1392L42.2072 86.239L42.4779 86.1681L43.62 86.3314L43.7257 86.0723L43.9023 86.0838L43.8907 86.2604L45.1212 86.4296L46.4515 86.4279L46.7107 86.5335L47.0696 86.4683L47.4171 86.5797L47.5169 86.4089L47.7761 86.5145L49.1006 86.6011L50.0662 86.7529L51.2257 86.6514L51.4906 86.6687L52.4561 86.8205L52.627 86.9204L53.1568 86.955L53.4217 86.9723L53.7865 86.8188L54.3988 86.9475L55.2876 86.917L55.7234 87.0342L55.9941 86.9632L56.9596 87.115L57.142 87.0382L57.6718 87.0729L57.8484 87.0844L59.2613 87.1768L60.415 87.1636L62.1868 87.1907L63.3463 87.0892L63.6995 87.1123L64.3292 86.9761L65.218 86.9455L65.3179 86.7747L65.6653 86.8861L65.6769 86.7095L66.3007 86.6616L66.4006 86.4908L66.5772 86.5023L67.2952 86.3719L67.3067 86.1953L67.5716 86.2126L68.042 85.7999L68.6948 85.3105L68.7121 85.0456L68.8887 85.0572L69.1998 84.368L69.5167 83.5906L69.7453 82.8074L69.8855 82.0184L70.0316 81.1412L69.9664 80.7822L70.0605 80.6996L70.1603 80.5288L69.9895 80.429L70.3294 79.2983L70.3814 78.5036L70.3104 78.2329L70.4161 77.9737L70.5448 77.3614L70.4911 76.8258L70.7024 76.3075L70.737 75.7777L70.666 75.507L70.7122 74.8005L70.6528 74.3532L70.7642 74.0058L70.7815 73.7409L70.8987 73.3051L70.7279 73.2053L70.8508 72.6812L70.9622 72.3338L70.9911 71.8922L70.8491 71.3509L71.0009 70.3853L71.1123 70.0378L71.0413 69.7671L71.0818 69.149L71.2584 69.1606L71.1106 68.7075L71.203 67.2946L71.2261 66.9414L71.0726 66.5766L71.2492 66.5882L71.1782 66.3175L71.2954 65.8817L71.3127 65.6168L71.4299 65.1811L71.3589 64.9104L71.4819 64.3863L71.4051 64.2039L71.4629 63.3209L71.292 63.221L71.3036 63.0444L71.5685 63.0617L71.5148 62.5261L71.4496 62.1671L71.5668 61.7314L71.5247 61.0192L71.542 60.7543L71.6649 60.2302L71.5997 59.8712L71.7879 59.7061L71.7342 59.1705L71.598 58.5409L71.7747 58.5524L71.8324 57.6694L71.7614 57.3987L71.9075 56.5214L71.8307 56.339L71.9421 55.9916L71.9941 55.1968L71.8232 55.097L71.9462 54.5729L72.046 54.4021L72.0039 53.6899L72.1442 52.9009L72.131 51.7471L72.2712 50.9582L72.1945 50.7758L72.2349 50.1577L73.5381 28.8704L73.6726 28.1697L73.5959 27.9873L73.5538 27.2751L73.5769 26.9219L73.5347 26.2097L73.5809 25.5032L73.4274 25.1385L73.3086 24.2439L73.2664 23.5316L73.0189 23.2494L72.8769 22.708L72.7003 22.6965L72.7176 22.4316L72.5641 22.0668L72.3875 22.0553L72.399 21.8786L71.9922 21.3199L71.3914 21.0146L71.0555 20.7266L70.3606 20.5038L69.4066 20.1754L68.8883 19.9641L67.7519 19.7124L67.128 19.7603L67.1396 19.5837L66.7038 19.4665L66.2565 19.526L65.5617 19.3032L65.1086 19.4509L65.1201 19.2743L64.0605 19.205L63.8014 19.0994L63.4424 19.1646L62.7417 19.0301L61.6821 18.9608L61.3347 18.8494L61.1523 18.9262L60.7165 18.809L60.1809 18.8627L59.8335 18.7513L57.361 18.5896Z" fill="#115E24"/>
<path d="M12.8081 61.9458L15.4918 61.5481L17.3555 60.3668L18.436 47.081L16.8145 45.2845L14.1867 44.9949L10.6177 45.4106L7.98682 46.9696L6.28167 51.6352L6.02085 54.8421L7.09258 57.9648L9.36018 60.8725L12.8081 61.9458Z" fill="white" stroke="#115E24" stroke-width="3"/>
<path d="M14.2479 51.4355C12.4547 50.8988 10.8905 53.4771 11.2566 54.7279C11.3408 55.1579 11.4423 55.4205 11.7635 55.9313C12.0913 56.2235 12.9988 56.3571 12.9988 56.3571C12.9988 56.3571 13.8911 56.2281 14.0464 55.7156C14.2526 55.2041 14.2524 54.4272 13.6486 54.1964" stroke="#115E24" stroke-width="1.5" stroke-linecap="round"/>
<path d="M9.95361 57.7069L9.15667 57.6231L8.89733 57.5664L8.34082 57.6258L7.53575 57.9932L7.18183 58.3686L7.12508 58.628L6.93328 58.6766L6.57387 60.3191L6.65218 60.7892L6.60622 61.4133L6.77911 61.4511L6.77098 61.9022L6.81146 62.5452L7.08423 63.7825L7.0464 63.9554L7.21929 63.9933L7.16254 64.2526L7.2976 64.4633L7.22194 64.8091L7.42453 65.1252L7.50284 65.5953L7.67574 65.6331L7.73513 66.1896L7.99712 67.0623L8.33478 67.5891L8.34556 67.9538L8.49953 68.0781L8.81827 68.6913L9.02086 69.0074L9.03164 69.3721L9.20454 69.41L9.16671 69.5829L9.3396 69.6207L9.35038 69.9854L9.52327 70.0232L9.48544 70.1961L9.72586 70.3393L9.82309 70.7229L9.99599 70.7608L9.95816 70.9337L9.63128 70.7716L9.29363 70.2447L9.12074 70.2069L9.04243 69.7368L8.38869 69.4126L8.29146 69.029L7.87814 68.848L7.93489 68.5886L7.62693 68.3401L7.07856 67.9483L6.70307 67.5944L6.22222 67.308L5.67385 66.9162L5.48204 66.9649L4.74185 66.6217L4.35823 66.719L3.9557 66.9026L3.48563 66.981L3.19924 67.4618L3.09388 67.5293L2.83719 68.2885L2.86689 68.5667L2.85876 69.0179L3.03165 69.0557L2.86954 69.3826L2.91815 69.5744L3.09105 69.6122L2.94785 69.8527L3.41243 71.0414L3.57719 71.5304L3.6555 72.0004L3.89593 72.1436L3.99316 72.5272L4.16605 72.5651L4.1093 72.8244L4.33081 73.0541L4.34159 73.4188L4.60093 73.4755L4.63063 73.7538L5.08443 74.5778L5.75973 75.6314L5.93263 75.6692L5.96232 75.9475L6.13522 75.9853L6.37564 76.1285L6.33781 76.3014L6.81052 77.039L7.54258 77.8333L7.88023 78.3601L8.2368 78.8005L8.40969 78.8383L8.37186 79.0112L8.61228 79.1544L8.81487 79.4705L9.19036 79.8244L9.53614 79.9001L9.49831 80.073L9.6712 80.1108L9.7009 80.3891L10.1628 80.7619L10.4222 80.8186L10.3843 80.9915L10.7112 81.1536L10.6734 81.3265L11.0867 81.5076L11.0489 81.6805L11.3947 81.7561L11.4243 82.0344L11.8377 82.2154L12.1942 82.6558L12.6076 82.8368L12.5697 83.0097L13.3288 83.2664L13.291 83.4393L13.8097 83.5528L14.8578 84.1445L15.1361 84.1148L15.1658 84.393L16.4625 84.6768L16.4246 84.8497L16.8947 84.7714L16.8569 84.9443L17.7213 85.1334L18.1725 85.1415L19.4016 85.3199L20.0068 85.4523L21.8978 85.5038L21.9356 85.3309L22.3003 85.3201L22.349 85.5119L22.5219 85.5497L22.6461 85.3957L23.0784 85.4903L23.2026 85.3363L23.8645 85.2094L24.4021 85.2364L24.4589 84.9771L24.91 84.9852L26.0987 84.5206L26.377 84.4909L26.4337 84.2316L26.6066 84.2694L26.6444 84.0965L26.9038 84.1533L26.9416 83.9804L27.4117 83.9021L27.382 83.6238L27.8331 83.6319L28.5031 83.0538L28.9543 83.062L28.7328 82.8323L28.9813 82.5244L29.346 82.5136L30.3402 81.2817L30.551 81.1467L30.6266 80.8009L30.7995 80.8387L31.1535 80.4632L31.402 80.1552L31.6884 79.6744L31.918 79.4529L32.3665 78.6451L32.634 78.2507L32.7286 77.8185L32.9015 77.8563L33.1203 77.2701L33.3689 76.9621L33.8526 75.1656L34.1363 73.8689L34.239 72.9855L34.0851 72.8612L34.2769 72.8126L34.3147 72.6397L34.1607 72.5154L34.0824 72.0454L34.1284 71.4213L33.9555 71.3835L34.0987 71.1431L33.9636 70.9323L33.9528 70.5676L33.7799 70.5298L33.9231 70.2894L33.7395 69.8868L33.5666 69.849L33.5558 69.4843L33.3829 69.4464L33.4775 69.0142L33.1695 68.7656L33.1398 68.4874L32.8805 68.4306L32.7833 68.047L32.5807 67.7309L32.4078 67.6931L32.3781 67.4148L31.8486 66.9366L30.8194 66.2585L29.4065 65.6776L28.715 65.5262L28.561 65.402L28.5232 65.5749L28.0234 65.3749L27.7262 65.4911L27.5722 65.3668L27.294 65.3965L27.2562 65.5694L26.8915 65.5802L26.6132 65.6099L26.5754 65.7828L26.3349 65.6396L26.1918 65.88L25.6542 65.853L25.5299 66.0069L25.2516 66.0366L25.1949 66.296L24.6573 66.2689L24.1791 66.7984L23.9684 66.9335L23.8062 67.2604L23.5469 67.2036L23.2416 67.7709L22.858 67.8682L22.4662 68.4165L22.1501 68.6191L22.1609 68.9838L21.9016 68.9271L21.7016 69.4269L21.5098 69.4755L21.2424 69.8699L21.0127 70.0914L21.0424 70.3697L20.8695 70.3318L20.4399 71.0531L20.1914 71.3611L19.6564 72.1499L19.4943 72.4768L19.5429 72.6686L19.2836 72.6119L19.008 73.4574L18.5676 73.814L18.3191 74.122L17.9759 74.8622L17.803 74.8243L17.1627 75.6807L16.952 75.8158L16.8277 75.9697L17.206 74.2408L17.1574 74.049L17.3574 73.5492L17.1845 73.5114L17.3466 73.1845L17.4682 72.2146L17.371 71.831L17.4467 71.4852L17.2738 71.4474L17.3008 70.9098L17.1171 70.5072L17.0767 69.8643L16.9227 69.74L16.9119 69.3753L16.785 68.7134L16.6121 68.6756L16.6013 68.3109L16.3609 68.1677L16.4933 67.5625L16.1745 66.9493L16.0287 66.3738L16.153 66.2198L15.845 65.9713L15.7856 65.4148L15.5263 65.358L15.6695 65.1176L15.5155 64.9933L15.3508 64.5043L15.3211 64.226L15.1482 64.1882L15.0509 63.8046L14.8105 63.6614L14.7322 63.1913L14.2973 62.2809L14.1244 62.243L14.1812 61.9837L13.9218 61.927L13.8624 61.3704L13.5545 61.1219L13.3141 60.9787L13.2357 60.5086L12.7738 60.1358L12.5037 59.7143L12.1093 59.4468L11.5123 58.8633L11.3772 58.6525L10.8775 58.4526L10.4345 57.9933L9.91577 57.8798L9.95361 57.7069Z" fill="#115E24"/>
</svg>
