<svg width="75" height="100" viewBox="0 0 75 100" fill="none" xmlns="http://www.w3.org/2000/svg">
<path d="M22.8842 48.0117H23.0781V48.2156L23.8539 48.0117L24.0478 48.1137L24.3387 48.0117H31.3205L31.5145 48.1137L32.4842 48.0117H35.9751L37.5266 48.1137H40.6296L41.5993 48.2156L42.0841 48.1137L43.9266 48.2156H45.0902L47.9993 48.8272L48.775 49.235L48.872 49.4388L49.2599 49.5408L50.0357 50.0504L50.6175 50.764V50.9679H50.8114L51.1023 51.6814L51.2963 51.8853L51.5872 53.0066L51.6841 53.1085L51.8781 55.0453L51.975 56.0647L52.072 56.2685L51.975 57.3898V61.5692L52.072 61.7731L51.8781 62.4866V64.4234L51.6841 64.7292H51.8781V65.2389L51.7811 65.7486L51.6841 66.7679V67.3796L51.2963 68.9086L51.0053 69.928L50.3266 71.1512L49.5508 71.8647L49.4538 72.0686L48.2902 72.6802L46.5447 73.088H46.1569L46.0599 73.2918L45.769 73.1899L45.5751 73.2918H45.2841L43.5387 73.4957L41.5993 73.5976L40.2417 73.6996H38.1084L37.8175 73.9035L37.3326 73.8015H35.2963L35.1023 73.9035H24.8236L24.3387 73.8015L24.0478 73.9035L23.466 73.8015H22.2054L20.0721 73.6996L19.7811 73.5976H17.9387L17.3569 73.4957H16.3872L14.3508 73.2918L12.6054 72.986L11.2478 72.6802L10.4721 72.2725L9.59933 71.8647L9.4054 71.6609L9.11449 71.457L9.01752 71.1512L8.72661 70.8454L8.53267 70.5396V70.2338H8.33873V70.0299L8.14479 69.928L7.85388 68.9086L7.65994 68.195L7.36903 66.2583L7.27206 65.4428V64.6273L7.17509 63.6079L7.07812 60.7537V56.7782L7.17509 55.6569V55.1472L7.27206 54.9434L7.36903 53.4143L7.466 53.0066L7.65994 52.5988L8.14479 51.1717L8.4357 51.0698L8.62964 50.5601L8.92055 50.4582L9.01752 50.1524H9.21146L9.4054 49.7446L9.98721 49.3369H10.3751V49.133L10.9569 48.8272L11.8296 48.6233L12.4115 48.4195L14.5448 48.2156L16.8721 48.1137H22.6902L22.8842 48.0117Z" fill="#020617"/>
<path d="M42.3721 53.0068H43.1479L44.4085 53.4146L45.0873 53.7204L45.5721 54.2301L45.7661 54.332V54.5359H45.96L46.4449 55.3514V55.5552H46.6388L47.0267 56.5746L47.1236 57.492V58.3075L47.0267 59.0211L46.5418 60.0404L46.4449 60.4482H46.2509L46.057 60.8559L45.6691 61.4675L44.3115 62.283L43.4388 62.4869L42.2752 62.5888L40.9176 62.3849L40.3358 61.9772L39.8509 61.8753L39.56 61.5695V61.3656L39.1721 61.1617L38.5903 60.3462L38.1055 58.6133V57.0843L38.3964 56.1669L38.5903 55.4533L38.6873 55.1475H38.8812V54.9436H39.0752L39.2691 54.4339H39.463V54.2301L39.754 53.9243H39.9479V53.7204L40.6267 53.6185L40.7236 53.4146L41.5964 53.1088L42.3721 53.0068Z" fill="#F8F3E6"/>
<path d="M15.901 53.0068H17.4525L18.2282 53.3126L19.101 53.7204L19.3919 53.9243V54.1281L19.6828 54.2301V54.4339L19.9737 54.5359L20.4585 55.3514V55.7591H20.6525L21.0403 56.9823V58.6133L20.7494 59.6327L20.5555 60.1424L19.9737 61.0598H19.7797L19.6828 61.4675L18.7131 62.0791L18.2282 62.1811V62.3849L16.2888 62.5888L15.4161 62.3849L14.5434 62.0791L13.8646 61.6714V61.4675H13.6707V61.2636L13.2828 61.0598V60.8559H13.0888V60.652H12.8949L12.41 59.4288L12.2161 58.4094L12.1191 57.2881L12.3131 56.2688H12.507L12.604 55.5552L12.8949 55.0456H13.0888L13.1858 54.6378L13.3797 54.332H13.5737L13.6707 54.0262L14.1555 53.7204H14.3494L14.4464 53.5165L15.4161 53.1088L15.901 53.0068Z" fill="#F8F3E6"/>
<path d="M24.7241 86.4424L25.209 86.5443H27.9241L28.1181 86.6463L28.215 87.054V92.5585L28.1181 93.0682L28.215 93.6798L28.1181 94.6992V97.5534L27.7302 98.5728L27.6332 98.7766H27.4393L27.3423 99.0824H27.1484L27.0514 99.3883L26.1787 99.796L25.209 99.9999H24.2393H23.9484L22.5908 99.4902L22.4938 99.1844H22.2999L21.912 98.6747V98.3689H21.7181L21.6211 97.5534V96.8399L21.912 96.2282L22.2029 95.7186H22.4938V95.5147L23.5605 95.1069L23.8514 95.005V87.054L23.9484 86.5443L24.7241 86.4424Z" fill="#2A2D23"/>
<path d="M32.7737 86.5439H35.7798L36.6525 86.6459L36.8465 86.8498L36.7495 87.0536V90.9272L36.8465 91.1311L36.7495 91.9466V96.5337L36.5556 98.0627L36.4586 98.3685H36.2646L36.0707 98.7763L35.6828 99.2859L35.004 99.6937L34.4222 99.8976L32.8707 99.9995L31.804 99.7956L30.8344 99.184L30.2525 98.3685L30.0586 97.1453L30.4465 96.2279L30.7374 95.7182L31.3192 95.3104L31.901 95.1066H32.3859L32.4828 94.9027V92.864L32.3859 92.5582L32.4828 91.5388L32.3859 90.5194V88.3788L32.4828 86.7478L32.7737 86.5439Z" fill="#292D23"/>
<path d="M53.2147 0.612305L53.7997 0.735005L54.0337 1.22581L54.5016 1.71661L55.0866 3.80252L55.9056 7.72895L56.3736 10.5511L56.6076 11.7781L56.7246 13.7413L56.4906 13.864L55.3206 13.2505L54.2676 12.8824L52.9807 12.637L50.5238 12.2689L49.4708 12.0235L48.1839 11.9008L47.5989 11.6554L45.9609 11.5327L46.0779 11.0419L46.7799 9.81486L47.4819 8.83325L47.8329 7.85165L48.1839 7.60624L48.4179 6.99274H48.6518L48.8858 6.37924L49.2368 5.64303L49.7048 5.15223L50.4068 4.04792L51.3427 2.69822L51.5767 2.57552L51.8107 2.08471L52.3957 1.47121L52.8637 0.857706L53.2147 0.612305Z" fill="#D3A620"/>
<path d="M6.81801 0L7.43073 0.129119L8.41108 0.903832L8.90126 1.67855L9.88161 2.7115V2.96973L10.2492 3.09885L10.7394 4.1318L11.3521 5.03564V5.29388H11.5972L12.455 6.71418V7.10154L12.8227 7.23066L12.9452 7.74713H13.1903L13.9256 9.29656V9.68392H14.1706L14.5383 10.3295L14.6608 10.7169H14.9059L15.0285 11.1042L14.7834 11.3625H14.0481L13.5579 11.4916L10.9845 12.0081L10.2492 12.1372L9.26889 12.2663L5.83766 13.041L4.61222 13.4284L3.87695 13.5575L3.9995 12.6537L4.12204 10.846L4.36713 9.03832L4.73476 6.8433L5.34748 3.87357L5.71511 2.32414L6.08275 1.03295L6.57292 0.129119L6.81801 0Z" fill="#D3A620"/>
<path d="M35.0041 65.3408H35.489L35.6829 65.7486L35.7799 66.4621L35.6829 67.1757H35.489L35.295 67.6853L35.0041 68.297L34.2284 69.0105L33.3556 69.5202L32.5799 69.6221H31.2223L30.3496 69.4183L29.9617 69.2144V69.0105H29.1859L28.2162 69.5202L27.0526 69.7241H26.5678L26.0829 69.6221L25.4041 69.5202L24.9193 69.1125L24.2405 68.7047L23.7556 68.195L23.2708 67.1757L23.1738 66.1563L23.2708 65.6466L23.1738 65.4428L23.9496 65.5447L24.1435 65.6466L24.4344 66.1563L24.9193 67.1757L25.4041 67.6853L26.2769 67.9912L27.4405 68.195L28.4102 67.7873L29.089 66.9718L29.2829 66.3602L29.5738 66.2582L29.9617 67.1757L30.3496 67.6853L31.1253 68.0931H32.7738L33.6465 67.4815L34.1314 66.8699L34.6162 65.6466L35.0041 65.3408Z" fill="#F7F2E5"/>
<path d="M28.7972 58.6133H30.8335L31.9972 58.9191L32.482 59.2249L32.579 59.8365L32.1911 60.7539L31.9002 61.1617H31.7063L31.5123 61.5694L31.3184 61.8752H31.0275L30.9305 62.181L30.3487 62.6907L29.282 62.9965L28.3123 62.5888V62.3849L27.8275 62.181L27.3426 61.6714L26.4699 60.5501L26.082 59.7346L26.179 59.4288L26.6638 59.021L27.5366 58.7152L28.7972 58.6133Z" fill="#EE5858"/>
<path d="M17.0637 55.5566L17.9364 55.8624L18.4213 56.2702L18.8092 56.8818L19.0031 57.3915V58.4108L18.9061 58.9205H18.7122L18.5182 59.5321L17.9364 60.0418L16.9667 60.3476L16.094 59.9399L15.5122 59.2263L15.3183 59.1244L15.0273 58.105L15.1243 57.3915L15.7061 56.1683L15.997 55.8624L17.0637 55.5566Z" fill="#2B2E23"/>
<path d="M42.1797 55.6582L43.1494 55.7601L43.4403 55.8621V56.0659L43.7312 56.1679V56.3718L44.0222 56.4737L44.41 57.2892L44.507 58.3085L44.2161 59.226L43.8282 59.7356L43.3434 59.9395V60.1434L42.8585 60.2453H42.1797L41.404 59.9395L40.9191 59.3279L40.5312 58.2066L40.6282 57.0853L40.7252 56.7795H40.9191L41.21 56.1679H41.404L41.5009 55.8621L42.1797 55.6582Z" fill="#2C2E23"/>
<path d="M11.3427 64.832H12.5064L13.4761 64.934L14.5427 65.0359L15.3185 65.1378L15.4155 65.4436H15.6094L15.5124 66.0553L15.2215 66.2591L14.3488 66.3611H12.7973L11.4397 66.2591L10.7609 66.0553V65.8514H10.47L10.373 65.2398H10.567V65.0359L11.3427 64.832Z" fill="#EE5858"/>
<path d="M44.797 65.2383H47.5122L47.997 65.3402V65.5441H48.2879L48.4819 65.8499V66.1557L47.8031 66.6654H45.3788L43.7304 66.4615L43.4395 66.0538L43.6334 65.5441L44.0213 65.3402L44.797 65.2383Z" fill="#EE5858"/>
<path d="M13.7678 67.8896H14.7375L15.3193 67.9916L15.5132 68.2974L15.4163 68.8071L15.2223 69.0109L13.6708 69.3168L12.7011 69.4187H11.2466L10.7617 69.2148V68.6032L11.1496 68.1955L12.2163 68.0935L12.6041 67.9916L13.7678 67.8896Z" fill="#EE5858"/>
<path d="M43.7309 68.1953L45.5734 68.2972L47.0279 68.6031L47.6097 68.9089V69.1127L47.8037 69.2147L47.5128 69.7244L46.9309 69.9282L45.1855 69.7244L43.537 69.3166L43.2461 69.1127L43.3431 68.3992L43.7309 68.1953Z" fill="#EE5858"/>
<path d="M37.333 10.2451L37.624 10.3477L38.0117 10.2451H39.5635L42.5693 10.3477H43.7812L44.0244 10.4492H44.7031L44.9453 10.5518H45.9629L46.3516 10.7041L46.6904 10.8066L47.0303 10.9082H47.2236L47.5146 11.0098H48.582L48.8242 11.1123H49.0664L49.3574 11.3154L49.5508 11.5703H49.9395L50.9092 11.6729L51.2002 11.7744L51.7334 11.8252L52.1689 11.9277L52.6543 12.0801H53.1387L53.624 12.2842L53.9629 12.5898L54.3027 12.7432L54.5938 12.998L54.9814 13.2021H55.3691L55.8545 13.5078H56.1455L56.5332 13.6094L56.7266 13.7109H57.0176L57.0664 13.7627L57.3086 14.2207L57.5029 14.3232L57.6963 14.9346H57.8906L58.666 16.5654L58.957 17.6865L59.0547 18.0947L59.3447 19.5215L59.4424 21.2549L59.5391 22.0703V41.6416L59.6357 42.6611L59.5391 43.4766L59.6357 44.1904L59.5391 44.292L59.6357 46.127V47.248L59.6846 47.2988L59.6357 47.3506V49.6943L59.5391 50.5107L59.6357 51.3262V52.2432L59.5391 52.4473V53.0586L59.5879 53.3135V53.415L59.6357 53.5684V54.0781L59.5391 55.5049V56.626L59.6357 57.5439V57.9512L59.7334 58.2578L59.6357 58.2061V59.0215L59.5391 59.124V59.6846L59.4424 59.8887V59.9902L59.5391 60.5V66.0049L59.4424 66.208V67.5332L59.5391 67.7373V68.3486L59.4424 68.5527V69.6738L59.3447 70.3877L59.4424 70.6934L59.248 72.3242V73.1396L59.1514 74.1592V74.873H58.957L59.0547 75.1787L58.666 78.543L58.5693 79.2559V79.46L59.4424 79.2559L60.2178 79.0527L61.1875 78.6445L62.2539 77.8291L62.4482 77.5234H62.6426L62.8359 77.1152L63.2236 76.708L63.5146 76.0967L64 75.1787L64.0967 74.7715L64.3877 73.8535L64.6787 72.2227L64.8721 71.1016H65.0664L64.9697 70.4893L65.4541 68.7568L65.8418 67.8398H66.0361L66.2305 67.2275L66.7148 66.7178L66.8115 66.4121H67.1025L67.2969 66.0049L67.8789 65.6982L67.9756 65.4951L68.8486 65.1895L69.915 64.9854L70.3994 65.0869L70.7871 64.9854L72.1455 65.3926L72.6299 65.6982L72.7266 65.9023L73.1152 66.1064L73.9873 67.2275L74.4727 68.3486L74.666 68.9609L74.7637 70.6934V72.2227L74.666 72.6299L74.5693 73.6494L74.1816 75.1787L73.9873 76.0967H73.7939L73.8906 76.5039L73.5029 77.3193L73.4053 77.7275H73.2119L73.0176 78.3389L72.5332 79.3584H72.3389L72.1455 79.8682L71.9512 80.2754L71.6602 80.4795L71.5635 80.7852L71.1758 81.1934L70.6904 81.8047L70.3994 82.1104H70.2061L70.0117 82.5186L68.9453 83.5371L68.2666 83.9453L68.1689 84.1494L67.5879 84.4551L66.7148 85.0664L65.7451 85.4746L64.9697 85.7803L63.709 86.1875L61.7695 86.3916L60.6055 86.4941L59.248 86.3916L58.957 86.5957L58.7637 86.3916L57.6963 86.29L56.4365 86.0859L55.3691 85.7803V85.5762L55.0781 85.6777L53.915 85.2705L53.624 85.0664L53.333 85.1689H52.8486L52.751 85.3721L52.5576 85.2705L52.46 85.4746L51.2969 85.6777L49.1631 85.9844L48.0967 86.0859H47.2236L46.5449 86.1875H45.5752L45.0908 86.29H44.8965L44.7998 86.3916L44.7031 85.9844L44.6055 86.29L44.7998 86.3916L44.1211 86.4941L43.6357 86.6973L43.0547 86.7998L42.666 86.9014L42.085 87.0029L41.6973 86.8223V86.6455H40.4453L40.4365 86.5703L40.3877 86.5576V86.5566L40.1455 86.4941L38.1084 86.5957H36.9453L36.751 87.0029V90.877L36.8486 91.0811L36.751 91.8965V96.4834L36.5576 98.0127L36.46 98.3184H36.2666L36.0723 98.7256L35.6846 99.2354L35.0059 99.6436L34.4238 99.8477L32.8721 99.9492L31.8057 99.7451L30.8359 99.1338L30.2539 98.3184L30.0605 97.0947L30.4482 96.1777L30.7393 95.668L31.3213 95.2598L31.9023 95.0566H32.3877L32.4844 94.8525V92.8135L32.3877 92.5078L32.4844 91.4883L32.3877 90.4688V88.3281L32.4844 87.0029V86.4941H32.291L32.1934 86.6973L31.5146 86.5957L31.127 86.6973H29.6729L29.4785 86.7998L29.2842 86.5957H28.6055L28.2178 86.6973V92.5078L28.1211 93.0176L28.2178 93.6289L28.1211 94.6484V97.5029L27.7334 98.5225L27.6357 98.7256H27.4424L27.3447 99.0322H27.1514L27.0547 99.3379L26.1816 99.7451L25.2119 99.9492H23.9512L22.5938 99.4395L22.4971 99.1338H22.3027L21.915 98.624V98.3184H21.7207L21.624 97.5029V96.7891L21.915 96.1777L22.2061 95.668H22.4971V95.4639L23.5635 95.0566L23.8545 94.9541V86.9014L23.7578 86.4941H22.9814L22.3027 86.5957L22.2061 86.4941H21.624L21.333 86.5957L21.041 86.5518V86.4424H20.2139L19.7812 86.3916V86.4424H15.9854L16 86.3916L15.2236 86.1875H14.2539L13.8662 86.29L12.9941 86.0859L12.7998 85.9844L12.7031 86.1875L11.7334 86.0859H11.1514L10.8604 85.9844H10.2783L9.59961 85.7803L7.95117 85.6777L6.69043 85.3721L6.30273 85.2705V85.0664H5.52734L4.55762 84.6592L4.36328 84.4551L3.97559 84.251L3.49023 83.9453L2.42383 83.0283V82.8242H2.23047V82.416H2.03613L1.35742 81.0908L1.26074 80.5811L0.87207 79.46L0.582031 77.8291L0.484375 76.5039L0.387695 75.9941V74.7715L0.291016 74.5674V72.9365L0.193359 71.917V70.2861L0.0966797 69.8779V66.3105L0.193359 65.291V64.9854L0.0966797 63.8643V60.2959L0.193359 59.9902L0.145508 59.9395V59.8379L0.0966797 59.7861V58.8691L0.193359 58.5635L0.0966797 58.1553V54.5879L0.193359 54.1797V53.6191L0.0966797 53.5684V52.5996L0.145508 52.498L0.0966797 52.3447L0 52.2432H0.0966797V51.1221L0.193359 50.4082L0.291016 49.5928L0.0966797 49.4912L0.193359 49.2871V48.2676L0.291016 47.8604H0.193359L0.291016 47.707V44.292L0.387695 43.2725V42.8652L0.582031 21.459V20.7451H0.775391L0.678711 20.1338L0.775391 19.4199V18.7061L0.969727 17.9932L1.35742 16.4639L1.74512 15.5459L2.13281 14.833L2.42383 14.3232L2.47266 14.2725H2.66602V14.2207H2.76367L2.81152 14.2725L2.90918 14.2207L2.95703 14.1699L3.00586 14.1191L3.2002 14.0176L3.39355 13.7109L3.97559 13.2021L4.41211 12.7939H4.75098L5.33301 12.6406L7.70898 12.0801L8.14551 11.9785L8.33887 11.8252H8.9209L9.06641 11.7236H9.4541L9.59961 11.6729L9.79395 11.6221L10.1328 11.5703H10.4238L10.8604 11.5195L11.7334 11.3154L11.9756 11.2139H12.46V11.1123H12.7031L12.8965 11.0615L13.1387 10.959H14.1084L14.4971 10.8574L15.1758 10.7041L15.5146 10.6533H16.4365L16.6299 10.6025H16.7754L16.8721 10.5H17.0664L18.8115 10.3477H20.46L20.8486 10.2451H21.2363L22.1084 10.4492L22.2061 10.2451L22.4971 10.3477L22.6904 10.2451L23.5635 10.3477L24.4365 10.2451L24.9209 10.3477L25.3086 10.2451L27.7334 10.1436H34.2305L37.333 10.2451ZM25.5996 13.2021L25.1152 13.0996V13.3037L24.5332 13.2021L22.9814 13.3037H20.9453L19.9756 13.5078L19.8789 13.3037H19.2002L17.5518 13.5078H16.0967L15.709 13.6094H15.0303L14.5449 13.7109L12.8965 13.8135L11.1514 14.0176L9.59961 14.2207L8.9209 14.4248H8.33887V14.6289H7.66016L6.49707 14.9346L5.62402 15.4443V15.6484L5.33301 15.5459L5.13965 15.9541L4.75098 16.1582L4.6543 16.4639L4.2666 16.668L3.97559 17.1768L3.68457 17.7891L3.29688 19.624V20.2354L3.2002 20.3369V20.8467L3.29688 21.0508L3.10254 21.6621V41.3359L3.00586 41.6416V42.9668L2.90918 43.4766L2.81152 44.4961L2.90918 45.0059L2.81152 46.3311V47.3506H2.90918L3.00586 47.9619L2.81152 48.4717L2.71484 48.7773V50.1025L2.61816 50.5107L2.71484 51.3262V54.6895L2.61816 55.6074L2.71484 55.709L2.61816 56.626L2.71484 57.1357L2.70508 57.085L2.71484 57.2383L2.69531 57.4932L2.71484 57.9004L2.81152 58.2061L2.90918 58.4609V58.5635L3.00586 58.8691L2.61816 59.1748V61.2139L2.52051 61.6211L2.61816 62.335V65.4951L2.71484 68.5527V69.9805L2.81152 73.2422V73.8535L2.90918 74.4648V75.8926L3.10254 77.2178V77.7275L3.29688 78.2373L3.39355 79.0527L3.78125 79.9697L4.36328 81.1934L4.84863 81.499H5.23633L5.33301 81.8047L6.01172 82.2119L6.88477 82.416L7.95117 82.7217L9.11523 82.9258L9.50293 83.0283L10.376 83.1299L11.3457 83.2314L11.6357 83.334H13.1875L13.7695 83.4355H14.7393L15.709 83.6396L16.1934 83.5371L17.3574 83.6396H19.7812L20.9453 83.7412V83.5371L21.8184 83.7412L22.5938 83.8438L24.1455 83.7412L24.6299 83.8438H25.8906L26.4727 83.7412L27.7334 83.8438H29.7695L30.2539 83.7412L30.3516 83.8438H32.3877L32.8721 83.9453H33.0664V83.7412L33.6484 83.8438H34.8115L35.1025 83.6396V83.8438H36.9453L37.2363 83.7412H38.5938L39.4668 83.8438H39.7568V83.6396L40.3389 83.7412L42.085 83.6396H43.0547L43.6357 83.5371H45.4785L46.8359 83.334H48L48.3877 83.2314H48.9697L49.4541 83.1299L50.3271 83.0283L53.042 82.3145L54.3027 81.6006L55.0781 80.7852V80.5811H55.2725L55.7568 79.46L56.0479 78.4404L55.9512 78.1348H56.1455L56.3389 77.0137L56.4365 76.0967L56.5332 75.0771L56.7266 73.752L56.6299 72.3242L56.7266 72.0186V70.8975L56.6299 70.6934L56.8242 70.5918V69.3682L56.9209 68.2471V58.8691L56.9697 58.7158L56.9209 58.665L56.9697 58.6143V58.5635L57.0176 58.5127V57.3398L57.0664 57.085L57.0176 56.5244L56.9209 55.0977L57.0176 54.5879L56.9209 53.9766L56.9697 53.8232V53.5684L57.0176 53.3135V47.0449L57.1152 45.3115L57.0176 43.4766L56.9209 43.375L57.0176 42.457L56.9209 41.0303L56.8242 21.6621L56.5332 19.2158L56.0479 17.6865L55.5635 16.668L55.1758 16.2598H54.9814L54.7871 15.8516L54.1084 15.4443L53.8184 15.1387L53.1387 15.0361V14.833L51.8789 14.4248H51.3936L50.7148 14.2207H50.2305L49.9395 14.1191L48.291 13.915L47.0303 13.8135L46.3516 13.7109L46.1572 13.5078L45.7695 13.6094L44.7031 13.5078H44.0244L43.5391 13.4053H42.8604L42.376 13.3037H41.4062L39.7568 13.2021L39.2725 13.3037L39.1758 13.0996L38.3027 13.2021L37.915 13.0996L37.5273 13.2021L36.6543 13.0996L35.9756 13.2021L34.6182 13.0996H30.2539L29.3818 13.3037L29.2842 13.0996H26.2783L25.5996 13.2021Z" fill="#D3A620"/>
<path d="M28.2168 92.2148L28.1201 92.7451L28.2168 93.3809L28.1201 94.4395V97.4062L27.7324 98.4658L27.6357 98.6768H27.4414L27.3447 98.9951H27.1504L27.0537 99.3125L26.1807 99.7363L25.2109 99.9482H23.9502L22.5928 99.4189L22.4961 99.1006H22.3018L21.9141 98.5713V98.2539H21.7197L21.623 97.4062V96.6641L21.9141 96.0293L22.2051 95.499H22.4961V95.2871L23.5625 94.8633L23.8535 94.7578V86.4424H28.2168V92.2148ZM36.751 86.4951V90.5205L36.8477 90.7324L36.751 91.5801V96.3467L36.5566 97.9355L36.46 98.2539H36.2656L36.0713 98.6768L35.6836 99.207L35.0049 99.6309L34.4229 99.8428L32.8721 99.9482L31.8047 99.7363L30.835 99.1006L30.2539 98.2539L30.0596 96.9824L30.4473 96.0293L30.7383 95.499L31.3203 95.0752L31.9023 94.8633H32.3867L32.4834 94.6514V92.5332L32.3867 92.2148L32.4834 91.1562L32.3867 90.0967V87.8721L32.4834 86.4951V86.4424H36.7754L36.751 86.4951ZM42.084 86.4951L41.9756 86.4424H42.3721L42.084 86.4951Z" fill="#292D23"/>
</svg>
